<svg width="450" height="851" viewBox="0 0 450 851" fill="none" xmlns="http://www.w3.org/2000/svg">
<path fill-rule="evenodd" clip-rule="evenodd" d="M470.12 322.519C467.534 325.07 464.051 324.886 460.984 324.851C458.99 324.813 457.027 324.498 454.939 324.909C453.625 325.212 452.172 324.595 450.744 324.471C449.762 324.409 448.72 324.326 447.769 324.179C447.451 326.189 448.7 326.443 450.038 326.632C456.578 327.813 463.147 329.1 469.687 330.281C470.489 330.471 471.26 330.747 472.064 330.745C478.233 330.345 483.628 332.854 489.46 333.395C494.814 333.959 499.792 336.512 505.553 335.193C506.776 334.955 508.143 335.25 509.422 335.418C516.62 336.255 523.819 337.092 530.987 338.015C533.366 338.287 535.622 339.093 537.971 339.451C539.041 339.641 540.144 339.552 541.247 339.464C542.677 339.396 544.199 339.072 545.627 339.196C551.19 339.738 556.721 340.558 562.314 341.207C562.76 341.27 563.294 341.461 563.742 341.331C571.799 339.579 579.278 342.254 587.077 342.534C595.472 342.833 603.835 343.411 612.289 343.731C614.521 343.854 616.818 343.42 619.083 343.265C623.255 343.019 627.457 342.688 631.783 341.822C627.767 341.447 623.75 341.072 619.764 340.612C612.863 339.881 606.022 338.979 599.149 338.355C597.602 338.188 595.99 338.577 594.321 338.752C593.576 338.776 592.77 338.97 591.997 338.887C587.057 338.472 582.089 337.95 577.181 337.449C576.734 337.386 576.198 337.387 575.72 337.602C570.85 339.239 566.362 338.31 561.911 336.718C561.02 336.399 560.01 336.231 559.056 336.276C554.852 336.8 551.138 335.954 547.583 334.103C545.775 333.167 543.669 332.317 541.269 334.162C538.598 336.2 536.865 333.745 534.822 332.532C533.687 332.898 532.462 333.329 530.908 333.931C529.722 333.314 528.449 332.569 527.235 331.846C522.629 333.867 519.949 333.874 514.874 332.155C514.755 332.112 514.608 331.963 514.458 332.006C509.724 331.954 504.991 331.709 500.196 331.828C497.693 331.899 495.281 331.905 493.481 330.199C492.124 328.941 490.877 328.495 488.783 329.484C487.885 329.935 485.93 328.85 484.807 328.062C484.067 327.508 483.811 326.354 483.257 325.094C479.412 328.546 475.29 326.782 471.355 327.112C472.504 325.399 473.47 324.007 474.437 322.615C474.944 322.507 475.48 322.505 475.869 322.355C480.804 320.162 485.299 320.321 489.408 323.432C490.088 323.965 491.037 324.305 491.958 324.538C493.741 324.982 495.556 325.148 497.934 325.613C499.042 324.947 500.552 322.784 502.825 324.852C503.179 325.172 504.161 325.234 504.64 325.019C508.83 322.849 512.985 324.335 517.153 324.474C519.415 324.511 521.232 324.485 522.712 322.407C523.437 321.315 524.785 320.542 526.862 321.285C525.926 322.592 525.111 323.748 524.295 324.905C527.614 326.671 527.554 326.65 529.514 324.165C529.996 323.565 531.011 323.348 531.999 322.833C531.984 324.372 531.944 325.42 531.904 326.467C532.737 326.572 533.24 326.849 533.629 326.698C537.067 325.321 540.189 325.762 543.452 327.122C545.321 327.887 547.704 327.774 549.875 328.068C550.518 326.271 550.947 325.072 551.438 323.51C552.562 324.299 553.868 324.766 553.862 325.343C554.018 327.716 555.77 328.246 557.703 328.455C561.153 328.916 564.664 329.207 568.112 329.861C570.431 330.304 571.836 329.744 573.015 327.946C573.136 327.796 573.612 327.773 573.911 327.687C574.977 328.261 576.044 328.836 576.222 328.899C578.73 328.252 580.315 327.564 581.925 327.367C584.042 327.062 586.215 327.164 588.304 326.752C590.184 326.363 592.012 325.182 593.828 325.156C598.029 325.017 602.164 325.434 606.362 325.488C608.357 325.526 610.415 325.2 611.876 325.046C613.264 323.226 609.833 320.84 614.035 320.508C614.674 322.089 615.314 323.669 615.925 325.143C620.629 325.281 625.027 326.275 629.249 323.827C629.998 323.419 631.189 323.458 632.171 323.52C634.223 323.771 636.212 324.386 638.267 324.445C645.473 324.512 652.761 325.285 660.013 323.727C660.819 323.533 661.713 323.467 662.366 323.7C671.598 326.713 681.33 324.208 690.797 324.505C696.543 324.725 702.479 323.663 708.291 323.135C712.017 322.826 715.746 322.133 719.5 321.931C728.379 321.438 737.287 321.052 746.203 319.896C750.139 319.373 753.933 318.123 758.155 318.861C762.941 319.704 768.159 318.964 773.091 317.156C773.958 316.79 775.028 316.98 775.953 316.828C779.472 316.348 783.019 315.976 786.511 315.198C790.33 314.44 794.036 313.062 797.915 312.325C799.496 312.022 801.217 312.638 802.883 312.847C804.102 312.994 805.201 313.29 806.45 313.544C804.421 316.969 809.429 316.444 809.462 319.159C806.505 323.122 812.318 325.587 811.267 329.459C813.586 329.902 814.577 329.002 815.634 327.545C816.69 326.089 817.785 326.77 818.048 327.347C817.28 329.679 816.727 331.412 815.993 333.467C815.15 334.324 813.026 335.398 812.863 336.788C812.412 340.296 810.368 342.268 807.314 343.879C806.715 344.244 806.38 344.993 805.957 345.614C805.954 345.999 806.04 346.32 806.036 346.704C809.721 344.45 812.652 346.175 815.773 346.808C816.724 346.955 817.833 346.29 818.878 345.988C820.371 345.556 821.805 345.104 823.448 344.629C823.471 348.307 819.543 348.06 817.82 350.63C821.312 349.851 824.168 350.101 826.661 347.999C827.622 347.184 829.325 346.539 830.469 348.396C829.86 349.723 829.546 351.348 828.434 352.399C825.971 354.607 826.25 356.445 828.586 358.15C827.141 359.757 825.671 360.872 824.883 362.328C823.549 364.747 821.774 366.526 819.2 367.922C816.535 369.383 815.44 371.695 815.705 375.072C817.461 375.217 819.597 375.982 821.152 375.379C823.962 374.26 826.365 375.216 828.622 375.83C830.404 376.275 831.597 376.122 833.18 375.626C838.887 373.709 844.594 371.792 850.588 370.943C850.856 370.942 851.122 371.134 851.418 371.24C851.409 372.202 851.4 373.164 851.413 374.811C854.543 374.482 857.405 374.154 861.37 373.738C857.325 376.249 854.15 378.203 851.003 380.263C851.089 380.584 851.234 380.926 851.321 381.246C854.244 380.747 857.108 380.227 860.598 379.641C859.572 381.011 858.848 381.911 858.215 382.747C858.92 383.771 859.507 384.561 860.067 385.243C856.778 389.57 852.575 393.087 850.64 399.057C853.395 397.532 855.55 396.372 857.528 395.149C859.536 393.839 859.418 390.611 863.205 390.131C862.208 391.609 861.483 392.701 860.606 394.029C861.826 394.176 862.658 394.28 863.461 394.471C863.409 396.673 863.36 398.683 863.339 400.799C867.782 400.168 871.927 399.623 877.236 398.819C873.511 402.121 870.594 405.036 867.384 407.46C865.163 409.176 866.402 410.391 867.551 411.671C864.31 414.181 859.901 414.341 857.061 418.539C861.751 417.03 865.666 415.631 869.638 414.445C873.52 413.323 877.52 412.437 882.147 411.292C880.395 413.755 877.407 414.81 878.719 417.693C878.953 418.163 877.36 419.621 876.37 420.329C874.751 421.487 872.63 422.177 871.981 424.552C877.958 425.434 881.693 421.17 886.62 419.747C885.029 421.012 883.379 422.257 881.789 423.522C882.518 425.038 883.993 426.531 880.918 427.266C880.451 426.326 880.041 425.6 879.779 425.024C877.535 426.055 875.68 426.937 873.228 427.991C872.231 429.468 874.576 430.211 875.04 431.535C875.532 432.966 875.247 434.699 875.289 436.452C876.601 436.341 878.555 434.434 879.515 436.804C878.183 439.031 876.851 441.258 875.488 443.571C877.24 444.101 878.813 444.567 881.04 445.267C876.813 448.1 873.127 450.546 869.469 453.1C868.15 453.98 866.77 455.031 865.924 456.273C865.411 456.958 865.815 458.261 865.769 459.886C864.538 460.894 862.708 462.267 860.997 463.683C861.159 462.293 860.451 461.653 859.046 462.212C857.252 462.923 855.547 463.761 854.013 465.24C856.401 464.742 858.847 464.265 861.265 463.682C859.163 465.44 856.437 467.072 858.881 469.974C852.47 473.86 846.032 477.446 842.13 483.678C841.494 484.705 840.208 485.307 839.276 486.229C836.06 489.23 832.52 491.826 829.977 496.13C834.883 493.83 836.634 497.545 839.531 499.74C839.753 498.371 839.819 497.623 840.005 496.917C840.192 496.019 840.439 495.141 840.596 494.328C845.175 492.008 845.175 492.008 850.166 493.214C848.729 494.051 846.579 494.634 846.512 495.383C846.156 498.248 842.959 499.325 842.071 501.808C841.398 503.691 840.075 504.956 837.508 505.582C835.538 506.036 833.823 507.836 831.545 509.338C835.486 511.424 832.999 512.948 830.87 514.407C833.962 514.934 836.727 515.44 839.491 515.946C837.129 516.936 834.826 517.946 832.464 518.936C833.99 521.219 832.974 524.621 836.994 524.611L837.144 524.568C833.862 525.132 830.945 525.054 830.297 521.25C828.743 521.853 827.634 522.518 826.411 522.757C822.532 523.493 822.563 523.408 823.004 527.041C821.848 526.531 820.691 526.021 819.535 525.51C819.353 525.832 819.23 526.174 819.049 526.495C819.903 527.476 821.061 527.794 822.675 527.213C821.653 528.199 820.987 529.312 822.857 529.885C824.134 530.245 825.593 530.284 826.991 530.494C825.913 531.074 824.894 531.676 823.817 532.256C823.933 532.49 824.02 532.811 824.136 533.046C825.272 532.68 826.348 532.292 827.483 531.926C827.249 531.456 827.015 530.986 826.811 530.623C827.595 529.552 828.351 528.374 829.136 527.303C833.383 528.533 833.323 528.512 830.672 531.618C829.859 532.582 829.105 533.568 828.291 534.532C826.982 534.45 825.795 534.025 824.839 534.263C822.569 534.995 821.087 534.272 819.251 533.229C816.023 531.399 813.333 532.368 810.173 535.775C811.389 536.306 812.604 536.838 814.592 537.645C812.013 539.426 810.005 540.736 807.967 542.13C805.838 543.59 803.619 545.113 801.341 546.615C802.257 547.426 802.936 547.958 803.792 548.747C799.361 551.217 795.067 551.805 790.602 551.56C792.193 550.295 793.694 549.093 795.734 547.506C794.666 547.124 793.982 546.976 793.33 546.743C793.362 546.465 793.276 546.144 793.456 546.015C794.842 544.387 796.317 542.694 797.703 541.066C797.914 540.852 798.007 540.402 798.306 540.316C803.68 538.956 806.558 533.903 811.756 532.286C812.359 531.536 812.902 530.765 813.505 530.015C813.268 529.931 812.971 529.824 812.733 529.739C812.427 530.595 812.09 531.537 811.813 532.5C811.31 532.223 810.747 531.925 810.274 531.563C809.801 531.201 809.538 530.624 809.215 530.219C810.57 528.676 812.011 527.454 812.949 525.955C813.766 524.606 814.08 522.98 814.572 521.418C810.253 521.515 807.491 523.809 803.517 531.174C804.111 531.386 805.179 531.768 806.872 532.277C797.12 536.706 792.498 543.452 788.494 550.902C789.297 551.093 790.039 551.262 790.782 551.431C790.419 552.074 790.114 552.737 789.751 553.379C792.475 554.933 792.475 554.933 792.269 557.756C795.715 555.609 799.176 554.916 802.792 556.596C803.208 556.745 803.775 556.658 804.251 556.635C807.944 556.604 810.581 558.03 812.099 561.084C812.071 560.977 812.073 560.784 811.984 560.656C812.067 561.362 812.504 562.387 812.172 562.751C810.79 563.995 809.345 565.602 807.643 566.055C803.91 567.133 801.654 569.512 799.364 572.169C799.625 572.938 799.855 573.793 800.23 574.989C802.143 574.321 803.906 573.697 805.131 573.266C806.375 573.904 807.442 574.479 808.39 575.011C806.169 576.727 804.789 577.778 802.838 579.301C804.738 579.98 805.896 580.298 806.964 580.68C806.948 585.405 802.755 584.774 799.97 586.385C799.65 585.595 799.627 584.911 799.213 584.57C798.415 583.994 797.377 583.527 796.454 583.486C796.127 583.466 795.339 584.921 795.272 585.67C795.142 586.782 795.458 587.957 795.563 589.346C796.787 589.108 797.861 588.913 798.965 588.632C798.425 589.019 797.855 589.49 797.256 589.855C798.288 590.9 799.32 591.945 800.352 592.99C800.505 592.562 800.687 592.241 800.84 591.813C799.956 593.911 798.982 596.072 798.098 598.17L798.069 598.063C797.658 600.523 795.064 600.85 793.318 602.736C792.738 601.177 792.064 600.067 792.044 598.998C792.162 596.047 796.223 597.982 797.199 595.628C795.482 594.627 794.019 594.973 792.61 595.918C789.883 597.742 787.011 599.032 783.527 599.041C782.723 599.043 781.883 599.707 780.956 600.052C785.226 604.958 785.137 608.016 780.769 613.115C779.745 614.294 778.514 615.302 779.42 617.074C779.565 617.416 778.095 618.531 777.433 619.26C777.417 617.806 777.461 616.373 777.509 614.556C775.452 614.689 773.634 614.908 770.802 615.15C772.847 616.171 774.032 616.788 775.336 617.448C774.877 618.732 771.538 619.082 773.779 621.428C775.036 620.72 776.324 619.925 777.672 619.152C776.273 622.127 778.49 623.789 780.939 626.114C778.968 626.76 777.624 627.148 776.1 627.665C776.082 626.404 776.059 625.72 776.044 624.266C773.132 626.604 770.761 628.555 768.33 630.486C768.912 631.852 770.597 633.131 767.421 635.085C767.937 631.021 764.859 632.141 762.598 631.911C761.319 631.743 759.92 631.726 759.847 630.058C758.392 629.634 756.967 629.125 755.334 628.637C757.247 630.963 757.247 630.963 759.847 630.058C759.778 630.999 759.171 632.134 760.835 632.536C761.993 632.853 763.031 633.321 764.159 633.724C763.6 636.035 762.193 636.787 760.282 637.262C757.566 637.932 753.783 638.027 752.487 639.591C750.165 642.526 747.083 641.037 744.805 642.539C744.265 642.925 743.754 643.418 743.157 643.591C740.052 644.411 736.671 646.002 733.906 645.496C730.636 644.905 729.199 645.743 727.273 647.757C726.28 648.85 724.66 650.009 723.29 650.098C718.909 650.365 717.306 652.978 715.964 656.167C719.456 658.381 723.225 653.647 726.921 656.417C723.921 658.627 720.994 659.511 717.774 659.904C716.074 660.164 714.37 660.81 712.697 661.37C712.398 661.457 712.184 662.056 711.972 662.462C713.155 663.272 714.309 663.974 715.552 664.805C711.433 668.835 706.541 666.602 702.508 667.96C702.193 666.592 701.992 665.844 701.791 665.097C699.999 665.614 698.261 666.73 697.043 666.391C691.934 665.143 686.767 666.674 681.735 666.516C680.604 666.497 679.44 666.757 678.335 667.037C673.412 668.076 668.545 669.328 663.623 670.175C654.972 671.714 646.354 672.976 637.702 674.516C634.213 675.102 630.717 676.266 627.169 676.638C621.744 677.208 616.234 677.264 610.841 677.556C608.934 677.646 606.999 677.63 605.06 677.998C601.48 678.648 597.955 679.705 594.377 680.163C589.189 680.818 584.005 681.087 578.79 681.442C573.426 681.841 568.092 682.154 562.699 682.445C557.515 682.715 552.302 682.878 547.089 683.041C543.961 683.177 540.867 682.843 537.854 683.406C531.948 684.383 526.219 682.431 520.222 683.665C516.67 684.422 512.809 683.427 509.116 683.457C503.964 683.449 498.751 683.612 493.569 683.689C487.255 683.748 480.941 683.807 474.717 683.801C473.764 683.846 472.781 683.785 471.769 683.809C463.73 683.636 455.632 683.443 447.562 683.357C442.56 683.305 437.557 683.254 432.557 683.01C427.288 682.767 422.083 682.16 416.697 681.682C414.46 685.129 413.416 685.239 409.38 683.795C405.819 682.522 402.327 680.307 397.903 682.007C396.887 682.416 395.464 681.714 394.275 681.482C393.414 681.27 392.437 680.631 391.662 680.74C386.767 681.886 382.011 680.957 377.28 680.52C370.319 679.768 362.949 681.283 356.458 678.093C356.34 678.05 356.162 677.987 355.953 678.008C349.825 677.361 343.79 676.265 337.687 676.109C329.887 675.83 322.243 674.93 314.661 673.666C307.882 672.593 301.043 671.498 294.138 671.152C289.227 670.844 284.772 669.637 279.75 668.516C280.887 667.958 281.515 667.699 282.652 667.141C281.343 667.058 280.364 666.612 279.915 666.934C277.817 668.307 275.791 668.355 273.626 667.484C272.854 667.208 271.688 667.66 270.766 667.62C267.432 667.393 264.04 667.145 260.737 666.833C258.358 666.561 255.838 665.37 253.66 665.846C250.198 666.539 247.29 665.498 244.229 664.886C242.653 664.612 241.231 663.91 239.686 663.551C229.286 661.183 218.794 659.071 208.487 656.446C195.238 653.059 182.081 649.415 168.924 645.771C150.719 640.707 132.483 635.729 115.617 627.669C114.936 627.329 114.041 627.395 113.27 627.119C108.432 625.485 103.594 623.851 98.8168 622.046C96.1173 620.984 93.6014 619.408 90.9018 618.346C86.9865 616.752 83.01 615.33 79.154 613.758C76.2764 612.632 73.46 611.335 70.6723 610.145C73.1152 610.053 75.1944 610.604 77.2717 611.347C85.8471 614.51 94.3324 617.739 102.908 620.903C108.219 622.899 113.712 624.574 119.023 626.57C126.915 629.586 134.776 632.688 143.186 634.441C144.553 634.737 145.828 635.289 147.165 635.671C148.381 636.202 149.627 636.648 150.783 637.158C152.355 637.817 153.46 637.536 154.015 635.611C151.83 633.671 149.47 634.468 147.105 635.65C147.469 635.007 147.773 634.344 147.955 634.023C143.798 629.736 137.146 630.928 131.7 627.436C139.247 626.177 144.644 628.494 149.651 631.153C152.91 632.898 155.912 633.489 159.585 632.39C161.109 631.873 162.87 631.441 164.327 631.672C168.52 632.303 172.77 633.147 176.81 634.206C177.79 634.46 178.309 636.191 179.261 636.338C182.085 636.865 185.062 636.965 187.472 637.151C187.878 638.262 187.984 639.651 188.548 639.756C192.351 640.73 196.216 641.34 200.198 642.186C200.447 641.116 200.602 640.496 200.787 639.79L200.698 639.854C202.449 640.384 204.171 641 206.012 641.465C207.854 641.931 210.092 641.476 211.505 643.14C210.877 643.399 210.282 643.379 209.746 643.38C209.032 643.318 208.408 643.191 207.693 643.129C213.234 645.98 218.81 648.36 225.879 644.13C223.534 643.388 221.694 642.73 219.733 642.222C217.595 641.65 215.334 641.42 213.195 640.849C203.778 638.542 194.36 636.235 185.002 633.95C179.268 632.575 173.593 631.221 167.859 629.846C166.195 629.444 164.564 628.764 162.931 628.276C157.645 626.772 152.177 625.588 147.013 623.741C140.188 621.3 132.649 621.789 125.789 619.818C123.988 621.298 122.332 620.126 120.848 619.596C114.616 617.367 108.474 615.073 102.273 612.759C100.789 612.228 99.7263 611.268 98.0381 613.368C97.1634 614.503 94.5731 614.446 93.1331 612.482C92.281 611.309 90.4717 610.565 88.9285 610.013C86.8206 609.356 84.4984 609.297 82.3905 608.64C80.2232 607.961 77.6941 607.732 75.3963 605.173C77.6267 605.488 78.7276 605.592 79.7978 605.782C82.1125 606.609 84.3678 607.416 86.6826 608.244C85.162 605.383 82.2981 605.903 79.7078 605.846C74.6436 602.972 69.7306 599.863 64.6052 597.161C60.3987 594.884 55.7999 593.143 51.5322 591.037C42.9394 586.612 34.4058 582.208 25.9642 577.547C17.3158 572.716 8.87988 567.478 0.382655 562.411C0.263981 562.368 0.417007 561.94 0.541398 561.406C1.81841 561.766 2.94602 562.169 4.16367 562.508C4.3455 562.187 4.49677 561.952 4.67861 561.63C2.0153 559.905 -0.619318 558.287 -3.22326 556.583C-3.16203 556.412 -3.10079 556.241 -3.03956 556.07C-1.82004 556.216 -0.541107 556.384 1.74863 556.72C-1.95049 554.335 -4.67136 552.397 -7.57207 550.587C-18.9662 543.325 -30.3297 535.978 -39.7658 526.424C-41.1808 524.952 -43.796 524.403 -44.8818 522.759C-48.6983 517.146 -54.8615 513.976 -59.9412 509.649C-65.2871 505.13 -71.5022 501.169 -73.7261 494.098C-73.8411 493.671 -74.2545 493.33 -74.5494 493.031C-79.0856 487.933 -83.5625 482.856 -88.2193 477.908C-93.8775 471.829 -99.7464 465.964 -105.405 459.886C-110.061 454.937 -114.628 449.925 -118.985 444.698C-121.811 441.37 -124.247 437.698 -126.862 434.156C-119.834 437.153 -116.567 444.114 -109.207 446.747C-109.133 445.229 -109.299 444.01 -110.035 443.071C-113.418 438.868 -116.951 434.708 -120.425 430.569C-120.896 430.015 -121.127 429.353 -121.419 428.669C-121.149 428.476 -120.879 428.283 -120.609 428.09C-115.684 433.037 -109.343 436.271 -103.938 440.811C-98.7391 445.181 -93.5138 449.85 -87.2032 453.169C-87.8141 451.695 -88.7562 450.586 -89.8783 449.605C-101.062 439.136 -112.817 429.139 -123.01 417.77C-132.377 407.274 -141.685 396.801 -150.152 385.662C-154.269 380.327 -158.327 375.014 -162.084 369.422C-163.405 367.501 -164.637 365.516 -165.956 363.403C-162.887 363.246 -161.164 363.669 -160.421 366.831C-159.794 369.759 -157.047 371.996 -153.754 373.271C-152.151 373.844 -150.551 374.61 -149.22 375.568C-142.714 380.213 -136.298 384.921 -129.881 389.63C-129.024 390.226 -128.258 391.08 -127.31 391.612C-126.391 392.037 -125.028 392.718 -124.31 392.395C-121.618 391.234 -120.203 392.706 -118.966 394.113C-112.427 401.473 -103.088 405.682 -95.1936 411.499C-93.0644 413.033 -91.0559 414.717 -88.655 415.865C-83.1715 418.502 -78.8002 422.19 -74.7312 426.349C-73.6111 427.522 -72.0718 428.459 -70.5286 429.011C-68.0071 430.009 -65.3037 430.686 -62.0969 431.64C-73.712 419.569 -85.5739 408.375 -97.9757 397.567C-94.0086 399.951 -90.1007 402.314 -86.1336 404.699C-92.3609 395.906 -101.741 389.751 -108.119 381.194C-107.909 380.98 -107.668 380.68 -107.517 380.444C-105.768 381.359 -104.051 382.36 -102.274 383.381C-111.475 374.105 -120.558 365.063 -129.611 355.935C-123.897 356.241 -123.155 362.589 -117.383 363.109C-116.533 358.489 -117.807 354.751 -120.693 351.401C-123.343 348.329 -125.993 345.257 -128.643 342.185C-125.743 341.002 -126.829 339.359 -127.62 338.014C-131.578 331.674 -135.626 325.399 -139.824 319.167C-143.024 314.45 -146.972 310.141 -149.693 305.209C-152.269 300.619 -155.566 296.736 -159.042 292.79C-162.458 288.865 -165.514 284.682 -168.75 280.628C-167.826 280.476 -167.291 280.667 -166.937 280.987C-160.923 287.193 -154.908 293.4 -148.894 299.606C-146.682 301.845 -144.532 304.256 -142.141 306.366C-140.93 307.475 -139.816 309.225 -136.977 308.213C-139.001 305.075 -140.878 302.087 -142.902 298.949C-139.208 295.733 -140.548 292.743 -142.306 289.797C-142.98 288.687 -143.773 287.535 -144.776 286.597C-148.081 283.484 -151.476 280.435 -154.871 277.386C-155.52 276.768 -156.049 276 -156.608 275.317C-155.534 275.122 -154.999 275.313 -154.527 275.675C-147.256 281.365 -138.147 284.72 -131.298 290.838C-131.003 291.137 -130.469 291.328 -130.053 291.477C-124.911 292.447 -120.467 294.809 -116.864 297.836C-115.011 297.147 -113.607 296.78 -112.261 296.199C-110.257 295.275 -110.009 294.205 -111.424 292.734C-112.337 291.731 -113.88 291.179 -114.129 289.256C-106.628 292.615 -101.533 298.396 -94.0006 301.669C-93.4019 298.311 -94.6658 296.604 -96.7049 295.005C-101.551 291.148 -104.508 285.939 -107.914 281.052C-104.482 283.245 -101.138 285.503 -98.3065 288.254C-90.9002 295.247 -83.494 302.241 -75.2454 308.378C-74.1808 309.144 -72.7333 310.338 -71.6 310.164C-69.2434 309.752 -68.4543 311.289 -67.273 312.291C-66.151 313.272 -65.3007 314.638 -64.0581 315.469C-57.5194 319.835 -50.8909 324.137 -44.2317 328.353C-42.4262 329.482 -40.4388 330.289 -38.5127 331.268C-38.3328 331.139 -38.1816 330.903 -38.0016 330.775C-39.0299 329.345 -40.0276 327.829 -41.7318 325.482C-39.4746 326.096 -38.1957 326.264 -37.1886 326.817C-34.376 328.499 -31.8945 330.545 -29.0207 332.056C-23.9546 334.737 -19.1927 338.082 -12.9439 338.579C-12.7658 338.643 -12.5572 338.621 -12.3773 338.492C-9.982 340.218 -7.52741 341.965 -5.16275 343.776C-5.04214 343.626 -4.86218 343.497 -4.71096 343.262C-5.70111 340.976 -6.69125 338.691 -7.91699 336.129C-6.2226 336.445 -4.97434 336.699 -3.78545 336.931C1.98299 337.836 7.93699 338.034 12.7563 341.593C14.1751 342.679 16.2868 342.952 18.0367 343.674C18.098 343.503 18.2185 343.353 18.2798 343.182C17.3051 342.351 16.2712 341.498 15.266 340.752C15.3865 340.602 15.5378 340.367 15.6583 340.217C20.1691 341.83 24.7104 343.358 29.3399 345.014C29.468 344.094 29.5942 343.367 29.7204 342.64L29.6304 342.704C31.3823 343.234 33.2241 343.7 34.9758 344.23C35.9848 344.591 37.0188 345.444 37.9721 345.398C41.9963 345.003 44.6558 347.113 47.2867 349.116C49.0597 350.523 50.8364 351.545 53.3404 351.282C54.6712 352.24 55.9101 353.456 57.3938 353.987C66.6509 357.491 75.9997 360.738 85.2873 364.157C87.4239 364.921 89.4994 365.857 91.6973 366.45C86.6138 362.507 70.7706 356.454 53.2199 351.432C52.0979 350.451 51.0371 349.299 49.7945 348.469C44.4067 345.19 38.9594 341.89 33.4816 338.675C24.8657 333.566 15.4937 329.634 7.965 322.983C5.21923 320.553 1.54134 319.044 -1.71551 317.107C-7.40008 313.722 -12.9029 310.016 -18.7386 306.866C-35.2389 297.971 -50.9257 288.112 -65.2555 276.518C-68.476 273.918 -71.6066 271.253 -74.7372 268.589C-71.674 269.009 -69.0031 269.964 -66.4835 271.155C-61.0575 273.578 -55.7522 276.152 -50.2956 278.49C-49.3766 278.915 -47.8834 278.484 -46.6601 278.245C-44.8108 277.941 -43.0727 276.825 -41.2403 278.253C-37.633 280.895 -33.8745 283.301 -30.116 285.708C-28.7547 286.581 -27.3034 287.39 -25.9421 288.263C-25.7315 288.049 -25.5803 287.813 -25.3698 287.599C-29.1226 284.615 -32.9348 281.61 -36.657 278.541C-34.8115 278.622 -33.387 279.131 -32.0545 279.897C-29.0351 281.75 -26.1974 283.923 -23.1474 285.69C-20.2754 287.393 -17.5872 289.61 -13.7755 289.622C-11.3166 293.977 -6.20292 294.841 -1.91025 297.438C-3.20708 293.016 -8.15074 289.992 -13.8655 289.686C-12.4241 288.464 -12.0835 287.137 -13.6192 285.816C-14.3582 285.262 -15.0073 284.643 -15.7158 284.004C-6.60625 287.359 8.18361 291.49 11.195 291.119C7.94004 288.989 4.92251 286.945 1.90499 284.9C1.31331 284.495 0.516839 283.728 0.610554 283.278C1.71654 279.812 -1.56662 280.569 -2.95485 279.396C-3.64771 280.21 -4.13005 280.81 -4.8842 281.796C-8.48961 278.961 -12.5486 276.834 -15.0188 273.633C-16.9892 271.094 -19.2371 269.517 -21.9022 267.985C-27.0546 264.983 -32.025 261.661 -37.3228 258.317C-34.865 256.686 -33.2281 256.789 -31.392 257.832C-26.4771 260.749 -21.4722 263.601 -16.4061 266.282C-12.9693 268.09 -9.47132 269.728 -5.91396 271.386C0.668445 274.32 7.25074 277.254 13.8944 280.016C20.2412 282.673 26.7088 285.179 33.1169 287.664C33.8291 287.919 34.57 288.281 35.2516 288.621C41.1811 291.321 47.1393 294.128 53.0688 296.828C53.6911 297.148 54.767 296.76 56.4364 296.585C55.4024 295.732 55.0807 295.134 54.5753 295.05C50.2982 293.907 47.2038 290.579 42.5038 290.057C40.1834 289.806 38.1117 288.486 36.7923 286.372C36.1182 285.262 34.9368 284.26 33.6904 283.815C30.6654 282.539 27.3973 281.757 24.4622 280.417C17.4357 277.228 9.19944 275.923 3.41494 270.572C2.85394 270.081 2.11297 269.72 1.34144 269.444C-8.12425 265.962 -15.8386 260.016 -24.2477 255.077C-29.1626 252.161 -33.4134 248.323 -39.3542 246.778C-40.9586 246.397 -42.5842 245.14 -43.4057 243.88C-46.1057 239.825 -50.2815 237.462 -54.6985 235.4C-55.6176 234.974 -56.3835 234.121 -57.1513 233.46C-56.9407 233.246 -56.7896 233.011 -56.5791 232.796C-54.7373 233.262 -52.9548 233.706 -50.7263 234.214C-50.9543 233.167 -50.8299 232.632 -51.1247 232.333C-52.5953 230.456 -54.1561 228.642 -55.6267 226.765C-56.9805 225.122 -59.4713 224.038 -59.6461 220.596C-56.2187 223.367 -53.1707 225.326 -50.8423 227.8C-43.6196 235.308 -35.2505 241.294 -25.4688 245.951C-22.7711 247.206 -19.2312 247.603 -17.3108 249.159C-12.5546 253.081 -5.03113 251.138 -0.877904 255.809C-0.730424 255.959 -0.282431 255.829 0.0449019 255.85C3.61919 255.777 6.5543 257.116 9.33628 258.884C10.1654 259.373 11.2661 259.477 12.2158 259.817C12.457 259.517 12.6388 259.196 12.8494 258.982C11.4612 257.809 10.073 256.637 8.59481 255.529C5.69603 253.526 2.82778 251.439 -0.252838 249.757C-6.2361 246.459 -12.3706 243.395 -18.415 240.268C-20.904 238.992 -23.1519 237.415 -25.6103 236.053C-30.2915 233.606 -35.0034 231.245 -39.6541 228.713C-40.8985 228.074 -42.3498 227.266 -42.1185 224.935C-40.9315 225.359 -40.07 225.571 -39.3597 226.018C-37.6729 227.104 -36.2883 228.661 -34.5096 229.491C-26.3591 233.468 -18.1474 237.274 -9.84576 241.016C-8.18577 241.803 -6.16219 241.947 -4.22859 242.156C-3.72316 242.24 -3.00155 241.533 -2.07309 240.996C-7.64844 238.616 -12.7796 236.491 -17.8494 234.195C-18.8278 233.748 -20.0128 233.131 -20.3615 232.234C-21.8726 228.411 -25.1695 227.521 -29.4004 227.746C-29.5676 223.535 -32.5889 221.875 -35.8476 220.13C-38.4247 218.725 -40.4889 216.635 -42.7942 214.845C-40.1771 215.202 -38.0117 216.073 -36.0281 217.265C-31.5861 219.82 -27.1441 222.374 -22.8534 225.164C-20.3088 226.846 -17.7435 226.412 -15.7892 224.505C-13.7754 222.618 -12.2305 222.978 -10.1244 223.827C-7.66225 224.805 -5.11388 226.102 -2.49489 226.267C0.897567 226.515 3.7465 227.534 6.5016 229.002C8.69389 230.172 10.7043 231.664 12.9578 232.663C16.0115 234.045 18.7592 236.283 22.4216 236.338C24.967 231.842 26.6382 231.474 31.019 234.199C33.0906 235.52 35.281 236.882 37.657 237.539C41.9034 238.768 46.303 239.57 50.6738 240.264C55.2227 241.022 59.9878 240.989 64.4142 242.089C68.5439 243.084 72.3267 242.989 76.1591 240.884C76.3984 240.776 76.7852 240.818 76.3678 240.862C79.5365 242.671 81.9875 244.803 84.8976 245.651C90.4804 247.261 96.398 248.123 102.163 249.413C103.084 249.645 103.974 249.964 104.895 250.197C111.638 251.933 118.346 254.139 125.275 255.169C128.516 255.653 131.459 256.223 134.245 257.605C134.629 257.84 135.164 258.031 135.55 258.072C141.774 258.078 147.106 260.951 153.235 261.598C158.858 262.161 164.199 264.072 169.696 265.362C173.261 266.251 176.766 267.119 180.331 268.008C183.362 268.705 186.419 269.702 189.574 269.865C195.616 270.192 201.077 272.145 206.721 273.585C208.563 274.051 210.435 274.431 212.277 274.896C216.288 275.848 220.268 276.886 224.279 277.838C227.072 278.451 229.837 278.957 232.63 279.57C234.057 279.887 235.393 280.268 236.819 280.585C241.158 281.558 245.835 281.396 249.622 283.91C250.332 284.357 251.433 284.461 252.385 284.608C254.406 284.945 256.428 285.282 258.955 285.703C260.368 284.374 262.156 284.241 264.528 285.283C267.078 286.388 270.023 286.766 272.818 287.186C274.661 287.459 276.147 287.798 277.294 289.27C278.648 290.913 280.67 291.25 283.078 291.628C286.587 292.111 289.922 292.146 293.472 291.581C294.664 291.428 295.94 291.981 297.157 292.32C299.326 292.806 301.404 293.549 303.603 293.95C308.034 294.665 312.89 294.375 316.896 295.904C322.682 298.07 329.022 298.311 334.718 300.541C337.952 301.795 341.729 302.277 344.421 304.109C348.03 306.558 351.752 306.634 355.836 306.26C357.028 306.108 358.637 306.104 359.404 306.764C360.942 307.894 362.393 308.702 364.104 307.287C365.576 305.979 366.248 304.288 365.403 302.345C364.879 301.192 364.892 299.845 364.694 298.712C365.173 298.497 365.353 298.369 365.472 298.411C370.31 300.045 374.449 303.07 380.107 303.163C382.042 303.18 383.842 304.885 386.094 306.077C385.016 306.657 384.505 307.15 384.237 307.151C381.386 306.324 378.505 305.583 375.776 304.414C372.129 302.82 369.943 304.065 369.545 308.171C372.567 309.831 376.646 309.842 378.789 313.022C379.23 313.663 381.55 313.913 382.329 313.42C384.936 311.745 386.86 312.916 389.146 313.638C391.67 314.444 394.346 314.822 396.992 315.285C397.616 315.412 398.541 315.26 398.836 315.559C400.571 317.82 403.46 317.792 406.017 318.127C412.023 319.117 418.031 319.914 424.039 320.711C424.603 320.817 425.231 320.559 427.111 320.169C424.888 319.084 423.707 318.083 422.369 317.894C419.009 317.368 416.279 316.391 415.057 313.444C410.173 313.435 405.771 312.826 401.288 311.512C397.041 310.282 392.825 308.967 387.863 307.868C392.294 305.398 395.777 305.582 399.244 307.305C400.607 307.986 402.273 308.195 403.787 308.64C405.777 309.255 407.766 309.87 410.379 310.612C412.569 308.982 414.801 309.104 417.158 311.685C418.307 312.965 420.836 313.194 422.827 313.616C426.423 314.42 430.02 315.031 433.646 315.748C434.717 315.938 435.785 316.32 436.916 316.339C441.352 316.477 444.95 320.081 449.82 318.444C449.97 318.401 450.324 318.721 450.5 318.977C451.649 320.257 453.199 320.039 454.926 320.077C459.364 320.023 464.108 319.113 467.799 322.268C468.341 321.69 468.732 321.347 468.913 321.025C469.157 320.533 469.191 320.063 469.375 319.549C474.371 320.178 474.371 320.178 474.843 323.726C473.229 321.314 471.984 320.676 470.12 322.519ZM567.486 661.952C569.684 662.545 572.083 663.885 573.336 660.568C574.791 660.992 576.246 661.416 577.701 661.84C577.793 661.583 577.856 661.22 577.948 660.963C576.461 660.817 574.883 660.736 573.336 660.568C571.336 661.108 569.456 661.498 567.486 661.952ZM344.343 665.36C349.903 666.286 355.543 668.111 361.145 667.797C366.628 667.441 371.826 668.818 377.28 668.355C379.903 668.135 382.604 669.004 385.252 669.276C388.583 669.695 391.886 670.007 395.186 670.512C401.014 671.438 406.978 670.674 412.813 670.831C416.148 670.865 419.73 670.022 422.506 672.367C422.831 672.58 423.427 672.6 423.904 672.577C430.813 672.538 437.753 672.414 444.603 672.354C445.517 670.171 444.332 669.554 442.724 669.558C440.789 669.541 438.821 669.803 436.885 669.786C426.434 669.62 416.111 668.535 405.693 668.091C392.506 667.525 379.323 666.575 366.139 665.625C359.741 665.171 353.316 664.418 346.949 663.878C345.52 663.753 344.09 663.821 342.66 663.889C342.718 664.102 342.685 664.38 342.743 664.594C343.246 664.871 343.779 665.254 344.343 665.36ZM796.51 504.724C798.522 503.03 800.323 501.55 802.605 499.663C802.93 499.876 803.759 500.365 804.824 501.132C806.926 499.374 809.089 497.444 811.521 495.321C807.349 492.574 802.995 490.148 796.927 492.515C792.712 494.193 791.853 496.782 794.736 500.324C794.135 500.881 793.444 501.503 792.813 502.146C792.212 502.704 791.701 503.197 790.979 503.904C792.151 505.868 793.294 507.725 794.671 510.052C796.262 508.786 797.611 507.821 799.472 506.362C797.961 505.532 797.251 505.085 796.51 504.724ZM205.918 648.093C204.005 648.761 201.815 650.391 200.651 647.658C197.222 648.073 194.599 645.3 190.988 646.036C189.974 646.252 188.431 645.7 187.694 644.954C185.066 642.566 181.963 643.194 178.117 643.653C179.358 644.676 180.032 645.786 181.012 646.04C184.753 647.185 188.646 648.094 192.478 648.982C198.331 650.4 204.215 651.732 210.067 653.15C219.278 655.286 228.579 657.357 237.79 659.493C238.236 659.556 238.712 659.534 239.312 659.169C234.242 656.873 228.47 656.353 222.682 654.379C223.995 654.077 224.801 653.882 225.607 653.688C218.527 652.893 211.013 653.874 205.918 648.093ZM766.549 328.332C768.732 330.465 770.293 332.278 772.154 333.813C772.715 334.303 773.934 334.45 774.859 334.298C778.736 333.753 782.583 333.102 786.431 332.451C787.207 332.342 788.103 332.083 788.704 331.526C789.485 330.84 790.509 329.661 790.336 329.02C790.137 328.08 789.044 327.206 788.067 326.567C787.535 326.184 786.492 326.294 785.747 326.317C781.962 326.604 778.116 327.063 774.302 327.244C773.23 327.246 772.166 326.479 770.416 325.757C769.246 326.594 767.958 327.388 766.549 328.332ZM-98.3122 389.336C-88.2732 398.141 -79.3464 407.995 -68.2852 415.814C-67.841 416.069 -67.0657 415.96 -66.2329 416.065C-67.0968 413.053 -68.6537 410.855 -71.5294 409.536C-77.727 406.837 -81.7882 401.908 -86.5713 397.687C-91.3543 393.466 -95.8675 389.052 -100.561 384.767C-100.83 384.96 -101.072 385.26 -101.342 385.453C-100.283 386.797 -99.5223 388.228 -98.3122 389.336ZM31.9762 312.938C26.1329 310.558 20.3491 308.2 14.6569 305.584C13.1444 304.947 11.7256 303.86 10.7547 302.644C8.90115 300.34 6.3165 299.705 2.95655 299.179C5.62596 303.32 9.65626 305.341 13.7515 306.805C18.9745 308.674 23.4739 311.441 28.1226 314.166C30.6098 315.635 33.4299 316.547 36.4244 317.908C36.1865 314.83 34.111 313.895 31.9762 312.938ZM476.392 670.884C476.359 671.162 476.298 671.333 476.266 671.611C477.244 672.057 478.132 672.568 479.172 672.843C480.627 673.267 482.494 674.225 483.631 673.666C487.159 672.225 490.243 673.521 493.488 673.62C497.924 673.758 502.368 673.127 506.809 672.688C507.435 672.622 508.067 671.979 508.696 671.529C508.58 671.294 508.463 671.059 508.346 670.824C497.684 670.872 487.023 670.921 476.392 670.884ZM289.221 656.263C285.65 655.952 282.185 654.036 278.176 655.885C279.214 656.353 280.248 657.205 281.289 657.288C292.215 657.624 302.453 661.382 313.441 661.354C313.535 660.905 313.539 660.52 313.633 660.071C305.486 658.702 297.434 656.884 289.221 656.263ZM826.155 506.252C827.095 504.561 829.293 502.161 826.999 499.216C823.249 502.026 819.56 504.665 815.988 507.539C815.358 507.99 815.318 509.038 814.74 510.279C819.54 509.775 824.035 509.935 826.155 506.252ZM155.96 637.658C161.765 640.893 167.974 642.438 175 642.634C174.382 641.93 173.853 641.162 173.143 640.715C171.782 639.842 170.3 639.118 168.787 638.481C168.016 638.205 166.976 637.93 166.229 638.145C163.632 638.857 161.824 637.921 160.296 635.83C158.562 636.561 157.396 637.013 155.96 637.658ZM288.027 650.43C288.209 650.108 288.36 649.873 288.542 649.552C287.862 649.019 287.215 648.208 286.382 648.103C279.366 646.945 272.349 645.787 265.271 644.8C263.605 644.591 261.875 644.937 260.177 645.006C260.203 645.305 260.2 645.69 260.167 645.968C269.504 647.376 278.751 648.85 288.027 650.43ZM51.66 364.776C46.023 359.574 38.3878 357.712 31.0837 355.486C37.1438 360.067 44.023 363.107 51.66 364.776ZM316.183 661.176C320.686 663.56 328.181 664.503 340.097 664.13C334.878 661.877 319.736 660.227 316.183 661.176ZM449.892 670.48C452.406 672.248 454.258 674.745 458.299 672.618C460.274 671.587 463.246 672.264 465.807 672.214C467.505 672.146 469.173 672.163 470.9 672.202C470.965 671.646 470.999 671.175 471.064 670.619C463.977 670.594 456.949 670.591 449.892 670.48ZM735.283 599.163C738.482 597.893 741.858 596.687 745.118 595.247C746.883 594.43 748.384 593.229 750.002 592.263C749.826 592.006 749.68 591.665 749.504 591.409C743.546 591.595 736.749 595.439 735.283 599.163ZM45.3177 523.066C44.8491 525.312 46.9339 525.285 48.3277 525.88C45.7761 527.96 48.9024 528.017 50.0531 529.104C50.9966 527.028 51.9707 524.866 53.1285 522.191C50.0616 522.156 47.7987 522.119 45.6851 522.038C45.4096 522.809 45.3483 522.98 45.3177 523.066ZM520.876 671.541C525.622 673.431 529.614 673.314 533.707 671.979C529.977 669.679 526.173 668.898 520.876 671.541ZM436.963 320.7C434.842 321.39 433.504 321.201 431.819 319.922C430.105 318.537 428.668 319.374 427.663 321.622C431.947 321.996 436.381 322.326 440.725 322.722C440.819 322.272 440.942 321.93 441.035 321.481C439.728 321.206 438.098 320.334 436.963 320.7ZM865.921 450.479C861.634 450.297 861.634 450.297 856.135 455.378C859.074 456.333 860.241 455.689 865.921 450.479ZM241.236 648.175C245.435 651.222 249.361 651.661 253.243 650.539C250.134 648.751 246.361 647.884 241.236 648.175ZM71.763 596.053C67.3423 594.375 64.6003 591.56 59.5441 590.91C62.9946 594.365 66.1002 596.537 71.763 596.053ZM276.821 654.435C272.065 653.506 268.171 652.789 263.771 651.988C266.544 654.717 272.904 656.027 276.821 654.435ZM89.6885 319.099C87.3389 315.748 84.6126 314.387 80.7934 315.145C84.0558 316.505 85.9055 319.194 89.6885 319.099ZM-39.9456 438.212C-41.313 434.923 -45.6881 431.62 -51.3821 429.197C-48.349 432.696 -44.2326 435.037 -39.9456 438.212ZM17.2579 569.509C20.2335 572.794 24.6274 574.172 28.6864 576.3C26.1931 572.415 21.1063 571.851 17.2579 569.509ZM240.496 647.621C237.515 644.913 234.2 645.948 230.394 645.359C233.582 648.237 236.589 648.251 240.496 647.621ZM511.17 671.351C513.99 672.264 513.99 672.264 518.139 671.334C515.837 669.159 513.655 670.02 511.17 671.351ZM355.61 676.534C355.612 676.342 355.673 676.171 355.644 676.064C351.628 675.689 347.521 675.379 343.505 675.004C343.443 675.175 343.441 675.368 343.47 675.474C347.487 675.849 351.503 676.224 355.61 676.534ZM536.019 670.006C538.832 671.688 541.037 671.511 544.213 669.557C541.77 669.649 539.297 669.826 536.019 670.006ZM54.911 589.639C55.0928 589.318 55.2153 588.975 55.3971 588.654C53.3504 587.825 51.2443 586.976 49.2282 586.061C49.0158 586.468 48.8321 586.982 48.6197 587.388C50.697 588.131 52.7743 588.875 54.911 589.639ZM793.71 574.877C790.824 574.521 790.067 575.891 789.272 577.924C792.837 578.813 792.621 576.612 793.71 574.877ZM116.288 327.648C115.416 325.405 113.902 324.96 112.02 325.542C111.867 325.97 111.804 326.333 111.651 326.761C113.196 327.121 114.771 327.395 116.288 327.648ZM830.028 506.093C831.939 505.617 833.402 505.272 835.701 504.646C832.448 502.324 832.448 502.324 830.028 506.093ZM799.801 317.345C799.96 316.339 800.385 315.526 800.09 315.227C799 313.969 797.603 313.758 795.535 315.046C796.987 315.855 798.113 316.451 799.801 317.345ZM67.9084 311.115C68.0596 310.88 68.182 310.537 68.3332 310.302C66.2866 309.473 64.2704 308.559 62.2237 307.73C62.0706 308.158 61.9482 308.501 61.7951 308.929C63.8724 309.672 65.8904 310.394 67.9084 311.115ZM801.687 325.55C803.185 324.541 804.265 323.769 805.764 322.76C801.724 321.701 801.724 321.701 801.687 325.55ZM81.4474 601.544C84.235 602.734 86.0136 603.564 87.8823 604.329C88.0047 603.986 88.1578 603.558 88.3397 603.237C86.2873 602.986 85.3297 600.423 81.4474 601.544ZM780.732 580.276C778.594 579.704 777.376 579.366 776.069 579.091C775.916 579.519 775.793 579.861 775.64 580.289C776.548 581.869 777.978 581.801 780.732 580.276ZM9.26182 561.918C7.44072 559.336 7.44067 559.336 4.22066 559.729C5.7619 560.473 7.21515 561.089 9.26182 561.918ZM800.227 578.367C798.136 578.971 796.793 579.359 795.389 579.726C797.168 580.555 798.771 581.129 800.227 578.367ZM91.5463 345.348C91.7205 345.797 91.8049 346.31 92.1017 346.416C92.9326 346.713 93.8841 346.86 95.5784 347.177C94.5595 344.785 93.6443 343.975 91.5463 345.348ZM130.313 330.733C130.101 331.14 129.919 331.461 129.766 331.889C131.101 332.463 132.376 333.016 133.71 333.59C133.953 333.097 134.166 332.691 134.468 332.22C133.074 331.624 131.678 331.222 130.313 330.733ZM119.119 327.405C118.968 327.641 118.907 327.812 118.755 328.048C120.415 328.834 122.104 329.728 123.764 330.515C123.858 330.066 124.011 329.638 124.105 329.189C122.443 328.594 120.781 328 119.119 327.405ZM-109.528 369.973C-109.888 370.231 -110.248 370.488 -110.579 370.853C-109.785 371.813 -108.931 372.794 -108.136 373.754C-107.686 373.432 -107.265 373.004 -106.815 372.682C-107.7 371.786 -108.584 370.89 -109.528 369.973ZM98.5012 343.685C98.6524 343.449 98.8035 343.213 98.9548 342.978C97.6509 342.318 96.3471 341.659 95.0432 340.999C94.8308 341.406 94.6776 341.834 94.4652 342.241C95.8609 342.644 97.1955 343.217 98.5012 343.685ZM-6.75147 277.845C-6.25029 275.321 -7.13874 274.81 -9.55847 275.586C-8.76007 276.161 -7.99221 276.822 -6.75147 277.845ZM10.5906 563.069C11.5652 563.901 11.7414 564.157 11.9788 564.242C12.4823 564.518 13.0146 564.902 13.6388 565.028C13.9948 565.156 14.5022 565.048 14.9483 565.111C15.0708 564.768 15.1932 564.426 15.3157 564.083C14.0674 563.83 12.8497 563.491 10.5906 563.069ZM762.005 622.527C761.947 622.313 761.861 621.993 761.804 621.779C760.938 621.952 760.042 622.211 759.177 622.385C759.263 622.705 759.35 623.026 759.436 623.346C760.272 623.066 761.109 622.786 762.005 622.527ZM4.91477 342.553C6.70899 344.836 8.06048 343.678 9.40999 342.713C8.15986 342.652 6.90966 342.591 4.91477 342.553ZM96.0162 320.686C96.0699 321.285 96.6003 321.861 97.1631 322.159C97.4599 322.265 98.151 321.643 98.6889 321.449C98.3365 320.937 98.0741 320.36 97.0496 318.546C96.4735 319.595 95.9318 320.173 96.0162 320.686ZM41.4404 307.441C41.6222 307.12 41.804 306.799 41.9858 306.477C40.8294 305.967 39.6731 305.457 38.5472 304.861C38.3348 305.268 38.0936 305.568 37.8812 305.975C39.0376 306.485 40.2534 307.016 41.4404 307.441ZM179.761 639.992C179.853 639.736 180.004 639.5 180.096 639.243C178.999 638.754 177.812 638.33 176.715 637.841C176.502 638.248 176.349 638.676 176.137 639.082C177.354 639.421 178.513 639.739 179.761 639.992ZM250.458 661.321C250.489 661.236 250.519 661.15 250.58 660.979C249.956 660.852 249.363 660.64 248.798 660.535C248.114 660.387 247.429 660.431 246.715 660.369C246.652 660.732 246.619 661.01 246.556 661.374C247.837 661.349 249.177 661.346 250.458 661.321ZM817.894 513.628C817.951 513.841 818.068 514.076 818.126 514.29C818.872 514.074 819.619 513.858 820.276 513.707C820.13 513.365 820.044 513.045 819.898 512.703C819.24 513.047 818.552 513.284 817.894 513.628ZM780.717 603.153C780.66 602.939 780.602 602.725 780.514 602.597C779.678 602.877 778.841 603.157 777.976 603.331C778.181 603.693 778.386 604.056 778.531 604.398C779.28 603.99 779.969 603.561 780.717 603.153ZM867.625 431.49C867.652 431.789 867.65 431.981 867.677 432.281C868.452 432.172 869.197 432.148 869.972 432.04C869.945 431.74 869.947 431.548 869.92 431.249C869.176 431.272 868.4 431.381 867.625 431.49ZM329.464 655.114C329.466 654.921 329.527 654.75 329.529 654.558C328.31 654.411 327.06 654.35 325.84 654.204C325.779 654.375 325.777 654.567 325.775 654.76C326.995 654.906 328.214 655.053 329.464 655.114ZM828.255 510.865C828.344 510.8 828.051 510.309 827.906 509.968C827.546 510.225 827.157 510.376 826.826 510.74C826.736 510.805 826.941 511.167 827.087 511.509C827.506 511.273 827.954 511.143 828.255 510.865ZM5.23705 279.14C5.38821 278.905 5.53948 278.669 5.66003 278.519C4.91906 278.158 4.17814 277.796 3.43718 277.435C3.28597 277.67 3.13486 277.906 3.01427 278.056C3.81454 278.438 4.55539 278.8 5.23705 279.14Z" fill="white"/>
</svg>
