<svg width="1162" height="851" viewBox="0 0 1162 851" fill="none" xmlns="http://www.w3.org/2000/svg">
<path fill-rule="evenodd" clip-rule="evenodd" d="M717.12 322.519C714.534 325.07 711.051 324.886 707.984 324.851C705.99 324.813 704.027 324.498 701.939 324.909C700.625 325.212 699.172 324.595 697.744 324.471C696.762 324.409 695.72 324.326 694.769 324.179C694.451 326.189 695.7 326.443 697.038 326.632C703.578 327.813 710.147 329.1 716.687 330.281C717.489 330.471 718.26 330.747 719.064 330.745C725.233 330.345 730.628 332.854 736.46 333.395C741.814 333.959 746.792 336.512 752.553 335.193C753.776 334.955 755.143 335.25 756.422 335.418C763.62 336.255 770.819 337.092 777.987 338.015C780.366 338.287 782.622 339.093 784.971 339.451C786.041 339.641 787.144 339.552 788.247 339.464C789.677 339.396 791.199 339.072 792.627 339.196C798.19 339.738 803.721 340.558 809.314 341.207C809.76 341.27 810.294 341.461 810.742 341.331C818.799 339.579 826.278 342.254 834.077 342.534C842.472 342.833 850.835 343.411 859.289 343.731C861.521 343.854 863.818 343.42 866.083 343.265C870.255 343.019 874.457 342.688 878.783 341.822C874.767 341.447 870.75 341.072 866.764 340.612C859.863 339.881 853.022 338.979 846.149 338.355C844.602 338.188 842.99 338.577 841.321 338.752C840.576 338.776 839.77 338.97 838.997 338.887C834.057 338.472 829.089 337.95 824.181 337.449C823.734 337.386 823.198 337.387 822.72 337.602C817.85 339.239 813.362 338.31 808.911 336.718C808.02 336.399 807.01 336.231 806.056 336.276C801.852 336.8 798.138 335.954 794.583 334.103C792.775 333.167 790.669 332.317 788.269 334.162C785.598 336.2 783.865 333.745 781.822 332.532C780.687 332.898 779.462 333.329 777.908 333.931C776.722 333.314 775.449 332.569 774.235 331.846C769.629 333.867 766.949 333.874 761.874 332.155C761.755 332.112 761.608 331.963 761.458 332.006C756.724 331.954 751.991 331.709 747.196 331.828C744.693 331.899 742.281 331.905 740.481 330.199C739.124 328.941 737.877 328.495 735.783 329.484C734.885 329.935 732.93 328.85 731.807 328.062C731.067 327.508 730.811 326.354 730.257 325.094C726.412 328.546 722.29 326.782 718.355 327.112C719.504 325.399 720.47 324.007 721.437 322.615C721.944 322.507 722.48 322.505 722.869 322.355C727.804 320.162 732.299 320.321 736.408 323.432C737.088 323.965 738.037 324.305 738.958 324.538C740.741 324.982 742.556 325.148 744.934 325.613C746.042 324.947 747.552 322.784 749.825 324.852C750.179 325.172 751.161 325.234 751.64 325.019C755.83 322.849 759.985 324.335 764.153 324.474C766.415 324.511 768.232 324.485 769.712 322.407C770.437 321.315 771.785 320.542 773.862 321.285C772.926 322.592 772.111 323.748 771.295 324.905C774.614 326.671 774.554 326.65 776.514 324.165C776.996 323.565 778.011 323.348 778.999 322.833C778.984 324.372 778.944 325.42 778.904 326.467C779.737 326.572 780.24 326.849 780.629 326.698C784.067 325.321 787.189 325.762 790.452 327.122C792.321 327.887 794.704 327.774 796.875 328.068C797.518 326.271 797.947 325.072 798.438 323.51C799.562 324.299 800.868 324.766 800.862 325.343C801.018 327.716 802.77 328.246 804.703 328.455C808.153 328.916 811.664 329.207 815.112 329.861C817.431 330.304 818.836 329.744 820.015 327.946C820.136 327.796 820.612 327.773 820.911 327.687C821.977 328.261 823.044 328.836 823.222 328.899C825.73 328.252 827.315 327.564 828.925 327.367C831.042 327.062 833.215 327.164 835.304 326.752C837.184 326.363 839.012 325.182 840.828 325.156C845.029 325.017 849.164 325.434 853.362 325.488C855.357 325.526 857.415 325.2 858.876 325.046C860.264 323.226 856.833 320.84 861.035 320.508C861.674 322.089 862.314 323.669 862.925 325.143C867.629 325.281 872.027 326.275 876.249 323.827C876.998 323.419 878.189 323.458 879.171 323.52C881.223 323.771 883.212 324.386 885.267 324.445C892.473 324.512 899.761 325.285 907.013 323.727C907.819 323.533 908.713 323.467 909.366 323.7C918.598 326.713 928.33 324.208 937.797 324.505C943.543 324.725 949.479 323.663 955.291 323.135C959.017 322.826 962.746 322.133 966.5 321.931C975.379 321.438 984.287 321.052 993.203 319.896C997.139 319.373 1000.93 318.123 1005.15 318.861C1009.94 319.704 1015.16 318.964 1020.09 317.156C1020.96 316.79 1022.03 316.98 1022.95 316.828C1026.47 316.348 1030.02 315.976 1033.51 315.198C1037.33 314.44 1041.04 313.062 1044.91 312.325C1046.5 312.022 1048.22 312.638 1049.88 312.847C1051.1 312.994 1052.2 313.29 1053.45 313.544C1051.42 316.969 1056.43 316.444 1056.46 319.159C1053.5 323.122 1059.32 325.587 1058.27 329.459C1060.59 329.902 1061.58 329.002 1062.63 327.545C1063.69 326.089 1064.79 326.77 1065.05 327.347C1064.28 329.679 1063.73 331.412 1062.99 333.467C1062.15 334.324 1060.03 335.398 1059.86 336.788C1059.41 340.296 1057.37 342.268 1054.31 343.879C1053.72 344.244 1053.38 344.993 1052.96 345.614C1052.95 345.999 1053.04 346.32 1053.04 346.704C1056.72 344.45 1059.65 346.175 1062.77 346.808C1063.72 346.955 1064.83 346.29 1065.88 345.988C1067.37 345.556 1068.81 345.104 1070.45 344.629C1070.47 348.307 1066.54 348.06 1064.82 350.63C1068.31 349.851 1071.17 350.101 1073.66 347.999C1074.62 347.184 1076.33 346.539 1077.47 348.396C1076.86 349.723 1076.55 351.348 1075.43 352.399C1072.97 354.607 1073.25 356.445 1075.59 358.15C1074.14 359.757 1072.67 360.872 1071.88 362.328C1070.55 364.747 1068.77 366.526 1066.2 367.922C1063.53 369.383 1062.44 371.695 1062.7 375.072C1064.46 375.217 1066.6 375.982 1068.15 375.379C1070.96 374.26 1073.36 375.216 1075.62 375.83C1077.4 376.275 1078.6 376.122 1080.18 375.626C1085.89 373.709 1091.59 371.792 1097.59 370.943C1097.86 370.942 1098.12 371.134 1098.42 371.24C1098.41 372.202 1098.4 373.164 1098.41 374.811C1101.54 374.482 1104.41 374.154 1108.37 373.738C1104.33 376.249 1101.15 378.203 1098 380.263C1098.09 380.584 1098.23 380.926 1098.32 381.246C1101.24 380.747 1104.11 380.227 1107.6 379.641C1106.57 381.011 1105.85 381.911 1105.21 382.747C1105.92 383.771 1106.51 384.561 1107.07 385.243C1103.78 389.57 1099.57 393.087 1097.64 399.057C1100.39 397.532 1102.55 396.372 1104.53 395.149C1106.54 393.839 1106.42 390.611 1110.21 390.131C1109.21 391.609 1108.48 392.701 1107.61 394.029C1108.83 394.176 1109.66 394.28 1110.46 394.471C1110.41 396.673 1110.36 398.683 1110.34 400.799C1114.78 400.168 1118.93 399.623 1124.24 398.819C1120.51 402.121 1117.59 405.036 1114.38 407.46C1112.16 409.176 1113.4 410.391 1114.55 411.671C1111.31 414.181 1106.9 414.341 1104.06 418.539C1108.75 417.03 1112.67 415.631 1116.64 414.445C1120.52 413.323 1124.52 412.437 1129.15 411.292C1127.4 413.755 1124.41 414.81 1125.72 417.693C1125.95 418.163 1124.36 419.621 1123.37 420.329C1121.75 421.487 1119.63 422.177 1118.98 424.552C1124.96 425.434 1128.69 421.17 1133.62 419.747C1132.03 421.012 1130.38 422.257 1128.79 423.522C1129.52 425.038 1130.99 426.531 1127.92 427.266C1127.45 426.326 1127.04 425.6 1126.78 425.024C1124.54 426.055 1122.68 426.937 1120.23 427.991C1119.23 429.468 1121.58 430.211 1122.04 431.535C1122.53 432.966 1122.25 434.699 1122.29 436.452C1123.6 436.341 1125.56 434.434 1126.51 436.804C1125.18 439.031 1123.85 441.258 1122.49 443.571C1124.24 444.101 1125.81 444.567 1128.04 445.267C1123.81 448.1 1120.13 450.546 1116.47 453.1C1115.15 453.98 1113.77 455.031 1112.92 456.273C1112.41 456.958 1112.81 458.261 1112.77 459.886C1111.54 460.894 1109.71 462.267 1108 463.683C1108.16 462.293 1107.45 461.653 1106.05 462.212C1104.25 462.923 1102.55 463.761 1101.01 465.24C1103.4 464.742 1105.85 464.265 1108.27 463.682C1106.16 465.44 1103.44 467.072 1105.88 469.974C1099.47 473.86 1093.03 477.446 1089.13 483.678C1088.49 484.705 1087.21 485.307 1086.28 486.229C1083.06 489.23 1079.52 491.826 1076.98 496.13C1081.88 493.83 1083.63 497.545 1086.53 499.74C1086.75 498.371 1086.82 497.623 1087 496.917C1087.19 496.019 1087.44 495.141 1087.6 494.328C1092.18 492.008 1092.18 492.008 1097.17 493.214C1095.73 494.051 1093.58 494.634 1093.51 495.383C1093.16 498.248 1089.96 499.325 1089.07 501.808C1088.4 503.691 1087.08 504.956 1084.51 505.582C1082.54 506.036 1080.82 507.836 1078.55 509.338C1082.49 511.424 1080 512.948 1077.87 514.407C1080.96 514.934 1083.73 515.44 1086.49 515.946C1084.13 516.936 1081.83 517.946 1079.46 518.936C1080.99 521.219 1079.97 524.621 1083.99 524.611L1084.14 524.568C1080.86 525.132 1077.94 525.054 1077.3 521.25C1075.74 521.853 1074.63 522.518 1073.41 522.757C1069.53 523.493 1069.56 523.408 1070 527.041C1068.85 526.531 1067.69 526.021 1066.53 525.51C1066.35 525.832 1066.23 526.174 1066.05 526.495C1066.9 527.476 1068.06 527.794 1069.67 527.213C1068.65 528.199 1067.99 529.312 1069.86 529.885C1071.13 530.245 1072.59 530.284 1073.99 530.494C1072.91 531.074 1071.89 531.676 1070.82 532.256C1070.93 532.49 1071.02 532.811 1071.14 533.046C1072.27 532.68 1073.35 532.292 1074.48 531.926C1074.25 531.456 1074.02 530.986 1073.81 530.623C1074.6 529.552 1075.35 528.374 1076.14 527.303C1080.38 528.533 1080.32 528.512 1077.67 531.618C1076.86 532.582 1076.1 533.568 1075.29 534.532C1073.98 534.45 1072.79 534.025 1071.84 534.263C1069.57 534.995 1068.09 534.272 1066.25 533.229C1063.02 531.399 1060.33 532.368 1057.17 535.775C1058.39 536.306 1059.6 536.838 1061.59 537.645C1059.01 539.426 1057.01 540.736 1054.97 542.13C1052.84 543.59 1050.62 545.113 1048.34 546.615C1049.26 547.426 1049.94 547.958 1050.79 548.747C1046.36 551.217 1042.07 551.805 1037.6 551.56C1039.19 550.295 1040.69 549.093 1042.73 547.506C1041.67 547.124 1040.98 546.976 1040.33 546.743C1040.36 546.465 1040.28 546.144 1040.46 546.015C1041.84 544.387 1043.32 542.694 1044.7 541.066C1044.91 540.852 1045.01 540.402 1045.31 540.316C1050.68 538.956 1053.56 533.903 1058.76 532.286C1059.36 531.536 1059.9 530.765 1060.51 530.015C1060.27 529.931 1059.97 529.824 1059.73 529.739C1059.43 530.595 1059.09 531.537 1058.81 532.5C1058.31 532.223 1057.75 531.925 1057.27 531.563C1056.8 531.201 1056.54 530.624 1056.21 530.219C1057.57 528.676 1059.01 527.454 1059.95 525.955C1060.77 524.606 1061.08 522.98 1061.57 521.418C1057.25 521.515 1054.49 523.809 1050.52 531.174C1051.11 531.386 1052.18 531.768 1053.87 532.277C1044.12 536.706 1039.5 543.452 1035.49 550.902C1036.3 551.093 1037.04 551.262 1037.78 551.431C1037.42 552.074 1037.11 552.737 1036.75 553.379C1039.48 554.933 1039.48 554.933 1039.27 557.756C1042.71 555.609 1046.18 554.916 1049.79 556.596C1050.21 556.745 1050.77 556.658 1051.25 556.635C1054.94 556.604 1057.58 558.03 1059.1 561.084C1059.07 560.977 1059.07 560.784 1058.98 560.656C1059.07 561.362 1059.5 562.387 1059.17 562.751C1057.79 563.995 1056.35 565.602 1054.64 566.055C1050.91 567.133 1048.65 569.512 1046.36 572.169C1046.62 572.938 1046.85 573.793 1047.23 574.989C1049.14 574.321 1050.91 573.697 1052.13 573.266C1053.38 573.904 1054.44 574.479 1055.39 575.011C1053.17 576.727 1051.79 577.778 1049.84 579.301C1051.74 579.98 1052.9 580.298 1053.96 580.68C1053.95 585.405 1049.76 584.774 1046.97 586.385C1046.65 585.595 1046.63 584.911 1046.21 584.57C1045.41 583.994 1044.38 583.527 1043.45 583.486C1043.13 583.466 1042.34 584.921 1042.27 585.67C1042.14 586.782 1042.46 587.957 1042.56 589.346C1043.79 589.108 1044.86 588.913 1045.97 588.632C1045.43 589.019 1044.85 589.49 1044.26 589.855C1045.29 590.9 1046.32 591.945 1047.35 592.99C1047.51 592.562 1047.69 592.241 1047.84 591.813C1046.96 593.911 1045.98 596.072 1045.1 598.17L1045.07 598.063C1044.66 600.523 1042.06 600.85 1040.32 602.736C1039.74 601.177 1039.06 600.067 1039.04 598.998C1039.16 596.047 1043.22 597.982 1044.2 595.628C1042.48 594.627 1041.02 594.973 1039.61 595.918C1036.88 597.742 1034.01 599.032 1030.53 599.041C1029.72 599.043 1028.88 599.707 1027.96 600.052C1032.23 604.958 1032.14 608.016 1027.77 613.115C1026.74 614.294 1025.51 615.302 1026.42 617.074C1026.57 617.416 1025.1 618.531 1024.43 619.26C1024.42 617.806 1024.46 616.373 1024.51 614.556C1022.45 614.689 1020.63 614.908 1017.8 615.15C1019.85 616.171 1021.03 616.788 1022.34 617.448C1021.88 618.732 1018.54 619.082 1020.78 621.428C1022.04 620.72 1023.32 619.925 1024.67 619.152C1023.27 622.127 1025.49 623.789 1027.94 626.114C1025.97 626.76 1024.62 627.148 1023.1 627.665C1023.08 626.404 1023.06 625.72 1023.04 624.266C1020.13 626.604 1017.76 628.555 1015.33 630.486C1015.91 631.852 1017.6 633.131 1014.42 635.085C1014.94 631.021 1011.86 632.141 1009.6 631.911C1008.32 631.743 1006.92 631.726 1006.85 630.058C1005.39 629.634 1003.97 629.125 1002.33 628.637C1004.25 630.963 1004.25 630.963 1006.85 630.058C1006.78 630.999 1006.17 632.134 1007.83 632.536C1008.99 632.853 1010.03 633.321 1011.16 633.724C1010.6 636.035 1009.19 636.787 1007.28 637.262C1004.57 637.932 1000.78 638.027 999.487 639.591C997.165 642.526 994.083 641.037 991.805 642.539C991.265 642.925 990.754 643.418 990.157 643.591C987.052 644.411 983.671 646.002 980.906 645.496C977.636 644.905 976.199 645.743 974.273 647.757C973.28 648.85 971.66 650.009 970.29 650.098C965.909 650.365 964.306 652.978 962.964 656.167C966.456 658.381 970.225 653.647 973.921 656.417C970.921 658.627 967.994 659.511 964.774 659.904C963.074 660.164 961.37 660.81 959.697 661.37C959.398 661.457 959.184 662.056 958.972 662.462C960.155 663.272 961.309 663.974 962.552 664.805C958.433 668.835 953.541 666.602 949.508 667.96C949.193 666.592 948.992 665.844 948.791 665.097C946.999 665.614 945.261 666.73 944.043 666.391C938.934 665.143 933.767 666.674 928.735 666.516C927.604 666.497 926.44 666.757 925.335 667.037C920.412 668.076 915.545 669.328 910.623 670.175C901.972 671.714 893.354 672.976 884.702 674.516C881.213 675.102 877.717 676.266 874.169 676.638C868.744 677.208 863.234 677.264 857.841 677.556C855.934 677.646 853.999 677.63 852.06 677.998C848.48 678.648 844.955 679.705 841.377 680.163C836.189 680.818 831.005 681.087 825.79 681.442C820.426 681.841 815.092 682.154 809.699 682.445C804.515 682.715 799.302 682.878 794.089 683.041C790.961 683.177 787.867 682.843 784.854 683.406C778.948 684.383 773.219 682.431 767.222 683.665C763.67 684.422 759.809 683.427 756.116 683.457C750.964 683.449 745.751 683.612 740.569 683.689C734.255 683.748 727.941 683.807 721.717 683.801C720.764 683.846 719.781 683.785 718.769 683.809C710.73 683.636 702.632 683.443 694.562 683.357C689.56 683.305 684.557 683.254 679.557 683.01C674.288 682.767 669.083 682.16 663.697 681.682C661.46 685.129 660.416 685.239 656.38 683.795C652.819 682.522 649.327 680.307 644.903 682.007C643.887 682.416 642.464 681.714 641.275 681.482C640.414 681.27 639.437 680.631 638.662 680.74C633.767 681.886 629.011 680.957 624.28 680.52C617.319 679.768 609.949 681.283 603.458 678.093C603.34 678.05 603.162 677.987 602.953 678.008C596.825 677.361 590.79 676.265 584.687 676.109C576.887 675.83 569.243 674.93 561.661 673.666C554.882 672.593 548.043 671.498 541.138 671.152C536.227 670.844 531.772 669.637 526.75 668.516C527.887 667.958 528.515 667.699 529.652 667.141C528.343 667.058 527.364 666.612 526.915 666.934C524.817 668.307 522.791 668.355 520.626 667.484C519.854 667.208 518.688 667.66 517.766 667.62C514.432 667.393 511.04 667.145 507.737 666.833C505.358 666.561 502.838 665.37 500.66 665.846C497.198 666.539 494.29 665.498 491.229 664.886C489.653 664.612 488.231 663.91 486.686 663.551C476.286 661.183 465.794 659.071 455.487 656.446C442.238 653.059 429.081 649.415 415.924 645.771C397.719 640.707 379.483 635.729 362.617 627.669C361.936 627.329 361.041 627.395 360.27 627.119C355.432 625.485 350.594 623.851 345.817 622.046C343.117 620.984 340.601 619.408 337.902 618.346C333.987 616.752 330.01 615.33 326.154 613.758C323.276 612.632 320.46 611.335 317.672 610.145C320.115 610.053 322.194 610.604 324.272 611.347C332.847 614.51 341.332 617.739 349.908 620.903C355.219 622.899 360.712 624.574 366.023 626.57C373.915 629.586 381.776 632.688 390.186 634.441C391.553 634.737 392.828 635.289 394.165 635.671C395.381 636.202 396.627 636.648 397.783 637.158C399.355 637.817 400.46 637.536 401.015 635.611C398.83 633.671 396.47 634.468 394.105 635.65C394.469 635.007 394.773 634.344 394.955 634.023C390.798 629.736 384.146 630.928 378.7 627.436C386.247 626.177 391.644 628.494 396.651 631.153C399.91 632.898 402.912 633.489 406.585 632.39C408.109 631.873 409.87 631.441 411.327 631.672C415.52 632.303 419.77 633.147 423.81 634.206C424.79 634.46 425.309 636.191 426.261 636.338C429.085 636.865 432.062 636.965 434.472 637.151C434.878 638.262 434.984 639.651 435.548 639.756C439.351 640.73 443.216 641.34 447.198 642.186C447.447 641.116 447.602 640.496 447.787 639.79L447.698 639.854C449.449 640.384 451.171 641 453.012 641.465C454.854 641.931 457.092 641.476 458.505 643.14C457.877 643.399 457.282 643.379 456.746 643.38C456.032 643.318 455.408 643.191 454.693 643.129C460.234 645.98 465.81 648.36 472.879 644.13C470.534 643.388 468.694 642.73 466.733 642.222C464.595 641.65 462.334 641.42 460.195 640.849C450.778 638.542 441.36 636.235 432.002 633.95C426.268 632.575 420.593 631.221 414.859 629.846C413.195 629.444 411.564 628.764 409.931 628.276C404.645 626.772 399.177 625.588 394.013 623.741C387.188 621.3 379.649 621.789 372.789 619.818C370.988 621.298 369.332 620.126 367.848 619.596C361.616 617.367 355.474 615.073 349.273 612.759C347.789 612.228 346.726 611.268 345.038 613.368C344.163 614.503 341.573 614.446 340.133 612.482C339.281 611.309 337.472 610.565 335.929 610.013C333.821 609.356 331.498 609.297 329.39 608.64C327.223 607.961 324.694 607.732 322.396 605.173C324.627 605.488 325.728 605.592 326.798 605.782C329.112 606.609 331.368 607.416 333.683 608.244C332.162 605.383 329.298 605.903 326.708 605.846C321.644 602.972 316.731 599.863 311.605 597.161C307.399 594.884 302.8 593.143 298.532 591.037C289.939 586.612 281.406 582.208 272.964 577.547C264.316 572.716 255.88 567.478 247.383 562.411C247.264 562.368 247.417 561.94 247.541 561.406C248.818 561.766 249.946 562.169 251.164 562.508C251.345 562.187 251.497 561.952 251.679 561.63C249.015 559.905 246.381 558.287 243.777 556.583C243.838 556.412 243.899 556.241 243.96 556.07C245.18 556.216 246.459 556.384 248.749 556.72C245.05 554.335 242.329 552.397 239.428 550.587C228.034 543.325 216.67 535.978 207.234 526.424C205.819 524.952 203.204 524.403 202.118 522.759C198.302 517.146 192.139 513.976 187.059 509.649C181.713 505.13 175.498 501.169 173.274 494.098C173.159 493.671 172.745 493.33 172.451 493.031C167.914 487.933 163.437 482.856 158.781 477.908C153.122 471.829 147.254 465.964 141.595 459.886C136.939 454.937 132.372 449.925 128.015 444.698C125.189 441.37 122.753 437.698 120.138 434.156C127.166 437.153 130.433 444.114 137.793 446.747C137.867 445.229 137.701 444.01 136.965 443.071C133.582 438.868 130.049 434.708 126.575 430.569C126.104 430.015 125.873 429.353 125.581 428.669C125.851 428.476 126.121 428.283 126.391 428.09C131.316 433.037 137.657 436.271 143.062 440.811C148.261 445.181 153.486 449.85 159.797 453.169C159.186 451.695 158.244 450.586 157.122 449.605C145.938 439.136 134.183 429.139 123.99 417.77C114.623 407.274 105.315 396.801 96.8476 385.662C92.7307 380.327 88.673 375.014 84.9158 369.422C83.5946 367.501 82.3632 365.516 81.0438 363.403C84.1126 363.246 85.8357 363.669 86.5791 366.831C87.2056 369.759 89.9531 371.996 93.2462 373.271C94.8487 373.844 96.4494 374.61 97.7801 375.568C104.286 380.213 110.702 384.921 117.119 389.63C117.976 390.226 118.742 391.08 119.69 391.612C120.609 392.037 121.972 392.718 122.69 392.395C125.382 391.234 126.797 392.706 128.034 394.113C134.573 401.473 143.912 405.682 151.806 411.499C153.936 413.033 155.944 414.717 158.345 415.865C163.828 418.502 168.2 422.19 172.269 426.349C173.389 427.522 174.928 428.459 176.471 429.011C178.993 430.009 181.696 430.686 184.903 431.64C173.288 419.569 161.426 408.375 149.024 397.567C152.991 399.951 156.899 402.314 160.866 404.699C154.639 395.906 145.259 389.751 138.881 381.194C139.091 380.98 139.332 380.68 139.483 380.444C141.232 381.359 142.949 382.36 144.726 383.381C135.525 374.105 126.442 365.063 117.389 355.935C123.103 356.241 123.845 362.589 129.617 363.109C130.467 358.489 129.193 354.751 126.307 351.401C123.657 348.329 121.007 345.257 118.357 342.185C121.257 341.002 120.171 339.359 119.38 338.014C115.422 331.674 111.374 325.399 107.176 319.167C103.976 314.45 100.028 310.141 97.3067 305.209C94.7309 300.619 91.4336 296.736 87.9581 292.79C84.5421 288.865 81.486 284.682 78.2498 280.628C79.1744 280.476 79.7087 280.667 80.0629 280.987C86.0773 287.193 92.0916 293.4 98.106 299.606C100.318 301.845 102.468 304.256 104.859 306.366C106.07 307.475 107.184 309.225 110.023 308.213C107.999 305.075 106.122 302.087 104.098 298.949C107.792 295.733 106.452 292.743 104.694 289.797C104.02 288.687 103.227 287.535 102.224 286.597C98.9187 283.484 95.5239 280.435 92.129 277.386C91.4799 276.768 90.9515 276 90.3924 275.317C91.4663 275.122 92.0005 275.313 92.4734 275.675C99.7436 281.365 108.853 284.72 115.702 290.838C115.997 291.137 116.531 291.328 116.947 291.477C122.089 292.447 126.533 294.809 130.136 297.836C131.989 297.147 133.393 296.78 134.739 296.199C136.743 295.275 136.991 294.205 135.576 292.734C134.663 291.731 133.12 291.179 132.871 289.256C140.372 292.615 145.467 298.396 152.999 301.669C153.598 298.311 152.334 296.604 150.295 295.005C145.449 291.148 142.492 285.939 139.086 281.052C142.518 283.245 145.862 285.503 148.694 288.254C156.1 295.247 163.506 302.241 171.755 308.378C172.819 309.144 174.267 310.338 175.4 310.164C177.757 309.752 178.546 311.289 179.727 312.291C180.849 313.272 181.699 314.638 182.942 315.469C189.481 319.835 196.109 324.137 202.768 328.353C204.574 329.482 206.561 330.289 208.487 331.268C208.667 331.139 208.818 330.903 208.998 330.775C207.97 329.345 206.972 327.829 205.268 325.482C207.525 326.096 208.804 326.264 209.811 326.817C212.624 328.499 215.105 330.545 217.979 332.056C223.045 334.737 227.807 338.082 234.056 338.579C234.234 338.643 234.443 338.621 234.623 338.492C237.018 340.218 239.473 341.965 241.837 343.776C241.958 343.626 242.138 343.497 242.289 343.262C241.299 340.976 240.309 338.691 239.083 336.129C240.777 336.445 242.026 336.699 243.215 336.931C248.983 337.836 254.937 338.034 259.756 341.593C261.175 342.679 263.287 342.952 265.037 343.674C265.098 343.503 265.219 343.353 265.28 343.182C264.305 342.351 263.271 341.498 262.266 340.752C262.387 340.602 262.538 340.367 262.658 340.217C267.169 341.83 271.71 343.358 276.34 345.014C276.468 344.094 276.594 343.367 276.72 342.64L276.63 342.704C278.382 343.234 280.224 343.7 281.976 344.23C282.985 344.591 284.019 345.444 284.972 345.398C288.996 345.003 291.656 347.113 294.287 349.116C296.06 350.523 297.836 351.545 300.34 351.282C301.671 352.24 302.91 353.456 304.394 353.987C313.651 357.491 323 360.738 332.287 364.157C334.424 364.921 336.499 365.857 338.697 366.45C333.614 362.507 317.771 356.454 300.22 351.432C299.098 350.451 298.037 349.299 296.795 348.469C291.407 345.19 285.959 341.89 280.482 338.675C271.866 333.566 262.494 329.634 254.965 322.983C252.219 320.553 248.541 319.044 245.284 317.107C239.6 313.722 234.097 310.016 228.261 306.866C211.761 297.971 196.074 288.112 181.744 276.518C178.524 273.918 175.393 271.253 172.263 268.589C175.326 269.009 177.997 269.964 180.516 271.155C185.942 273.578 191.248 276.152 196.704 278.49C197.623 278.915 199.117 278.484 200.34 278.245C202.189 277.941 203.927 276.825 205.76 278.253C209.367 280.895 213.125 283.301 216.884 285.708C218.245 286.581 219.697 287.39 221.058 288.263C221.268 288.049 221.42 287.813 221.63 287.599C217.877 284.615 214.065 281.61 210.343 278.541C212.189 278.622 213.613 279.131 214.946 279.897C217.965 281.75 220.803 283.923 223.853 285.69C226.725 287.393 229.413 289.61 233.225 289.622C235.683 293.977 240.797 294.841 245.09 297.438C243.793 293.016 238.849 289.992 233.135 289.686C234.576 288.464 234.916 287.137 233.381 285.816C232.642 285.262 231.993 284.643 231.284 284.004C240.394 287.359 255.184 291.49 258.195 291.119C254.94 288.989 251.923 286.945 248.905 284.9C248.313 284.495 247.517 283.728 247.611 283.278C248.717 279.812 245.433 280.569 244.045 279.396C243.352 280.21 242.87 280.81 242.116 281.796C238.51 278.961 234.451 276.834 231.981 273.633C230.011 271.094 227.763 269.517 225.098 267.985C219.945 264.983 214.975 261.661 209.677 258.317C212.135 256.686 213.772 256.789 215.608 257.832C220.523 260.749 225.528 263.601 230.594 266.282C234.031 268.09 237.529 269.728 241.086 271.386C247.668 274.32 254.251 277.254 260.894 280.016C267.241 282.673 273.709 285.179 280.117 287.664C280.829 287.919 281.57 288.281 282.252 288.621C288.181 291.321 294.139 294.128 300.069 296.828C300.691 297.148 301.767 296.76 303.436 296.585C302.402 295.732 302.081 295.134 301.575 295.05C297.298 293.907 294.204 290.579 289.504 290.057C287.183 289.806 285.112 288.486 283.792 286.372C283.118 285.262 281.937 284.26 280.69 283.815C277.665 282.539 274.397 281.757 271.462 280.417C264.436 277.228 256.199 275.923 250.415 270.572C249.854 270.081 249.113 269.72 248.341 269.444C238.876 265.962 231.161 260.016 222.752 255.077C217.837 252.161 213.587 248.323 207.646 246.778C206.041 246.397 204.416 245.14 203.594 243.88C200.894 239.825 196.718 237.462 192.301 235.4C191.382 234.974 190.617 234.121 189.849 233.46C190.059 233.246 190.21 233.011 190.421 232.796C192.263 233.262 194.045 233.706 196.274 234.214C196.046 233.167 196.17 232.632 195.875 232.333C194.405 230.456 192.844 228.642 191.373 226.765C190.02 225.122 187.529 224.038 187.354 220.596C190.781 223.367 193.829 225.326 196.158 227.8C203.38 235.308 211.749 241.294 221.531 245.951C224.229 247.206 227.769 247.603 229.689 249.159C234.445 253.081 241.969 251.138 246.122 255.809C246.27 255.959 246.718 255.829 247.045 255.85C250.619 255.777 253.554 257.116 256.336 258.884C257.165 259.373 258.266 259.477 259.216 259.817C259.457 259.517 259.639 259.196 259.849 258.982C258.461 257.809 257.073 256.637 255.595 255.529C252.696 253.526 249.828 251.439 246.747 249.757C240.764 246.459 234.629 243.395 228.585 240.268C226.096 238.992 223.848 237.415 221.39 236.053C216.709 233.606 211.997 231.245 207.346 228.713C206.101 228.074 204.65 227.266 204.882 224.935C206.069 225.359 206.93 225.571 207.64 226.018C209.327 227.104 210.712 228.661 212.49 229.491C220.641 233.468 228.853 237.274 237.154 241.016C238.814 241.803 240.838 241.947 242.771 242.156C243.277 242.24 243.998 241.533 244.927 240.996C239.352 238.616 234.22 236.491 229.151 234.195C228.172 233.748 226.987 233.131 226.639 232.234C225.127 228.411 221.831 227.521 217.6 227.746C217.432 223.535 214.411 221.875 211.152 220.13C208.575 218.725 206.511 216.635 204.206 214.845C206.823 215.202 208.988 216.073 210.972 217.265C215.414 219.82 219.856 222.374 224.147 225.164C226.691 226.846 229.257 226.412 231.211 224.505C233.225 222.618 234.77 222.978 236.876 223.827C239.338 224.805 241.886 226.102 244.505 226.267C247.898 226.515 250.746 227.534 253.502 229.002C255.694 230.172 257.704 231.664 259.958 232.663C263.012 234.045 265.759 236.283 269.422 236.338C271.967 231.842 273.638 231.474 278.019 234.199C280.091 235.52 282.281 236.882 284.657 237.539C288.903 238.768 293.303 239.57 297.674 240.264C302.223 241.022 306.988 240.989 311.414 242.089C315.544 243.084 319.327 242.989 323.159 240.884C323.398 240.776 323.785 240.818 323.368 240.862C326.537 242.671 328.987 244.803 331.898 245.651C337.48 247.261 343.398 248.123 349.163 249.413C350.084 249.645 350.974 249.964 351.895 250.197C358.638 251.933 365.346 254.139 372.275 255.169C375.516 255.653 378.459 256.223 381.245 257.605C381.629 257.84 382.164 258.031 382.55 258.072C388.774 258.078 394.106 260.951 400.235 261.598C405.858 262.161 411.199 264.072 416.696 265.362C420.261 266.251 423.766 267.119 427.331 268.008C430.362 268.705 433.419 269.702 436.574 269.865C442.616 270.192 448.077 272.145 453.721 273.585C455.563 274.051 457.435 274.431 459.277 274.896C463.288 275.848 467.268 276.886 471.279 277.838C474.072 278.451 476.837 278.957 479.63 279.57C481.057 279.887 482.393 280.268 483.819 280.585C488.158 281.558 492.835 281.396 496.622 283.91C497.332 284.357 498.433 284.461 499.385 284.608C501.406 284.945 503.428 285.282 505.955 285.703C507.368 284.374 509.156 284.241 511.528 285.283C514.078 286.388 517.023 286.766 519.818 287.186C521.661 287.459 523.147 287.798 524.294 289.27C525.648 290.913 527.67 291.25 530.078 291.628C533.587 292.111 536.922 292.146 540.472 291.581C541.664 291.428 542.94 291.981 544.157 292.32C546.326 292.806 548.404 293.549 550.603 293.95C555.034 294.665 559.89 294.375 563.896 295.904C569.682 298.07 576.022 298.311 581.718 300.541C584.952 301.795 588.729 302.277 591.421 304.109C595.03 306.558 598.752 306.634 602.836 306.26C604.028 306.108 605.637 306.104 606.404 306.764C607.942 307.894 609.393 308.702 611.104 307.287C612.576 305.979 613.248 304.288 612.403 302.345C611.879 301.192 611.892 299.845 611.694 298.712C612.173 298.497 612.353 298.369 612.472 298.411C617.31 300.045 621.449 303.07 627.107 303.163C629.042 303.18 630.842 304.885 633.094 306.077C632.016 306.657 631.505 307.15 631.237 307.151C628.386 306.324 625.505 305.583 622.776 304.414C619.129 302.82 616.943 304.065 616.545 308.171C619.567 309.831 623.646 309.842 625.789 313.022C626.23 313.663 628.55 313.913 629.329 313.42C631.936 311.745 633.86 312.916 636.146 313.638C638.67 314.444 641.346 314.822 643.992 315.285C644.616 315.412 645.541 315.26 645.836 315.559C647.571 317.82 650.46 317.792 653.017 318.127C659.023 319.117 665.031 319.914 671.039 320.711C671.603 320.817 672.231 320.559 674.111 320.169C671.888 319.084 670.707 318.083 669.369 317.894C666.009 317.368 663.279 316.391 662.057 313.444C657.173 313.435 652.771 312.826 648.288 311.512C644.041 310.282 639.825 308.967 634.863 307.868C639.294 305.398 642.777 305.582 646.244 307.305C647.607 307.986 649.273 308.195 650.787 308.64C652.777 309.255 654.766 309.87 657.379 310.612C659.569 308.982 661.801 309.104 664.158 311.685C665.307 312.965 667.836 313.194 669.827 313.616C673.423 314.42 677.02 315.031 680.646 315.748C681.717 315.938 682.785 316.32 683.916 316.339C688.352 316.477 691.95 320.081 696.82 318.444C696.97 318.401 697.324 318.721 697.5 318.977C698.649 320.257 700.199 320.039 701.926 320.077C706.364 320.023 711.108 319.113 714.799 322.268C715.341 321.69 715.732 321.347 715.913 321.025C716.157 320.533 716.191 320.063 716.375 319.549C721.371 320.178 721.371 320.178 721.843 323.726C720.229 321.314 718.984 320.676 717.12 322.519ZM814.486 661.952C816.684 662.545 819.083 663.885 820.336 660.568C821.791 660.992 823.246 661.416 824.701 661.84C824.793 661.583 824.856 661.22 824.948 660.963C823.461 660.817 821.883 660.736 820.336 660.568C818.336 661.108 816.456 661.498 814.486 661.952ZM591.343 665.36C596.903 666.286 602.543 668.111 608.145 667.797C613.628 667.441 618.826 668.818 624.28 668.355C626.903 668.135 629.604 669.004 632.252 669.276C635.583 669.695 638.886 670.007 642.186 670.512C648.014 671.438 653.978 670.674 659.813 670.831C663.148 670.865 666.73 670.022 669.506 672.367C669.831 672.58 670.427 672.6 670.904 672.577C677.813 672.538 684.753 672.414 691.603 672.354C692.517 670.171 691.332 669.554 689.724 669.558C687.789 669.541 685.821 669.803 683.885 669.786C673.434 669.62 663.111 668.535 652.693 668.091C639.506 667.525 626.323 666.575 613.139 665.625C606.741 665.171 600.316 664.418 593.949 663.878C592.52 663.753 591.09 663.821 589.66 663.889C589.718 664.102 589.685 664.38 589.743 664.594C590.246 664.871 590.779 665.254 591.343 665.36ZM1043.51 504.724C1045.52 503.03 1047.32 501.55 1049.6 499.663C1049.93 499.876 1050.76 500.365 1051.82 501.132C1053.93 499.374 1056.09 497.444 1058.52 495.321C1054.35 492.574 1050 490.148 1043.93 492.515C1039.71 494.193 1038.85 496.782 1041.74 500.324C1041.14 500.881 1040.44 501.503 1039.81 502.146C1039.21 502.704 1038.7 503.197 1037.98 503.904C1039.15 505.868 1040.29 507.725 1041.67 510.052C1043.26 508.786 1044.61 507.821 1046.47 506.362C1044.96 505.532 1044.25 505.085 1043.51 504.724ZM452.918 648.093C451.005 648.761 448.815 650.391 447.651 647.658C444.222 648.073 441.599 645.3 437.988 646.036C436.974 646.252 435.431 645.7 434.694 644.954C432.066 642.566 428.963 643.194 425.117 643.653C426.358 644.676 427.032 645.786 428.012 646.04C431.753 647.185 435.646 648.094 439.478 648.982C445.331 650.4 451.215 651.732 457.067 653.15C466.278 655.286 475.579 657.357 484.79 659.493C485.236 659.556 485.712 659.534 486.312 659.169C481.242 656.873 475.47 656.353 469.682 654.379C470.995 654.077 471.801 653.882 472.607 653.688C465.527 652.893 458.013 653.874 452.918 648.093ZM1013.55 328.332C1015.73 330.465 1017.29 332.278 1019.15 333.813C1019.71 334.303 1020.93 334.45 1021.86 334.298C1025.74 333.753 1029.58 333.102 1033.43 332.451C1034.21 332.342 1035.1 332.083 1035.7 331.526C1036.48 330.84 1037.51 329.661 1037.34 329.02C1037.14 328.08 1036.04 327.206 1035.07 326.567C1034.54 326.184 1033.49 326.294 1032.75 326.317C1028.96 326.604 1025.12 327.063 1021.3 327.244C1020.23 327.246 1019.17 326.479 1017.42 325.757C1016.25 326.594 1014.96 327.388 1013.55 328.332ZM148.688 389.336C158.727 398.141 167.654 407.995 178.715 415.814C179.159 416.069 179.934 415.96 180.767 416.065C179.903 413.053 178.346 410.855 175.471 409.536C169.273 406.837 165.212 401.908 160.429 397.687C155.646 393.466 151.132 389.052 146.439 384.767C146.17 384.96 145.928 385.26 145.658 385.453C146.717 386.797 147.478 388.228 148.688 389.336ZM278.976 312.938C273.133 310.558 267.349 308.2 261.657 305.584C260.144 304.947 258.726 303.86 257.755 302.644C255.901 300.34 253.317 299.705 249.957 299.179C252.626 303.32 256.656 305.341 260.752 306.805C265.974 308.674 270.474 311.441 275.123 314.166C277.61 315.635 280.43 316.547 283.424 317.908C283.186 314.83 281.111 313.895 278.976 312.938ZM723.392 670.884C723.359 671.162 723.298 671.333 723.266 671.611C724.244 672.057 725.132 672.568 726.172 672.843C727.627 673.267 729.494 674.225 730.631 673.666C734.159 672.225 737.243 673.521 740.488 673.62C744.924 673.758 749.368 673.127 753.809 672.688C754.435 672.622 755.067 671.979 755.696 671.529C755.58 671.294 755.463 671.059 755.346 670.824C744.684 670.872 734.023 670.921 723.392 670.884ZM536.221 656.263C532.65 655.952 529.185 654.036 525.176 655.885C526.214 656.353 527.248 657.205 528.289 657.288C539.215 657.624 549.453 661.382 560.441 661.354C560.535 660.905 560.539 660.52 560.633 660.071C552.486 658.702 544.434 656.884 536.221 656.263ZM1073.16 506.252C1074.1 504.561 1076.29 502.161 1074 499.216C1070.25 502.026 1066.56 504.665 1062.99 507.539C1062.36 507.99 1062.32 509.038 1061.74 510.279C1066.54 509.775 1071.03 509.935 1073.16 506.252ZM402.96 637.658C408.765 640.893 414.974 642.438 422 642.634C421.382 641.93 420.853 641.162 420.143 640.715C418.782 639.842 417.3 639.118 415.787 638.481C415.016 638.205 413.976 637.93 413.229 638.145C410.632 638.857 408.824 637.921 407.296 635.83C405.562 636.561 404.396 637.013 402.96 637.658ZM535.027 650.43C535.209 650.108 535.36 649.873 535.542 649.552C534.862 649.019 534.215 648.208 533.382 648.103C526.366 646.945 519.349 645.787 512.271 644.8C510.605 644.591 508.875 644.937 507.177 645.006C507.203 645.305 507.2 645.69 507.167 645.968C516.504 647.376 525.751 648.85 535.027 650.43ZM298.66 364.776C293.023 359.574 285.388 357.712 278.084 355.486C284.144 360.067 291.023 363.107 298.66 364.776ZM563.183 661.176C567.686 663.56 575.181 664.503 587.097 664.13C581.878 661.877 566.736 660.227 563.183 661.176ZM696.892 670.48C699.406 672.248 701.258 674.745 705.299 672.618C707.274 671.587 710.246 672.264 712.807 672.214C714.505 672.146 716.173 672.163 717.9 672.202C717.965 671.646 717.999 671.175 718.064 670.619C710.977 670.594 703.949 670.591 696.892 670.48ZM982.283 599.163C985.482 597.893 988.858 596.687 992.118 595.247C993.883 594.43 995.384 593.229 997.002 592.263C996.826 592.006 996.68 591.665 996.504 591.409C990.546 591.595 983.749 595.439 982.283 599.163ZM292.318 523.066C291.849 525.312 293.934 525.285 295.328 525.88C292.776 527.96 295.902 528.017 297.053 529.104C297.997 527.028 298.971 524.866 300.129 522.191C297.062 522.156 294.799 522.119 292.685 522.038C292.41 522.809 292.348 522.98 292.318 523.066ZM767.876 671.541C772.622 673.431 776.614 673.314 780.707 671.979C776.977 669.679 773.173 668.898 767.876 671.541ZM683.963 320.7C681.842 321.39 680.504 321.201 678.819 319.922C677.105 318.537 675.668 319.374 674.663 321.622C678.947 321.996 683.381 322.326 687.725 322.722C687.819 322.272 687.942 321.93 688.035 321.481C686.728 321.206 685.098 320.334 683.963 320.7ZM1112.92 450.479C1108.63 450.297 1108.63 450.297 1103.13 455.378C1106.07 456.333 1107.24 455.689 1112.92 450.479ZM488.236 648.175C492.435 651.222 496.361 651.661 500.243 650.539C497.134 648.751 493.361 647.884 488.236 648.175ZM318.763 596.053C314.342 594.375 311.6 591.56 306.544 590.91C309.995 594.365 313.1 596.537 318.763 596.053ZM523.821 654.435C519.065 653.506 515.171 652.789 510.771 651.988C513.544 654.717 519.904 656.027 523.821 654.435ZM336.688 319.099C334.339 315.748 331.613 314.387 327.793 315.145C331.056 316.505 332.906 319.194 336.688 319.099ZM207.054 438.212C205.687 434.923 201.312 431.62 195.618 429.197C198.651 432.696 202.767 435.037 207.054 438.212ZM264.258 569.509C267.233 572.794 271.627 574.172 275.686 576.3C273.193 572.415 268.106 571.851 264.258 569.509ZM487.496 647.621C484.515 644.913 481.2 645.948 477.394 645.359C480.582 648.237 483.589 648.251 487.496 647.621ZM758.17 671.351C760.99 672.264 760.99 672.264 765.139 671.334C762.837 669.159 760.655 670.02 758.17 671.351ZM602.61 676.534C602.612 676.342 602.673 676.171 602.644 676.064C598.628 675.689 594.521 675.379 590.505 675.004C590.443 675.175 590.441 675.368 590.47 675.474C594.487 675.849 598.503 676.224 602.61 676.534ZM783.019 670.006C785.832 671.688 788.037 671.511 791.213 669.557C788.77 669.649 786.297 669.826 783.019 670.006ZM301.911 589.639C302.093 589.318 302.215 588.975 302.397 588.654C300.35 587.825 298.244 586.976 296.228 586.061C296.016 586.468 295.832 586.982 295.62 587.388C297.697 588.131 299.774 588.875 301.911 589.639ZM1040.71 574.877C1037.82 574.521 1037.07 575.891 1036.27 577.924C1039.84 578.813 1039.62 576.612 1040.71 574.877ZM363.288 327.648C362.416 325.405 360.902 324.96 359.02 325.542C358.867 325.97 358.804 326.333 358.651 326.761C360.196 327.121 361.771 327.395 363.288 327.648ZM1077.03 506.093C1078.94 505.617 1080.4 505.272 1082.7 504.646C1079.45 502.324 1079.45 502.324 1077.03 506.093ZM1046.8 317.345C1046.96 316.339 1047.38 315.526 1047.09 315.227C1046 313.969 1044.6 313.758 1042.54 315.046C1043.99 315.855 1045.11 316.451 1046.8 317.345ZM314.908 311.115C315.06 310.88 315.182 310.537 315.333 310.302C313.287 309.473 311.27 308.559 309.224 307.73C309.071 308.158 308.948 308.501 308.795 308.929C310.872 309.672 312.89 310.394 314.908 311.115ZM1048.69 325.55C1050.19 324.541 1051.27 323.769 1052.76 322.76C1048.72 321.701 1048.72 321.701 1048.69 325.55ZM328.447 601.544C331.235 602.734 333.014 603.564 334.882 604.329C335.005 603.986 335.158 603.558 335.34 603.237C333.287 602.986 332.33 600.423 328.447 601.544ZM1027.73 580.276C1025.59 579.704 1024.38 579.366 1023.07 579.091C1022.92 579.519 1022.79 579.861 1022.64 580.289C1023.55 581.869 1024.98 581.801 1027.73 580.276ZM256.262 561.918C254.441 559.336 254.441 559.336 251.221 559.729C252.762 560.473 254.215 561.089 256.262 561.918ZM1047.23 578.367C1045.14 578.971 1043.79 579.359 1042.39 579.726C1044.17 580.555 1045.77 581.129 1047.23 578.367ZM338.546 345.348C338.721 345.797 338.805 346.31 339.102 346.416C339.933 346.713 340.884 346.86 342.578 347.177C341.56 344.785 340.644 343.975 338.546 345.348ZM377.313 330.733C377.101 331.14 376.919 331.461 376.766 331.889C378.101 332.463 379.376 333.016 380.71 333.59C380.953 333.097 381.166 332.691 381.468 332.22C380.074 331.624 378.678 331.222 377.313 330.733ZM366.119 327.405C365.968 327.641 365.907 327.812 365.755 328.048C367.415 328.834 369.104 329.728 370.764 330.515C370.858 330.066 371.011 329.638 371.105 329.189C369.443 328.594 367.781 328 366.119 327.405ZM137.472 369.973C137.112 370.231 136.752 370.488 136.421 370.853C137.215 371.813 138.069 372.794 138.864 373.754C139.314 373.432 139.735 373.004 140.185 372.682C139.3 371.786 138.416 370.89 137.472 369.973ZM345.501 343.685C345.652 343.449 345.804 343.213 345.955 342.978C344.651 342.318 343.347 341.659 342.043 340.999C341.831 341.406 341.678 341.834 341.465 342.241C342.861 342.644 344.195 343.217 345.501 343.685ZM240.249 277.845C240.75 275.321 239.861 274.81 237.442 275.586C238.24 276.161 239.008 276.822 240.249 277.845ZM257.591 563.069C258.565 563.901 258.741 564.157 258.979 564.242C259.482 564.518 260.015 564.902 260.639 565.028C260.995 565.156 261.502 565.048 261.948 565.111C262.071 564.768 262.193 564.426 262.316 564.083C261.067 563.83 259.85 563.491 257.591 563.069ZM1009 622.527C1008.95 622.313 1008.86 621.993 1008.8 621.779C1007.94 621.952 1007.04 622.211 1006.18 622.385C1006.26 622.705 1006.35 623.026 1006.44 623.346C1007.27 623.066 1008.11 622.786 1009 622.527ZM251.915 342.553C253.709 344.836 255.06 343.678 256.41 342.713C255.16 342.652 253.91 342.591 251.915 342.553ZM343.016 320.686C343.07 321.285 343.6 321.861 344.163 322.159C344.46 322.265 345.151 321.643 345.689 321.449C345.337 320.937 345.074 320.36 344.05 318.546C343.474 319.595 342.932 320.173 343.016 320.686ZM288.44 307.441C288.622 307.12 288.804 306.799 288.986 306.477C287.829 305.967 286.673 305.457 285.547 304.861C285.335 305.268 285.094 305.568 284.881 305.975C286.038 306.485 287.253 307.016 288.44 307.441ZM426.761 639.992C426.853 639.736 427.004 639.5 427.096 639.243C425.999 638.754 424.812 638.33 423.715 637.841C423.502 638.248 423.349 638.676 423.137 639.082C424.354 639.421 425.513 639.739 426.761 639.992ZM497.458 661.321C497.489 661.236 497.519 661.15 497.58 660.979C496.956 660.852 496.363 660.64 495.798 660.535C495.114 660.387 494.429 660.431 493.715 660.369C493.652 660.732 493.619 661.01 493.556 661.374C494.837 661.349 496.177 661.346 497.458 661.321ZM1064.89 513.628C1064.95 513.841 1065.07 514.076 1065.13 514.29C1065.87 514.074 1066.62 513.858 1067.28 513.707C1067.13 513.365 1067.04 513.045 1066.9 512.703C1066.24 513.047 1065.55 513.284 1064.89 513.628ZM1027.72 603.153C1027.66 602.939 1027.6 602.725 1027.51 602.597C1026.68 602.877 1025.84 603.157 1024.98 603.331C1025.18 603.693 1025.39 604.056 1025.53 604.398C1026.28 603.99 1026.97 603.561 1027.72 603.153ZM1114.63 431.49C1114.65 431.789 1114.65 431.981 1114.68 432.281C1115.45 432.172 1116.2 432.148 1116.97 432.04C1116.95 431.74 1116.95 431.548 1116.92 431.249C1116.18 431.272 1115.4 431.381 1114.63 431.49ZM576.464 655.114C576.466 654.921 576.527 654.75 576.529 654.558C575.31 654.411 574.06 654.35 572.84 654.204C572.779 654.375 572.777 654.567 572.775 654.76C573.995 654.906 575.214 655.053 576.464 655.114ZM1075.25 510.865C1075.34 510.8 1075.05 510.309 1074.91 509.968C1074.55 510.225 1074.16 510.376 1073.83 510.74C1073.74 510.805 1073.94 511.167 1074.09 511.509C1074.51 511.273 1074.95 511.143 1075.25 510.865ZM252.237 279.14C252.388 278.905 252.539 278.669 252.66 278.519C251.919 278.158 251.178 277.796 250.437 277.435C250.286 277.67 250.135 277.906 250.014 278.056C250.815 278.438 251.555 278.8 252.237 279.14Z" fill="white"/>
</svg>
