<svg width="175" height="138" viewBox="0 0 175 138" fill="none" xmlns="http://www.w3.org/2000/svg">
<mask id="mask0" mask-type="alpha" maskUnits="userSpaceOnUse" x="16" y="4" width="144" height="134">
<circle r="69" transform="matrix(1 0 -0.261515 0.965199 87.9554 70.5988)" fill="#1066AA"/>
</mask>
<g mask="url(#mask0)">
<path fill-rule="evenodd" clip-rule="evenodd" d="M-258.159 422.571C-257.557 419.726 -254.599 417.689 -252.069 415.833C-250.415 414.632 -248.623 413.59 -247.158 412.11C-246.263 411.158 -244.709 410.575 -243.467 409.765C-242.627 409.195 -241.726 408.6 -240.86 408.092C-241.793 406.901 -242.964 407.537 -244.171 408.261C-250.222 411.671 -256.359 415.046 -262.409 418.456C-263.179 418.852 -263.973 419.186 -264.63 419.679C-269.438 423.646 -275.341 425.698 -280.432 428.992C-285.147 431.984 -290.734 433.759 -294.663 437.933C-295.523 438.798 -296.817 439.487 -297.962 440.185C-304.347 444.168 -310.733 448.151 -317.144 452.073C-319.252 453.392 -321.575 454.369 -323.709 455.627C-324.697 456.187 -325.547 456.905 -326.396 457.622C-327.526 458.53 -328.578 459.62 -329.821 460.431C-334.693 463.561 -339.704 466.534 -344.664 469.629C-345.066 469.87 -345.616 470.102 -345.906 470.44C-351.458 476.232 -359.162 479.474 -365.708 484.101C-372.753 489.081 -379.937 493.904 -387.043 498.91C-388.942 500.213 -390.564 501.832 -392.324 503.292C-395.591 505.963 -398.832 508.695 -401.857 511.767C-398.349 509.499 -394.841 507.231 -391.308 505.024C-385.228 501.17 -379.097 497.438 -373.105 493.548C-371.74 492.686 -370.652 491.508 -369.391 490.402C-368.795 489.935 -368.251 489.346 -367.569 488.915C-363.282 486.103 -358.909 483.327 -354.596 480.576C-354.194 480.335 -353.756 480.006 -353.492 479.607C-350.479 475.82 -346.257 473.539 -341.671 471.609C-340.754 471.223 -339.827 470.689 -339.074 470.084C-335.946 467.256 -332.405 465.406 -328.399 464.152C-326.365 463.512 -324.138 462.647 -323.269 460.265C-322.293 457.623 -319.419 457.782 -317.028 457.135C-316.317 456.26 -315.57 455.298 -314.656 454.049C-313.321 453.631 -311.837 453.223 -310.415 452.84C-307.846 449.024 -305.658 447.383 -300.486 445.134C-300.364 445.083 -300.154 445.067 -300.058 444.954C-296.154 442.088 -292.137 439.318 -288.285 436.328C-286.28 434.765 -284.31 433.288 -281.826 433.034C-279.969 432.829 -278.685 432.288 -277.558 430.519C-277.092 429.746 -274.849 429.09 -273.462 428.794C-272.528 428.618 -271.634 429.033 -270.433 429.32C-269.336 425.258 -264.917 423.615 -261.895 421.047C-261.818 422.599 -261.783 423.88 -261.747 425.161C-262.098 425.524 -262.536 425.852 -262.764 426.164C-265.5 430.267 -269.272 432.935 -274.479 433.902C-275.351 434.053 -276.33 434.465 -277.221 434.912C-278.943 435.781 -280.526 436.807 -282.747 438.029C-283.259 439.037 -283.211 441.032 -286.297 441.395C-286.776 441.453 -287.616 442.022 -287.88 442.421C-290.021 446.058 -294.301 447.859 -297.793 450.336C-299.666 451.7 -301.137 452.823 -301.115 454.758C-301.06 455.743 -301.704 456.949 -303.844 457.85C-303.853 456.63 -303.873 455.558 -303.892 454.487C-307.654 455.638 -307.593 455.612 -307.722 458.042C-307.76 458.634 -308.462 459.362 -308.964 460.221C-309.865 459.448 -310.454 458.904 -311.043 458.36C-311.786 458.817 -312.362 458.987 -312.591 459.299C-314.586 462.083 -317.402 463.772 -320.878 465.091C-322.861 465.853 -324.743 467.365 -326.694 468.546C-326.153 469.83 -325.793 470.686 -325.268 471.761C-326.655 472.057 -328.001 472.623 -328.339 472.334C-329.873 471.252 -331.621 472.059 -333.327 473.137C-336.423 475.016 -339.467 477.017 -342.676 478.799C-344.835 479.996 -345.653 481.132 -345.55 482.744C-345.56 482.892 -345.936 483.195 -346.129 483.42C-347.343 483.787 -348.556 484.153 -348.739 484.23C-350.407 486.084 -351.295 487.394 -352.495 488.475C-354.047 489.919 -355.884 491.197 -357.349 492.677C-358.656 494.019 -359.451 495.721 -360.921 496.844C-364.275 499.479 -367.905 501.799 -371.371 504.337C-373.026 505.537 -374.516 506.956 -375.62 507.925C-375.675 509.676 -371.452 508.763 -374.693 511.494C-376.154 511.101 -377.615 510.708 -378.989 510.351C-382.919 513.156 -387.106 515.35 -389.108 519.144C-389.478 519.804 -390.476 520.512 -391.316 521.081C-393.144 522.211 -395.136 523.121 -396.852 524.347C-402.786 528.716 -409.207 532.786 -414.215 537.989C-414.759 538.578 -415.451 539.157 -416.123 539.44C-425.463 543.586 -431.938 550.775 -439.859 556.412C-444.69 559.812 -448.915 563.966 -453.357 567.779C-456.221 570.208 -458.86 572.831 -461.812 575.225C-468.783 580.894 -475.841 586.528 -482.448 592.548C-485.358 595.212 -487.72 598.15 -491.611 600.363C-496.027 602.87 -499.856 606.425 -502.818 610.335C-503.31 611.046 -504.298 611.606 -504.964 612.246C-507.558 614.634 -510.239 616.986 -512.634 619.505C-515.308 622.214 -517.523 625.162 -520.259 627.897C-521.372 629.014 -523.145 629.76 -524.632 630.674C-525.717 631.346 -526.792 631.87 -527.963 632.507C-528.336 629.569 -532.121 632.889 -533.759 631.563C-533.691 627.791 -539.909 630.119 -541.347 627.557C-543.506 628.754 -543.783 629.806 -543.783 631.174C-543.783 632.542 -545.084 632.873 -545.64 632.747C-546.396 631.122 -546.972 629.924 -547.59 628.456C-547.41 627.517 -546.309 625.686 -547.001 624.897C-548.712 622.882 -548.21 620.655 -546.668 617.99C-546.395 617.443 -546.565 616.867 -546.588 616.3C-546.813 616.107 -547.074 616.001 -547.299 615.808C-548.976 619.177 -552.397 620.113 -555.325 621.705C-556.191 622.214 -556.703 623.221 -557.379 624.009C-558.344 625.135 -559.249 626.236 -560.311 627.475C-562.512 625.665 -559.152 623.388 -559.267 621.061C-561.662 623.58 -564.147 625.202 -564.939 627.767C-565.241 628.758 -566.252 630.119 -568.289 629.896C-568.578 628.866 -569.286 627.868 -569 626.668C-568.295 624.068 -569.614 623.327 -572.536 623.909C-572.307 622.229 -571.767 620.777 -571.985 619.574C-572.329 617.559 -571.933 615.592 -570.655 613.327C-569.342 610.974 -569.818 609.159 -572.039 607.646C-573.561 608.646 -575.762 609.573 -576.676 610.821C-578.311 613.093 -580.844 614.087 -583.055 615.161C-584.777 616.03 -585.662 616.834 -586.663 618.047C-590.194 622.485 -593.724 626.922 -598.124 631.006C-598.343 631.17 -598.674 631.237 -598.98 631.366C-599.543 630.883 -600.106 630.4 -601.094 629.592C-603.46 631.667 -605.606 633.578 -608.603 636.207C-606.784 632.49 -605.345 629.581 -603.993 626.636C-604.254 626.53 -604.576 626.45 -604.836 626.343C-606.932 628.377 -608.966 630.385 -611.473 632.808C-611.447 631.501 -611.389 630.613 -611.366 629.811C-612.551 629.734 -613.5 629.701 -614.362 629.704C-614.24 625.549 -612.887 621.237 -614.847 617.094C-616.195 619.533 -617.271 621.425 -618.162 623.24C-619.028 625.117 -617.017 626.646 -619.83 629.198C-619.891 627.855 -619.945 626.871 -620.016 625.676C-621.101 626.349 -621.844 626.806 -622.613 627.201C-623.878 626.078 -625.03 625.051 -626.269 623.988C-629.529 627.016 -632.596 629.819 -636.461 633.461C-635.373 629.548 -634.716 626.32 -633.529 623.156C-632.73 620.948 -634.465 621.102 -636.164 621.17C-635.002 617.945 -631.491 615.171 -631.657 611.354C-634.599 614.968 -636.971 618.054 -639.517 621.069C-642.028 623.997 -644.773 626.88 -647.879 630.275C-647.908 627.983 -646.089 625.634 -648.873 625.006C-649.342 624.916 -648.905 623.22 -648.515 622.264C-647.878 620.7 -646.552 619.062 -647.43 617.488C-652.843 620.702 -653.368 625.098 -656.555 628.815C-656.004 627.215 -655.393 625.59 -654.842 623.991C-656.338 623.685 -658.43 623.845 -656.351 621.602C-655.411 621.783 -654.646 621.892 -654.089 622.018C-652.866 620.135 -651.871 618.565 -650.49 616.544C-650.551 615.202 -652.91 616.267 -654.075 615.893C-655.327 615.484 -656.122 614.451 -657.197 613.607C-658.204 614.463 -658.671 616.603 -660.862 616.014C-661.094 614.095 -661.325 612.177 -661.582 610.198C-663.33 611.005 -664.894 611.735 -667.131 612.748C-665.354 608.761 -663.789 605.295 -662.312 601.794C-661.755 600.552 -661.25 599.187 -661.295 598.054C-661.282 597.401 -662.385 597.001 -663.312 596.168C-662.903 594.916 -662.221 593.117 -661.661 591.369C-660.969 592.158 -660.01 592.042 -659.192 590.906C-658.146 589.458 -657.248 588 -656.871 586.33C-658.529 588.036 -660.248 589.767 -661.879 591.533C-661.203 589.377 -659.942 586.902 -663.662 586.956C-660.723 581.112 -657.585 575.4 -658.089 569.925C-658.179 569.027 -657.484 567.943 -657.268 566.916C-656.418 563.463 -655.063 560.013 -655.536 556.324C-658.185 560.462 -661.821 559.689 -665.493 560.37C-664.862 561.185 -664.473 561.597 -664.206 562.061C-663.826 562.621 -663.508 563.207 -663.154 563.705C-665.523 567.654 -665.523 567.654 -670.321 570.105C-669.642 568.812 -668.229 567.209 -668.618 566.797C-670.028 565.158 -668.052 562.671 -668.798 560.897C-669.364 559.552 -669.033 558.117 -667.304 556.237C-665.962 554.809 -665.627 552.868 -664.655 550.731C-669.115 552.104 -667.986 549.829 -667.11 547.805C-669.952 549.433 -672.514 550.871 -675.075 552.309C-673.73 550.375 -672.446 548.467 -671.1 546.533C-673.704 546.332 -674.891 544.024 -678.174 546.486L-678.27 546.598C-675.921 544.314 -673.488 542.57 -670.701 544.061C-669.787 542.812 -669.275 541.805 -668.416 540.939C-665.68 538.204 -665.654 538.266 -668.171 536.733C-666.922 536.279 -665.673 535.826 -664.425 535.372C-664.467 535.102 -664.569 534.857 -664.611 534.587C-665.892 534.622 -667.028 535.172 -668.003 536.446C-667.752 535.333 -667.868 534.374 -669.738 535.233C-670.996 535.834 -672.213 536.706 -673.481 537.456C-672.943 536.51 -672.467 535.589 -671.929 534.643C-672.164 534.598 -672.425 534.492 -672.66 534.447C-673.371 535.322 -674.021 536.171 -674.733 537.047C-674.263 537.137 -673.793 537.227 -673.41 537.282C-673.416 538.293 -673.336 539.339 -673.343 540.349C-677.546 542.334 -677.485 542.308 -677.159 539.148C-677.066 538.173 -677.033 537.223 -676.94 536.248C-675.82 535.489 -674.597 534.974 -673.957 534.272C-672.534 532.522 -670.893 531.975 -668.772 531.371C-665.045 530.306 -663.42 528.182 -662.856 524.562C-664.166 525.041 -665.476 525.52 -667.581 526.334C-666.528 523.875 -665.662 521.999 -664.822 520.062C-663.946 518.038 -663.035 515.926 -662.063 513.79C-663.293 513.947 -664.165 514.098 -665.333 514.23C-663.173 510.297 -660.009 507.382 -656.212 504.776C-656.762 506.375 -657.277 507.888 -658.005 509.922C-656.904 509.459 -656.257 509.115 -655.585 508.831C-655.446 508.989 -655.186 509.096 -655.257 509.269C-655.424 510.924 -655.627 512.665 -655.795 514.319C-655.84 514.554 -655.65 514.834 -655.843 515.059C-659.432 519.017 -658.788 523.282 -662.081 527.259C-662.129 527.999 -662.117 528.714 -662.165 529.454C-661.92 529.351 -661.615 529.223 -661.37 529.12C-661.627 528.508 -661.911 527.835 -662.255 527.188C-661.679 527.018 -661.042 526.822 -660.44 526.712C-659.838 526.603 -659.281 526.729 -658.776 526.732C-658.969 528.325 -659.423 529.812 -659.301 531.129C-659.169 532.297 -658.461 533.295 -657.937 534.37C-654.461 531.683 -653.563 528.858 -654.682 522.778C-655.294 523.035 -656.394 523.498 -658.081 524.28C-652.731 516.125 -652.952 509.955 -654.097 503.814C-654.867 504.21 -655.575 504.58 -656.283 504.95C-656.366 504.409 -656.511 503.894 -656.595 503.353C-659.745 504.247 -659.745 504.247 -661.251 502.721C-662.796 505.891 -665.216 508.349 -669.172 509.726C-669.6 509.906 -670.012 510.295 -670.388 510.598C-673.391 512.869 -676.394 513.773 -679.447 513.186C-679.361 513.222 -679.248 513.318 -679.1 513.328C-679.586 513.029 -680.551 512.787 -680.496 512.404C-680.104 510.943 -679.875 509.263 -678.752 507.998C-676.338 505.183 -675.903 502.624 -675.607 499.908C-676.276 499.686 -676.971 499.402 -677.988 499.038C-679.156 500.538 -680.228 501.925 -680.975 502.887C-682.371 503.331 -683.585 503.697 -684.676 504.012C-683.877 501.805 -683.372 500.44 -682.68 498.493C-684.637 499.316 -685.773 499.867 -686.873 500.33C-689.663 497.976 -685.859 495.728 -684.536 493.227C-683.806 493.424 -683.381 493.749 -682.84 493.665C-681.846 493.463 -680.719 493.061 -679.941 492.517C-679.661 492.327 -679.879 491.123 -680.269 490.711C-680.822 490.08 -681.778 489.691 -682.688 489.066C-683.548 489.932 -684.31 490.684 -685.048 491.499C-684.835 490.977 -684.648 490.395 -684.375 489.848C-685.839 489.96 -687.303 490.072 -688.767 490.184C-688.639 490.49 -688.597 490.761 -688.468 491.066C-688.989 489.486 -689.475 487.819 -689.996 486.238L-689.909 486.274C-691.032 484.802 -689.105 483.055 -688.795 481.053C-687.396 481.472 -686.186 481.611 -685.536 482.129C-683.882 483.665 -688.352 485.186 -687.753 486.95C-685.755 486.397 -684.764 485.332 -684.171 484.003C-683.022 481.432 -681.439 479.037 -678.594 476.904C-677.937 476.412 -677.644 475.569 -677.09 474.832C-683.494 475.007 -685.235 473.436 -684.688 468.238C-684.549 467.028 -684.14 465.776 -685.933 465.451C-686.254 465.37 -685.714 463.919 -685.604 463.153C-684.729 463.864 -683.915 464.602 -682.875 465.532C-681.273 464.21 -679.915 462.99 -677.742 461.14C-680.021 461.883 -681.356 462.301 -682.814 462.771C-683.2 461.853 -680.677 459.639 -683.901 459.845C-684.51 460.965 -685.092 462.146 -685.736 463.352C-686.357 461.022 -689.157 461.552 -692.539 461.896C-691.309 460.371 -690.44 459.357 -689.501 458.17C-688.738 458.784 -688.313 459.11 -687.438 459.821C-686.443 456.883 -685.661 454.466 -684.818 452.023C-686.105 451.701 -688.242 452.097 -686.803 449.187C-684.814 451.518 -682.96 449.082 -680.975 447.815C-679.829 447.116 -678.674 446.27 -677.625 447.053C-676.183 446.374 -674.715 445.756 -673.09 445C-676.035 445.016 -676.035 445.016 -677.625 447.053C-678.127 446.544 -678.303 445.61 -679.903 446.428C-681.039 446.978 -682.165 447.38 -683.327 447.869C-684.241 446.381 -683.536 445.149 -682.255 443.746C-680.43 441.754 -677.392 439.396 -677.26 437.828C-677.102 434.954 -673.697 433.809 -672.725 431.672C-672.512 431.151 -672.387 430.594 -672.001 430.144C-669.947 427.84 -668.125 424.986 -665.564 423.548C-662.538 421.842 -661.859 420.549 -661.479 418.373C-661.315 417.224 -660.678 415.66 -659.609 414.779C-656.185 411.97 -656.423 409.694 -657.217 407.293C-661.388 408.328 -661.662 412.979 -666.328 413.863C-665.186 410.934 -663.316 408.707 -660.915 406.545C-659.679 405.377 -658.668 404.016 -657.632 402.716C-657.439 402.491 -657.619 402.063 -657.686 401.731C-659.134 402.053 -660.496 402.41 -662.005 402.757C-661.026 398.241 -655.7 396.36 -653.206 393.222C-652.137 393.709 -651.529 393.957 -650.921 394.205C-649.762 392.853 -649.003 391.238 -647.805 390.662C-642.885 388.159 -639.566 384.243 -635.357 381.248C-634.42 380.566 -633.622 379.726 -632.885 378.912C-629.473 375.388 -626.235 371.794 -622.711 368.367C-616.548 362.318 -610.246 356.426 -604.083 350.377C-601.576 347.954 -599.406 345.242 -596.725 342.889C-592.625 339.292 -588.151 335.898 -583.913 332.458C-582.407 331.249 -580.814 330.074 -579.446 328.707C-576.903 326.197 -574.647 323.52 -571.992 321.106C-568.136 317.612 -564.055 314.311 -560 310.949C-555.848 307.474 -551.671 304.06 -547.432 300.62C-543.351 297.319 -539.183 294.053 -535.015 290.788C-532.537 288.809 -529.808 287.084 -527.677 284.964C-523.426 280.871 -517.581 278.34 -513.407 274.063C-510.951 271.518 -507.202 269.652 -504.199 267.381C-499.98 264.237 -495.812 260.972 -491.619 257.767C-486.488 253.88 -481.358 249.994 -476.264 246.194C-475.511 245.589 -474.671 245.02 -473.856 244.389C-467.178 239.563 -460.439 234.711 -453.787 229.824C-449.664 226.793 -445.541 223.762 -441.306 220.828C-436.851 217.73 -432.233 214.85 -427.544 211.797C-427.759 208.72 -426.971 208.028 -422.813 206.278C-419.144 204.735 -414.973 203.699 -412.363 200.153C-411.774 199.329 -410.194 198.808 -409.083 198.197C-408.253 197.776 -407.075 197.496 -406.506 196.968C-403.181 193.409 -398.74 190.964 -394.611 188.291C-388.47 184.411 -383.34 179.156 -376.137 176.773C-376.015 176.722 -375.832 176.645 -375.674 176.506C-370.277 173.083 -364.69 169.94 -359.605 166.288C-353.059 161.662 -346.271 157.438 -339.319 153.432C-333.137 149.823 -326.894 146.187 -321.039 142.14C-316.839 139.293 -312.479 137.17 -307.706 134.657C-308.305 135.629 -308.665 136.141 -309.264 137.112C-308.144 136.353 -307.079 135.977 -306.901 135.542C-306 133.579 -304.372 132.318 -302.083 131.427C-301.289 131.093 -300.603 130.156 -299.824 129.612C-296.963 127.689 -294.041 125.739 -291.154 123.876C-289.046 122.557 -286.278 121.608 -284.778 120.041C-282.358 117.583 -279.362 116.322 -276.494 114.755C-275.043 113.928 -273.463 113.407 -271.986 112.642C-262.073 107.463 -252.238 102.1 -242.249 97.104C-229.401 90.6895 -216.476 84.4585 -203.552 78.2275C-185.655 69.6161 -167.784 60.9436 -149.205 54.6368C-148.446 54.3892 -147.754 53.81 -146.959 53.4755C-142.032 51.33 -137.104 49.1845 -132.126 47.1613C-129.287 46.0388 -126.294 45.2832 -123.456 44.1607C-119.308 42.5589 -115.211 40.8348 -111.124 39.2588C-108.102 38.0591 -105.028 36.9816 -102.042 35.8688C-103.986 37.4067 -106.013 38.404 -108.153 39.3046C-117.045 42.9747 -125.902 46.5578 -134.794 50.2279C-140.323 52.4827 -145.81 55.0078 -151.339 57.2626C-159.584 60.5884 -167.855 63.8531 -175.775 68.1221C-177.069 68.8105 -178.44 69.3155 -179.76 69.9427C-181.069 70.4219 -182.353 70.9623 -183.602 71.4158C-185.279 72.0495 -186.016 72.8636 -185.327 74.1576C-182.389 73.785 -180.931 71.9476 -179.698 69.917C-179.615 70.4577 -179.47 70.9727 -179.428 71.2431C-173.484 70.8294 -168.75 66.1735 -162.223 64.5787C-167.65 69.8139 -173.439 71.9624 -179.113 73.7021C-182.814 74.8277 -185.62 76.3686 -187.973 79.1585C-188.913 80.3459 -190.097 81.6362 -191.427 82.4115C-195.231 84.6603 -199.209 86.8383 -203.141 88.7812C-204.094 89.2541 -205.545 88.713 -206.411 89.2213C-209.034 90.6851 -211.528 92.4546 -213.61 93.8349C-214.601 93.5321 -215.512 92.9074 -216.037 93.2002C-219.725 95.0402 -223.249 97.0992 -227.008 99.113C-226.577 99.7955 -226.335 100.198 -226.068 100.661L-226.033 100.574C-227.78 101.382 -229.554 102.128 -231.337 103.022C-233.12 103.917 -234.681 105.509 -236.824 105.548C-236.463 105.036 -235.964 104.682 -235.527 104.354C-234.906 103.948 -234.32 103.63 -233.699 103.225C-239.923 105.196 -245.896 107.422 -249.169 113.839C-246.81 112.774 -244.915 111.976 -243.01 111.03C-240.921 110.007 -238.935 108.74 -236.847 107.717C-227.774 103.107 -218.702 98.4972 -209.691 93.9131C-204.184 91.0919 -198.739 88.2964 -193.232 85.4751C-191.633 84.658 -189.895 83.9987 -188.27 83.2427C-183.053 80.7594 -177.878 78.0056 -172.558 75.7669C-165.526 72.8076 -159.649 67.9589 -152.869 64.7453C-152.273 62.9109 -150.223 62.4801 -148.694 61.8368C-142.274 59.1349 -135.889 56.5198 -129.443 53.8791C-127.914 53.2358 -126.476 53.0624 -126.34 50.9897C-126.298 49.8922 -124.145 48.3381 -121.802 48.4321C-120.409 48.4936 -118.488 47.757 -116.898 47.088C-114.783 46.1262 -112.849 44.7363 -110.735 43.7745C-108.559 42.787 -106.355 41.3553 -102.956 41.2209C-104.968 42.4274 -105.93 43.0483 -106.918 43.6081C-109.303 44.6117 -111.626 45.5895 -114.011 46.5931C-111.07 47.083 -109.036 45.0752 -106.883 43.5212C-101.035 41.8523 -95.1716 40.3926 -89.3756 38.6014C-84.5837 37.1607 -79.7885 35.2147 -75.048 33.6517C-65.3934 30.5966 -55.7998 27.5672 -46.1291 24.7212C-36.1881 21.8336 -26.1796 19.2774 -16.2224 16.5989C-16.1001 16.5475 -15.9715 16.8533 -15.7559 17.1945C-17.0142 17.796 -18.1759 18.2849 -19.3732 18.8607C-19.3314 19.1311 -19.3154 19.3403 -19.2736 19.6107C-16.0715 18.8391 -12.9563 18.032 -9.81529 17.2861C-9.76381 17.4084 -9.71234 17.5308 -9.66086 17.6531C-10.7455 18.3255 -11.8912 19.0236 -13.9638 20.2558C-9.52269 19.1787 -6.14673 18.4779 -2.70006 17.6033C10.929 14.2435 24.5838 10.9448 37.9711 9.91827C40.0018 9.78361 42.467 8.4582 44.3303 8.60995C50.7825 9.0622 57.7049 6.86894 64.4276 5.91154C71.4818 4.88663 78.9158 3.05397 84.9302 5.20227C85.2778 5.34397 85.8183 5.26048 86.2367 5.22839C92.9722 4.98552 99.6466 4.76835 106.392 4.37742C114.627 3.93537 122.907 3.25839 131.142 2.81634C137.887 2.42541 144.597 2.12135 151.262 2.05226C155.548 1.97611 159.719 2.30868 163.961 2.46748C156.433 5.27531 149.63 3.81882 142.048 7.00966C142.888 7.80808 143.747 8.31038 144.905 8.32676C150.167 8.3442 155.525 8.24903 160.822 8.17957C161.537 8.16689 162.119 8.3537 162.763 8.51481C162.656 8.77548 162.55 9.03617 162.444 9.29684C155.48 9.85187 148.374 12.1223 141.259 13.1729C134.414 14.1818 127.369 15.0587 120.238 17.268C121.612 17.6256 123.041 17.6002 124.54 17.401C139.9 15.7603 155.447 13.537 170.531 12.9487C184.42 12.4308 198.248 11.9387 211.783 12.2898C218.316 12.4202 224.788 12.5764 231.179 13.0544C233.399 13.1998 235.584 13.432 237.918 13.6741C235.5 15.6271 233.84 16.4699 231.356 15.3557C229.106 14.2866 225.531 14.8553 222.081 16.2352C220.43 16.93 218.666 17.5281 217.009 17.8656C208.931 19.5372 200.889 21.1219 192.847 22.7066C191.791 22.9348 190.659 22.9796 189.568 23.2947C188.564 23.6453 187.045 24.1405 186.649 24.7391C185.136 26.9595 183.105 27.0941 181.258 27.1516C171.543 27.4967 161.405 31.115 151.496 33.0532C148.845 33.5933 146.203 33.9852 143.557 34.8825C137.507 36.9247 131.743 37.7665 125.947 38.1899C124.335 38.2924 122.52 38.7683 120.93 39.4374C118.275 40.4827 115.662 41.7984 112.473 43.2846C129.136 42.1752 145.481 40.48 162.038 38.2635C157.378 39.5047 152.779 40.7201 148.12 41.9613C158.43 42.5175 169.755 39.8393 180.05 40.1864C180.005 40.4213 179.985 40.7174 180.001 40.9266C178.029 41.5409 176.03 42.0939 173.97 42.6727C187.001 41.6526 199.796 40.5873 212.617 39.5832C207.76 42.9228 203.387 40.2277 198.357 43.4965C200.403 46.3068 203.663 47.3826 208.011 47.2807C212.001 47.1852 215.992 47.0897 219.982 46.9941C218.312 49.3529 220.175 49.5046 221.62 49.6885C228.619 50.4144 235.654 51.0535 242.785 51.58C248.201 51.9643 253.987 51.689 259.14 52.4724C263.97 53.1753 268.971 53.0865 274.155 52.9205C279.278 52.7802 284.26 52.9874 289.312 53.0209C288.646 53.6612 288.096 53.8928 287.616 53.9506C279.014 54.5471 270.412 55.1435 261.81 55.7399C258.672 55.9805 255.483 56.0988 252.275 56.5132C250.627 56.7026 248.677 56.5155 246.955 58.7519C250.472 59.0715 253.781 59.407 257.298 59.7265C256.184 63.5788 259.054 64.2426 262.24 64.6297C263.45 64.7684 264.783 64.8556 266.16 64.7079C270.71 64.2327 275.296 63.6707 279.882 63.1086C280.78 63.0187 281.668 63.0769 282.53 63.0739C281.768 63.8268 281.217 64.0584 280.616 64.1677C271.293 65.7874 261.85 69.6891 252.617 70.839C252.199 70.871 251.649 71.1026 251.221 71.2827C246.438 73.9432 241.402 75.4868 236.658 76.1872C235.551 77.661 234.621 78.7004 233.864 79.8106C232.773 81.4936 233.205 82.176 235.235 82.0414C236.577 81.9806 238.167 81.3115 239.512 82.1133C231.383 85.0304 223.785 85.2763 215.681 88.2546C217.184 90.2859 219.231 90.3604 221.847 89.9073C228.1 88.8596 233.609 89.6367 239.295 89.9793C235.186 90.9889 231.112 91.9116 227.163 92.2775C216.955 93.3338 206.747 94.39 196.359 96.3861C195.033 96.6561 193.141 96.9485 192.317 97.7272C190.633 99.3714 189.076 99.091 187.515 99.3159C186.016 99.515 184.509 99.3569 183 99.7042C175.061 101.533 167.086 103.45 159.137 105.427C156.991 105.97 154.886 106.784 152.73 107.476C152.659 107.649 152.675 107.859 152.604 108.032C154.294 108.113 156.009 108.255 158.796 108.378C156.585 109.453 155.439 110.151 154.287 110.492C150.988 111.376 147.744 111.877 144.497 112.884C138.762 114.649 132.883 115.9 127.476 119.471C127.292 119.548 127.135 119.687 127.064 119.86C124.081 120.468 121.036 121.101 118.027 121.648C118.018 121.796 117.947 121.969 117.963 122.179C120.129 122.707 122.294 123.235 124.817 123.757C123.244 124.636 122.072 125.273 120.962 125.884C115.706 128.959 110.718 132.499 104.664 133.678C102.859 134.006 100.97 135.161 99.1096 135.872C99.1611 135.994 99.1515 136.142 99.203 136.265C100.493 136.081 101.845 135.873 103.11 135.628C103.1 135.776 103.116 135.985 103.107 136.134C98.4594 138.089 93.8379 140.106 89.0685 142.113C89.5093 142.648 89.8375 143.085 90.1657 143.523L90.2011 143.436C88.4536 144.244 86.6706 145.138 84.9231 145.945C83.8836 146.383 82.532 146.592 81.7789 147.197C78.7214 149.851 75.294 150.43 71.9536 151.043C69.6687 151.429 67.6091 152.008 65.7166 153.668C64.0593 154.006 62.3247 154.16 60.796 154.803C51.1445 158.721 41.5702 162.822 31.9444 166.801C29.7431 167.727 27.4903 168.531 25.3405 169.58C31.8379 168.429 48.3894 161.752 65.7263 153.52C67.2259 153.321 68.7771 153.244 70.2864 152.897C76.6391 151.231 83.053 149.54 89.4411 147.788C99.5206 145.058 109.52 141.282 119.625 139.981C123.313 139.509 127.216 138.01 131.03 136.981C137.688 135.186 144.389 133.663 151.031 131.659C169.806 125.99 188.488 121.295 207.089 118.291C211.266 117.613 215.408 117.022 219.549 116.431C216.794 118.094 214.043 119.252 211.275 120.201C205.399 122.314 199.532 124.279 193.681 126.453C192.677 126.803 191.711 127.93 190.852 128.795C189.52 130.076 188.76 131.691 186.414 132.103C181.896 132.996 177.393 134.099 172.891 135.202C171.259 135.601 169.592 136.086 167.961 136.485C167.916 136.72 167.932 136.929 167.887 137.164C172.727 136.351 177.628 135.512 182.494 134.76C180.936 135.848 179.469 136.465 177.924 136.899C174.355 137.825 170.744 138.481 167.201 139.468C163.841 140.378 160.327 140.921 157.202 143.244C152.607 142.587 147.911 145.282 142.858 146.617C146.543 148.018 152.381 146.497 157.237 143.157C156.783 144.644 157.292 145.51 159.332 145.227C160.265 145.051 161.163 144.961 162.122 144.845C152.68 148.747 138.13 155.734 135.887 157.758C139.813 156.825 143.495 155.996 147.176 155.166C147.9 155.006 149.007 154.9 149.197 155.18C150.349 157.575 152.586 155.193 154.417 154.927C154.501 154.1 154.539 153.507 154.572 152.558C159.203 151.761 163.785 150.336 167.705 150.415C170.823 150.47 173.597 149.879 176.687 149.01C182.682 147.351 188.72 145.962 195.037 144.384C193.994 146.694 192.594 147.643 190.473 148.248C184.722 149.804 178.936 151.447 173.201 153.213C169.317 154.416 165.484 155.741 161.59 157.092C154.465 159.658 147.339 162.225 140.266 164.914C133.498 167.474 126.72 170.182 120.004 172.865C119.27 173.173 118.449 173.447 117.69 173.694C111.237 175.978 104.698 178.226 98.2452 180.509C97.5469 180.731 96.8966 181.581 95.635 182.688C96.9867 182.479 97.6045 182.579 98.0679 182.312C102.245 180.266 106.751 180.026 110.906 177.413C112.952 176.12 115.43 175.509 117.764 175.751C118.974 175.89 120.534 175.665 121.818 175.124C125.049 173.909 128.187 172.3 131.383 171.171C139.023 168.46 146.535 164.075 154.442 163.195C155.191 163.096 156.012 162.822 156.807 162.488C166.616 158.432 176.454 156.667 186.263 153.979C192.014 152.423 197.768 151.729 203.545 148.866C205.083 148.075 207.159 147.705 208.578 147.828C213.193 148.189 218.011 146.81 222.848 145.134C223.852 144.784 224.985 144.739 226.005 144.598C225.96 144.833 225.976 145.042 225.931 145.277C224.148 146.171 222.426 147.04 220.302 148.149C221.109 148.529 221.325 148.871 221.743 148.839C224.06 148.871 226.413 148.817 228.73 148.85C230.812 148.838 233.493 147.853 235.678 149.454C231.23 150.173 227.574 151.064 224.202 151.259C213.839 151.949 203.441 154.093 192.676 157.759C189.725 158.785 186.594 160.751 184.1 161.153C177.882 162.113 172.881 167.674 166.712 167.894C166.502 167.91 166.213 168.248 165.933 168.438C163.052 170.658 159.857 171.787 156.532 172.61C155.564 172.874 154.601 173.495 153.623 173.906C153.604 174.202 153.645 174.473 153.6 174.708C155.431 174.441 157.263 174.174 159.129 173.821C162.688 173.043 166.273 172.326 169.791 171.278C176.643 169.258 183.478 167.029 190.278 164.888C193.072 164 195.846 163.409 198.665 162.582C203.946 160.936 209.201 159.228 214.508 157.643C215.905 157.199 217.572 156.713 218.766 158.011C217.543 158.525 216.712 158.947 215.866 159.159C213.842 159.651 211.785 159.724 209.838 160.4C200.811 163.407 191.835 166.536 182.824 169.752C181 170.376 179.259 171.541 177.553 172.619C177.089 172.886 176.919 173.677 176.478 174.511C182.451 172.285 187.909 170.204 193.419 168.245C194.484 167.869 195.819 167.451 196.637 167.683C200.141 168.656 203.366 167.083 206.694 164.387C209.329 166.373 212.785 165.351 216.486 164.225C219.428 163.347 222.356 163.123 225.304 162.602C222.952 164.024 220.663 164.915 218.333 165.535C213.184 166.982 208.035 168.429 202.87 169.667C199.79 170.387 197.949 172.17 197.482 174.31C196.954 176.476 195.477 177.242 193.25 178.107C190.656 179.127 187.802 180.04 185.562 181.558C182.639 183.508 179.704 184.743 176.579 185.698C174.092 186.457 171.562 186.946 169.126 187.827C165.808 189.008 162.233 189.576 159.204 191.787C159.789 195.572 158.64 196.775 153.44 198.1C150.962 198.711 148.362 199.373 146.028 200.499C141.825 202.484 137.751 204.774 133.763 207.1C129.592 209.504 125.714 212.431 121.44 214.59C117.472 216.62 114.434 218.978 112.548 222.364C112.416 222.563 112.075 222.779 112.39 222.502C108.725 223.541 105.455 223.981 102.571 225.338C97.0488 227.95 91.6968 231.138 86.216 234.021C85.3246 234.468 84.4073 234.854 83.5159 235.301C76.9699 238.56 70.1729 241.564 63.894 245.286C60.9557 247.027 58.2104 248.542 55.1112 249.558C54.6575 249.677 54.1072 249.909 53.766 250.124C48.6714 253.924 42.605 255.757 37.2078 259.18C32.2741 262.336 26.7709 264.652 21.509 267.371C18.0654 269.108 14.683 270.819 11.2394 272.556C8.34618 274.062 5.25345 275.435 2.57575 277.282C-2.56073 280.812 -8.18628 283.179 -13.6573 285.913C-15.4403 286.808 -17.1974 287.763 -18.9804 288.657C-22.8262 290.636 -26.6978 292.553 -30.5437 294.531C-33.1924 295.934 -35.7541 297.372 -38.4028 298.775C-39.7577 299.489 -41.0773 300.116 -42.4322 300.83C-46.558 302.999 -50.2881 305.936 -54.8773 307.003C-55.7237 307.216 -56.686 307.837 -57.5517 308.345C-59.4055 309.413 -61.2591 310.481 -63.5763 311.816C-63.9433 313.338 -65.3272 314.497 -67.8857 315.429C-70.6277 316.439 -73.2603 318.051 -75.7963 319.55C-77.4667 320.541 -78.8827 321.281 -80.6945 321.252C-82.7766 321.264 -84.6303 322.332 -86.8252 323.616C-89.9824 325.52 -92.7309 327.541 -95.2992 329.989C-96.1843 330.794 -97.5553 331.299 -98.7525 331.875C-100.815 332.959 -102.956 333.859 -104.993 335.005C-109.041 337.356 -112.842 340.468 -117.026 342.156C-123.044 344.617 -128.374 348.372 -134.356 350.745C-137.745 352.1 -141.121 354.168 -144.41 354.904C-148.816 355.895 -151.906 358.131 -155.024 360.811C-155.909 361.615 -157.223 362.6 -158.243 362.741C-160.17 363.12 -161.837 363.606 -162.398 365.354C-162.826 366.902 -162.372 368.15 -160.528 368.598C-159.415 368.85 -158.626 369.526 -157.793 369.967C-158.057 370.366 -158.128 370.54 -158.25 370.591C-163.177 372.737 -168.358 373.765 -173.041 377.176C-174.634 378.35 -177.119 378.604 -179.667 379.388C-179.13 378.442 -179.004 377.885 -178.786 377.721C-175.963 376.39 -173.166 374.997 -170.241 373.91C-166.312 372.472 -165.262 370.519 -167.373 368.239C-170.829 369.262 -174.173 371.749 -177.813 371.481C-178.553 371.432 -180.6 372.726 -180.944 373.447C-182.084 375.87 -184.353 376.465 -186.651 377.504C-189.193 378.646 -191.607 380.093 -194.046 381.48C-194.632 381.798 -195.298 382.439 -195.717 382.471C-198.478 382.409 -200.824 384.188 -203.115 385.584C-208.615 388.763 -214.003 392.038 -219.39 395.313C-219.915 395.606 -220.275 396.117 -221.582 397.459C-219.12 396.639 -217.559 396.414 -216.353 395.69C-213.292 393.899 -210.479 392.715 -207.731 393.43C-203.731 390.451 -199.769 388.064 -195.321 385.976C-191.118 383.991 -186.889 382.068 -182.178 379.581C-184.337 383.513 -187.295 385.55 -191.154 386.814C-192.673 387.309 -194.16 388.223 -195.663 388.927C-197.655 389.838 -199.647 390.748 -202.225 391.977C-203.049 394.123 -204.948 395.426 -208.407 395.586C-210.106 395.653 -212.311 397.085 -214.19 398.092C-217.608 399.89 -220.913 401.785 -224.305 403.645C-225.293 404.204 -226.394 404.668 -227.331 405.35C-231.041 407.991 -236.123 408.402 -239.135 412.189C-239.232 412.302 -239.711 412.36 -240.008 412.34C-241.707 412.407 -242.846 413.463 -244.281 414.499C-247.88 417.237 -251.22 420.586 -256.112 421.277C-256.212 421.895 -256.328 422.304 -256.286 422.574C-256.193 422.967 -255.942 423.221 -255.787 423.588C-260.248 426.329 -260.248 426.329 -262.738 424.858C-259.987 425.068 -258.59 424.624 -258.159 422.571ZM-539.189 313.709C-541.339 314.758 -544.097 315.558 -543.154 317.969C-544.596 318.648 -546.037 319.327 -547.479 320.005C-547.402 320.189 -547.238 320.408 -547.161 320.591C-545.857 319.755 -544.518 318.831 -543.154 317.969C-541.838 316.479 -540.531 315.138 -539.189 313.709ZM-358.673 175.687C-363.77 178.624 -369.467 181.165 -373.863 184.743C-378.137 188.269 -383.206 190.762 -387.393 194.324C-389.408 196.036 -392.134 197.255 -394.46 198.738C-397.434 200.566 -400.321 202.428 -403.321 204.195C-408.637 207.296 -413.063 211.318 -417.929 214.806C-420.677 216.826 -423.107 219.433 -426.769 219.966C-427.162 220.059 -427.661 220.413 -428.037 220.715C-433.666 224.956 -439.27 229.258 -444.837 233.473C-444.291 235.114 -442.955 234.696 -441.642 233.712C-440.049 232.537 -438.594 231.205 -437.001 230.031C-428.353 223.728 -419.265 217.959 -410.479 211.814C-399.356 204.038 -388.008 196.455 -376.66 188.872C-371.157 185.188 -365.454 181.636 -359.925 178.013C-358.682 177.203 -357.553 176.295 -356.423 175.388C-356.597 175.317 -356.735 175.159 -356.909 175.089C-357.485 175.259 -358.148 175.394 -358.673 175.687ZM-633.257 531.615C-633.898 533.684 -634.493 535.518 -635.24 537.849C-635.633 537.942 -636.601 538.205 -637.927 538.475C-638.603 540.632 -639.228 542.91 -639.959 545.449C-634.916 544.263 -629.915 542.806 -626.355 537.925C-623.902 534.517 -624.736 532.708 -629.196 532.713C-629.035 532.07 -628.839 531.339 -628.703 530.634C-628.542 529.991 -628.417 529.434 -628.246 528.642C-630.37 528.384 -632.407 528.161 -634.914 527.849C-635.464 529.448 -635.996 530.751 -636.652 532.612C-634.924 532.1 -634.078 531.888 -633.257 531.615ZM-235.192 99.6774C-234.023 98.1779 -233.199 96.0313 -230.625 96.6757C-228.066 94.3751 -224.275 94.1475 -221.758 91.5766C-221.057 90.8494 -219.467 90.1803 -218.421 90.1001C-214.855 89.6794 -212.689 87.4721 -209.815 84.8948C-211.437 85.1454 -212.647 85.0067 -213.6 85.4795C-217.339 87.1973 -221.063 89.1242 -224.725 91.0254C-230.354 93.8981 -235.957 96.832 -241.586 99.7047C-250.388 104.273 -259.225 108.928 -268.027 113.496C-268.43 113.737 -268.806 114.04 -269.08 114.587C-263.57 112.628 -258.54 109.359 -252.634 106.802C-253.529 107.754 -254.073 108.343 -254.617 108.932C-248.354 105.001 -242.789 99.9233 -235.192 99.6774ZM-504.097 600.795C-507.148 601.071 -509.5 601.125 -511.933 601.501C-512.683 601.6 -513.768 602.273 -514.434 602.913C-517.282 605.552 -520.044 608.225 -522.805 610.899C-523.375 611.427 -523.954 612.103 -524.115 612.746C-524.347 613.564 -524.486 614.774 -523.964 614.987C-523.243 615.331 -521.831 615.097 -520.653 614.817C-519.99 614.682 -519.201 613.99 -518.606 613.524C-515.68 611.069 -512.806 608.491 -509.794 606.072C-508.919 605.415 -507.593 605.145 -505.732 604.434C-505.272 603.305 -504.69 602.124 -504.097 600.795ZM167.196 42.1399C153.761 43.9067 140.611 44.473 126.925 47.3533C126.41 47.498 125.84 48.0257 125.097 48.4825C127.59 49.4487 130.168 49.5877 133.303 48.4846C139.974 46.037 146.22 46 152.637 45.1713C159.054 44.3426 165.365 43.7744 171.747 43.0326C171.853 42.7719 171.872 42.4759 171.979 42.2152C170.315 42.1954 168.844 41.9505 167.196 42.1399ZM105.942 159.633C112.134 157.243 118.265 154.879 124.473 152.698C126.088 152.09 127.894 151.763 129.409 151.773C132.293 151.783 134.784 150.519 137.844 148.727C133.204 148.304 128.708 149.764 124.489 151.54C119.108 153.804 113.785 155.18 108.366 156.669C105.46 157.46 102.611 158.731 99.3547 159.885C101.375 161.267 103.628 160.463 105.942 159.633ZM-469.97 253.624C-470.108 253.466 -470.16 253.344 -470.298 253.186C-471.363 253.562 -472.393 253.852 -473.407 254.35C-474.849 255.029 -476.944 255.695 -477.543 256.667C-479.573 259.537 -482.866 260.779 -485.579 262.712C-489.29 265.354 -492.55 268.381 -495.923 271.313C-496.396 271.728 -496.531 272.433 -496.779 273.041C-496.544 273.086 -496.309 273.131 -496.074 273.176C-487.381 266.638 -478.689 260.101 -469.97 253.624ZM-308.184 146.52C-305.078 144.494 -301.107 143.326 -298.924 139.96C-300.051 140.362 -301.402 140.571 -302.303 141.166C-311.44 147.675 -322.045 152.066 -331.017 158.793C-330.828 159.073 -330.602 159.267 -330.412 159.547C-322.936 155.249 -315.27 151.231 -308.184 146.52ZM-658.415 548.969C-658.18 550.382 -658.554 552.915 -654.93 552.974C-653.53 549.289 -652.078 545.726 -650.861 542.119C-650.613 541.51 -651.202 540.966 -651.466 539.998C-655.093 543.18 -658.865 545.847 -658.415 548.969ZM-188.134 74.3307C-194.802 76.273 -200.797 79.3 -206.661 83.4955C-205.738 83.4668 -204.849 83.5249 -204.003 83.3127C-202.371 82.914 -200.73 82.3673 -199.115 81.7594C-198.32 81.4249 -197.306 80.9263 -196.823 80.3632C-195.121 78.4228 -193.087 77.7829 -190.596 77.8865C-189.611 76.4642 -188.925 75.5278 -188.134 74.3307ZM-303.746 148.684C-303.704 148.955 -303.688 149.164 -303.646 149.434C-302.774 149.283 -301.764 149.29 -301.02 148.833C-294.593 145.121 -288.166 141.408 -281.791 137.573C-280.304 136.66 -279.094 135.43 -277.745 134.359C-277.945 134.227 -278.17 134.034 -278.308 133.876C-286.782 138.882 -295.221 143.801 -303.746 148.684ZM59.085 145.948C66.7828 145.085 74.1335 141.343 81.4293 137.985C73.7539 139.415 66.3229 142.111 59.085 145.948ZM-333.154 160.557C-338.252 162.126 -344.943 166.237 -354.469 173.702C-348.863 171.631 -335.497 163.198 -333.154 160.557ZM-448.053 237.633C-451.158 238.292 -454.154 238.185 -456.198 241.709C-457.203 243.428 -460.035 244.907 -462.101 246.497C-463.449 247.568 -464.824 248.579 -466.259 249.615C-465.982 249.93 -465.731 250.184 -465.455 250.5C-459.642 246.182 -453.891 241.89 -448.053 237.633ZM-639.201 447.368C-641.064 449.952 -643.111 452.613 -644.923 455.32C-645.882 456.803 -646.397 458.316 -647.147 459.783C-646.851 459.803 -646.53 459.883 -646.234 459.903C-641.47 456.17 -638.19 450.111 -639.201 447.368ZM-29.6378 63.5667C-30.587 62.1664 -32.2766 63.4534 -33.7699 64.0098C-32.9168 61.4191 -35.5075 63.3013 -37.0941 63.465C-36.6341 65.0712 -36.1483 66.7385 -35.5082 68.7728C-32.9785 66.9163 -31.1055 65.5522 -29.329 64.3006C-29.5606 63.7502 -29.6121 63.6279 -29.6378 63.5667ZM-506.75 280.476C-511.754 282.438 -514.95 284.935 -517.505 288.098C-513.09 286.96 -509.514 285.023 -506.75 280.476ZM-229.956 403.215C-228.63 401.577 -227.423 400.853 -225.287 400.458C-223.063 400.098 -222.384 398.804 -222.895 397.076C-226.622 399.508 -230.445 402.053 -234.233 404.511C-234.043 404.791 -233.941 405.036 -233.751 405.316C-232.518 404.653 -230.668 404.09 -229.956 403.215ZM-657.855 600.926C-654.241 598.397 -654.24 598.397 -652.756 592.517C-655.727 593.839 -656.3 594.872 -657.855 600.926ZM-264.131 121.215C-269.374 122.269 -272.846 124.45 -275.357 127.379C-271.752 126.366 -268.151 124.49 -264.131 121.215ZM-94.5734 43.5244C-89.9616 41.6556 -86.0484 41.3766 -81.5266 38.6098C-86.3989 39.0044 -90.2285 39.8242 -94.5734 43.5244ZM-296.955 139.851C-292.514 137.406 -288.903 135.383 -284.828 133.092C-288.716 133.432 -294.695 136.669 -296.955 139.851ZM55.0763 191.837C58.9863 192.063 62.0242 191.073 64.6987 188.364C61.223 189.682 58.1145 189.479 55.0763 191.837ZM90.4532 53.5589C93.5231 54.3547 99.0615 53.3197 105.157 51.0426C100.6 51.1605 95.8436 52.5142 90.4532 53.5589ZM-34.2381 23.3886C-38.6212 23.5774 -43.0334 25.5782 -47.6162 27.0028C-43.2718 27.4062 -38.7758 24.5783 -34.2381 23.3886ZM-263.198 121.038C-259.153 120.559 -257.054 118.021 -253.591 115.987C-257.907 116.508 -260.375 118.338 -263.198 121.038ZM-498.697 274.64C-501.545 275.911 -501.545 275.911 -504.387 278.906C-501.214 278.579 -499.94 276.819 -498.697 274.64ZM-374.519 177.028C-374.406 177.125 -374.354 177.247 -374.268 177.282C-370.76 175.014 -367.216 172.659 -363.708 170.391C-363.76 170.269 -363.872 170.172 -363.959 170.137C-367.467 172.405 -370.975 174.673 -374.519 177.028ZM-518.227 290.489C-521.525 291.374 -523.224 292.809 -524.663 295.718C-522.719 294.18 -520.801 292.581 -518.227 290.489ZM-76.9824 36.4095C-76.9406 36.6799 -76.8377 36.9245 -76.7959 37.1949C-74.63 36.3554 -72.4029 35.4901 -70.2113 34.7118C-70.2789 34.3803 -70.4333 34.0134 -70.5008 33.6818C-72.641 34.5825 -74.7812 35.4831 -76.9824 36.4095ZM-672.587 495.11C-670.016 493.524 -670.209 492.381 -670.766 490.887C-674.209 492.625 -672.726 493.584 -672.587 495.11ZM28.2456 203.848C30.289 204.428 31.7919 203.724 32.986 202.285C32.8573 201.98 32.6933 201.761 32.5646 201.455C31.0874 202.22 29.6359 203.047 28.2456 203.848ZM-661.489 551.414C-662.769 552.817 -663.761 553.882 -665.27 555.597C-661.231 554.762 -661.231 554.762 -661.489 551.414ZM-524.78 626.56C-524.313 627.156 -524.178 627.819 -523.76 627.787C-522.122 627.745 -520.854 626.996 -519.927 625.094C-521.594 625.579 -522.868 625.972 -524.78 626.56ZM77.6298 182.49C77.6458 182.699 77.7488 182.944 77.7649 183.153C79.9307 182.314 82.1224 181.535 84.2883 180.696C84.1596 180.39 84.0567 180.145 83.928 179.839C81.7879 180.74 79.7088 181.615 77.6298 182.49ZM-531.19 623.643C-531.818 625.059 -532.243 626.101 -532.87 627.517C-528.937 625.574 -528.937 625.574 -531.19 623.643ZM-105.753 46.7175C-108.74 47.8304 -110.687 48.5057 -112.669 49.268C-112.566 49.5127 -112.438 49.8184 -112.396 50.0888C-110.568 48.9596 -108.264 49.6457 -105.753 46.7175ZM-665.175 484.503C-663.086 483.48 -661.889 482.905 -660.656 482.242C-660.785 481.936 -660.888 481.691 -661.017 481.386C-662.697 481.157 -663.826 482.064 -665.175 484.503ZM-23.1935 22.2682C-20.1718 22.4363 -20.1717 22.4363 -17.7707 20.2741C-19.4732 20.8465 -21.0277 21.4287 -23.1935 22.2682ZM-679.989 497.361C-678.638 495.784 -677.769 494.77 -676.838 493.731C-678.785 494.407 -680.436 495.101 -679.989 497.361ZM37.9831 179.953C37.5744 179.837 37.2012 179.634 36.8955 179.763C36.0394 180.123 35.1737 180.632 33.5999 181.51C35.8525 182.074 37.0819 181.916 37.9831 179.953ZM14.9411 210.887C14.8736 210.556 14.8318 210.285 14.7031 209.979C13.271 210.51 11.9 211.015 10.4679 211.546C10.5612 211.938 10.6287 212.27 10.6608 212.688C12.1541 212.132 13.5348 211.479 14.9411 210.887ZM26.0732 205.698C26.0571 205.489 26.0056 205.367 25.9895 205.158C24.1648 205.782 22.2532 206.37 20.4285 206.994C20.6183 207.274 20.747 207.58 20.9368 207.86C22.6489 207.139 24.361 206.419 26.0732 205.698ZM187.859 44.8906C188.001 44.5431 188.143 44.1955 188.198 43.8125C186.978 43.8219 185.697 43.8569 184.477 43.8663C184.3 44.3007 184.21 44.7706 184.033 45.2051C185.288 45.1088 186.543 45.0126 187.859 44.8906ZM33.2809 185.028C33.297 185.237 33.313 185.446 33.3291 185.655C34.7869 185.186 36.2448 184.716 37.7027 184.247C37.6351 183.915 37.5065 183.609 37.439 183.278C36.0583 183.931 34.6261 184.462 33.2809 185.028ZM158.443 153.377C159.53 154.935 160.56 154.645 162.079 152.782C161.085 152.985 160.065 153.126 158.443 153.377ZM-24.9634 22.5091C-26.2539 22.6922 -26.55 22.6728 -26.7946 22.7758C-27.3706 22.9462 -28.0336 23.0812 -28.6193 23.3997C-28.9862 23.5541 -29.3371 23.9177 -29.7393 24.159C-29.6364 24.4036 -29.5334 24.6483 -29.4305 24.8929C-28.259 24.2559 -27.0618 23.6801 -24.9634 22.5091ZM-674.922 452.106C-674.748 452.177 -674.488 452.283 -674.314 452.354C-673.709 451.74 -673.129 451.064 -672.524 450.449C-672.785 450.343 -673.046 450.237 -673.306 450.131C-673.824 450.781 -674.343 451.431 -674.922 452.106ZM110.509 128.411C107.687 128.375 107.268 129.775 106.737 131.078C107.796 130.345 108.855 129.611 110.509 128.411ZM48.9583 194.916C48.5593 194.652 47.7837 194.69 47.1465 194.886C46.8408 195.015 46.6443 195.746 46.3193 196.17C46.9114 196.209 47.4681 196.335 49.3829 196.609C49.2317 195.737 49.3316 195.119 48.9583 194.916ZM101.462 168.141C101.503 168.412 101.545 168.682 101.587 168.952C102.836 168.499 104.084 168.046 105.359 167.653C105.291 167.322 105.31 167.026 105.243 166.694C103.994 167.148 102.684 167.627 101.462 168.141ZM-208.988 87.7144C-208.911 87.8979 -208.895 88.1071 -208.818 88.2906C-207.63 87.8628 -206.407 87.3481 -205.22 86.9204C-205.287 86.5888 -205.416 86.2831 -205.484 85.9515C-206.681 86.5273 -207.817 87.0774 -208.988 87.7144ZM-279.475 120.329C-279.449 120.39 -279.424 120.451 -279.372 120.574C-278.786 120.255 -278.175 119.998 -277.65 119.705C-277.003 119.361 -276.469 118.92 -275.848 118.515C-276.012 118.296 -276.15 118.138 -276.315 117.919C-277.348 118.714 -278.442 119.534 -279.475 120.329ZM-656.033 540.264C-656.206 540.193 -656.441 540.148 -656.615 540.077C-657.098 540.64 -657.581 541.203 -658.028 541.679C-657.706 541.76 -657.445 541.866 -657.124 541.947C-656.789 541.374 -656.367 540.836 -656.033 540.264ZM-678.735 473.148C-678.561 473.219 -678.387 473.29 -678.239 473.3C-677.721 472.65 -677.203 472 -676.598 471.385C-676.981 471.33 -677.364 471.275 -677.685 471.195C-678.056 471.854 -678.365 472.488 -678.735 473.148ZM-647.983 611.385C-648.182 611.253 -648.295 611.157 -648.494 611.025C-649.064 611.553 -649.66 612.019 -650.229 612.547C-650.03 612.679 -649.917 612.775 -649.718 612.907C-649.122 612.441 -648.553 611.913 -647.983 611.385ZM-340.422 171.678C-340.31 171.774 -340.258 171.897 -340.145 171.993C-339.061 171.321 -338.002 170.587 -336.917 169.915C-336.969 169.793 -337.082 169.696 -337.194 169.6C-338.279 170.272 -339.363 170.944 -340.422 171.678ZM-662.869 547.964C-662.904 548.051 -662.373 548.115 -662.051 548.196C-661.91 547.848 -661.681 547.536 -661.626 547.153C-661.591 547.066 -661.974 547.011 -662.296 546.931C-662.499 547.304 -662.788 547.642 -662.869 547.964ZM147.867 160.059C147.884 160.268 147.9 160.477 147.89 160.625C148.711 160.352 149.531 160.078 150.352 159.805C150.336 159.596 150.32 159.387 150.329 159.239C149.448 159.538 148.627 159.811 147.867 160.059Z" fill="white"/>
</g>
<circle cx="69.0001" cy="69" r="69" fill="#1066AA"/>
</svg>
