<svg width="155" height="27" viewBox="0 0 155 27" fill="none" xmlns="http://www.w3.org/2000/svg">
<path d="M0.163757 26H5.59576V11.16H12.2878V26H17.7198V6.39997H0.163757V26Z" fill="#64C8E6"/>
<path d="M31.0471 26.392C37.0951 26.392 41.6311 21.828 41.6311 16.2C41.6311 10.516 37.1511 6.00797 31.1031 6.00797C25.0551 6.00797 20.5191 10.572 20.5191 16.2C20.5191 21.884 24.9991 26.392 31.0471 26.392ZM31.1031 21.492C28.1351 21.492 26.0911 19.028 26.0911 16.2C26.0911 13.316 28.0791 10.908 31.0471 10.908C34.0431 10.908 36.0871 13.372 36.0871 16.2C36.0871 19.084 34.0991 21.492 31.1031 21.492Z" fill="#64C8E6"/>
<path d="M44.4606 26H49.8926V20.932L51.8806 18.72L56.8086 26H63.3326L55.6606 14.828L63.0806 6.39997H56.6406L49.8926 14.352V6.39997H44.4606V26Z" fill="#64C8E6"/>
<path d="M69.5058 26.28C72.5298 26.28 74.3498 24.852 76.1418 21.352L83.7858 6.39997H77.8778L73.6778 15.612L69.2258 6.39997H63.1778L70.8498 20.876C70.2618 21.548 69.6178 21.716 69.1418 21.716C68.5538 21.716 67.6858 21.548 66.9298 21.044L64.8018 24.964C66.1178 25.748 67.6298 26.28 69.5058 26.28Z" fill="#64C8E6"/>
<path d="M85.5309 26H90.9629V11.16H97.6549V26H103.087V6.39997H85.5309V26Z" fill="#64C8E6"/>
<path d="M104.99 26H110.702L112.102 22.5H119.662L121.09 26H126.914L118.57 6.25997H113.334L104.99 26ZM113.698 18.272L115.91 12.7L118.094 18.272H113.698Z" fill="#64C8E6"/>
<path d="M128.816 26H133.884L141.472 14.968V26H146.848V6.39997H141.78L134.192 17.432V6.39997H128.816V26ZM138 5.13997C140.716 5.13997 142.536 3.57197 142.956 0.855974L139.988 0.323975C139.624 1.33197 139.064 2.00397 138 2.00397C136.964 2.00397 136.404 1.33197 136.04 0.323975L133.072 0.855974C133.492 3.57197 135.312 5.13997 138 5.13997Z" fill="#64C8E6"/>
<path d="M0.273352 26.0003H5.70535L9.8534 11.1737H16.5454L12.3974 26.0003H17.8294L23.3079 6.41795H5.7519L0.273352 26.0003Z" fill="#1066AA"/>
<path d="M31.0471 26.392C37.0951 26.392 42.9068 21.8321 44.48 16.2091C46.0688 10.5303 42.8488 6.0263 36.8008 6.0263C30.7528 6.0263 24.9411 10.5862 23.368 16.2091C21.7792 21.888 24.9991 26.392 31.0471 26.392ZM32.4728 21.4964C29.5048 21.4964 28.1495 19.0346 28.94 16.2091C29.7461 13.3277 32.4072 10.9219 35.3752 10.9219C38.3712 10.9219 39.7264 13.3837 38.936 16.2091C38.1298 19.0905 35.4688 21.4964 32.4728 21.4964Z" fill="#1066AA"/>
<path d="M44.5702 26.0003H50.0022L51.4188 20.9369L54.0251 18.7269L56.9182 26.0003H63.4422L58.893 14.8384L68.6688 6.41795H62.2288L53.2581 14.3628L55.4808 6.41795H50.0488L44.5702 26.0003Z" fill="#1066AA"/>
<path d="M69.5371 26.2801C72.5611 26.2801 74.7802 24.8534 77.5506 21.3565L89.3739 6.41795H83.4659L76.691 15.6217L74.8139 6.41795H68.7659L72.3916 20.8809C71.6158 21.5523 70.9248 21.7202 70.4488 21.7202C69.8608 21.7202 69.0398 21.5523 68.4246 21.0488L65.2009 24.9653C66.2978 25.7486 67.6611 26.2801 69.5371 26.2801Z" fill="#1066AA"/>
<path d="M85.6405 26.0003H91.0725L95.2206 11.1737H101.913L97.7645 26.0003H103.197L108.675 6.41795H91.1191L85.6405 26.0003Z" fill="#1066AA"/>
<path d="M105.1 26.0003H110.812L113.19 22.5035H120.75L121.2 26.0003H127.024L124.198 6.27808H118.962L105.1 26.0003ZM115.968 18.2793L119.737 12.7123L120.364 18.2793H115.968Z" fill="#1066AA"/>
<path d="M128.926 26.0003H133.994L144.665 14.9782L141.582 26.0003H146.958L152.436 6.41795H147.368L136.697 17.44L139.78 6.41795H134.404L128.926 26.0003ZM143.94 5.15908C146.656 5.15908 148.915 3.59249 150.094 0.878934L147.275 0.347412C146.629 1.35451 145.881 2.0259 144.817 2.0259C143.781 2.0259 143.409 1.35451 143.327 0.347412L140.21 0.878934C139.871 3.59249 141.252 5.15908 143.94 5.15908Z" fill="#1066AA"/>
</svg>
