<svg width="91" height="72" viewBox="0 0 91 72" fill="none" xmlns="http://www.w3.org/2000/svg">
<mask id="mask0" mask-type="alpha" maskUnits="userSpaceOnUse" x="9" y="2" width="74" height="69">
<circle r="35.4857" transform="matrix(1 0 -0.261515 0.965199 45.7545 36.541)" fill="#1066AA"/>
</mask>
<g mask="url(#mask0)">
<path fill-rule="evenodd" clip-rule="evenodd" d="M-119.546 242.156C-119.236 240.514 -117.715 239.338 -116.414 238.267C-115.563 237.574 -114.641 236.973 -113.888 236.119C-113.428 235.569 -112.628 235.233 -111.99 234.765C-111.558 234.437 -111.094 234.093 -110.649 233.8C-111.129 233.112 -111.731 233.48 -112.352 233.898C-115.464 235.866 -118.62 237.813 -121.732 239.781C-122.127 240.009 -122.536 240.203 -122.874 240.487C-125.346 242.776 -128.382 243.96 -131 245.861C-133.425 247.588 -136.298 248.613 -138.319 251.021C-138.761 251.521 -139.427 251.918 -140.016 252.321C-143.3 254.619 -146.584 256.918 -149.881 259.181C-150.965 259.942 -152.16 260.507 -153.257 261.233C-153.765 261.556 -154.202 261.97 -154.639 262.384C-155.22 262.907 -155.761 263.537 -156.4 264.005C-158.906 265.811 -161.483 267.527 -164.034 269.313C-164.241 269.452 -164.524 269.586 -164.673 269.781C-167.528 273.123 -171.49 274.994 -174.857 277.664C-178.48 280.539 -182.174 283.322 -185.829 286.211C-186.805 286.963 -187.64 287.897 -188.545 288.74C-190.225 290.281 -191.892 291.858 -193.448 293.631C-191.644 292.322 -189.839 291.013 -188.022 289.739C-184.896 287.515 -181.743 285.361 -178.661 283.117C-177.959 282.619 -177.399 281.939 -176.751 281.301C-176.444 281.031 -176.165 280.692 -175.814 280.443C-173.609 278.82 -171.36 277.218 -169.142 275.63C-168.935 275.491 -168.71 275.302 -168.574 275.071C-167.025 272.886 -164.853 271.569 -162.495 270.456C-162.023 270.233 -161.546 269.925 -161.159 269.576C-159.55 267.943 -157.73 266.876 -155.669 266.152C-154.623 265.783 -153.478 265.283 -153.031 263.909C-152.529 262.384 -151.051 262.476 -149.821 262.103C-149.455 261.598 -149.071 261.042 -148.601 260.322C-147.915 260.081 -147.152 259.845 -146.42 259.624C-145.099 257.422 -143.974 256.475 -141.314 255.177C-141.251 255.147 -141.143 255.138 -141.094 255.073C-139.086 253.419 -137.02 251.82 -135.039 250.095C-134.008 249.193 -132.995 248.341 -131.717 248.194C-130.762 248.076 -130.102 247.764 -129.523 246.742C-129.282 246.297 -128.129 245.918 -127.416 245.747C-126.936 245.645 -126.475 245.885 -125.858 246.051C-125.294 243.707 -123.021 242.758 -121.467 241.276C-121.427 242.172 -121.409 242.911 -121.391 243.65C-121.571 243.86 -121.797 244.049 -121.914 244.23C-123.321 246.597 -125.261 248.137 -127.939 248.695C-128.387 248.782 -128.891 249.02 -129.349 249.278C-130.234 249.779 -131.049 250.371 -132.191 251.077C-132.454 251.658 -132.429 252.81 -134.017 253.019C-134.263 253.052 -134.695 253.381 -134.831 253.611C-135.932 255.71 -138.133 256.749 -139.929 258.179C-140.892 258.966 -141.649 259.614 -141.637 260.731C-141.609 261.299 -141.94 261.995 -143.041 262.515C-143.046 261.811 -143.055 261.193 -143.065 260.574C-145 261.239 -144.969 261.224 -145.035 262.626C-145.055 262.968 -145.416 263.388 -145.674 263.883C-146.137 263.437 -146.44 263.123 -146.743 262.81C-147.125 263.073 -147.422 263.172 -147.539 263.352C-148.565 264.958 -150.014 265.933 -151.801 266.694C-152.821 267.134 -153.789 268.006 -154.792 268.688C-154.514 269.429 -154.329 269.923 -154.059 270.543C-154.772 270.714 -155.464 271.041 -155.638 270.874C-156.427 270.249 -157.326 270.715 -158.203 271.337C-159.796 272.422 -161.361 273.576 -163.011 274.605C-164.122 275.296 -164.543 275.951 -164.49 276.882C-164.495 276.967 -164.688 277.142 -164.788 277.272C-165.412 277.483 -166.036 277.695 -166.13 277.739C-166.987 278.809 -167.444 279.565 -168.062 280.189C-168.859 281.022 -169.804 281.76 -170.558 282.614C-171.23 283.388 -171.639 284.371 -172.395 285.019C-174.12 286.539 -175.987 287.878 -177.769 289.343C-178.62 290.035 -179.386 290.854 -179.954 291.413C-179.982 292.424 -177.811 291.897 -179.478 293.473C-180.229 293.246 -180.98 293.02 -181.687 292.813C-183.708 294.432 -185.861 295.698 -186.891 297.888C-187.081 298.269 -187.594 298.677 -188.026 299.006C-188.967 299.658 -189.991 300.183 -190.873 300.89C-193.925 303.412 -197.227 305.761 -199.803 308.763C-200.083 309.103 -200.439 309.437 -200.784 309.601C-205.588 311.993 -208.918 316.142 -212.991 319.395C-215.476 321.357 -217.649 323.755 -219.933 325.955C-221.406 327.357 -222.764 328.87 -224.281 330.252C-227.866 333.524 -231.496 336.775 -234.894 340.249C-236.391 341.787 -237.606 343.482 -239.607 344.759C-241.878 346.206 -243.847 348.258 -245.37 350.514C-245.623 350.924 -246.131 351.247 -246.474 351.617C-247.808 352.995 -249.187 354.352 -250.418 355.806C-251.794 357.37 -252.933 359.071 -254.34 360.649C-254.912 361.293 -255.824 361.724 -256.589 362.251C-257.147 362.639 -257.7 362.942 -258.302 363.31C-258.494 361.614 -260.44 363.53 -261.283 362.764C-261.248 360.588 -264.445 361.931 -265.185 360.453C-266.296 361.143 -266.438 361.751 -266.438 362.54C-266.438 363.329 -267.107 363.521 -267.393 363.448C-267.782 362.51 -268.078 361.819 -268.396 360.972C-268.303 360.43 -267.737 359.373 -268.093 358.918C-268.973 357.755 -268.715 356.469 -267.922 354.932C-267.781 354.616 -267.869 354.284 -267.88 353.957C-267.996 353.845 -268.13 353.784 -268.246 353.672C-269.109 355.617 -270.868 356.157 -272.374 357.076C-272.819 357.369 -273.083 357.95 -273.43 358.405C-273.927 359.055 -274.392 359.69 -274.938 360.405C-276.07 359.361 -274.342 358.047 -274.401 356.704C-275.633 358.158 -276.911 359.093 -277.318 360.574C-277.474 361.146 -277.993 361.931 -279.041 361.803C-279.19 361.208 -279.554 360.632 -279.407 359.94C-279.044 358.439 -279.723 358.012 -281.225 358.347C-281.108 357.378 -280.83 356.54 -280.942 355.846C-281.119 354.683 -280.915 353.548 -280.258 352.24C-279.583 350.883 -279.828 349.835 -280.969 348.962C-281.752 349.539 -282.884 350.074 -283.355 350.795C-284.195 352.106 -285.498 352.679 -286.635 353.299C-287.521 353.8 -287.976 354.265 -288.491 354.965C-290.306 357.526 -292.122 360.086 -294.385 362.443C-294.497 362.538 -294.668 362.577 -294.825 362.651C-295.115 362.372 -295.404 362.093 -295.912 361.627C-297.129 362.825 -298.233 363.928 -299.774 365.445C-298.839 363.3 -298.099 361.621 -297.403 359.922C-297.537 359.86 -297.703 359.814 -297.837 359.752C-298.914 360.926 -299.961 362.085 -301.25 363.483C-301.237 362.729 -301.207 362.216 -301.195 361.754C-301.804 361.709 -302.292 361.69 -302.736 361.692C-302.673 359.294 -301.977 356.805 -302.985 354.415C-303.679 355.822 -304.232 356.914 -304.69 357.962C-305.136 359.044 -304.101 359.927 -305.548 361.4C-305.579 360.625 -305.607 360.057 -305.644 359.368C-306.201 359.756 -306.584 360.019 -306.979 360.248C-307.63 359.599 -308.222 359.006 -308.859 358.393C-310.536 360.141 -312.113 361.758 -314.101 363.86C-313.542 361.602 -313.204 359.739 -312.593 357.913C-312.182 356.639 -313.074 356.728 -313.948 356.767C-313.351 354.906 -311.545 353.305 -311.631 351.102C-313.144 353.188 -314.363 354.969 -315.673 356.709C-316.964 358.398 -318.376 360.062 -319.973 362.021C-319.988 360.699 -319.053 359.343 -320.484 358.981C-320.726 358.929 -320.501 357.95 -320.3 357.398C-319.973 356.496 -319.291 355.55 -319.742 354.642C-322.526 356.497 -322.796 359.034 -324.435 361.179C-324.152 360.256 -323.837 359.318 -323.554 358.395C-324.324 358.218 -325.4 358.311 -324.33 357.016C-323.847 357.12 -323.453 357.184 -323.167 357.256C-322.538 356.17 -322.026 355.264 -321.316 354.097C-321.347 353.323 -322.561 353.937 -323.16 353.722C-323.804 353.485 -324.212 352.889 -324.765 352.402C-325.283 352.896 -325.523 354.131 -326.65 353.791C-326.769 352.684 -326.888 351.577 -327.021 350.435C-327.919 350.901 -328.724 351.322 -329.874 351.907C-328.96 349.606 -328.156 347.606 -327.396 345.585C-327.109 344.868 -326.849 344.081 -326.873 343.427C-326.866 343.05 -327.434 342.819 -327.91 342.338C-327.7 341.616 -327.349 340.577 -327.061 339.569C-326.705 340.024 -326.212 339.957 -325.791 339.302C-325.253 338.466 -324.792 337.625 -324.598 336.661C-325.45 337.645 -326.334 338.644 -327.173 339.664C-326.826 338.419 -326.177 336.991 -328.09 337.022C-326.579 333.649 -324.965 330.353 -325.224 327.193C-325.27 326.675 -324.913 326.049 -324.802 325.457C-324.365 323.464 -323.668 321.473 -323.911 319.344C-325.273 321.733 -327.143 321.286 -329.032 321.68C-328.707 322.15 -328.507 322.387 -328.37 322.655C-328.175 322.978 -328.011 323.316 -327.829 323.604C-329.047 325.883 -329.047 325.883 -331.515 327.298C-331.166 326.551 -330.439 325.626 -330.639 325.388C-331.364 324.443 -330.348 323.007 -330.731 321.984C-331.023 321.207 -330.852 320.379 -329.963 319.294C-329.273 318.47 -329.101 317.35 -328.601 316.117C-330.895 316.909 -330.314 315.596 -329.863 314.428C-331.325 315.367 -332.642 316.197 -333.96 317.027C-333.268 315.911 -332.608 314.81 -331.916 313.694C-333.254 313.578 -333.865 312.246 -335.553 313.667L-335.603 313.732C-334.395 312.413 -333.143 311.407 -331.71 312.267C-331.24 311.547 -330.977 310.965 -330.535 310.466C-329.128 308.888 -329.115 308.923 -330.409 308.038C-329.767 307.777 -329.125 307.515 -328.482 307.253C-328.504 307.097 -328.557 306.956 -328.578 306.8C-329.237 306.82 -329.821 307.138 -330.323 307.873C-330.194 307.23 -330.253 306.677 -331.215 307.173C-331.862 307.52 -332.488 308.023 -333.14 308.456C-332.863 307.91 -332.618 307.378 -332.342 306.832C-332.463 306.806 -332.597 306.745 -332.718 306.719C-333.083 307.224 -333.418 307.714 -333.784 308.219C-333.542 308.272 -333.3 308.324 -333.103 308.355C-333.107 308.938 -333.065 309.542 -333.069 310.125C-335.23 311.271 -335.199 311.256 -335.032 309.432C-334.983 308.869 -334.967 308.321 -334.919 307.758C-334.343 307.32 -333.714 307.023 -333.384 306.618C-332.653 305.608 -331.809 305.293 -330.718 304.944C-328.802 304.33 -327.966 303.104 -327.676 301.014C-328.349 301.291 -329.023 301.568 -330.105 302.037C-329.564 300.618 -329.119 299.536 -328.687 298.418C-328.236 297.249 -327.768 296.031 -327.268 294.798C-327.9 294.889 -328.349 294.976 -328.949 295.052C-327.839 292.782 -326.212 291.1 -324.259 289.596C-324.542 290.519 -324.807 291.392 -325.181 292.566C-324.615 292.299 -324.282 292.1 -323.936 291.937C-323.865 292.028 -323.731 292.089 -323.767 292.189C-323.853 293.144 -323.958 294.149 -324.044 295.103C-324.067 295.239 -323.97 295.401 -324.069 295.531C-325.914 297.815 -325.584 300.276 -327.277 302.571C-327.302 302.998 -327.295 303.411 -327.32 303.838C-327.194 303.778 -327.037 303.704 -326.911 303.645C-327.044 303.292 -327.189 302.904 -327.366 302.53C-327.07 302.432 -326.742 302.319 -326.433 302.256C-326.123 302.192 -325.837 302.265 -325.577 302.267C-325.677 303.186 -325.91 304.044 -325.847 304.804C-325.78 305.478 -325.416 306.054 -325.146 306.675C-323.358 305.124 -322.896 303.494 -323.472 299.985C-323.786 300.133 -324.352 300.401 -325.22 300.852C-322.469 296.146 -322.582 292.585 -323.171 289.041C-323.567 289.269 -323.931 289.483 -324.295 289.696C-324.338 289.384 -324.412 289.087 -324.455 288.775C-326.076 289.291 -326.076 289.291 -326.85 288.41C-327.645 290.24 -328.89 291.658 -330.924 292.453C-331.144 292.557 -331.356 292.781 -331.549 292.956C-333.094 294.267 -334.638 294.788 -336.208 294.45C-336.164 294.47 -336.106 294.526 -336.03 294.532C-336.279 294.359 -336.776 294.219 -336.748 293.998C-336.546 293.155 -336.428 292.186 -335.851 291.456C-334.609 289.831 -334.386 288.354 -334.233 286.787C-334.577 286.658 -334.935 286.495 -335.458 286.285C-336.059 287.15 -336.61 287.951 -336.994 288.506C-337.712 288.762 -338.336 288.974 -338.897 289.155C-338.487 287.881 -338.227 287.094 -337.871 285.97C-338.877 286.445 -339.461 286.763 -340.027 287.03C-341.462 285.672 -339.506 284.374 -338.825 282.931C-338.45 283.045 -338.231 283.232 -337.953 283.184C-337.442 283.067 -336.862 282.835 -336.462 282.521C-336.318 282.412 -336.43 281.717 -336.631 281.479C-336.915 281.115 -337.407 280.89 -337.875 280.53C-338.317 281.029 -338.709 281.464 -339.088 281.934C-338.979 281.633 -338.883 281.297 -338.742 280.981C-339.495 281.046 -340.248 281.111 -341.002 281.175C-340.935 281.352 -340.914 281.508 -340.848 281.684C-341.116 280.772 -341.365 279.81 -341.634 278.898L-341.589 278.918C-342.166 278.069 -341.175 277.061 -341.016 275.906C-340.296 276.148 -339.674 276.228 -339.339 276.527C-338.489 277.413 -340.788 278.291 -340.48 279.309C-339.452 278.99 -338.942 278.375 -338.638 277.608C-338.047 276.124 -337.232 274.742 -335.769 273.511C-335.432 273.227 -335.281 272.741 -334.996 272.315C-338.29 272.417 -339.185 271.51 -338.903 268.51C-338.832 267.812 -338.622 267.089 -339.544 266.902C-339.709 266.855 -339.431 266.018 -339.375 265.575C-338.925 265.986 -338.506 266.412 -337.971 266.949C-337.147 266.185 -336.449 265.482 -335.331 264.414C-336.503 264.843 -337.19 265.084 -337.94 265.355C-338.138 264.825 -336.841 263.548 -338.499 263.666C-338.812 264.313 -339.111 264.994 -339.443 265.691C-339.762 264.346 -341.202 264.652 -342.941 264.85C-342.309 263.97 -341.862 263.385 -341.379 262.7C-340.986 263.055 -340.768 263.242 -340.318 263.653C-339.806 261.957 -339.404 260.562 -338.97 259.153C-339.632 258.967 -340.731 259.195 -339.991 257.516C-338.968 258.861 -338.015 257.455 -336.994 256.724C-336.405 256.321 -335.81 255.833 -335.271 256.284C-334.529 255.892 -333.775 255.536 -332.939 255.1C-334.453 255.109 -334.453 255.109 -335.271 256.284C-335.529 255.991 -335.62 255.452 -336.443 255.923C-337.027 256.241 -337.606 256.473 -338.204 256.755C-338.674 255.897 -338.311 255.185 -337.652 254.376C-336.714 253.226 -335.151 251.865 -335.083 250.961C-335.002 249.302 -333.251 248.641 -332.751 247.408C-332.642 247.107 -332.577 246.786 -332.379 246.526C-331.322 245.196 -330.386 243.549 -329.068 242.719C-327.512 241.735 -327.163 240.989 -326.968 239.733C-326.883 239.07 -326.555 238.168 -326.006 237.659C-324.245 236.038 -324.367 234.725 -324.776 233.339C-326.921 233.936 -327.062 236.62 -329.461 237.13C-328.874 235.44 -327.912 234.155 -326.677 232.907C-326.042 232.233 -325.522 231.448 -324.989 230.698C-324.89 230.568 -324.982 230.32 -325.017 230.129C-325.762 230.315 -326.462 230.521 -327.238 230.721C-326.735 228.115 -323.995 227.029 -322.713 225.219C-322.163 225.499 -321.85 225.643 -321.538 225.786C-320.942 225.006 -320.551 224.073 -319.935 223.741C-317.405 222.297 -315.698 220.037 -313.533 218.308C-313.051 217.915 -312.641 217.43 -312.262 216.96C-310.507 214.927 -308.842 212.852 -307.03 210.875C-303.86 207.384 -300.619 203.984 -297.449 200.493C-296.16 199.095 -295.044 197.529 -293.666 196.172C-291.557 194.096 -289.256 192.137 -287.076 190.152C-286.302 189.454 -285.482 188.776 -284.779 187.987C-283.471 186.538 -282.311 184.993 -280.945 183.601C-278.962 181.584 -276.864 179.679 -274.778 177.739C-272.643 175.733 -270.494 173.763 -268.315 171.778C-266.216 169.873 -264.072 167.989 -261.929 166.104C-260.654 164.962 -259.251 163.967 -258.155 162.743C-255.969 160.381 -252.963 158.92 -250.816 156.452C-249.553 154.983 -247.625 153.907 -246.081 152.596C-243.911 150.782 -241.767 148.897 -239.611 147.048C-236.972 144.805 -234.334 142.562 -231.714 140.369C-231.326 140.02 -230.894 139.691 -230.476 139.327C-227.041 136.542 -223.575 133.742 -220.154 130.922C-218.034 129.173 -215.914 127.424 -213.735 125.73C-211.445 123.942 -209.07 122.281 -206.658 120.519C-206.769 118.743 -206.363 118.344 -204.225 117.334C-202.338 116.443 -200.193 115.845 -198.851 113.799C-198.548 113.323 -197.735 113.023 -197.164 112.67C-196.737 112.427 -196.131 112.265 -195.838 111.961C-194.128 109.907 -191.844 108.496 -189.721 106.953C-186.563 104.714 -183.924 101.682 -180.22 100.306C-180.157 100.277 -180.063 100.232 -179.982 100.152C-177.206 98.1769 -174.333 96.363 -171.718 94.2556C-168.351 91.5857 -164.86 89.1479 -161.285 86.8364C-158.106 84.7534 -154.895 82.6554 -151.884 80.3196C-149.724 78.6765 -147.481 77.4512 -145.027 76.0013C-145.335 76.5621 -145.52 76.8574 -145.828 77.4183C-145.252 76.9801 -144.704 76.7629 -144.613 76.5122C-144.15 75.3793 -143.312 74.6514 -142.135 74.1373C-141.727 73.9442 -141.374 73.4038 -140.973 73.0901C-139.502 71.9797 -137.999 70.8546 -136.514 69.7796C-135.43 69.0183 -134.007 68.4708 -133.236 67.5665C-131.991 66.1478 -130.45 65.4201 -128.975 64.516C-128.229 64.0389 -127.416 63.7382 -126.656 63.2963C-121.559 60.3074 -116.501 57.2126 -111.363 54.3295C-104.756 50.6277 -98.1089 47.0318 -91.462 43.4359C-82.2578 38.4663 -73.067 33.4614 -63.5122 29.8218C-63.1216 29.6789 -62.7657 29.3446 -62.3569 29.1516C-59.823 27.9134 -57.289 26.6752 -54.7285 25.5077C-53.2687 24.8599 -51.7295 24.4238 -50.2697 23.776C-48.1363 22.8516 -46.0294 21.8567 -43.9274 20.9471C-42.3732 20.2548 -40.7926 19.633 -39.2567 18.9908C-40.2564 19.8783 -41.2992 20.4538 -42.3998 20.9736C-46.9729 23.0916 -51.5277 25.1594 -56.1007 27.2774C-58.9442 28.5786 -61.7662 30.0359 -64.6097 31.3371C-68.85 33.2564 -73.1036 35.1405 -77.1768 37.6041C-77.8422 38.0014 -78.5473 38.2928 -79.2259 38.6548C-79.8995 38.9313 -80.5599 39.2432 -81.2021 39.5049C-82.0644 39.8706 -82.4434 40.3404 -82.0893 41.0872C-80.5783 40.8721 -79.8284 39.8118 -79.1944 38.6399C-79.1514 38.952 -79.077 39.2492 -79.0555 39.4052C-75.9986 39.1665 -73.5638 36.4795 -70.2074 35.5592C-72.9981 38.5804 -75.9756 39.8203 -78.8935 40.8243C-80.7968 41.4739 -82.2401 42.3632 -83.4501 43.9732C-83.9334 44.6584 -84.5425 45.4031 -85.2261 45.8505C-87.1825 47.1483 -89.2282 48.4051 -91.2508 49.5264C-91.7407 49.7993 -92.487 49.4871 -92.9323 49.7804C-94.2812 50.6251 -95.564 51.6464 -96.6349 52.4429C-97.1446 52.2681 -97.6129 51.9077 -97.8827 52.0766C-99.7795 53.1385 -101.592 54.3267 -103.525 55.4889C-103.303 55.8827 -103.179 56.1149 -103.042 56.3824L-103.024 56.3323C-103.922 56.7982 -104.834 57.2289 -105.751 57.745C-106.668 58.2611 -107.471 59.1803 -108.573 59.2022C-108.388 58.907 -108.131 58.7027 -107.906 58.5133C-107.587 58.2794 -107.286 58.0956 -106.966 57.8617C-110.167 58.9993 -113.239 60.2838 -114.922 63.987C-113.709 63.3725 -112.734 62.9121 -111.755 62.3663C-110.68 61.776 -109.659 61.0445 -108.585 60.4541C-103.919 57.7938 -99.2534 55.1335 -94.619 52.488C-91.7871 50.8599 -88.9867 49.2466 -86.1548 47.6185C-85.3322 47.1469 -84.4384 46.7664 -83.6026 46.3302C-80.9196 44.897 -78.2582 43.3079 -75.5223 42.0159C-71.9059 40.3081 -68.8836 37.5099 -65.3962 35.6553C-65.09 34.5967 -64.0357 34.3481 -63.2495 33.9769C-59.9476 32.4176 -56.6638 30.9085 -53.3487 29.3845C-52.5625 29.0132 -51.8227 28.9131 -51.7531 27.717C-51.7315 27.0836 -50.6241 26.1868 -49.4193 26.241C-48.7027 26.2765 -47.7146 25.8514 -46.897 25.4653C-45.8095 24.9103 -44.8148 24.1082 -43.7274 23.5531C-42.6085 22.9832 -41.4747 22.157 -39.727 22.0795C-40.7615 22.7757 -41.2564 23.1341 -41.7645 23.4571C-42.991 24.0363 -44.1859 24.6006 -45.4124 25.1797C-43.8997 25.4625 -42.8536 24.3038 -41.7463 23.407C-38.739 22.4438 -35.7235 21.6014 -32.7427 20.5677C-30.2783 19.7363 -27.8122 18.6133 -25.3743 17.7113C-20.409 15.9482 -15.4752 14.1999 -10.5017 12.5576C-5.38912 10.8911 -0.241859 9.41592 4.87893 7.87018C4.94182 7.84048 5.00801 8.01695 5.11888 8.21386C4.47173 8.56101 3.87427 8.84315 3.25855 9.17546C3.28006 9.33148 3.28829 9.45223 3.30977 9.60827C4.95656 9.16296 6.55869 8.69721 8.17405 8.26675C8.20052 8.33734 8.22699 8.40793 8.25347 8.47852C7.69568 8.86656 7.10643 9.26945 6.04052 9.98053C8.32451 9.35896 10.0607 8.95452 11.8333 8.44982C18.8425 6.51085 25.865 4.60717 32.7499 4.01478C33.7943 3.93706 35.0621 3.17218 36.0203 3.25975C39.3386 3.52074 42.8987 2.25503 46.3561 1.70251C49.984 1.11104 53.8072 0.0534093 56.9003 1.29319C57.079 1.37497 57.3571 1.32678 57.5722 1.30827C61.0362 1.1681 64.4687 1.04278 67.9377 0.817174C72.1729 0.562072 76.4313 0.171376 80.6665 -0.083726C84.1355 -0.309344 87.5862 -0.484787 91.0138 -0.524685C93.2183 -0.568624 95.3632 -0.376694 97.5445 -0.285061C93.6733 1.33533 90.1746 0.494789 86.2752 2.33623C86.707 2.797 87.149 3.08686 87.7447 3.09633C90.4507 3.10638 93.2063 3.05145 95.9305 3.01138C96.2979 3.00405 96.5974 3.11189 96.9284 3.20486C96.8738 3.35528 96.8191 3.50574 96.7645 3.65616C93.183 3.97647 89.5286 5.28671 85.8693 5.89304C82.349 6.47524 78.7261 6.98129 75.0585 8.25627C75.7651 8.46266 76.5 8.448 77.2712 8.33305C85.1707 7.38619 93.1663 6.10316 100.923 5.76364C108.067 5.46477 115.178 5.18079 122.139 5.38341C125.499 5.45866 128.827 5.54878 132.114 5.82461C133.256 5.90854 134.38 6.04259 135.58 6.18222C134.336 7.30933 133.482 7.79573 132.205 7.15269C131.048 6.53571 129.209 6.86393 127.435 7.66024C126.586 8.06119 125.679 8.4064 124.827 8.60119C120.672 9.56585 116.536 10.4804 112.4 11.3949C111.857 11.5266 111.275 11.5524 110.714 11.7343C110.197 11.9366 109.416 12.2224 109.213 12.5679C108.435 13.8492 107.39 13.9269 106.44 13.9601C101.444 14.1593 96.2303 16.2474 91.1343 17.3659C89.7706 17.6776 88.4118 17.9038 87.0513 18.4216C83.9397 19.6002 80.9756 20.0859 77.9948 20.3303C77.1657 20.3895 76.2322 20.6641 75.4146 21.0502C74.0492 21.6534 72.7052 22.4128 71.065 23.2704C79.6347 22.6302 88.0407 21.6519 96.5559 20.3727C94.1594 21.089 91.7942 21.7904 89.3977 22.5067C94.7003 22.8277 100.525 21.2822 105.819 21.4824C105.796 21.618 105.786 21.7889 105.794 21.9096C104.779 22.2641 103.752 22.5833 102.692 22.9173C109.394 22.3286 115.974 21.7138 122.568 21.1344C120.07 23.0616 117.821 21.5063 115.234 23.3927C116.287 25.0145 117.963 25.6354 120.199 25.5766C122.251 25.5214 124.303 25.4663 126.356 25.4112C125.497 26.7724 126.455 26.86 127.198 26.9661C130.798 27.385 134.415 27.7538 138.083 28.0576C140.868 28.2795 143.844 28.1206 146.494 28.5727C148.978 28.9783 151.55 28.9271 154.216 28.8312C156.851 28.7503 159.413 28.8699 162.011 28.8892C161.669 29.2587 161.385 29.3924 161.139 29.4258C156.715 29.77 152.291 30.1142 147.867 30.4584C146.254 30.5972 144.613 30.6655 142.963 30.9046C142.116 31.0139 141.113 30.9059 140.227 32.1966C142.036 32.381 143.738 32.5746 145.547 32.759C144.974 34.9822 146.45 35.3653 148.088 35.5886C148.711 35.6687 149.396 35.719 150.104 35.6337C152.444 35.3595 154.803 35.0352 157.161 34.7108C157.623 34.6589 158.08 34.6925 158.523 34.6908C158.131 35.1253 157.848 35.2589 157.539 35.322C152.744 36.2567 147.888 38.5084 143.139 39.172C142.924 39.1905 142.641 39.3241 142.421 39.428C139.962 40.9634 137.371 41.8543 134.932 42.2585C134.362 43.109 133.884 43.7088 133.495 44.3495C132.934 45.3208 133.156 45.7146 134.2 45.6369C134.89 45.6018 135.708 45.2157 136.4 45.6784C132.219 47.3619 128.311 47.5037 124.144 49.2225C124.916 50.3947 125.969 50.4378 127.315 50.1763C130.53 49.5717 133.364 50.0201 136.288 50.2178C134.175 50.8005 132.079 51.3329 130.049 51.5441C124.799 52.1537 119.549 52.7632 114.207 53.9151C113.525 54.071 112.551 54.2397 112.128 54.6891C111.262 55.638 110.461 55.4762 109.658 55.6059C108.887 55.7209 108.113 55.6296 107.336 55.83C103.253 56.8857 99.152 57.9915 95.064 59.1327C93.96 59.4463 92.8776 59.9159 91.7687 60.3149C91.7323 60.4152 91.7406 60.5359 91.7041 60.6362C92.573 60.6829 93.4551 60.7649 94.8883 60.8359C93.7512 61.4559 93.162 61.8588 92.5695 62.0555C90.8731 62.5658 89.2048 62.8551 87.5348 63.436C84.5854 64.4549 81.5616 65.1765 78.781 67.2374C78.6866 67.282 78.6056 67.3618 78.5691 67.4621C77.0349 67.8127 75.4692 68.1782 73.9217 68.4935C73.9168 68.5789 73.8803 68.6792 73.8886 68.8C75.0024 69.1049 76.1162 69.4098 77.4137 69.7111C76.6043 70.218 76.0018 70.5855 75.4308 70.9383C72.728 72.7132 70.1625 74.7556 67.0493 75.4364C66.1208 75.6256 65.1492 76.2921 64.1926 76.7023C64.2191 76.7729 64.2141 76.8583 64.2406 76.9289C64.9043 76.8232 65.5994 76.7027 66.2498 76.5617C66.2449 76.6472 66.2531 76.7679 66.2482 76.8533C63.8582 77.982 61.4814 79.1459 59.0286 80.3042C59.2553 80.6126 59.4241 80.8652 59.5929 81.1179L59.6111 81.0678C58.7123 81.5337 57.7954 82.0498 56.8967 82.5157C56.3621 82.7682 55.667 82.8887 55.2796 83.2378C53.7072 84.7697 51.9446 85.1035 50.2266 85.4578C49.0515 85.6804 47.9923 86.0144 47.019 86.9725C46.1667 87.1673 45.2746 87.2562 44.4884 87.6275C39.5248 89.8884 34.6008 92.2551 29.6504 94.5513C28.5183 95.0859 27.3598 95.55 26.2541 96.1552C29.5957 95.4912 38.1079 91.6376 47.024 86.8871C47.7953 86.7722 48.593 86.7278 49.3692 86.5274C52.6363 85.5663 55.9349 84.5902 59.2202 83.5788C64.4039 82.0034 69.5463 79.8243 74.7432 79.0735C76.6398 78.801 78.6475 77.9361 80.6087 77.3423C84.0331 76.3068 87.4789 75.4274 90.895 74.2712C100.551 70.9994 110.158 68.2903 119.725 66.5564C121.873 66.1651 124.003 65.824 126.133 65.4828C124.716 66.4427 123.301 67.111 121.878 67.6585C118.856 68.8779 115.838 70.0119 112.829 71.2667C112.313 71.469 111.816 72.1189 111.374 72.6184C110.689 73.3575 110.298 74.2898 109.092 74.5272C106.768 75.0429 104.453 75.6793 102.137 76.3157C101.298 76.5458 100.441 76.826 99.6018 77.0561C99.5786 77.1917 99.5869 77.3124 99.5637 77.448C102.053 76.9788 104.574 76.4948 107.076 76.0608C106.275 76.6884 105.52 77.0448 104.726 77.2953C102.89 77.8297 101.033 78.2081 99.211 78.7778C97.4831 79.303 95.6758 79.6164 94.0686 80.9569C91.7053 80.5773 89.2904 82.1332 86.6919 82.9032C88.5869 83.7118 91.5892 82.834 94.0868 80.9068C93.8534 81.7648 94.1148 82.2646 95.1641 82.1014C95.6441 81.9994 96.1059 81.9475 96.5991 81.8808C91.743 84.1324 84.2602 88.1646 83.1065 89.3325C85.1257 88.7945 87.0191 88.3158 88.9125 87.8371C89.2849 87.7444 89.8542 87.6833 89.9519 87.8449C90.5442 89.227 91.6946 87.8528 92.6363 87.6989C92.6794 87.2216 92.6993 86.8798 92.7159 86.3319C95.0975 85.8719 97.4544 85.0498 99.4702 85.0949C101.074 85.127 102.501 84.7856 104.089 84.2846C107.173 83.327 110.278 82.5255 113.527 81.6145C112.99 82.9479 112.27 83.4957 111.18 83.8446C108.222 84.7427 105.246 85.691 102.297 86.7098C100.299 87.4039 98.3279 88.1686 96.3252 88.9481C92.6608 90.4293 88.9965 91.9105 85.3586 93.4622C81.8779 94.9397 78.3923 96.5026 74.9381 98.0507C74.5607 98.2289 74.1387 98.3867 73.7481 98.5296C70.4296 99.8474 67.0665 101.145 63.748 102.463C63.3889 102.591 63.0545 103.081 62.4056 103.72C63.1008 103.599 63.4185 103.657 63.6569 103.503C65.8052 102.322 68.1223 102.183 70.2591 100.676C71.3117 99.9293 72.5862 99.5768 73.786 99.7165C74.4083 99.7965 75.211 99.6667 75.8714 99.3549C77.5331 98.6533 79.1468 97.725 80.7903 97.0735C84.7195 95.5089 88.5826 92.9783 92.6491 92.4706C93.0347 92.4131 93.4567 92.2554 93.8656 92.0623C98.9103 89.7216 103.97 88.7033 109.014 87.152C111.972 86.2538 114.931 85.8535 117.902 84.2013C118.693 83.7446 119.761 83.5312 120.491 83.602C122.864 83.8107 125.342 83.0147 127.829 82.0476C128.346 81.8454 128.928 81.8195 129.453 81.7379C129.43 81.8735 129.438 81.9942 129.415 82.1298C128.498 82.6459 127.612 83.1472 126.52 83.7877C126.935 84.0069 127.046 84.2039 127.261 84.1854C128.453 84.2043 129.663 84.1731 130.854 84.192C131.925 84.1849 133.304 83.6169 134.428 84.5403C132.14 84.9557 130.26 85.4697 128.526 85.5825C123.196 85.9803 117.849 87.2176 112.313 89.3335C110.795 89.9256 109.185 91.06 107.902 91.2918C104.704 91.8462 102.132 95.0551 98.9594 95.1824C98.8518 95.1916 98.7028 95.3866 98.5588 95.4962C97.0775 96.7773 95.4339 97.4288 93.7242 97.9038C93.2261 98.056 92.7312 98.4143 92.228 98.6519C92.2181 98.8228 92.2396 98.9788 92.2164 99.1144C93.1581 98.9605 94.0998 98.8066 95.0598 98.6026C96.8903 98.1536 98.734 97.7399 100.543 97.1349C104.067 95.9695 107.582 94.6833 111.079 93.4473C112.516 92.9351 113.943 92.5937 115.392 92.1168C118.108 91.1666 120.811 90.1811 123.54 89.2661C124.259 89.01 125.116 88.7298 125.73 89.4785C125.101 89.7756 124.674 90.0187 124.239 90.1412C123.198 90.4251 122.14 90.4675 121.139 90.8573C116.496 92.5926 111.88 94.3985 107.246 96.2546C106.307 96.6147 105.412 97.2868 104.535 97.9088C104.297 98.0629 104.209 98.5198 103.982 99.0008C107.054 97.7163 109.861 96.5154 112.694 95.385C113.242 95.1679 113.929 94.9266 114.349 95.0605C116.152 95.6219 117.81 94.7141 119.522 93.1581C120.877 94.3045 122.654 93.7144 124.558 93.0649C126.071 92.5582 127.577 92.4286 129.093 92.1281C127.883 92.9488 126.706 93.4629 125.508 93.8211C122.86 94.6561 120.211 95.4912 117.555 96.2055C115.971 96.6212 115.024 97.6499 114.784 98.885C114.513 100.135 113.753 100.577 112.608 101.076C111.274 101.665 109.806 102.192 108.654 103.068C107.151 104.193 105.641 104.906 104.034 105.457C102.755 105.895 101.454 106.177 100.201 106.686C98.4947 107.367 96.6559 107.695 95.0984 108.971C95.3994 111.155 94.8085 111.85 92.1339 112.614C90.8595 112.967 89.5222 113.349 88.3222 113.999C86.1606 115.144 84.0652 116.466 82.0145 117.808C79.8694 119.195 77.875 120.885 75.677 122.13C73.6362 123.302 72.0737 124.663 71.1037 126.617C71.0358 126.732 70.8604 126.856 71.0226 126.696C69.1374 127.296 67.4559 127.55 65.9729 128.333C63.1327 129.841 60.3803 131.68 57.5616 133.344C57.1031 133.602 56.6314 133.825 56.1729 134.083C52.8064 135.963 49.3108 137.697 46.0817 139.845C44.5705 140.85 43.1587 141.724 41.5649 142.311C41.3315 142.379 41.0485 142.513 40.873 142.637C38.2529 144.83 35.133 145.888 32.3574 147.863C29.82 149.685 26.9898 151.021 24.2837 152.59C22.5127 153.593 20.7731 154.58 19.0022 155.583C17.5142 156.451 15.9237 157.244 14.5466 158.31C11.9049 160.347 9.01183 161.713 6.19812 163.291C5.28119 163.807 4.3775 164.358 3.46057 164.874C1.4827 166.016 -0.508428 167.123 -2.48629 168.264C-3.84846 169.074 -5.16597 169.904 -6.52812 170.713C-7.22495 171.125 -7.90356 171.487 -8.60036 171.899C-10.7222 173.151 -12.6406 174.846 -15.0007 175.462C-15.436 175.584 -15.9309 175.943 -16.3761 176.236C-17.3295 176.853 -18.2828 177.469 -19.4745 178.239C-19.6632 179.118 -20.375 179.786 -21.6908 180.325C-23.1009 180.907 -24.4549 181.838 -25.7591 182.703C-26.6181 183.275 -27.3464 183.702 -28.2781 183.685C-29.3489 183.692 -30.3023 184.308 -31.4311 185.049C-33.0548 186.148 -34.4683 187.314 -35.7892 188.727C-36.2443 189.191 -36.9494 189.483 -37.5651 189.815C-38.626 190.441 -39.7267 190.96 -40.7744 191.621C-42.8565 192.979 -44.8113 194.774 -46.9629 195.749C-50.058 197.169 -52.7989 199.335 -55.8758 200.705C-57.6186 201.487 -59.3548 202.681 -61.0463 203.106C-63.3121 203.677 -64.9011 204.967 -66.5049 206.514C-66.9601 206.978 -67.6354 207.547 -68.1601 207.628C-69.1515 207.847 -70.0088 208.127 -70.2969 209.136C-70.5171 210.029 -70.2838 210.75 -69.3355 211.008C-68.7629 211.153 -68.3574 211.543 -67.9288 211.798C-68.0646 212.028 -68.101 212.129 -68.1639 212.158C-70.6978 213.396 -73.3625 213.99 -75.7707 215.958C-76.5901 216.636 -77.8677 216.782 -79.1786 217.235C-78.9021 216.689 -78.8375 216.368 -78.725 216.273C-77.2735 215.505 -75.8352 214.701 -74.3307 214.073C-72.3098 213.244 -71.7701 212.116 -72.8557 210.801C-74.6333 211.391 -76.353 212.826 -78.2248 212.672C-78.6054 212.644 -79.6581 213.39 -79.8352 213.806C-80.4213 215.205 -81.5881 215.548 -82.7698 216.148C-84.0774 216.807 -85.3187 217.642 -86.5733 218.442C-86.8745 218.626 -87.2172 218.996 -87.4323 219.014C-88.8523 218.978 -90.059 220.005 -91.2374 220.811C-94.0661 222.645 -96.8368 224.535 -99.6075 226.425C-99.8772 226.594 -100.063 226.89 -100.735 227.664C-99.4685 227.191 -98.6658 227.061 -98.0451 226.643C-96.4711 225.609 -95.0245 224.926 -93.6112 225.339C-91.5538 223.619 -89.5163 222.242 -87.229 221.037C-85.0674 219.891 -82.8926 218.781 -80.4695 217.346C-81.5802 219.616 -83.1014 220.791 -85.0858 221.52C-85.867 221.806 -86.6317 222.333 -87.4046 222.74C-88.4291 223.265 -89.4536 223.791 -90.7794 224.5C-91.2032 225.739 -92.1797 226.491 -93.9589 226.583C-94.8327 226.622 -95.9665 227.448 -96.9331 228.029C-98.6909 229.067 -100.391 230.16 -102.135 231.233C-102.643 231.556 -103.209 231.824 -103.691 232.217C-105.599 233.742 -108.213 233.979 -109.762 236.164C-109.812 236.229 -110.058 236.263 -110.211 236.252C-111.084 236.29 -111.67 236.899 -112.409 237.497C-114.259 239.077 -115.977 241.011 -118.493 241.409C-118.544 241.766 -118.604 242.002 -118.582 242.158C-118.534 242.384 -118.405 242.531 -118.326 242.743C-120.62 244.325 -120.62 244.325 -121.901 243.475C-120.486 243.597 -119.767 243.34 -119.546 242.156ZM-264.075 179.332C-265.181 179.937 -266.599 180.399 -266.115 181.79C-266.856 182.182 -267.597 182.574 -268.339 182.965C-268.299 183.071 -268.215 183.198 -268.175 183.304C-267.505 182.821 -266.816 182.288 -266.115 181.79C-265.438 180.931 -264.765 180.156 -264.075 179.332ZM-171.238 99.6794C-173.86 101.374 -176.79 102.841 -179.051 104.906C-181.249 106.941 -183.855 108.38 -186.009 110.435C-187.045 111.423 -188.447 112.127 -189.644 112.982C-191.173 114.037 -192.658 115.112 -194.2 116.131C-196.934 117.921 -199.21 120.242 -201.713 122.255C-203.126 123.421 -204.376 124.925 -206.26 125.233C-206.462 125.287 -206.718 125.491 -206.912 125.665C-209.807 128.113 -212.688 130.595 -215.552 133.028C-215.27 133.975 -214.584 133.734 -213.908 133.165C-213.089 132.488 -212.341 131.719 -211.522 131.041C-207.074 127.404 -202.4 124.075 -197.881 120.529C-192.161 116.041 -186.325 111.665 -180.489 107.288C-177.659 105.162 -174.726 103.113 -171.882 101.022C-171.243 100.554 -170.662 100.031 -170.081 99.507C-170.171 99.4661 -170.242 99.3751 -170.331 99.3342C-170.628 99.4325 -170.969 99.5105 -171.238 99.6794ZM-312.453 305.085C-312.783 306.279 -313.089 307.338 -313.473 308.682C-313.675 308.736 -314.173 308.888 -314.855 309.044C-315.203 310.288 -315.524 311.603 -315.9 313.069C-313.306 312.384 -310.734 311.543 -308.904 308.726C-307.642 306.76 -308.071 305.716 -310.365 305.719C-310.282 305.347 -310.181 304.926 -310.111 304.519C-310.029 304.147 -309.964 303.826 -309.876 303.369C-310.969 303.22 -312.016 303.092 -313.305 302.911C-313.588 303.834 -313.862 304.587 -314.199 305.66C-313.311 305.365 -312.875 305.242 -312.453 305.085ZM-107.734 55.8146C-107.133 54.9492 -106.709 53.7104 -105.385 54.0823C-104.069 52.7546 -102.12 52.6233 -100.825 51.1396C-100.464 50.7199 -99.6468 50.3339 -99.1089 50.2876C-97.2751 50.0448 -96.1612 48.7709 -94.6831 47.2836C-95.5172 47.4282 -96.1395 47.3481 -96.6294 47.621C-98.5526 48.6123 -100.468 49.7244 -102.351 50.8216C-105.246 52.4794 -108.128 54.1725 -111.022 55.8304C-115.549 58.4666 -120.094 61.1529 -124.621 63.7891C-124.828 63.9284 -125.021 64.1029 -125.162 64.4186C-122.329 63.2883 -119.742 61.4019 -116.704 59.9262C-117.165 60.4758 -117.444 60.8156 -117.724 61.1555C-114.503 58.8866 -111.641 55.9565 -107.734 55.8146ZM-246.028 345.008C-247.597 345.168 -248.807 345.199 -250.058 345.416C-250.444 345.473 -251.002 345.861 -251.344 346.231C-252.809 347.753 -254.229 349.297 -255.649 350.84C-255.942 351.144 -256.24 351.534 -256.323 351.906C-256.442 352.377 -256.514 353.076 -256.246 353.198C-255.875 353.397 -255.148 353.262 -254.543 353.1C-254.202 353.023 -253.796 352.623 -253.49 352.354C-251.985 350.937 -250.507 349.45 -248.958 348.054C-248.508 347.675 -247.826 347.519 -246.869 347.109C-246.632 346.457 -246.333 345.775 -246.028 345.008ZM99.2087 22.6098C92.2988 23.6294 85.5364 23.9562 78.4974 25.6184C78.2326 25.7019 77.9396 26.0065 77.5573 26.2701C78.8399 26.8277 80.1655 26.908 81.7776 26.2713C85.2086 24.8588 88.421 24.8375 91.7212 24.3592C95.0213 23.881 98.2669 23.5531 101.549 23.125C101.603 22.9746 101.613 22.8037 101.668 22.6533C100.812 22.6419 100.056 22.5005 99.2087 22.6098ZM67.7065 90.4147C70.8909 89.0355 74.0438 87.6713 77.2365 86.4129C78.0673 86.0621 78.9958 85.8729 79.7753 85.8787C81.2582 85.8847 82.5393 85.1551 84.1134 84.1209C81.7268 83.8769 79.4147 84.7195 77.2448 85.7442C74.4775 87.051 71.74 87.8452 68.9529 88.7044C67.4583 89.1609 65.9935 89.8941 64.3186 90.5604C65.3579 91.3576 66.5164 90.8935 67.7065 90.4147ZM-228.477 144.657C-228.548 144.566 -228.575 144.495 -228.646 144.404C-229.194 144.621 -229.723 144.788 -230.245 145.076C-230.986 145.468 -232.064 145.852 -232.371 146.413C-233.416 148.069 -235.109 148.786 -236.504 149.902C-238.413 151.426 -240.09 153.173 -241.824 154.865C-242.068 155.104 -242.137 155.511 -242.265 155.862C-242.144 155.888 -242.023 155.914 -241.902 155.94C-237.432 152.167 -232.961 148.394 -228.477 144.657ZM-145.273 82.8476C-143.675 81.6779 -141.633 81.0043 -140.511 79.0617C-141.09 79.2938 -141.785 79.4143 -142.249 79.7578C-146.947 83.514 -152.401 86.0477 -157.016 89.9303C-156.918 90.0919 -156.802 90.2034 -156.705 90.365C-152.86 87.8846 -148.917 85.5658 -145.273 82.8476ZM-325.392 315.1C-325.271 315.915 -325.463 317.377 -323.599 317.411C-322.879 315.284 -322.133 313.228 -321.507 311.147C-321.379 310.796 -321.682 310.482 -321.818 309.922C-323.683 311.759 -325.623 313.298 -325.392 315.1ZM-83.5325 41.187C-86.9619 42.3079 -90.0453 44.0549 -93.061 46.476C-92.586 46.4595 -92.1293 46.493 -91.694 46.3706C-90.8549 46.1405 -90.0108 45.825 -89.1799 45.4742C-88.7711 45.2811 -88.2497 44.9934 -88.0014 44.6684C-87.1258 43.5486 -86.0798 43.1793 -84.7988 43.2391C-84.2923 42.4183 -83.9397 41.8779 -83.5325 41.187ZM-142.99 84.0965C-142.969 84.2525 -142.961 84.3732 -142.939 84.5293C-142.491 84.4421 -141.971 84.4459 -141.589 84.1823C-138.283 82.0398 -134.978 79.8973 -131.699 77.6842C-130.934 77.1569 -130.312 76.4476 -129.619 75.8293C-129.721 75.7531 -129.837 75.6416 -129.908 75.5506C-134.266 78.4394 -138.606 81.2782 -142.99 84.0965ZM43.6085 82.5175C47.5673 82.019 51.3477 79.8599 55.0998 77.9219C51.1525 78.7473 47.3309 80.3027 43.6085 82.5175ZM-158.115 90.9478C-160.736 91.8535 -164.177 94.2262 -169.077 98.534C-166.194 97.3387 -159.32 92.4724 -158.115 90.9478ZM-217.205 135.429C-218.802 135.809 -220.343 135.747 -221.394 137.781C-221.911 138.773 -223.367 139.627 -224.43 140.544C-225.124 141.162 -225.83 141.745 -226.569 142.343C-226.426 142.525 -226.297 142.672 -226.155 142.854C-223.166 140.362 -220.208 137.885 -217.205 135.429ZM-315.51 256.466C-316.468 257.957 -317.521 259.493 -318.453 261.055C-318.946 261.911 -319.211 262.784 -319.597 263.631C-319.445 263.642 -319.279 263.689 -319.127 263.7C-316.677 261.546 -314.99 258.049 -315.51 256.466ZM-2.02042 34.9752C-2.50855 34.1671 -3.37749 34.9098 -4.14546 35.2309C-3.70673 33.7358 -5.03912 34.822 -5.85505 34.9165C-5.61848 35.8434 -5.36868 36.8056 -5.03947 37.9796C-3.73849 36.9082 -2.77523 36.121 -1.86159 35.3987C-1.98071 35.0811 -2.00719 35.0105 -2.02042 34.9752ZM-247.392 160.153C-249.966 161.286 -251.61 162.726 -252.924 164.552C-250.653 163.895 -248.814 162.777 -247.392 160.153ZM-105.041 230.986C-104.359 230.04 -103.739 229.623 -102.64 229.394C-101.496 229.187 -101.147 228.44 -101.41 227.443C-103.327 228.846 -105.293 230.315 -107.241 231.733C-107.143 231.895 -107.09 232.036 -106.993 232.198C-106.359 231.815 -105.407 231.491 -105.041 230.986ZM-325.104 345.084C-323.245 343.625 -323.245 343.625 -322.481 340.231C-324.009 340.994 -324.304 341.59 -325.104 345.084ZM-122.617 68.2438C-125.313 68.8522 -127.099 70.111 -128.39 71.8009C-126.536 71.2164 -124.684 70.134 -122.617 68.2438ZM-35.4159 23.4088C-33.0441 22.3303 -31.0316 22.1693 -28.7061 20.5726C-31.2118 20.8003 -33.1813 21.2734 -35.4159 23.4088ZM-139.498 78.9989C-137.214 77.5879 -135.357 76.4201 -133.261 75.0983C-135.261 75.2946 -138.336 77.1622 -139.498 78.9989ZM41.5469 109C43.5577 109.13 45.1201 108.559 46.4955 106.995C44.708 107.756 43.1094 107.639 41.5469 109ZM59.7407 29.1997C61.3196 29.6589 64.1679 29.0617 67.3026 27.7475C64.9591 27.8156 62.5129 28.5968 59.7407 29.1997ZM-4.38628 11.7885C-6.64045 11.8974 -8.90958 13.0521 -11.2664 13.8742C-9.03216 14.1071 -6.71993 12.4751 -4.38628 11.7885ZM-122.137 68.1418C-120.057 67.8656 -118.977 66.4004 -117.197 65.2271C-119.416 65.5273 -120.685 66.5838 -122.137 68.1418ZM-243.251 156.785C-244.716 157.518 -244.716 157.518 -246.177 159.247C-244.546 159.058 -243.89 158.042 -243.251 156.785ZM-179.388 100.453C-179.33 100.509 -179.303 100.58 -179.259 100.6C-177.455 99.2913 -175.632 97.9322 -173.828 96.6232C-173.855 96.5526 -173.913 96.4969 -173.957 96.4765C-175.761 97.7854 -177.565 99.0944 -179.388 100.453ZM-253.295 165.932C-254.991 166.442 -255.865 167.27 -256.605 168.949C-255.605 168.062 -254.619 167.139 -253.295 165.932ZM-26.3691 19.3028C-26.3476 19.4588 -26.2946 19.6 -26.2732 19.756C-25.1593 19.2716 -24.0139 18.7723 -22.8868 18.3231C-22.9215 18.1318 -23.001 17.92 -23.0357 17.7287C-24.1363 18.2484 -25.237 18.7682 -26.3691 19.3028ZM-332.68 284.018C-331.358 283.102 -331.457 282.443 -331.743 281.581C-333.514 282.584 -332.751 283.137 -332.68 284.018ZM27.7482 115.931C28.7991 116.266 29.572 115.859 30.1861 115.029C30.12 114.853 30.0356 114.727 29.9694 114.55C29.2097 114.992 28.4632 115.469 27.7482 115.931ZM-326.972 316.511C-327.631 317.321 -328.141 317.935 -328.917 318.925C-326.84 318.443 -326.84 318.443 -326.972 316.511ZM-256.665 359.878C-256.425 360.221 -256.356 360.604 -256.14 360.585C-255.298 360.561 -254.646 360.129 -254.169 359.031C-255.026 359.311 -255.682 359.538 -256.665 359.878ZM53.1458 103.606C53.1541 103.726 53.207 103.867 53.2153 103.988C54.3292 103.504 55.4563 103.055 56.5702 102.57C56.504 102.394 56.4511 102.252 56.3849 102.076C55.2842 102.596 54.215 103.101 53.1458 103.606ZM-259.962 358.194C-260.284 359.011 -260.503 359.613 -260.826 360.43C-258.803 359.309 -258.803 359.309 -259.962 358.194ZM-41.1656 25.2515C-42.7015 25.8938 -43.7029 26.2835 -44.7224 26.7234C-44.6695 26.8646 -44.6033 27.0411 -44.5818 27.1971C-43.6417 26.5454 -42.4567 26.9414 -41.1656 25.2515ZM-328.868 277.897C-327.794 277.306 -327.178 276.974 -326.544 276.592C-326.611 276.415 -326.664 276.274 -326.73 276.098C-327.594 275.965 -328.175 276.489 -328.868 277.897ZM1.2938 11.1419C2.84787 11.2389 2.84789 11.2389 4.08266 9.9911C3.20713 10.3215 2.40768 10.6574 1.2938 11.1419ZM-336.487 285.317C-335.792 284.407 -335.345 283.822 -334.867 283.222C-335.868 283.612 -336.717 284.013 -336.487 285.317ZM32.7561 102.142C32.5459 102.075 32.3539 101.958 32.1967 102.032C31.7565 102.24 31.3112 102.533 30.5019 103.04C31.6603 103.365 32.2926 103.274 32.7561 102.142ZM20.9059 119.993C20.8712 119.802 20.8497 119.646 20.7835 119.47C20.047 119.776 19.3419 120.067 18.6054 120.374C18.6534 120.6 18.6881 120.791 18.7046 121.033C19.4726 120.712 20.1826 120.335 20.9059 119.993ZM26.631 116.999C26.6227 116.878 26.5962 116.808 26.5879 116.687C25.6495 117.047 24.6664 117.387 23.728 117.747C23.8256 117.908 23.8918 118.085 23.9894 118.246C24.8699 117.831 25.7505 117.415 26.631 116.999ZM109.835 24.1973C109.908 23.9967 109.981 23.7961 110.009 23.5751C109.382 23.5805 108.723 23.6007 108.096 23.6061C108.005 23.8568 107.959 24.128 107.868 24.3787C108.513 24.3232 109.158 24.2677 109.835 24.1973ZM30.3378 105.07C30.3461 105.191 30.3543 105.311 30.3626 105.432C31.1124 105.161 31.8621 104.89 32.6118 104.619C32.5771 104.428 32.511 104.252 32.4762 104.06C31.7662 104.437 31.0296 104.743 30.3378 105.07ZM94.7068 86.8042C95.2661 87.7034 95.7958 87.5364 96.5771 86.4611C96.0657 86.578 95.541 86.6596 94.7068 86.8042ZM0.383547 11.2809C-0.280131 11.3866 -0.432383 11.3754 -0.558163 11.4348C-0.854418 11.5332 -1.19537 11.6111 -1.49661 11.7949C-1.68528 11.884 -1.86573 12.0938 -2.07262 12.2331C-2.01967 12.3743 -1.96673 12.5154 -1.91378 12.6566C-1.3113 12.289 -0.695581 11.9567 0.383547 11.2809ZM-333.881 259.201C-333.792 259.241 -333.658 259.303 -333.568 259.344C-333.257 258.989 -332.959 258.599 -332.648 258.244C-332.782 258.183 -332.916 258.122 -333.05 258.06C-333.317 258.435 -333.583 258.811 -333.881 259.201ZM70.0552 72.3967C68.6037 72.3758 68.3885 73.1837 68.1153 73.9359C68.6599 73.5126 69.2044 73.0892 70.0552 72.3967ZM38.4005 110.776C38.1952 110.624 37.7964 110.646 37.4687 110.759C37.3115 110.834 37.2104 111.255 37.0432 111.5C37.3478 111.523 37.6341 111.595 38.6188 111.754C38.5411 111.25 38.5924 110.894 38.4005 110.776ZM65.4021 95.325C65.4236 95.481 65.4451 95.6371 65.4666 95.7931C66.1088 95.5314 66.751 95.2697 67.4064 95.0433C67.3717 94.8519 67.3816 94.6811 67.3469 94.4897C66.7047 94.7515 66.0311 95.028 65.4021 95.325ZM-94.2579 48.9108C-94.2181 49.0166 -94.2099 49.1374 -94.1702 49.2433C-93.5595 48.9964 -92.9305 48.6994 -92.3198 48.4525C-92.3545 48.2612 -92.4207 48.0847 -92.4554 47.8934C-93.0711 48.2257 -93.6554 48.5432 -94.2579 48.9108ZM-130.508 67.7326C-130.495 67.7679 -130.482 67.8032 -130.455 67.8738C-130.154 67.69 -129.839 67.5415 -129.57 67.3725C-129.237 67.1739 -128.962 66.9195 -128.643 66.6855C-128.727 66.5592 -128.798 66.4682 -128.883 66.3419C-129.414 66.8005 -129.977 67.274 -130.508 67.7326ZM-324.166 310.076C-324.256 310.035 -324.377 310.009 -324.466 309.968C-324.714 310.293 -324.963 310.618 -325.193 310.893C-325.027 310.939 -324.893 311.001 -324.728 311.047C-324.555 310.717 -324.339 310.406 -324.166 310.076ZM-335.842 271.344C-335.752 271.385 -335.663 271.426 -335.587 271.431C-335.32 271.056 -335.054 270.681 -334.743 270.326C-334.94 270.295 -335.137 270.263 -335.302 270.216C-335.492 270.597 -335.651 270.963 -335.842 271.344ZM-320.027 351.12C-320.129 351.044 -320.187 350.988 -320.29 350.912C-320.583 351.217 -320.889 351.486 -321.182 351.79C-321.079 351.867 -321.021 351.922 -320.919 351.998C-320.612 351.729 -320.32 351.425 -320.027 351.12ZM-161.852 97.3659C-161.795 97.4217 -161.768 97.4922 -161.71 97.548C-161.152 97.1599 -160.608 96.7366 -160.05 96.3486C-160.076 96.278 -160.134 96.2223 -160.192 96.1665C-160.75 96.5546 -161.308 96.9426 -161.852 97.3659ZM-327.682 314.52C-327.7 314.57 -327.427 314.607 -327.262 314.654C-327.189 314.453 -327.071 314.273 -327.043 314.052C-327.025 314.002 -327.222 313.97 -327.387 313.924C-327.492 314.139 -327.641 314.334 -327.682 314.52ZM89.2681 90.6605C89.2763 90.7812 89.2846 90.902 89.2796 90.9874C89.7016 90.8296 90.1237 90.6719 90.5457 90.5141C90.5375 90.3934 90.5292 90.2727 90.5342 90.1872C90.0807 90.3598 89.6587 90.5176 89.2681 90.6605Z" fill="white"/>
</g>
<circle cx="36.006" cy="35.7188" r="35.4857" fill="#1066AA"/>
<path d="M45.0485 50.1584C44.8448 49.9491 44.5472 49.8041 44.2183 49.8041C43.8893 49.8041 43.6073 49.933 43.388 50.1423C43.1844 50.3516 43.0434 50.6575 43.0434 50.9957C43.0434 51.3177 43.1687 51.6236 43.388 51.849C43.6073 52.0584 43.8893 52.2033 44.2183 52.2033C44.5472 52.2033 44.8292 52.0745 45.0485 51.849C45.2521 51.6397 45.3931 51.3338 45.3931 50.9957C45.3931 50.6736 45.2678 50.3838 45.0485 50.1584ZM26.0474 27.4069L29.2743 38.5653L48.2127 35.6026L50.5937 27.4069H26.0474ZM48.3694 44.1686C49.0586 44.1686 49.6069 44.7322 49.6069 45.4406C49.6069 46.1491 49.0586 46.7126 48.3694 46.7126H28.82C27.0342 46.7126 25.7654 45.9076 25.0762 44.8127C24.7472 44.2813 24.5436 43.6694 24.4966 43.0576C24.4496 42.4457 24.5436 41.8178 24.7942 41.2381C25.1545 40.3847 25.8437 39.6119 26.8619 39.1449L23.1964 26.5052V26.473L22.0999 22.6891C21.5203 20.6764 19.6562 20.7247 16.9619 20.7891C16.2883 20.8052 15.5834 20.8213 15.1292 20.8213C14.4399 20.8213 13.8917 20.2578 13.8917 19.5493C13.8917 18.8408 14.4399 18.2773 15.1292 18.2773C15.9437 18.2773 16.4293 18.2612 16.8993 18.2612C20.7057 18.1646 23.3374 18.1002 24.4652 21.9645L25.3111 24.8628H52.2542C52.9434 24.8628 53.4917 25.4264 53.4917 26.1348C53.4917 26.2798 53.4603 26.4408 53.4133 26.5696L50.3588 37.1C50.2178 37.5831 49.8105 37.9212 49.3562 37.9856L28.585 41.2542H28.5224C27.7391 41.3991 27.2692 41.8017 27.0656 42.2525C26.9872 42.4457 26.9559 42.6551 26.9716 42.8644C26.9872 43.0737 27.0499 43.2669 27.1595 43.444C27.4258 43.8627 27.9741 44.1847 28.82 44.1847H48.3694V44.1686ZM32.2349 50.1584C32.0312 49.9491 31.7336 49.8041 31.4046 49.8041C31.0757 49.8041 30.7937 49.933 30.5744 50.1423C30.3708 50.3516 30.2298 50.6575 30.2298 50.9957C30.2298 51.3177 30.3551 51.6236 30.5744 51.849C30.7937 52.0584 31.0757 52.2033 31.4046 52.2033C31.7336 52.2033 32.0156 52.0745 32.2349 51.849C32.4385 51.6397 32.5795 51.3338 32.5795 50.9957C32.5638 50.6736 32.4385 50.3838 32.2349 50.1584ZM31.4046 47.2601C32.4072 47.2601 33.3157 47.6787 33.9893 48.355C34.6472 49.0313 35.0545 49.9652 35.0545 51.0118C35.0545 52.0423 34.6472 52.9762 33.9893 53.6524C33.3314 54.3287 32.4228 54.7473 31.4203 54.7473C30.4178 54.7473 29.4936 54.3287 28.8357 53.6524C28.1777 52.9762 27.7705 52.0423 27.7705 50.9957C27.7705 49.9652 28.1777 49.0313 28.8357 48.355C29.4936 47.6787 30.4021 47.2601 31.4046 47.2601ZM44.2183 47.2601C45.2208 47.2601 46.1293 47.6787 46.8029 48.355C47.4608 49.0313 47.8681 49.9652 47.8681 51.0118C47.8681 52.0423 47.4608 52.9762 46.8029 53.6524C46.145 54.3287 45.2364 54.7473 44.2339 54.7473C43.2314 54.7473 42.3072 54.3287 41.6493 53.6524C40.9914 52.9762 40.5841 52.0423 40.5841 50.9957C40.5841 49.9652 40.9914 49.0313 41.6493 48.355C42.3072 47.6787 43.2314 47.2601 44.2183 47.2601Z" fill="white"/>
</svg>
