<svg width="476" height="149" viewBox="0 0 476 149" fill="none" xmlns="http://www.w3.org/2000/svg">
<mask id="mask0" mask-type="alpha" maskUnits="userSpaceOnUse" x="18" y="0" width="442" height="149">
<path d="M24.784 57.1756H39.6653V25.8465L53.6067 47.1503H53.92L67.9398 25.6899V57.1756H83.0561V2.34968H66.9999L53.92 23.5751L40.8401 2.34968H24.784V57.1756Z" fill="#64C8E6"/>
<path d="M88.3949 57.1756H104.373L108.289 47.3853H129.436L133.43 57.1756H149.722L126.381 1.95807H111.735L88.3949 57.1756ZM112.753 35.5585L118.941 19.9723L125.05 35.5585H112.753Z" fill="#64C8E6"/>
<path d="M155.041 57.1756H170.236V41.511H177.755C191.383 41.511 201.33 34.697 201.33 21.7737C201.33 9.47705 192.401 2.34968 178.538 2.34968H155.041V57.1756ZM170.236 29.606V15.1163H177.363C182.846 15.1163 186.136 17.6226 186.136 22.322C186.136 26.7864 182.846 29.606 177.442 29.606H170.236Z" fill="#64C8E6"/>
<path d="M203.355 57.1756H219.333L223.249 47.3853H244.396L248.39 57.1756H264.682L241.341 1.95807H226.695L203.355 57.1756ZM227.713 35.5585L233.901 19.9723L240.01 35.5585H227.713Z" fill="#64C8E6"/>
<path d="M294.986 59.5253H310.259V53.4161C328.039 53.4161 338.064 42.9209 338.064 28.8228C338.064 14.8813 327.882 4.85601 310.259 4.85601V0H294.986V4.85601C277.364 4.85601 267.182 14.8813 267.182 28.8228C267.182 42.9209 277.207 53.4161 294.986 53.4161V59.5253ZM294.986 39.9446C287.781 39.9446 282.768 36.1068 282.768 29.0577C282.768 22.2437 287.781 18.3275 294.986 18.3275V39.9446ZM310.259 39.9446V18.3275C317.465 18.3275 322.478 22.2437 322.478 29.0577C322.478 36.1068 317.465 39.9446 310.259 39.9446Z" fill="#64C8E6"/>
<path d="M372.528 58.2721C389.446 58.2721 402.134 45.5055 402.134 29.7626C402.134 13.8631 389.603 1.25316 372.685 1.25316C355.767 1.25316 343.079 14.0198 343.079 29.7626C343.079 45.6622 355.611 58.2721 372.528 58.2721ZM372.685 44.5656C364.383 44.5656 358.665 37.6732 358.665 29.7626C358.665 21.6954 364.226 14.9596 372.528 14.9596C380.909 14.9596 386.626 21.852 386.626 29.7626C386.626 37.8299 381.065 44.5656 372.685 44.5656Z" fill="#64C8E6"/>
<path d="M410.049 57.1756H425.244V36.3417H444.746V57.1756H459.941V2.34968H444.746V22.8702H425.244V2.34968H410.049V57.1756Z" fill="#64C8E6"/>
<path d="M46.7762 139.131C58.9162 139.131 65.8869 133.884 71.0562 126.756L59.6211 118.611C56.3315 122.605 52.9636 125.268 47.2461 125.268C39.5704 125.268 34.1662 118.846 34.1662 110.622C34.1662 102.476 39.5704 95.9755 47.2461 95.9755C52.4937 95.9755 56.1749 98.4035 59.3078 102.32L70.4296 93.7041C65.5736 86.9684 58.6029 82.1124 47.4027 82.1124C30.7983 82.1124 18.5016 94.644 18.5016 110.622C18.5016 127.148 31.1116 139.131 46.7762 139.131Z" fill="#64C8E6"/>
<path d="M77.5937 138.035H92.7883V123.858L98.3492 117.671L112.134 138.035H130.383L108.923 106.784L129.678 83.2089H111.664L92.7883 105.453V83.2089H77.5937V138.035Z" fill="#64C8E6"/>
<path d="M134.806 138.035H148.982L170.208 107.176V138.035H185.246V83.2089H171.069L149.844 114.068V83.2089H134.806V138.035Z" fill="#64C8E6"/>
<path d="M188.84 149H202.468L203.486 138.035H232.622V149H245.467L247.19 124.72H241.003V83.2089H199.257V84.6187C199.257 105.218 197.377 114.773 193.696 124.72H188.84V149ZM209.595 124.72C212.101 117.201 213.903 109.212 213.903 97.072V96.5238H225.808V124.72H209.595Z" fill="#64C8E6"/>
<path d="M282.766 139.131C299.684 139.131 312.372 126.365 312.372 110.622C312.372 94.7223 299.841 82.1124 282.923 82.1124C266.005 82.1124 253.317 94.879 253.317 110.622C253.317 126.521 265.849 139.131 282.766 139.131ZM282.923 125.425C274.621 125.425 268.903 118.532 268.903 110.622C268.903 102.555 274.464 95.8189 282.766 95.8189C291.147 95.8189 296.864 102.711 296.864 110.622C296.864 118.689 291.303 125.425 282.923 125.425Z" fill="#64C8E6"/>
<path d="M320.287 138.035H335.482V123.858L341.043 117.671L354.827 138.035H373.077L351.616 106.784L372.372 83.2089H354.358L335.482 105.453V83.2089H320.287V138.035Z" fill="#64C8E6"/>
<path d="M377.578 138.035H393.086V124.72H377.578V138.035ZM381.416 120.177H389.248L393.791 89.8663V83.2089H376.873V89.8663L381.416 120.177Z" fill="#64C8E6"/>
</mask>
<g mask="url(#mask0)">
<rect x="-50" y="-25" width="526" height="198" fill="#64C8E6"/>
<path fill-rule="evenodd" clip-rule="evenodd" d="M41.6967 141.376C42.0961 139.836 43.763 138.796 45.1915 137.843C46.1253 137.228 47.1308 136.703 47.9678 135.93C48.4804 135.431 49.3443 135.152 50.0434 134.739C50.5166 134.449 51.0238 134.145 51.5096 133.889C51.029 133.215 50.3729 133.534 49.6954 133.9C46.3041 135.615 42.8662 137.308 39.475 139.022C39.0448 139.219 38.602 139.383 38.231 139.635C35.5049 141.685 32.2282 142.661 29.364 144.336C26.713 145.855 23.6155 146.687 21.3645 148.872C20.8734 149.324 20.1493 149.668 19.5058 150.021C15.9174 152.041 12.3291 154.06 8.72813 156.045C7.54335 156.714 6.24917 157.191 5.05183 157.826C4.49797 158.108 4.01586 158.479 3.53374 158.85C2.89387 159.318 2.29169 159.888 1.59267 160.301C-1.14789 161.892 -3.96018 163.393 -6.74736 164.962C-6.9732 165.084 -7.27973 165.197 -7.4464 165.374C-10.624 168.403 -14.9152 169.985 -18.6075 172.352C-22.5811 174.901 -26.6265 177.36 -30.6342 179.92C-31.7043 180.586 -32.6308 181.43 -33.6291 182.185C-35.4806 183.564 -37.3195 184.977 -39.049 186.582C-37.0756 185.429 -35.1022 184.276 -33.1162 183.157C-29.6981 181.2 -26.2549 179.312 -22.8834 177.334C-22.1163 176.896 -21.4926 176.279 -20.7757 175.706C-20.4387 175.465 -20.1269 175.157 -19.7433 174.938C-17.3307 173.507 -14.8716 172.097 -12.4465 170.7C-12.2206 170.578 -11.9733 170.41 -11.8192 170.198C-10.079 168.202 -7.71483 167.06 -5.16053 166.118C-4.64967 165.93 -4.12988 165.661 -3.70331 165.349C-1.92359 163.88 0.0570724 162.956 2.27803 162.37C3.40554 162.07 4.64416 161.652 5.17803 160.372C5.7764 158.952 7.34323 159.11 8.66615 158.815C9.07654 158.354 9.50843 157.847 10.0389 157.187C10.7792 156.992 11.6002 156.805 12.3871 156.631C13.8853 154.608 15.122 153.765 18.0043 152.664C18.0724 152.639 18.1871 152.635 18.2427 152.576C20.4473 151.106 22.711 149.691 24.8905 148.152C26.025 147.347 27.1381 146.588 28.5023 146.511C29.5223 146.445 30.2375 146.181 30.8969 145.241C31.1711 144.831 32.4133 144.527 33.1788 144.4C33.6932 144.327 34.172 144.576 34.821 144.762C35.5213 142.569 37.977 141.78 39.6923 140.451C39.6961 141.301 39.6837 142.002 39.6714 142.703C39.4706 142.893 39.2233 143.062 39.0907 143.227C37.494 145.402 35.3665 146.766 32.4965 147.167C32.0161 147.228 31.4712 147.429 30.9729 147.651C30.0104 148.083 29.1195 148.605 27.8756 149.218C27.571 149.756 27.548 150.848 25.8521 150.97C25.5886 150.99 25.1154 151.281 24.9613 151.492C23.7016 153.427 21.3176 154.306 19.3478 155.574C18.2903 156.273 17.4587 156.851 17.4231 157.909C17.4286 158.448 17.0469 159.092 15.8549 159.531C15.8799 158.864 15.8958 158.278 15.9118 157.692C13.8271 158.228 13.8611 158.216 13.7306 159.541C13.6949 159.863 13.2934 160.244 12.9978 160.701C12.5244 160.256 12.2159 159.944 11.9075 159.632C11.4899 159.864 11.1708 159.943 11.0382 160.108C9.87874 161.58 8.29784 162.434 6.36552 163.069C5.26312 163.436 4.19669 164.216 3.10153 164.814C3.36525 165.529 3.54108 166.006 3.80118 166.606C3.03575 166.734 2.28646 167.01 2.10893 166.843C1.29669 166.214 0.321599 166.612 -0.637322 167.159C-2.37596 168.11 -4.08948 169.128 -5.88728 170.023C-7.09717 170.624 -7.57209 171.225 -7.55572 172.109C-7.56464 172.189 -7.77792 172.345 -7.88902 172.464C-8.56124 172.634 -9.23344 172.805 -9.33562 172.842C-10.2926 173.814 -10.8105 174.508 -11.4934 175.069C-12.377 175.821 -13.413 176.474 -14.2499 177.247C-14.9973 177.948 -15.4739 178.859 -16.3055 179.436C-18.2036 180.794 -20.2451 181.972 -22.2023 183.274C-23.1362 183.889 -23.9857 184.628 -24.613 185.13C-24.6862 186.085 -22.3559 185.691 -24.1948 187.104C-24.9836 186.853 -25.7725 186.602 -26.5147 186.373C-28.7318 187.809 -31.0745 188.905 -32.2625 190.929C-32.4811 191.281 -33.0439 191.643 -33.5171 191.934C-34.5442 192.506 -35.6555 192.954 -36.6234 193.582C-39.9751 195.823 -43.5849 197.889 -46.4507 200.61C-46.7625 200.918 -47.155 201.218 -47.5297 201.356C-52.7368 203.391 -56.4538 207.161 -60.9221 210.046C-63.6465 211.786 -66.0588 213.952 -68.5806 215.926C-70.2062 217.183 -71.7135 218.552 -73.3857 219.787C-77.3359 222.714 -81.3328 225.619 -85.093 228.747C-86.749 230.131 -88.1128 231.678 -90.2942 232.792C-92.7696 234.053 -94.9507 235.902 -96.6658 237.966C-96.9525 238.342 -97.5063 238.624 -97.8863 238.957C-99.3631 240.198 -100.887 241.418 -102.258 242.736C-103.786 244.151 -105.069 245.707 -106.632 247.134C-107.269 247.717 -108.256 248.081 -109.091 248.544C-109.701 248.885 -110.301 249.145 -110.957 249.464C-111.089 247.849 -113.239 249.57 -114.102 248.805C-113.972 246.745 -117.428 247.864 -118.15 246.428C-119.36 247.029 -119.538 247.597 -119.571 248.345C-119.605 249.092 -120.324 249.241 -120.625 249.159C-120.998 248.252 -121.284 247.583 -121.585 246.766C-121.463 246.256 -120.816 245.283 -121.175 244.835C-122.061 243.691 -121.731 242.486 -120.823 241.067C-120.66 240.775 -120.739 240.456 -120.737 240.146C-120.855 240.035 -120.995 239.97 -121.114 239.859C-122.114 241.659 -124.006 242.086 -125.647 242.884C-126.132 243.141 -126.437 243.679 -126.826 244.093C-127.381 244.685 -127.903 245.264 -128.514 245.915C-129.672 244.872 -127.78 243.71 -127.785 242.435C-129.156 243.753 -130.554 244.578 -131.051 245.96C-131.24 246.494 -131.826 247.214 -132.934 247.042C-133.067 246.471 -133.429 245.909 -133.243 245.259C-132.794 243.855 -133.496 243.418 -135.108 243.664C-134.942 242.751 -134.61 241.971 -134.7 241.308C-134.838 240.198 -134.573 239.133 -133.819 237.926C-133.043 236.673 -133.258 235.669 -134.435 234.787C-135.291 235.296 -136.517 235.748 -137.048 236.408C-137.998 237.61 -139.407 238.09 -140.642 238.623C-141.604 239.055 -142.108 239.473 -142.685 240.112C-144.724 242.45 -146.764 244.788 -149.269 246.911C-149.393 246.996 -149.576 247.024 -149.746 247.087C-150.042 246.809 -150.338 246.531 -150.858 246.065C-152.202 247.141 -153.423 248.133 -155.125 249.496C-154.039 247.509 -153.181 245.954 -152.369 244.378C-152.509 244.314 -152.683 244.262 -152.823 244.197C-154.018 245.257 -155.18 246.304 -156.61 247.567C-156.564 246.853 -156.51 246.369 -156.478 245.932C-157.123 245.86 -157.641 245.819 -158.113 245.799C-157.943 243.531 -157.098 241.207 -158.066 238.895C-158.864 240.195 -159.498 241.202 -160.03 242.172C-160.55 243.177 -159.488 244.062 -161.089 245.387C-161.089 244.652 -161.094 244.113 -161.104 243.458C-161.713 243.799 -162.131 244.03 -162.561 244.227C-163.224 243.582 -163.829 242.992 -164.48 242.381C-166.336 243.956 -168.082 245.412 -170.285 247.307C-169.593 245.195 -169.155 243.447 -168.427 241.747C-167.936 240.56 -168.888 240.601 -169.819 240.596C-169.104 238.862 -167.116 237.433 -167.113 235.342C-168.81 237.245 -170.183 238.873 -171.649 240.458C-173.093 241.997 -174.665 243.505 -176.447 245.284C-176.406 244.031 -175.354 242.791 -176.86 242.379C-177.114 242.318 -176.833 241.402 -176.597 240.889C-176.21 240.05 -175.444 239.188 -175.886 238.306C-178.924 239.929 -179.319 242.319 -181.153 244.271C-180.812 243.411 -180.438 242.538 -180.097 241.677C-180.908 241.473 -182.055 241.509 -180.863 240.334C-180.354 240.456 -179.938 240.535 -179.637 240.617C-178.922 239.618 -178.34 238.785 -177.535 237.714C-177.535 236.979 -178.851 237.503 -179.478 237.27C-180.153 237.015 -180.561 236.431 -181.128 235.943C-181.7 236.386 -182.008 237.545 -183.191 237.168C-183.27 236.114 -183.349 235.06 -183.441 233.971C-184.416 234.37 -185.289 234.73 -186.537 235.229C-185.467 233.093 -184.526 231.237 -183.632 229.36C-183.297 228.695 -182.987 227.961 -182.984 227.341C-182.961 226.984 -183.554 226.739 -184.04 226.26C-183.786 225.586 -183.368 224.619 -183.019 223.678C-182.66 224.126 -182.133 224.087 -181.658 223.486C-181.051 222.72 -180.524 221.946 -180.277 221.042C-181.225 221.933 -182.207 222.837 -183.143 223.762C-182.72 222.601 -181.969 221.279 -184.004 221.217C-182.253 218.095 -180.397 215.05 -180.538 212.045C-180.565 211.552 -180.158 210.977 -180.015 210.421C-179.465 208.554 -178.639 206.702 -178.806 204.674C-180.356 206.871 -182.325 206.358 -184.349 206.64C-184.024 207.101 -183.821 207.336 -183.687 207.596C-183.493 207.911 -183.333 208.239 -183.152 208.521C-184.545 210.62 -184.545 210.62 -187.228 211.842C-186.825 211.151 -186.013 210.31 -186.216 210.076C-186.945 209.145 -185.804 207.834 -186.168 206.847C-186.444 206.097 -186.228 205.321 -185.237 204.336C-184.468 203.589 -184.237 202.536 -183.653 201.392C-186.125 202.032 -185.451 200.817 -184.922 199.732C-186.516 200.552 -187.951 201.274 -189.387 201.997C-188.604 200.973 -187.855 199.962 -187.072 198.938C-188.49 198.764 -189.082 197.473 -190.937 198.738L-190.993 198.797C-189.652 197.606 -188.279 196.713 -186.793 197.597C-186.262 196.937 -185.958 196.399 -185.466 195.947C-183.904 194.52 -183.891 194.554 -185.229 193.654C-184.535 193.437 -183.841 193.22 -183.148 193.003C-183.164 192.854 -183.214 192.718 -183.23 192.569C-183.931 192.556 -184.566 192.829 -185.13 193.502C-184.965 192.899 -185.005 192.372 -186.048 192.795C-186.751 193.093 -187.437 193.54 -188.149 193.918C-187.832 193.414 -187.549 192.923 -187.231 192.419C-187.359 192.388 -187.499 192.324 -187.626 192.293C-188.036 192.754 -188.413 193.203 -188.823 193.663C-188.568 193.724 -188.314 193.785 -188.106 193.825C-188.134 194.377 -188.116 194.951 -188.145 195.503C-190.491 196.484 -190.457 196.471 -190.201 194.752C-190.126 194.221 -190.085 193.703 -190.01 193.172C-189.379 192.785 -188.698 192.534 -188.33 192.166C-187.51 191.245 -186.599 190.986 -185.425 190.708C-183.362 190.218 -182.421 189.098 -182.023 187.133C-182.751 187.362 -183.479 187.592 -184.649 187.985C-184.013 186.667 -183.494 185.663 -182.987 184.624C-182.458 183.54 -181.908 182.408 -181.324 181.264C-182 181.32 -182.48 181.381 -183.122 181.424C-181.844 179.328 -180.043 177.813 -177.903 176.482C-178.244 177.343 -178.562 178.157 -179.01 179.25C-178.397 179.024 -178.035 178.852 -177.661 178.714C-177.589 178.804 -177.449 178.868 -177.492 178.962C-177.624 179.862 -177.778 180.808 -177.911 181.708C-177.941 181.836 -177.844 181.993 -177.955 182.112C-180.015 184.186 -179.768 186.533 -181.666 188.626C-181.711 189.029 -181.722 189.42 -181.766 189.824C-181.63 189.774 -181.46 189.711 -181.324 189.661C-181.449 189.32 -181.587 188.945 -181.759 188.583C-181.44 188.504 -181.087 188.413 -180.756 188.368C-180.424 188.323 -180.123 188.405 -179.847 188.42C-179.992 189.286 -180.277 190.087 -180.242 190.81C-180.199 191.451 -179.837 192.014 -179.577 192.615C-177.61 191.232 -177.05 189.71 -177.511 186.359C-177.852 186.485 -178.465 186.711 -179.406 187.096C-176.281 182.771 -176.25 179.393 -176.724 176.008C-177.154 176.206 -177.55 176.39 -177.946 176.575C-177.978 176.278 -178.045 175.992 -178.077 175.695C-179.821 176.106 -179.821 176.106 -180.607 175.234C-181.53 176.929 -182.913 178.213 -185.109 178.868C-185.347 178.956 -185.582 179.158 -185.796 179.314C-187.493 180.482 -189.156 180.901 -190.811 180.505C-190.764 180.527 -190.705 180.582 -190.625 180.591C-190.883 180.416 -191.405 180.26 -191.365 180.052C-191.114 179.263 -190.948 178.35 -190.303 177.687C-188.914 176.207 -188.613 174.82 -188.384 173.342C-188.744 173.204 -189.117 173.032 -189.664 172.808C-190.34 173.599 -190.96 174.331 -191.392 174.838C-192.166 175.046 -192.838 175.217 -193.442 175.362C-192.951 174.175 -192.642 173.442 -192.215 172.394C-193.305 172.796 -193.94 173.069 -194.553 173.295C-196.019 171.94 -193.885 170.804 -193.1 169.47C-192.705 169.596 -192.481 169.784 -192.184 169.752C-191.635 169.665 -191.009 169.474 -190.57 169.196C-190.413 169.099 -190.502 168.435 -190.705 168.2C-190.992 167.842 -191.505 167.605 -191.987 167.241C-192.478 167.693 -192.914 168.086 -193.337 168.513C-193.208 168.233 -193.091 167.919 -192.928 167.627C-193.731 167.652 -194.534 167.678 -195.337 167.703C-195.275 167.873 -195.259 168.022 -195.196 168.192C-195.442 167.315 -195.666 166.392 -195.912 165.515L-195.865 165.537C-196.443 164.705 -195.346 163.798 -195.127 162.711C-194.373 162.975 -193.715 163.08 -193.372 163.38C-192.506 164.26 -194.987 164.981 -194.703 165.96C-193.597 165.707 -193.029 165.149 -192.673 164.437C-191.981 163.06 -191.056 161.791 -189.449 160.695C-189.078 160.442 -188.897 159.989 -188.576 159.599C-192.081 159.537 -192.993 158.636 -192.566 155.808C-192.46 155.15 -192.206 154.476 -193.177 154.254C-193.351 154.202 -193.02 153.422 -192.941 153.006C-192.48 153.416 -192.054 153.839 -191.508 154.373C-190.6 153.69 -189.827 153.057 -188.594 152.1C-189.858 152.449 -190.598 152.645 -191.407 152.866C-191.595 152.355 -190.161 151.207 -191.929 151.24C-192.289 151.837 -192.637 152.468 -193.018 153.111C-193.3 151.822 -194.843 152.043 -196.701 152.147C-195.991 151.344 -195.491 150.812 -194.948 150.186C-194.546 150.541 -194.322 150.729 -193.861 151.139C-193.245 149.558 -192.758 148.256 -192.236 146.942C-192.932 146.734 -194.11 146.897 -193.252 145.343C-192.222 146.666 -191.149 145.38 -190.032 144.736C-189.389 144.383 -188.736 143.949 -188.182 144.402C-187.377 144.067 -186.56 143.766 -185.653 143.393C-187.263 143.328 -187.263 143.328 -188.182 144.402C-188.444 144.112 -188.518 143.598 -189.412 144.005C-190.047 144.277 -190.672 144.469 -191.319 144.708C-191.782 143.872 -191.366 143.216 -190.631 142.481C-189.585 141.437 -187.866 140.223 -187.755 139.37C-187.598 137.803 -185.708 137.261 -185.124 136.117C-184.995 135.837 -184.913 135.536 -184.691 135.299C-183.511 134.091 -182.445 132.575 -181.01 131.853C-179.314 130.995 -178.911 130.305 -178.649 129.125C-178.531 128.501 -178.144 127.662 -177.538 127.207C-175.597 125.756 -175.671 124.506 -176.046 123.174C-178.351 123.637 -178.616 126.172 -181.188 126.54C-180.492 124.968 -179.414 123.797 -178.049 122.674C-177.344 122.066 -176.758 121.347 -176.16 120.662C-176.049 120.544 -176.137 120.305 -176.165 120.123C-176.965 120.263 -177.718 120.424 -178.551 120.577C-177.905 118.133 -174.947 117.236 -173.506 115.582C-172.934 115.875 -172.608 116.025 -172.282 116.176C-171.615 115.466 -171.16 114.601 -170.491 114.316C-167.74 113.07 -165.829 111.011 -163.455 109.478C-162.926 109.128 -162.469 108.689 -162.046 108.262C-160.094 106.42 -158.236 104.536 -156.225 102.75C-152.707 99.5954 -149.117 96.5307 -145.599 93.3764C-144.168 92.114 -142.916 90.6848 -141.392 89.4654C-139.062 87.6004 -136.533 85.8555 -134.132 84.0801C-133.279 83.4561 -132.379 82.8535 -131.597 82.1398C-130.146 80.8307 -128.846 79.4231 -127.335 78.1696C-125.142 76.3548 -122.83 74.6512 -120.53 72.9135C-118.175 71.1166 -115.807 69.3538 -113.406 67.5785C-111.094 65.8748 -108.735 64.1927 -106.376 62.5106C-104.973 61.4902 -103.439 60.615 -102.222 59.5086C-99.7967 57.3764 -96.5398 56.137 -94.1526 53.9027C-92.7475 52.5721 -90.6521 51.6449 -88.9548 50.4774C-86.571 48.8634 -84.2122 47.1813 -81.841 45.5332C-78.941 43.5355 -76.041 41.5377 -73.1625 39.5866C-72.7359 39.2745 -72.2627 38.984 -71.8021 38.6594C-68.0328 36.1864 -64.2294 33.7008 -60.4727 31.1938C-58.1444 29.6389 -55.8162 28.0841 -53.4288 26.5849C-50.9177 25.0013 -48.3223 23.5415 -45.6839 21.9884C-45.7256 20.3013 -45.2775 19.9426 -42.9616 19.0888C-40.9181 18.3355 -38.6129 17.8726 -37.0986 15.9988C-36.7563 15.563 -35.8798 15.3173 -35.2578 15.0106C-34.7936 14.8007 -34.1429 14.6769 -33.8185 14.4025C-31.9134 12.5394 -29.4255 11.3127 -27.1025 9.95329C-23.6504 7.98413 -20.7165 5.23871 -16.721 4.11394C-16.6529 4.08883 -16.5507 4.05117 -16.4611 3.97944C-13.4266 2.24163 -10.2952 0.661596 -7.42565 -1.20886C-3.73339 -3.57609 0.0808302 -5.71741 3.97935 -7.73505C7.44767 -9.55539 10.9501 -11.3883 14.2498 -13.456C16.6157 -14.9087 19.0517 -15.9615 21.7224 -17.2169C21.3712 -16.7005 21.1615 -16.4298 20.8103 -15.9133C21.4412 -16.3007 22.0327 -16.4801 22.1402 -16.7132C22.6813 -17.7639 23.6026 -18.4131 24.8753 -18.8436C25.3181 -19.0068 25.7159 -19.5017 26.155 -19.7797C27.7663 -20.7607 29.4117 -21.7542 31.0356 -22.7011C32.2204 -23.3701 33.7566 -23.8203 34.6151 -24.6398C35.9987 -25.9237 37.6675 -26.539 39.2735 -27.3245C40.0872 -27.7406 40.9638 -27.9864 41.7901 -28.3684C47.3359 -30.9546 52.8441 -33.643 58.4276 -36.1271C65.6081 -39.316 72.8264 -42.4027 80.0447 -45.4894C90.0394 -49.7545 100.022 -54.0536 110.332 -57.0422C110.753 -57.1588 111.146 -57.4583 111.589 -57.6215C114.335 -58.6726 117.081 -59.7237 119.852 -60.7066C121.431 -61.2501 123.086 -61.5892 124.665 -62.1327C126.972 -62.9058 129.254 -63.747 131.527 -64.5075C133.208 -65.0887 134.915 -65.6017 136.574 -66.1363C135.474 -65.3436 134.341 -64.8486 133.149 -64.4092C128.198 -62.6227 123.269 -60.8828 118.318 -59.0963C115.24 -58.0004 112.179 -56.7556 109.101 -55.6597C104.512 -54.0453 99.9109 -52.4651 95.4764 -50.3273C94.7523 -49.9829 93.9905 -49.7407 93.2538 -49.4305C92.526 -49.2009 91.8108 -48.9372 91.1171 -48.7201C90.185 -48.4152 89.762 -47.9884 90.1064 -47.2641C91.7216 -47.3952 92.5639 -48.3636 93.2878 -49.443C93.3202 -49.1454 93.3866 -48.8603 93.4027 -48.7115C96.6618 -48.7909 99.3645 -51.2189 102.971 -51.9295C99.8759 -49.2019 96.6584 -48.1705 93.5143 -47.3597C91.4636 -46.8358 89.8916 -46.0628 88.5368 -44.596C87.9938 -43.9702 87.3145 -43.2942 86.5689 -42.9032C84.4341 -41.7679 82.2061 -40.6757 80.0086 -39.7108C79.4762 -39.4758 78.6963 -39.8074 78.2106 -39.551C76.7408 -38.8156 75.3338 -37.91 74.1616 -37.207C73.6273 -37.3969 73.145 -37.7609 72.851 -37.6138C70.7897 -36.6991 68.8127 -35.6607 66.7083 -34.6527C66.9271 -34.2691 67.0491 -34.0432 67.1836 -33.7832L67.2051 -33.8299C66.23 -33.4317 65.2423 -33.0676 64.2457 -32.6228C63.2492 -32.178 62.3566 -31.3459 61.1842 -31.378C61.3939 -31.6488 61.6753 -31.8299 61.9226 -31.9985C62.2722 -32.2047 62.6002 -32.3643 62.9497 -32.5706C59.499 -31.6467 56.1793 -30.5776 54.2316 -27.151C55.5473 -27.6748 56.6031 -28.064 57.6678 -28.5339C58.8347 -29.0415 59.9513 -29.6853 61.1182 -30.1929C66.1909 -32.4886 71.2635 -34.7843 76.3021 -37.0675C79.3815 -38.4736 82.4269 -39.8671 85.5063 -41.2732C86.4007 -41.6804 87.3669 -41.9979 88.2739 -42.3709C91.1866 -43.5995 94.0832 -44.9769 97.0462 -46.0693C100.963 -47.5132 104.295 -50.0184 108.08 -51.6075C108.451 -52.5954 109.582 -52.7803 110.434 -53.0942C114.01 -54.4125 117.564 -55.6842 121.153 -56.9685C122.004 -57.2824 122.795 -57.3417 122.92 -58.4712C122.97 -59.0701 124.185 -59.8663 125.463 -59.7572C126.224 -59.6891 127.292 -60.0443 128.177 -60.3708C129.357 -60.8443 130.448 -61.5562 131.628 -62.0297C132.841 -62.5158 134.082 -63.2439 135.942 -63.2334C134.813 -62.6237 134.272 -62.308 133.718 -62.0265C132.39 -61.5368 131.096 -61.0597 129.767 -60.57C131.363 -60.2296 132.524 -61.2768 133.74 -62.0731C136.977 -62.8409 140.218 -63.494 143.43 -64.33C146.085 -64.9992 148.754 -65.9445 151.384 -66.6817C156.736 -68.1133 162.055 -69.5323 167.411 -70.8491C172.916 -72.1821 178.449 -73.3322 183.958 -74.5504C184.026 -74.5755 184.089 -74.4052 184.198 -74.2133C183.496 -73.9156 182.848 -73.6771 182.18 -73.3919C182.196 -73.2431 182.2 -73.1283 182.216 -72.9795C183.985 -73.3222 185.708 -73.6864 187.443 -74.0166C187.468 -73.9485 187.493 -73.8804 187.518 -73.8122C186.909 -73.4715 186.265 -73.1182 185.102 -72.4959C187.556 -72.9749 189.419 -73.2746 191.324 -73.6676C198.857 -75.1676 206.402 -76.6335 213.744 -76.8641C214.858 -76.8876 216.238 -77.5512 217.252 -77.4222C220.768 -77.0158 224.606 -78.0437 228.304 -78.401C232.185 -78.7871 236.294 -79.6053 239.528 -78.2826C239.714 -78.1965 240.012 -78.2288 240.241 -78.2361C243.929 -78.2025 247.582 -78.1565 251.279 -78.2036C255.791 -78.242 260.334 -78.4076 264.846 -78.4459C268.542 -78.4931 272.217 -78.4936 275.862 -78.3669C278.207 -78.3027 280.478 -78.0179 282.792 -77.8264C278.609 -76.4775 274.926 -77.4416 270.703 -75.8847C271.142 -75.4275 271.6 -75.1318 272.232 -75.0942C275.108 -74.9548 278.039 -74.8746 280.936 -74.7818C281.327 -74.771 281.641 -74.6546 281.988 -74.5506C281.924 -74.4107 281.859 -74.2709 281.795 -74.131C277.975 -73.9996 274.035 -72.934 270.12 -72.5354C266.353 -72.1529 262.481 -71.8476 258.529 -70.816C259.271 -70.5866 260.052 -70.5652 260.877 -70.6371C269.313 -71.1547 277.866 -71.9861 286.125 -71.9354C293.729 -71.8755 301.3 -71.8031 308.689 -71.2771C312.257 -71.0445 315.79 -70.7994 319.272 -70.3804C320.482 -70.2461 321.67 -70.0652 322.94 -69.8754C321.57 -68.8675 320.642 -68.4478 319.311 -69.1182C318.108 -69.7581 316.14 -69.5355 314.22 -68.8664C313.301 -68.5274 312.322 -68.244 311.408 -68.1004C306.951 -67.3862 302.517 -66.7185 298.082 -66.0509C297.499 -65.9522 296.879 -65.9557 296.275 -65.8104C295.717 -65.6436 294.875 -65.4104 294.644 -65.093C293.762 -63.9167 292.649 -63.8932 291.638 -63.9074C286.319 -63.9586 280.688 -62.2312 275.225 -61.4164C273.762 -61.1866 272.308 -61.0376 270.84 -60.6125C267.483 -59.6456 264.311 -59.3278 261.133 -59.2394C260.249 -59.2232 259.245 -59.0079 258.36 -58.6814C256.883 -58.1756 255.422 -57.521 253.642 -56.7874C262.778 -56.9824 271.753 -57.5055 280.858 -58.3082C278.28 -57.7449 275.737 -57.1941 273.159 -56.6307C278.781 -56.0721 285.037 -57.2564 290.655 -56.8126C290.625 -56.6853 290.607 -56.5239 290.611 -56.4092C289.517 -56.1222 288.411 -55.8692 287.271 -55.6037C294.418 -55.8396 301.438 -56.106 308.471 -56.3383C305.734 -54.6328 303.41 -56.2139 300.58 -54.5514C301.629 -52.9648 303.385 -52.2963 305.763 -52.2447C307.947 -52.1984 310.13 -52.1521 312.314 -52.1058C311.343 -50.8578 312.357 -50.7288 313.143 -50.5927C316.95 -50.0231 320.78 -49.5001 324.664 -49.0363C327.615 -48.6925 330.785 -48.7002 333.582 -48.1448C336.204 -47.6413 338.94 -47.5664 341.778 -47.5292C344.581 -47.4794 347.299 -47.2432 350.06 -47.1001C349.68 -46.7666 349.374 -46.6536 349.11 -46.6338C344.394 -46.5202 339.677 -46.4065 334.961 -46.2929C333.24 -46.2388 331.494 -46.2529 329.73 -46.1056C328.824 -46.0427 327.763 -46.1932 326.767 -45.0133C328.681 -44.7518 330.481 -44.4867 332.396 -44.2252C331.692 -42.1471 333.244 -41.7134 334.976 -41.4233C335.634 -41.3176 336.36 -41.237 337.117 -41.2837C339.616 -41.4311 342.136 -41.6251 344.657 -41.8191C345.149 -41.8461 345.634 -41.7924 346.105 -41.7727C345.67 -41.38 345.363 -41.267 345.031 -41.2221C339.896 -40.567 334.638 -38.6675 329.563 -38.2669C329.334 -38.2597 329.027 -38.1467 328.789 -38.0588C326.109 -36.7227 323.318 -36.0033 320.708 -35.7375C320.067 -34.9593 319.532 -34.4142 319.092 -33.826C318.454 -32.9331 318.673 -32.5494 319.786 -32.5729C320.521 -32.573 321.406 -32.8994 322.122 -32.428C317.606 -31.0342 313.447 -31.0874 308.944 -29.6596C309.716 -28.5122 310.832 -28.4209 312.274 -28.604C315.717 -29.0223 318.709 -28.4615 321.809 -28.1339C319.538 -27.6835 317.288 -27.2798 315.121 -27.1772C309.515 -26.8519 303.91 -26.5265 298.182 -25.692C297.451 -25.5771 296.409 -25.464 295.94 -25.0587C294.979 -24.2016 294.135 -24.3933 293.276 -24.3089C292.452 -24.237 291.632 -24.3606 290.799 -24.2081C286.414 -23.4042 282.008 -22.5537 277.614 -21.6692C276.428 -21.4251 275.257 -21.0323 274.062 -20.7076C274.019 -20.6144 274.022 -20.4996 273.979 -20.4064C274.901 -20.3205 275.835 -20.2005 277.355 -20.0644C276.12 -19.5317 275.476 -19.1785 274.838 -19.0206C273.013 -18.6187 271.228 -18.4248 269.428 -17.9548C266.25 -17.1313 263.005 -16.593 259.962 -14.7745C259.86 -14.7368 259.77 -14.6651 259.727 -14.5719C258.082 -14.3134 256.402 -14.0425 254.744 -13.8181C254.735 -13.7374 254.692 -13.6442 254.695 -13.5294C255.866 -13.1871 257.037 -12.8449 258.403 -12.4972C257.521 -12.056 256.865 -11.7368 256.243 -11.4301C253.295 -9.87879 250.481 -8.0675 247.143 -7.57215C246.148 -7.43753 245.087 -6.85288 244.052 -6.51027C244.078 -6.44214 244.069 -6.36147 244.094 -6.29334C244.804 -6.36158 245.548 -6.44237 246.245 -6.54468C246.236 -6.464 246.24 -6.34924 246.231 -6.26856C243.642 -5.31433 241.066 -4.32604 238.41 -3.3467C238.638 -3.04372 238.806 -2.79634 238.975 -2.54894L238.996 -2.59555C238.021 -2.19738 237.025 -1.75258 236.05 -1.3544C235.471 -1.14095 234.727 -1.06017 234.3 -0.748139C232.563 0.627302 230.676 0.85888 228.835 1.11195C227.576 1.26633 226.436 1.53185 225.361 2.39262C224.447 2.53619 223.495 2.57756 222.643 2.89145C217.271 4.79456 211.937 6.79985 206.577 8.73701C205.351 9.18902 204.1 9.5729 202.899 10.093C206.479 9.62455 215.691 6.38335 225.37 2.31194C226.194 2.2401 227.044 2.23639 227.878 2.08387C231.391 1.33031 234.939 0.564186 238.474 -0.235985C244.05 -1.47931 249.609 -3.29638 255.164 -3.75799C257.192 -3.92504 259.362 -4.64791 261.472 -5.11618C265.156 -5.93251 268.856 -6.60004 272.536 -7.53112C282.938 -10.1665 293.265 -12.2711 303.506 -13.4542C305.806 -13.7217 308.085 -13.9425 310.363 -14.1634C308.816 -13.3223 307.284 -12.7573 305.747 -12.307C302.483 -11.2971 299.228 -10.3679 295.976 -9.32394C295.419 -9.15712 294.863 -8.56538 294.372 -8.11348C293.612 -7.44638 293.157 -6.58213 291.865 -6.41518C289.373 -6.0383 286.885 -5.54666 284.397 -5.05504C283.495 -4.8774 282.572 -4.65315 281.67 -4.47551C281.64 -4.34821 281.644 -4.23347 281.613 -4.10615C284.279 -4.43107 286.979 -4.76855 289.657 -5.05938C288.778 -4.50346 287.961 -4.20213 287.106 -4.00299C285.132 -3.58494 283.143 -3.31569 281.182 -2.86358C279.323 -2.44913 277.388 -2.2391 275.623 -1.04652C273.127 -1.51948 270.494 -0.161841 267.7 0.442803C269.679 1.29953 272.908 0.612338 275.644 -1.09314C275.36 -0.291647 275.616 0.194191 276.738 0.0900346C277.253 0.0164476 277.746 -0.0105106 278.273 -0.0500377C273.015 1.84946 264.89 5.30923 263.614 6.36009C265.783 5.94738 267.816 5.5849 269.849 5.22243C270.248 5.15244 270.856 5.12188 270.953 5.27965C271.523 6.61709 272.805 5.37081 273.812 5.27026C273.878 4.82023 273.914 4.49749 273.955 3.97932C276.506 3.65801 279.046 2.99245 281.187 3.13198C282.89 3.23931 284.421 2.98448 286.131 2.58619C289.449 1.82729 292.783 1.21718 296.275 0.510256C295.648 1.74748 294.859 2.23168 293.685 2.50978C290.503 3.21846 287.3 3.97374 284.122 4.79718C281.969 5.35869 279.841 5.98832 277.679 6.63052C273.722 7.85748 269.764 9.08443 265.831 10.3795C262.068 11.6118 258.297 12.9248 254.56 14.2253C254.151 14.3759 253.696 14.5051 253.274 14.6217C249.691 15.7105 246.061 16.7778 242.478 17.8667C242.091 17.9707 241.714 18.419 240.998 18.9929C241.742 18.9121 242.077 18.9819 242.337 18.8474C244.67 17.8323 247.139 17.8122 249.474 16.4869C250.625 15.8305 251.995 15.5578 253.264 15.7476C253.922 15.8533 254.781 15.7689 255.496 15.5053C257.292 14.9205 259.047 14.1188 260.821 13.5806C265.064 12.2873 269.278 10.076 273.622 9.79027C274.034 9.75436 274.489 9.62519 274.932 9.46196C280.394 7.48714 285.815 6.76558 291.242 5.53841C294.424 4.82972 297.586 4.59259 300.815 3.1703C301.675 2.77573 302.819 2.62494 303.591 2.72704C306.105 3.03863 308.772 2.40355 311.457 1.60707C312.015 1.44026 312.635 1.44374 313.196 1.39166C313.166 1.51897 313.169 1.63372 313.139 1.76101C312.142 2.2058 311.18 2.63805 309.991 3.19223C310.424 3.41988 310.533 3.61173 310.762 3.6045C312.028 3.67963 313.315 3.70812 314.581 3.78325C315.719 3.82788 317.209 3.35613 318.363 4.2847C315.915 4.56833 313.895 4.96487 312.046 4.98847C306.365 5.10944 300.629 6.02467 294.655 7.76291C293.016 8.25085 291.256 9.24798 289.883 9.40595C286.461 9.77759 283.59 12.6934 280.212 12.6616C280.098 12.6652 279.931 12.8427 279.773 12.9395C278.144 14.0819 276.369 14.62 274.532 14.9879C273.996 15.1081 273.455 15.4237 272.91 15.6246C272.892 15.786 272.908 15.9348 272.878 16.0621C273.885 15.9615 274.893 15.861 275.922 15.7138C277.886 15.3764 279.863 15.0731 281.812 14.5869C285.607 13.6523 289.398 12.6028 293.168 11.6C294.716 11.1838 296.247 10.929 297.809 10.5469C300.736 9.77728 303.651 8.9736 306.59 8.23806C307.365 8.02997 308.288 7.80573 308.908 8.54432C308.227 8.79543 307.763 9.00527 307.295 9.10036C306.177 9.31927 305.051 9.30869 303.97 9.62978C298.961 11.0505 293.978 12.5394 288.973 14.0749C287.961 14.3709 286.98 14.9645 286.021 15.5115C285.761 15.646 285.649 16.0745 285.387 16.5192C288.707 15.4501 291.742 14.4474 294.801 13.5128C295.393 13.3335 296.133 13.1379 296.574 13.2849C298.466 13.9032 300.267 13.123 302.153 11.7314C303.544 12.8822 305.458 12.4086 307.509 11.8848C309.139 11.4775 310.745 11.4271 312.369 11.2153C311.048 11.9344 309.775 12.3649 308.486 12.6466C305.636 13.3104 302.786 13.9742 299.932 14.5233C298.231 14.8409 297.181 15.7698 296.873 16.9281C296.531 18.0989 295.704 18.4809 294.466 18.8989C293.023 19.3921 291.44 19.8209 290.178 20.5956C288.533 21.5891 286.898 22.1918 285.166 22.6367C283.788 22.9901 282.393 23.1947 281.04 23.6163C279.197 24.1795 277.229 24.4022 275.519 25.5355C275.746 27.6189 275.088 28.2483 272.212 28.844C270.843 29.1167 269.405 29.4146 268.102 29.9724C265.756 30.9535 263.472 32.1049 261.235 33.2778C258.896 34.4884 256.704 35.993 254.315 37.0673C252.096 38.0788 250.377 39.2929 249.262 41.0967C249.185 41.2025 248.994 41.3119 249.173 41.1685C247.144 41.6457 245.346 41.8055 243.736 42.4763C240.653 43.7677 237.649 45.3782 234.582 46.8184C234.084 47.0408 233.573 47.2291 233.075 47.4515C229.416 49.0711 225.627 50.5454 222.103 52.425C220.454 53.3037 218.916 54.0642 217.197 54.5431C216.946 54.597 216.64 54.7099 216.448 54.8194C213.569 56.7705 210.208 57.6226 207.174 59.3604C204.399 60.9637 201.334 62.0937 198.391 63.4496C196.466 64.3141 194.575 65.166 192.65 66.0305C191.031 66.782 189.307 67.4564 187.797 68.3997C184.903 70.202 181.769 71.3572 178.712 72.7167C177.715 73.1614 176.731 73.6403 175.734 74.0851C173.583 75.0715 171.42 76.0239 169.269 77.0103C167.787 77.7116 166.351 78.4344 164.869 79.1356C164.11 79.4925 163.374 79.8028 162.615 80.1597C160.307 81.243 158.195 82.7566 155.661 83.2267C155.193 83.3218 154.651 83.6374 154.166 83.8939C153.126 84.4319 152.087 84.9699 150.787 85.6425C150.549 86.4655 149.764 87.0644 148.342 87.5111C146.819 87.9954 145.34 88.8114 143.917 89.5682C142.979 90.0686 142.187 90.4381 141.198 90.3772C140.059 90.3326 139.02 90.8706 137.788 91.5181C136.016 92.4811 134.463 93.5177 132.999 94.7927C132.495 95.2105 131.734 95.4527 131.065 95.7378C129.911 96.2795 128.719 96.7189 127.577 97.2946C125.306 98.4801 123.152 100.087 120.823 100.907C117.473 102.103 114.467 104.024 111.139 105.173C109.253 105.83 107.356 106.877 105.541 107.198C103.108 107.631 101.364 108.777 99.5933 110.165C99.0896 110.583 98.3476 111.088 97.7865 111.141C96.7235 111.3 95.8004 111.524 95.4511 112.466C95.1788 113.301 95.3959 113.995 96.3927 114.286C96.9951 114.45 97.4093 114.839 97.854 115.101C97.6998 115.313 97.6569 115.406 97.5887 115.431C94.8427 116.482 91.9852 116.916 89.3415 118.665C88.4418 119.267 87.0776 119.345 85.6651 119.711C85.9822 119.207 86.0646 118.906 86.1883 118.821C87.7638 118.163 89.3268 117.471 90.9527 116.949C93.136 116.26 93.7577 115.218 92.6603 113.92C90.7458 114.394 88.8567 115.671 86.8739 115.434C86.4706 115.39 85.3199 116.046 85.1138 116.432C84.4312 117.728 83.1764 117.997 81.8947 118.508C80.4769 119.07 79.1218 119.801 77.7542 120.499C77.4262 120.659 77.0462 120.992 76.8168 120.999C75.3091 120.897 73.9828 121.812 72.6958 122.519C69.6111 124.12 66.5855 125.777 63.5599 127.434C63.266 127.581 63.0563 127.852 62.3089 128.553C63.6749 128.166 64.5335 128.081 65.2111 127.716C66.9282 126.812 68.4948 126.234 69.9793 126.693C72.2394 125.163 74.4638 123.956 76.9464 122.925C79.2927 121.944 81.6516 120.997 84.2883 119.754C83.0107 121.85 81.3438 122.89 79.2035 123.486C78.361 123.719 77.5258 124.182 76.6869 124.53C75.5756 124.978 74.4642 125.426 73.0248 126.035C72.5214 127.187 71.4514 127.853 69.5565 127.855C68.6261 127.85 67.3858 128.578 66.3336 129.082C64.4211 129.98 62.5677 130.934 60.6678 131.867C60.1139 132.149 59.5009 132.375 58.9721 132.724C56.8786 134.076 54.0911 134.175 52.3509 136.171C52.2954 136.23 52.0319 136.25 51.8705 136.232C50.9401 136.227 50.2913 136.776 49.4812 137.307C47.4469 138.714 45.5382 140.463 42.8474 140.72C42.7776 141.055 42.7042 141.275 42.7204 141.424C42.7617 141.641 42.8926 141.786 42.9679 141.991C40.4621 143.379 40.4621 143.379 39.1371 142.513C40.6358 142.696 41.4102 142.488 41.6967 141.376ZM-109.223 74.9361C-110.424 75.4562 -111.951 75.8258 -111.496 77.1668C-112.3 77.5022 -113.105 77.8376 -113.91 78.173C-113.872 78.2752 -113.788 78.3989 -113.75 78.5011C-113.017 78.076 -112.263 77.6044 -111.496 77.1668C-110.739 76.385 -109.992 75.6838 -109.223 74.9361ZM-7.14814 3.95115C-10.0071 5.43075 -13.1833 6.6791 -15.6746 8.5262C-18.0978 10.3482 -20.9299 11.5857 -23.3065 13.4292C-24.45 14.3151 -25.97 14.9142 -27.2784 15.6674C-28.949 16.5928 -30.5729 17.5397 -32.2559 18.431C-35.2385 19.9949 -37.7566 22.0841 -40.5025 23.8702C-42.0547 24.9068 -43.4472 26.2714 -45.4621 26.4725C-45.679 26.5138 -45.9604 26.6949 -46.1737 26.8509C-49.3551 29.0298 -52.524 31.2428 -55.6713 33.4091C-55.4129 34.3199 -54.6726 34.1243 -53.9306 33.6186C-53.0308 33.0161 -52.2028 32.3239 -51.303 31.7213C-46.4207 28.4897 -41.3106 25.5611 -36.3565 22.4191C-30.085 18.4433 -23.6952 14.5785 -17.3054 10.7138C-14.2063 8.83616 -11.0016 7.03558 -7.88998 5.19198C-7.19095 4.7795 -6.5511 4.31145 -5.91123 3.8434C-6.00447 3.80038 -6.07619 3.71074 -6.16942 3.66773C-6.48851 3.74667 -6.85419 3.80409 -7.14814 3.95115ZM-166.019 191.718C-166.42 192.834 -166.791 193.822 -167.257 195.077C-167.474 195.118 -168.01 195.238 -168.741 195.353C-169.164 196.515 -169.561 197.745 -170.024 199.115C-167.238 198.591 -164.468 197.918 -162.402 195.338C-160.977 193.536 -161.388 192.526 -163.826 192.419C-163.722 192.071 -163.597 191.677 -163.506 191.295C-163.402 190.947 -163.319 190.646 -163.207 190.217C-164.361 190.024 -165.469 189.852 -166.832 189.619C-167.172 190.48 -167.494 191.179 -167.899 192.179C-166.942 191.943 -166.474 191.847 -166.019 191.718ZM62.2213 -34.5463C62.8969 -35.3371 63.4004 -36.49 64.7916 -36.0742C66.2469 -37.2686 68.3246 -37.2993 69.7638 -38.6425C70.1652 -39.0226 71.0507 -39.3491 71.6244 -39.3671C73.5837 -39.509 74.8221 -40.6621 76.4567 -41.9998C75.5639 -41.9029 74.906 -42.0086 74.3737 -41.7736C72.2872 -40.9271 70.2044 -39.9657 68.1556 -39.0169C65.0081 -37.5857 61.8731 -36.1204 58.7255 -34.6892C53.8017 -32.4096 48.8564 -30.0835 43.9325 -27.8039C43.7067 -27.682 43.4934 -27.526 43.3303 -27.2337C46.3902 -28.1683 49.2203 -29.8307 52.5113 -31.0827C51.9988 -30.5842 51.6869 -30.2757 51.3751 -29.9673C54.8954 -31.9616 58.0623 -34.5995 62.2213 -34.5463ZM-97.1297 232.72C-98.804 232.795 -100.091 232.767 -101.43 232.912C-101.843 232.948 -102.452 233.289 -102.832 233.622C-104.454 234.994 -106.029 236.388 -107.605 237.781C-107.929 238.055 -108.262 238.41 -108.366 238.758C-108.513 239.199 -108.619 239.857 -108.339 239.986C-107.954 240.192 -107.176 240.099 -106.525 239.975C-106.159 239.918 -105.711 239.559 -105.374 239.319C-103.715 238.049 -102.08 236.711 -100.374 235.463C-99.879 235.126 -99.1476 235.011 -98.1133 234.669C-97.8338 234.063 -97.4862 233.432 -97.1297 232.72ZM283.582 -56.0621C276.194 -55.4281 268.993 -55.4432 261.441 -54.2067C261.156 -54.1403 260.832 -53.866 260.414 -53.6346C261.753 -53.045 263.159 -52.9053 264.899 -53.4309C268.606 -54.604 272.021 -54.4701 275.549 -54.7646C279.077 -55.0592 282.54 -55.2139 286.047 -55.4618C286.111 -55.6017 286.129 -55.7631 286.194 -55.9029C285.285 -55.9548 284.487 -56.125 283.582 -56.0621ZM247.2 6.64579C250.644 5.49242 254.053 4.35163 257.5 3.31301C258.398 3.02063 259.393 2.88601 260.221 2.92892C261.797 3.00577 263.19 2.37624 264.907 1.47234C262.381 1.12668 259.888 1.81374 257.538 2.68008C254.541 3.78497 251.597 4.40577 248.598 5.08574C246.99 5.44636 245.402 6.07053 243.594 6.62124C244.664 7.42611 245.915 7.04222 247.2 6.64579ZM-69.9058 43.8031C-69.9776 43.7134 -70.0027 43.6453 -70.0744 43.5557C-70.666 43.7351 -71.236 43.8678 -71.8024 44.1153C-72.6072 44.4507 -73.7688 44.7629 -74.12 45.2793C-75.301 46.7981 -77.1311 47.3954 -78.6618 48.3853C-80.7553 49.7375 -82.6121 51.312 -84.528 52.8309C-84.7969 53.0461 -84.8882 53.428 -85.0387 53.7543C-84.9114 53.7848 -84.7841 53.8152 -84.6568 53.8457C-79.744 50.4868 -74.8312 47.1279 -69.9058 43.8031ZM21.1684 -10.7444C22.916 -11.7756 25.1155 -12.3156 26.3914 -14.1015C25.7658 -13.9096 25.0219 -13.8288 24.5146 -13.5257C19.3598 -10.1937 13.4553 -8.05561 8.38481 -4.59987C8.48165 -4.4421 8.6 -4.33095 8.69684 -4.17319C12.8893 -6.33789 17.1786 -8.34481 21.1684 -10.7444ZM-180.198 200.583C-180.105 201.361 -180.372 202.736 -178.393 202.858C-177.536 200.878 -176.655 198.967 -175.9 197.025C-175.75 196.699 -176.058 196.387 -176.179 195.851C-178.24 197.501 -180.367 198.865 -180.198 200.583ZM88.5683 -47.2388C84.8756 -46.3418 81.5238 -44.8352 78.2151 -42.6868C78.7206 -42.6797 79.2047 -42.626 79.6725 -42.7211C80.5742 -42.8987 81.4848 -43.157 82.3828 -43.4494C82.8256 -43.6126 83.392 -43.8601 83.6698 -44.156C84.6483 -45.1746 85.7758 -45.4741 87.1347 -45.356C87.7081 -46.1091 88.106 -46.604 88.5683 -47.2388ZM23.5405 -9.45201C23.5567 -9.3032 23.5603 -9.18845 23.5765 -9.03964C24.0569 -9.10067 24.6091 -9.07206 25.0267 -9.30341C28.6312 -11.174 32.2358 -13.0445 35.8152 -14.9832C36.6505 -15.4459 37.3423 -16.0879 38.1058 -16.6403C38 -16.7173 37.8817 -16.8285 37.8099 -16.9181C33.0547 -14.3912 28.3209 -11.9108 23.5405 -9.45201ZM221.927 -1.99058C226.156 -2.2727 230.266 -4.13619 234.336 -5.79167C230.106 -5.19937 225.978 -3.90962 221.927 -1.99058ZM7.17323 -3.68888C4.34818 -2.95694 0.589499 -0.874782 -4.8018 2.97007C-1.68641 1.97632 5.82731 -2.30274 7.17323 -3.68888ZM-57.5315 35.6039C-59.2452 35.8875 -60.8802 35.755 -62.0843 37.6306C-62.6757 38.5451 -64.2602 39.284 -65.4288 40.1018C-66.1923 40.6541 -66.9684 41.1724 -67.7785 41.7032C-67.6351 41.8825 -67.5042 42.0277 -67.3607 42.207C-64.0771 39.9904 -60.8276 37.7864 -57.5315 35.6039ZM-167.188 145.524C-168.27 146.89 -169.455 148.294 -170.512 149.728C-171.073 150.516 -171.392 151.33 -171.838 152.113C-171.677 152.131 -171.503 152.183 -171.341 152.201C-168.646 150.279 -166.703 147.047 -167.188 145.524ZM175.466 -49.2096C174.981 -49.9984 174.026 -49.3367 173.196 -49.0694C173.727 -50.4644 172.264 -49.4996 171.393 -49.4492C171.605 -48.56 171.829 -47.6367 172.129 -46.5089C173.557 -47.4612 174.614 -48.1606 175.616 -48.8008C175.503 -49.1074 175.478 -49.1755 175.466 -49.2096ZM-90.672 57.5723C-93.4558 58.5212 -95.2642 59.807 -96.7391 61.4728C-94.2976 60.9597 -92.2955 59.9894 -90.672 57.5723ZM57.5897 131.493C58.3549 130.63 59.0324 130.264 60.2102 130.101C61.4345 129.959 61.8377 129.269 61.6008 128.311C59.5037 129.549 57.351 130.845 55.2199 132.095C55.3167 132.253 55.367 132.389 55.4638 132.547C56.1539 132.215 57.1793 131.954 57.5897 131.493ZM-181.175 228.996C-179.137 227.703 -179.137 227.703 -178.18 224.525C-179.837 225.175 -180.175 225.725 -181.175 228.996ZM45.8716 -23.4886C42.9801 -23.0417 41.0282 -21.9352 39.5838 -20.3967C41.5789 -20.8613 43.5935 -21.7975 45.8716 -23.4886ZM140.468 -61.7675C143.034 -62.6751 145.18 -62.731 147.72 -64.1316C145.047 -64.0362 142.934 -63.6827 140.468 -61.7675ZM27.4706 -14.1124C29.9585 -15.3392 31.9821 -16.3561 34.2657 -17.5075C32.1324 -17.4175 28.7842 -15.7962 27.4706 -14.1124ZM218.603 22.9926C220.734 23.2129 222.419 22.7465 223.948 21.3316C222.016 21.9666 220.322 21.7786 218.603 22.9926ZM241.353 -51.7152C243.011 -51.2044 246.064 -51.6334 249.452 -52.7276C246.958 -52.7756 244.325 -52.1531 241.353 -51.7152ZM173.943 -71.284C171.543 -71.289 169.082 -70.3043 166.542 -69.6387C168.906 -69.311 171.433 -70.7457 173.943 -71.284ZM46.3861 -23.5622C48.6089 -23.7239 49.8186 -25.0598 51.7616 -26.0857C49.3899 -25.9078 47.9955 -24.9681 46.3861 -23.5622ZM-86.1266 54.581C-87.7147 55.2052 -87.7147 55.2052 -89.342 56.7725C-87.5996 56.6718 -86.8595 55.7412 -86.1266 54.581ZM-15.8425 4.29311C-15.7833 4.34868 -15.7582 4.41681 -15.7116 4.43831C-13.7382 3.28517 -11.7433 2.08539 -9.76987 0.932245C-9.79498 0.864118 -9.85416 0.808547 -9.90078 0.78704C-11.8742 1.94019 -13.8476 3.09334 -15.8425 4.29311ZM-97.1923 62.762C-99.0171 63.1639 -99.9814 63.9063 -100.84 65.4609C-99.7392 64.6683 -98.6513 63.8416 -97.1923 62.762ZM150.258 -65.2221C150.274 -65.0733 150.325 -64.9371 150.341 -64.7882C151.545 -65.1936 152.784 -65.6116 154.001 -65.9829C153.972 -66.1658 153.897 -66.3702 153.868 -66.553C152.676 -66.1136 151.484 -65.6741 150.258 -65.2221ZM-186.615 170.794C-185.171 169.991 -185.248 169.361 -185.515 168.531C-187.44 169.396 -186.653 169.957 -186.615 170.794ZM203.641 28.8954C204.744 29.2628 205.582 28.9149 206.271 28.1581C206.208 27.9878 206.124 27.8641 206.061 27.6938C205.234 28.0758 204.421 28.4919 203.641 28.8954ZM-181.939 201.844C-182.673 202.579 -183.242 203.137 -184.109 204.037C-181.881 203.68 -181.881 203.68 -181.939 201.844ZM-109.071 246.292C-108.83 246.629 -108.773 246.995 -108.543 246.988C-107.647 247.006 -106.935 246.627 -106.382 245.61C-107.305 245.835 -108.011 246.018 -109.071 246.292ZM231.161 18.4403C231.165 18.5551 231.215 18.6913 231.219 18.8061C232.423 18.4007 233.64 18.0294 234.845 17.624C234.782 17.4537 234.732 17.3174 234.669 17.1471C233.477 17.5865 232.319 18.0134 231.161 18.4403ZM-112.502 244.539C-112.88 245.298 -113.138 245.857 -113.516 246.616C-111.319 245.651 -111.319 245.651 -112.502 244.539ZM134.278 -60.2981C132.618 -59.7636 131.537 -59.4425 130.435 -59.0748C130.485 -58.9385 130.548 -58.7682 130.564 -58.6194C131.591 -59.1915 132.833 -58.7596 134.278 -60.2981ZM-182.302 165.18C-181.135 164.672 -180.466 164.387 -179.776 164.055C-179.839 163.885 -179.889 163.749 -179.952 163.578C-180.865 163.412 -181.504 163.88 -182.302 165.18ZM180.008 -71.6237C181.655 -71.4572 181.655 -71.4572 183.021 -72.5798C182.076 -72.3089 181.212 -72.0291 180.008 -71.6237ZM-190.717 171.842C-189.939 171.013 -189.439 170.481 -188.905 169.936C-189.986 170.257 -190.905 170.596 -190.717 171.842ZM209.553 16.0751C209.333 16.0016 209.134 15.8815 208.963 15.9443C208.487 16.12 208.001 16.3765 207.119 16.8177C208.336 17.1815 209.012 17.1258 209.553 16.0751ZM196.195 32.4143C196.166 32.2314 196.15 32.0826 196.088 31.9123C195.292 32.167 194.53 32.4091 193.734 32.6639C193.775 32.8808 193.804 33.0637 193.811 33.2932C194.641 33.0259 195.412 32.703 196.195 32.4143ZM202.408 29.853C202.404 29.7383 202.379 29.6702 202.376 29.5554C201.363 29.8514 200.303 30.1259 199.291 30.4219C199.387 30.5796 199.45 30.7499 199.547 30.9077C200.501 30.5561 201.454 30.2046 202.408 29.853ZM294.808 -54.0485C294.894 -54.235 294.98 -54.4215 295.019 -54.6295C294.352 -54.6545 293.651 -54.6669 292.985 -54.6919C292.877 -54.4588 292.816 -54.2042 292.709 -53.9711C293.397 -53.9927 294.086 -54.0143 294.808 -54.0485ZM206.858 18.7326C206.862 18.8473 206.865 18.9621 206.869 19.0768C207.677 18.8562 208.486 18.6355 209.294 18.4149C209.265 18.232 209.203 18.0617 209.174 17.8788C208.403 18.2016 207.607 18.4564 206.858 18.7326ZM276.051 4.52226C276.607 5.40072 277.177 5.26795 278.053 4.2871C277.505 4.37323 276.944 4.42531 276.051 4.52226ZM179.034 -71.5357C178.324 -71.4675 178.163 -71.4854 178.027 -71.4352C177.708 -71.3563 177.342 -71.2988 177.014 -71.1392C176.81 -71.0639 176.609 -70.8738 176.383 -70.7518C176.433 -70.6156 176.484 -70.4793 176.534 -70.3431C177.19 -70.6623 177.858 -70.9475 179.034 -71.5357ZM-186.83 147.232C-186.736 147.275 -186.597 147.339 -186.503 147.382C-186.157 147.061 -185.824 146.706 -185.478 146.385C-185.618 146.321 -185.758 146.256 -185.898 146.191C-186.197 146.534 -186.496 146.876 -186.83 147.232ZM250.467 -10.3069C248.926 -10.3963 248.662 -9.64143 248.34 -8.94212C248.937 -9.31694 249.534 -9.69177 250.467 -10.3069ZM215.183 24.5243C214.971 24.3702 214.546 24.372 214.193 24.4635C214.023 24.5263 213.898 24.9208 213.709 25.1449C214.032 25.1807 214.333 25.2632 215.373 25.4602C215.312 24.9797 215.382 24.6444 215.183 24.5243ZM244.541 11.1859C244.558 11.3347 244.574 11.4835 244.59 11.6323C245.284 11.4153 245.977 11.1983 246.684 11.0153C246.655 10.8324 246.673 10.671 246.644 10.4882C245.95 10.7052 245.222 10.9348 244.541 11.1859ZM76.8389 -40.4383C76.8766 -40.3361 76.8802 -40.2213 76.9179 -40.1191C77.5775 -40.3236 78.2587 -40.5747 78.9183 -40.7792C78.8896 -40.9621 78.8268 -41.1324 78.7981 -41.3153C78.1295 -41.0301 77.495 -40.7575 76.8389 -40.4383ZM37.5067 -24.3516C37.5193 -24.3175 37.5318 -24.2834 37.557 -24.2153C37.885 -24.3749 38.2256 -24.5005 38.5195 -24.6476C38.8816 -24.8197 39.1845 -25.0475 39.534 -25.2537C39.4497 -25.3774 39.378 -25.467 39.2937 -25.5908C38.7094 -25.1819 38.091 -24.7604 37.5067 -24.3516ZM-178.681 195.883C-178.774 195.84 -178.902 195.81 -178.995 195.767C-179.273 196.063 -179.551 196.359 -179.807 196.608C-179.633 196.66 -179.493 196.724 -179.319 196.776C-179.122 196.472 -178.878 196.188 -178.681 195.883ZM-189.433 158.639C-189.34 158.682 -189.247 158.725 -189.166 158.734C-188.867 158.391 -188.567 158.049 -188.222 157.728C-188.429 157.688 -188.637 157.649 -188.811 157.597C-189.03 157.948 -189.215 158.287 -189.433 158.639ZM-176.037 234.956C-176.143 234.879 -176.202 234.824 -176.308 234.747C-176.632 235.021 -176.969 235.261 -177.294 235.536C-177.188 235.613 -177.129 235.668 -177.023 235.745C-176.686 235.505 -176.362 235.231 -176.037 234.956ZM2.9262 2.21051C2.98536 2.26609 3.01048 2.33421 3.06967 2.38978C3.67906 2.04904 4.27592 1.67423 4.88534 1.33348C4.86022 1.26535 4.80106 1.20977 4.74187 1.15421C4.13245 1.49496 3.52303 1.83571 2.9262 2.21051ZM-182.608 199.923C-182.629 199.97 -182.341 200.018 -182.167 200.07C-182.081 199.884 -181.948 199.719 -181.909 199.511C-181.887 199.464 -182.095 199.425 -182.269 199.373C-182.389 199.572 -182.556 199.75 -182.608 199.923ZM270.106 7.91359C270.109 8.02833 270.113 8.14309 270.104 8.22377C270.559 8.09461 271.015 7.96546 271.47 7.83629C271.466 7.72155 271.463 7.6068 271.472 7.52612C270.982 7.66784 270.527 7.79699 270.106 7.91359Z" fill="white"/>
</g>
<path d="M24.9262 57.0026H39.8068L48.2696 25.7683L56.4557 47.0076H56.7689L76.585 25.6121L68.08 57.0026H83.1955L98.0053 2.34257H81.9499L63.1372 23.5038L55.7914 2.34257H39.736L24.9262 57.0026Z" fill="#1066AA"/>
<path d="M88.5341 57.0026H104.511L111.072 47.2419H132.218L133.567 57.0026H149.858L141.434 1.95214H126.789L88.5341 57.0026ZM118.731 35.4509L129.128 19.9119L131.027 35.4509H118.731Z" fill="#1066AA"/>
<path d="M155.177 57.0026H170.371L174.603 41.3854H182.121C195.749 41.3854 207.536 34.592 211.027 21.7078C214.348 9.44838 207.345 2.34257 193.483 2.34257H169.987L155.177 57.0026ZM177.818 29.5164L181.733 15.0705H188.86C194.342 15.0705 196.954 17.5693 195.685 22.2544C194.479 26.7053 190.428 29.5164 185.024 29.5164H177.818Z" fill="#1066AA"/>
<path d="M203.489 57.0026H219.466L226.026 47.2419H247.172L248.522 57.0026H264.812L256.389 1.95214H241.743L203.489 57.0026ZM233.685 35.4509L244.083 19.9119L245.981 35.4509H233.685Z" fill="#1066AA"/>
<path d="M294.481 59.3452H309.753L311.403 53.2545C329.182 53.2545 342.042 42.791 345.85 28.7356C349.616 14.8363 342.142 4.84131 324.521 4.84131L325.832 0H310.56L309.248 4.84131C291.627 4.84131 278.737 14.8363 274.971 28.7356C271.163 42.791 278.353 53.2545 296.131 53.2545L294.481 59.3452ZM299.77 39.8237C292.565 39.8237 288.589 35.9975 290.493 28.9698C292.334 22.1764 298.404 18.2721 305.609 18.2721L299.77 39.8237ZM315.042 39.8237L320.882 18.2721C328.087 18.2721 332.042 22.1764 330.201 28.9698C328.297 35.9975 322.248 39.8237 315.042 39.8237Z" fill="#1066AA"/>
<path d="M372.358 58.0958C389.275 58.0958 405.411 45.3678 409.663 29.6726C413.958 13.8212 404.833 1.24937 387.917 1.24937C371 1.24937 354.863 13.9774 350.611 29.6726C346.316 45.524 355.441 58.0958 372.358 58.0958ZM376.217 44.4308C367.915 44.4308 364.06 37.5592 366.196 29.6726C368.376 21.6298 375.756 14.9144 384.057 14.9144C392.438 14.9144 396.293 21.7859 394.156 29.6726C391.977 37.7154 384.597 44.4308 376.217 44.4308Z" fill="#1066AA"/>
<path d="M410.173 57.0026H425.367L430.995 36.2318H450.496L444.868 57.0026H460.062L474.872 2.34257H459.678L454.135 22.801H434.634L440.177 2.34257H424.983L410.173 57.0026Z" fill="#1066AA"/>
<path d="M45.4983 139.161C57.6377 139.161 66.0256 133.929 73.1199 126.824L63.8857 118.703C59.5173 122.685 55.4302 125.34 49.7129 125.34C42.0377 125.34 38.3686 118.937 40.59 110.738C42.7903 102.617 49.9504 96.1359 57.6256 96.1359C62.873 96.1359 65.8981 98.5566 67.973 102.461L81.4216 93.8715C78.3853 87.1561 72.7266 82.3148 61.527 82.3148C44.9234 82.3148 29.2422 94.8085 24.9262 110.738C20.4621 127.214 29.8345 139.161 45.4983 139.161Z" fill="#1066AA"/>
<path d="M76.6105 138.068H91.8044L95.6338 123.934L102.866 117.766L111.149 138.068H129.398L116.38 106.912L143.502 83.408H125.489L100.606 105.584L106.614 83.408H91.4204L76.6105 138.068Z" fill="#1066AA"/>
<path d="M133.82 138.068H147.996L177.556 107.302L169.22 138.068H184.257L199.067 83.408H184.892L155.331 114.174L163.667 83.408H148.63L133.82 138.068Z" fill="#1066AA"/>
<path d="M188.84 149H202.467L206.447 138.068H235.582L232.62 149H245.464L253.746 124.793H247.559L258.772 83.408H217.028L216.647 84.8135C211.083 105.35 206.622 114.877 200.254 124.793H195.398L188.84 149ZM216.153 124.793C220.69 117.297 224.649 109.332 227.929 97.2292L228.077 96.6825H239.981L232.365 124.793H216.153Z" fill="#1066AA"/>
<path d="M281.477 139.161C298.394 139.161 314.53 126.433 318.783 110.738C323.078 94.8866 313.953 82.3148 297.036 82.3148C280.119 82.3148 263.983 95.0427 259.73 110.738C255.435 126.589 264.56 139.161 281.477 139.161ZM285.336 125.496C277.034 125.496 273.179 118.625 275.316 110.738C277.495 102.695 284.875 95.9798 293.177 95.9798C301.557 95.9798 305.412 102.851 303.276 110.738C301.096 118.781 293.716 125.496 285.336 125.496Z" fill="#1066AA"/>
<path d="M319.292 138.068H334.486L338.316 123.934L345.548 117.766L353.831 138.068H372.079L359.062 106.912L386.184 83.408H368.171L343.287 105.584L349.296 83.408H334.102L319.292 138.068Z" fill="#1066AA"/>
<path d="M376.58 138.068H392.087L395.684 124.793H380.177L376.58 138.068ZM385.242 120.264H393.073L405.804 90.0453L407.602 83.408H390.685L388.887 90.0453L385.242 120.264Z" fill="#1066AA"/>
</svg>
