<svg width="91" height="72" viewBox="0 0 91 72" fill="none" xmlns="http://www.w3.org/2000/svg">
<mask id="mask0" mask-type="alpha" maskUnits="userSpaceOnUse" x="9" y="2" width="74" height="70">
<circle r="35.4857" transform="matrix(1 0 -0.261515 0.965199 45.8887 36.9263)" fill="#1066AA"/>
</mask>
<g mask="url(#mask0)">
<path fill-rule="evenodd" clip-rule="evenodd" d="M-146.646 -63.8594C-145.892 -62.4103 -144.118 -61.8319 -142.583 -61.2744C-141.581 -60.9175 -140.537 -60.6721 -139.583 -60.1272C-138.992 -59.768 -138.139 -59.7314 -137.401 -59.5129C-136.899 -59.3535 -136.363 -59.1912 -135.858 -59.07C-136.121 -58.248 -136.796 -58.3842 -137.502 -58.5615C-141.007 -59.3306 -144.55 -60.0646 -148.055 -60.8337C-148.494 -60.9107 -148.937 -60.9496 -149.337 -61.1C-152.326 -62.3999 -155.539 -62.4519 -158.558 -63.3319C-161.344 -64.1145 -164.358 -64.0723 -166.952 -65.6446C-167.512 -65.9627 -168.255 -66.1049 -168.927 -66.2792C-172.689 -67.3013 -176.45 -68.3234 -180.214 -69.3073C-181.457 -69.647 -182.75 -69.7606 -183.995 -70.0621C-184.568 -70.1893 -185.099 -70.428 -185.629 -70.6668C-186.328 -70.9586 -187.018 -71.365 -187.756 -71.5835C-190.641 -72.4133 -193.568 -73.1316 -196.49 -73.9262C-196.725 -73.9853 -197.032 -74.0122 -197.228 -74.1447C-200.875 -76.309 -205.161 -76.6858 -209.105 -78.0313C-213.35 -79.4799 -217.638 -80.8171 -221.917 -82.2688C-223.055 -82.6377 -224.108 -83.2297 -225.204 -83.7101C-227.231 -84.5797 -229.255 -85.4874 -231.229 -86.6212C-229.15 -86.0159 -227.07 -85.4106 -224.988 -84.8434C-221.397 -83.8363 -217.8 -82.9055 -214.245 -81.8632C-213.439 -81.6387 -212.718 -81.1911 -211.923 -80.814C-211.556 -80.6666 -211.196 -80.4428 -210.793 -80.3305C-208.245 -79.5688 -205.661 -78.8423 -203.11 -78.1187C-202.875 -78.0596 -202.608 -77.9593 -202.415 -77.7887C-200.331 -76.2612 -197.901 -75.7786 -195.35 -75.5544C-194.839 -75.5095 -194.301 -75.3853 -193.835 -75.1907C-191.85 -74.2096 -189.823 -73.8393 -187.664 -73.88C-186.567 -73.8988 -185.34 -73.8293 -184.53 -72.6827C-183.627 -71.4125 -182.249 -72.0212 -180.978 -72.1015C-180.489 -71.7512 -179.969 -71.3598 -179.32 -70.8419C-178.601 -70.8554 -177.81 -70.9011 -177.054 -70.9499C-175.182 -69.3258 -173.849 -68.8244 -170.96 -68.5321C-170.892 -68.5261 -170.787 -68.5553 -170.722 -68.5111C-168.352 -67.6498 -165.943 -66.8619 -163.579 -65.9242C-162.347 -65.4318 -161.147 -64.9806 -159.893 -65.2929C-158.953 -65.5175 -158.239 -65.4547 -157.402 -64.6898C-157.05 -64.3515 -155.848 -64.3996 -155.123 -64.4895C-154.639 -64.5621 -154.27 -64.9522 -153.73 -65.3272C-152.537 -63.3018 -150.114 -63.204 -148.223 -62.3464C-148.437 -63.2102 -148.627 -63.9183 -148.817 -64.6264C-149.047 -64.7619 -149.314 -64.8621 -149.476 -64.9916C-151.475 -66.7422 -153.748 -67.5182 -156.447 -67.1025C-156.897 -67.0268 -157.441 -67.0747 -157.949 -67.1577C-158.93 -67.3208 -159.869 -67.5954 -161.151 -67.8617C-161.564 -68.3205 -161.863 -69.4223 -163.428 -69.0606C-163.672 -69.0052 -164.174 -69.1646 -164.367 -69.3352C-166.001 -70.9384 -168.382 -71.1477 -170.487 -71.8706C-171.623 -72.2776 -172.522 -72.6256 -172.824 -73.6893C-172.957 -74.2387 -173.467 -74.7828 -174.657 -74.8874C-174.464 -74.2175 -174.3 -73.627 -174.136 -73.0364C-176.159 -72.9838 -176.125 -72.9808 -176.581 -74.2884C-176.696 -74.6058 -177.156 -74.8767 -177.54 -75.2562C-177.855 -74.6693 -178.055 -74.2643 -178.254 -73.8593C-178.691 -73.9745 -179 -73.9633 -179.162 -74.0928C-180.586 -75.2551 -182.234 -75.6688 -184.144 -75.76C-185.236 -75.8175 -186.399 -76.3039 -187.543 -76.5964C-187.487 -77.3981 -187.449 -77.9326 -187.367 -78.6167C-188.092 -78.5268 -188.841 -78.5926 -188.959 -78.3725C-189.533 -77.5012 -190.516 -77.6261 -191.524 -77.9067C-193.339 -78.3736 -195.149 -78.9168 -197.004 -79.3103C-198.252 -79.5737 -198.835 -80.0474 -199.045 -80.9494C-199.074 -81.0287 -199.307 -81.126 -199.438 -81.2143C-200.089 -81.1948 -200.741 -81.1753 -200.843 -81.1842C-201.957 -81.8967 -202.602 -82.4528 -203.363 -82.827C-204.354 -83.3366 -205.458 -83.7025 -206.413 -84.2474C-207.268 -84.7451 -207.931 -85.5332 -208.831 -85.8811C-210.895 -86.7155 -213.042 -87.3269 -215.145 -88.0879C-216.147 -88.4448 -217.104 -88.9515 -217.8 -89.2815C-218.11 -90.2306 -215.901 -90.4973 -217.925 -91.4051C-218.575 -90.9245 -219.224 -90.4438 -219.837 -89.9984C-222.209 -90.8215 -224.608 -91.2629 -226.2 -92.9776C-226.487 -93.2717 -227.089 -93.4782 -227.591 -93.6376C-228.666 -93.9242 -229.786 -94.0611 -230.822 -94.421C-234.426 -95.7365 -238.219 -96.7998 -241.506 -98.7403C-241.867 -98.9641 -242.298 -99.1557 -242.672 -99.1886C-247.902 -99.7636 -252.227 -102.525 -257.006 -104.174C-259.914 -105.16 -262.649 -106.668 -265.435 -107.95C-267.226 -108.76 -268.939 -109.718 -270.767 -110.493C-275.087 -112.332 -279.445 -114.136 -283.644 -116.234C-285.496 -117.165 -287.125 -118.345 -289.382 -118.851C-291.943 -119.422 -294.388 -120.674 -296.467 -122.278C-296.822 -122.578 -297.395 -122.705 -297.824 -122.935C-299.477 -123.772 -301.166 -124.573 -302.743 -125.518C-304.487 -126.517 -306.045 -127.729 -307.823 -128.731C-308.547 -129.14 -309.534 -129.227 -310.407 -129.457C-311.046 -129.628 -311.655 -129.72 -312.33 -129.857C-312.037 -128.179 -314.422 -129.311 -315.007 -128.287C-314.363 -126.233 -317.775 -126.379 -318.062 -124.714C-319.31 -124.978 -319.616 -125.504 -319.837 -126.253C-320.058 -127.002 -320.747 -126.948 -320.998 -126.778C-321.104 -125.75 -321.191 -124.989 -321.255 -124.073C-321.015 -123.591 -320.182 -122.788 -320.392 -122.23C-320.901 -120.816 -320.295 -119.687 -319.112 -118.507C-318.889 -118.257 -318.879 -117.911 -318.799 -117.596C-318.877 -117.45 -318.987 -117.344 -319.066 -117.197C-320.43 -118.738 -322.252 -118.63 -323.939 -118.97C-324.444 -119.091 -324.857 -119.55 -325.314 -119.859C-325.968 -120.301 -326.587 -120.739 -327.306 -121.225C-328.088 -119.834 -326.079 -119.197 -325.759 -117.901C-327.336 -118.846 -328.811 -119.283 -329.613 -120.544C-329.921 -121.032 -330.634 -121.595 -331.593 -121.103C-331.567 -120.486 -331.751 -119.811 -331.417 -119.205C-330.652 -117.909 -331.176 -117.263 -332.697 -117.051C-332.313 -116.173 -331.815 -115.476 -331.726 -114.777C-331.568 -113.611 -331.057 -112.605 -330.066 -111.596C-329.044 -110.546 -328.983 -109.465 -329.822 -108.233C-330.727 -108.505 -331.951 -108.613 -332.6 -109.13C-333.766 -110.078 -335.163 -110.162 -336.416 -110.349C-337.397 -110.512 -337.959 -110.792 -338.644 -111.275C-341.086 -113.065 -343.528 -114.854 -346.336 -116.292C-346.47 -116.342 -346.643 -116.319 -346.813 -116.334C-347.009 -115.967 -347.206 -115.6 -347.558 -114.978C-349.048 -115.685 -350.405 -116.342 -352.294 -117.238C-350.804 -115.532 -349.631 -114.2 -348.494 -112.832C-348.604 -112.727 -348.749 -112.624 -348.859 -112.519C-350.21 -113.252 -351.528 -113.983 -353.144 -114.854C-352.92 -114.143 -352.748 -113.667 -352.607 -113.232C-353.173 -112.975 -353.631 -112.785 -354.053 -112.63C-353.32 -110.376 -351.962 -108.259 -352.248 -105.634C-353.301 -106.725 -354.132 -107.567 -354.861 -108.399C-355.588 -109.269 -354.854 -110.472 -356.64 -111.359C-356.452 -110.613 -356.319 -110.064 -356.161 -109.397C-356.799 -109.568 -357.236 -109.683 -357.675 -109.76C-358.111 -108.915 -358.507 -108.143 -358.94 -107.336C-361.021 -108.403 -362.972 -109.381 -365.448 -110.674C-364.284 -108.728 -363.441 -107.079 -362.349 -105.562C-361.602 -104.498 -362.474 -104.267 -363.314 -103.995C-362.225 -102.44 -360.062 -101.558 -359.525 -99.437C-361.546 -100.882 -363.204 -102.142 -364.934 -103.331C-366.634 -104.479 -368.441 -105.56 -370.506 -106.855C-370.149 -105.595 -368.881 -104.638 -370.139 -103.789C-370.353 -103.654 -369.865 -102.804 -369.52 -102.351C-368.956 -101.61 -368.044 -100.954 -368.218 -99.9323C-371.38 -100.71 -372.348 -103.023 -374.505 -104.48C-373.978 -103.704 -373.416 -102.924 -372.888 -102.148C-373.569 -101.709 -374.616 -101.417 -373.238 -100.566C-372.809 -100.835 -372.453 -101.034 -372.201 -101.204C-371.3 -100.395 -370.56 -99.7157 -369.559 -98.8595C-369.371 -98.1132 -370.695 -98.268 -371.203 -97.8518C-371.748 -97.4004 -371.969 -96.69 -372.357 -96.0327C-372.987 -96.3186 -373.562 -97.4062 -374.536 -96.6852C-374.338 -95.5924 -374.141 -94.4995 -373.946 -93.3685C-374.93 -93.4934 -375.812 -93.6094 -377.067 -93.7582C-375.555 -91.8967 -374.23 -90.2823 -372.942 -88.6327C-372.469 -88.0533 -372.002 -87.3977 -371.84 -86.7689C-371.728 -86.4134 -372.202 -85.9942 -372.52 -85.3691C-372.118 -84.7576 -371.493 -83.8961 -370.937 -83.0406C-370.727 -83.5983 -370.24 -83.7091 -369.657 -83.2353C-368.912 -82.6321 -368.238 -81.9967 -367.784 -81.1501C-368.869 -81.7833 -369.988 -82.4194 -371.07 -83.0907C-370.391 -82.0324 -369.375 -80.9059 -371.2 -80.2598C-368.819 -77.5922 -366.363 -75.0333 -365.723 -71.9427C-365.622 -71.4344 -365.107 -70.9666 -364.835 -70.4434C-363.861 -68.7062 -362.641 -67.0625 -362.275 -64.9562C-364.238 -66.742 -365.888 -65.6579 -367.791 -65.3643C-367.615 -65.925 -367.491 -66.2214 -367.436 -66.5238C-367.341 -66.8996 -367.281 -67.2784 -367.189 -67.616C-368.984 -69.3486 -368.984 -69.3486 -371.723 -69.8199C-371.182 -69.2346 -370.233 -68.6134 -370.357 -68.317C-370.779 -67.1635 -369.412 -66.1598 -369.489 -65.0527C-369.548 -64.2129 -369.154 -63.4868 -368.006 -62.7714C-367.12 -62.2325 -366.642 -61.2303 -365.822 -60.2363C-368.221 -60.1784 -367.301 -59.1373 -366.546 -58.1875C-368.197 -58.5631 -369.68 -58.8855 -371.164 -59.208C-370.194 -58.3929 -369.258 -57.5809 -368.288 -56.7658C-369.527 -56.1834 -369.733 -54.7035 -371.734 -55.4555L-371.799 -55.4997C-370.282 -54.675 -368.812 -54.1616 -367.693 -55.4844C-367.045 -54.9665 -366.632 -54.5077 -366.073 -54.1896C-364.295 -53.1883 -364.292 -53.2265 -365.272 -51.9299C-364.589 -51.9083 -363.906 -51.8866 -363.223 -51.865C-363.2 -51.7093 -363.211 -51.5566 -363.187 -51.4009C-363.818 -51.1875 -364.462 -51.2825 -365.144 -51.8034C-364.841 -51.239 -364.743 -50.6926 -365.794 -50.8235C-366.506 -50.9245 -367.241 -51.1811 -367.981 -51.3615C-367.566 -50.9408 -367.184 -50.5232 -366.769 -50.1026C-366.876 -50.0352 -366.986 -49.9296 -367.093 -49.8622C-367.582 -50.2125 -368.037 -50.5598 -368.526 -50.91C-368.311 -51.0448 -368.097 -51.1795 -367.919 -51.2791C-368.085 -51.8315 -368.215 -52.4191 -368.382 -52.9715C-370.755 -53.2954 -370.721 -53.2924 -370.051 -51.6202C-369.847 -51.103 -369.678 -50.5888 -369.474 -50.0716C-368.805 -49.8591 -368.125 -49.7993 -367.698 -49.5313C-366.721 -48.8308 -365.831 -48.8294 -364.698 -48.8834C-362.706 -48.9772 -361.569 -48.109 -360.708 -46.2281C-361.425 -46.2527 -362.142 -46.2773 -363.301 -46.3408C-362.389 -45.1852 -361.663 -44.3147 -360.939 -43.4061C-360.184 -42.4563 -359.398 -41.4653 -358.577 -40.4713C-359.203 -40.3343 -359.653 -40.2586 -360.245 -40.1186C-358.554 -38.3567 -356.538 -37.3344 -354.262 -36.5966C-354.79 -37.3728 -355.286 -38.1078 -355.97 -39.0898C-355.358 -39.036 -354.987 -38.9649 -354.612 -38.932C-354.57 -39.0436 -354.46 -39.1491 -354.523 -39.2315C-354.873 -40.1072 -355.253 -41.0241 -355.603 -41.8998C-355.663 -42.0204 -355.616 -42.2082 -355.746 -42.2966C-358.139 -43.8128 -358.515 -46.2657 -360.766 -47.8464C-360.91 -48.2431 -361.019 -48.6368 -361.162 -49.0335C-361.026 -49.0216 -360.856 -49.0066 -360.72 -48.9946C-360.747 -48.6129 -360.776 -48.193 -360.839 -47.776C-360.531 -47.7873 -360.188 -47.7956 -359.876 -47.845C-359.565 -47.8944 -359.314 -48.0644 -359.067 -48.158C-359.42 -48.9955 -359.882 -49.7276 -360.035 -50.4708C-360.16 -51.1348 -359.976 -51.81 -359.894 -52.4941C-357.762 -51.6538 -356.867 -50.2691 -356.429 -46.7353C-356.769 -46.7652 -357.381 -46.819 -358.331 -46.9409C-354.4 -43.4457 -353.509 -40.0258 -353.074 -36.4538C-353.514 -36.5309 -353.919 -36.6049 -354.325 -36.679C-354.278 -36.3676 -354.265 -36.0592 -354.219 -35.7478C-355.901 -35.6653 -355.901 -35.6653 -356.39 -34.5559C-357.657 -36.0117 -359.236 -36.9187 -361.39 -36.9544C-361.628 -36.9753 -361.892 -37.1138 -362.125 -37.2111C-363.958 -37.91 -365.57 -37.8597 -366.966 -36.9837C-366.929 -37.0189 -366.89 -37.0923 -366.819 -37.1245C-367.008 -36.8722 -367.44 -36.5645 -367.351 -36.3647C-366.923 -35.6356 -366.54 -34.7569 -365.787 -34.2682C-364.153 -33.1643 -363.526 -31.8417 -362.942 -30.4076C-363.233 -30.1643 -363.526 -29.8828 -363.964 -29.4987C-364.777 -30.1079 -365.524 -30.673 -366.045 -31.0644C-366.798 -31.0539 -367.45 -31.0343 -368.033 -31.0088C-367.286 -29.9445 -366.819 -29.2888 -366.166 -28.348C-367.254 -28.4437 -367.898 -28.5387 -368.51 -28.5925C-369.491 -26.7967 -367.27 -26.2557 -366.22 -25.1263C-365.895 -25.3666 -365.74 -25.6219 -365.463 -25.6743C-364.944 -25.744 -364.33 -25.7283 -363.861 -25.5719C-363.694 -25.5188 -363.606 -24.8197 -363.729 -24.5233C-363.897 -24.0771 -364.301 -23.6901 -364.644 -23.1825C-365.204 -23.5006 -365.698 -23.7745 -366.19 -24.0866C-366.001 -23.8396 -365.816 -23.5544 -365.594 -23.3044C-366.327 -23.1 -367.06 -22.8956 -367.793 -22.6911C-367.779 -22.882 -367.803 -23.0377 -367.789 -23.2286C-367.788 -22.2682 -367.755 -21.2667 -367.754 -20.3063L-367.717 -20.3415C-368.027 -19.3317 -366.803 -18.7248 -366.329 -17.6844C-365.713 -18.168 -365.145 -18.4637 -364.911 -18.8657C-364.353 -20.0073 -366.781 -20.0287 -366.774 -21.1036C-365.709 -21.1636 -365.053 -20.7602 -364.549 -20.1397C-363.571 -18.94 -362.411 -17.9161 -360.677 -17.2643C-360.277 -17.1139 -359.997 -16.7052 -359.608 -16.4021C-362.762 -15.3351 -363.358 -14.1583 -362.249 -11.4106C-361.986 -10.7729 -361.583 -10.1614 -362.406 -9.65751C-362.55 -9.55495 -362.051 -8.85812 -361.874 -8.45843C-361.561 -9.00713 -361.283 -9.55883 -360.927 -10.2573C-359.93 -9.82397 -359.07 -9.40263 -357.71 -8.78374C-358.942 -8.77688 -359.662 -8.76332 -360.45 -8.75575C-360.49 -8.18312 -358.9 -7.42877 -360.507 -6.95552C-360.985 -7.45848 -361.461 -7.99961 -361.97 -8.54374C-361.896 -7.15447 -363.349 -6.93649 -365.055 -6.51039C-364.208 -5.89818 -363.62 -5.50077 -362.969 -5.02103C-362.696 -5.49638 -362.542 -5.75166 -362.23 -6.30036C-361.268 -4.87152 -360.495 -3.68967 -359.688 -2.50483C-360.264 -2.09457 -361.372 -1.92303 -360.198 -0.590768C-359.605 -2.22862 -358.306 -1.23097 -357.131 -0.89725C-356.459 -0.722922 -355.758 -0.46925 -355.372 -1.08833C-354.559 -0.978387 -353.742 -0.90661 -352.827 -0.787693C-354.267 -0.261313 -354.267 -0.261321 -355.372 -1.08833C-355.535 -0.718541 -355.47 -0.175104 -356.383 -0.332197C-357.027 -0.427183 -357.642 -0.442841 -358.288 -0.499659C-358.494 0.480943 -357.95 1.02806 -357.098 1.56392C-355.884 2.32355 -354.02 3.06364 -353.701 3.89822C-353.159 5.44388 -351.312 5.45266 -350.491 6.44662C-350.303 6.69361 -350.152 6.97581 -349.89 7.15243C-348.515 8.04154 -347.164 9.27422 -345.681 9.59667C-343.928 9.98123 -343.387 10.5665 -342.849 11.6893C-342.583 12.2888 -342.019 13.0298 -341.355 13.3187C-339.228 14.2354 -338.976 15.5251 -338.975 16.9847C-341.179 17.1751 -342.065 14.6773 -344.486 15.0406C-343.455 16.4373 -342.181 17.3174 -340.659 18.0658C-339.867 18.4811 -339.153 19.0432 -338.437 19.5671C-338.306 19.6554 -338.325 19.9226 -338.304 20.1165C-339.063 20.2034 -339.786 20.2551 -340.578 20.3391C-339.37 22.6347 -336.465 22.698 -334.74 23.9636C-334.297 23.5032 -334.04 23.2569 -333.784 23.0106C-332.999 23.5405 -332.367 24.2874 -331.689 24.3854C-328.882 24.8627 -326.628 26.4052 -324.089 27.2814C-323.521 27.4849 -322.996 27.8 -322.504 28.1121C-320.268 29.4225 -318.106 30.8033 -315.831 32.0404C-311.843 34.2347 -307.814 36.3174 -303.826 38.5117C-302.21 39.3835 -300.712 40.4755 -299.022 41.277C-296.439 42.5028 -293.705 43.5497 -291.08 44.664C-290.149 45.0531 -289.181 45.407 -288.292 45.9077C-286.644 46.8207 -285.11 47.8775 -283.423 48.7172C-280.975 49.931 -278.449 50.9982 -275.925 52.1035C-273.336 53.2529 -270.744 54.3642 -268.118 55.4785C-265.592 56.5456 -263.029 57.5776 -260.466 58.6095C-258.936 59.2434 -257.324 59.6923 -255.941 60.4669C-253.203 61.9367 -249.941 62.262 -247.211 63.8463C-245.6 64.7945 -243.468 65.1356 -241.634 65.8345C-239.066 66.7901 -236.503 67.8221 -233.937 68.8159C-230.804 70.0132 -227.67 71.2105 -224.568 72.3666C-224.103 72.5612 -223.601 72.7206 -223.101 72.9181C-219.06 74.3489 -214.985 75.7826 -210.947 77.2515C-208.444 78.163 -205.941 79.0744 -203.398 79.9125C-200.722 80.8007 -198.002 81.5392 -195.219 82.3601C-194.826 84.0846 -194.329 84.3204 -192.016 84.5237C-189.975 84.7031 -187.772 84.5128 -185.923 85.9812C-185.503 86.3255 -184.647 86.3239 -184.006 86.457C-183.532 86.5371 -182.912 86.4764 -182.549 86.662C-180.35 88.0076 -177.786 88.5403 -175.338 89.2549C-171.712 90.265 -168.357 92.2115 -164.456 92.2089C-164.388 92.2149 -164.286 92.2238 -164.186 92.271C-160.998 93.1659 -157.762 93.8729 -154.688 94.9497C-150.744 96.2951 -146.747 97.3763 -142.705 98.3078C-139.103 99.1622 -135.467 100.02 -131.954 101.173C-129.443 101.97 -126.971 102.341 -124.234 102.851C-124.684 102.427 -124.942 102.212 -125.392 101.789C-124.722 102.001 -124.141 102.014 -123.985 102.22C-123.227 103.131 -122.228 103.527 -120.967 103.599C-120.525 103.638 -120.038 104.026 -119.57 104.183C-117.862 104.717 -116.12 105.254 -114.409 105.75C-113.167 106.09 -111.662 106.107 -110.676 106.693C-109.097 107.6 -107.43 107.747 -105.777 108.084C-104.935 108.273 -104.079 108.272 -103.234 108.423C-97.5569 109.46 -91.8879 110.611 -86.2029 111.533C-78.8932 112.714 -71.5755 113.78 -64.2578 114.845C-54.1276 116.312 -44.0002 117.817 -33.9101 117.898C-33.4992 117.895 -33.0677 118.087 -32.6255 118.126C-29.8731 118.406 -27.1206 118.687 -24.3628 118.891C-22.7955 118.99 -21.2122 118.86 -19.6449 118.96C-17.3606 119.084 -15.0817 119.284 -12.8315 119.405C-11.1621 119.513 -9.48743 119.545 -7.84942 119.613C-9.04729 119.123 -10.1984 118.945 -11.3889 118.841C-16.3236 118.445 -21.2269 118.091 -26.1616 117.695C-29.2255 117.464 -32.3128 117.078 -35.3768 116.847C-39.9399 116.523 -44.5057 116.236 -49.063 115.336C-49.8059 115.194 -50.5569 115.167 -51.3026 115.063C-52.0195 115.038 -52.7338 114.975 -53.4168 114.954C-54.3378 114.911 -54.8294 114.599 -54.7027 113.765C-53.2081 113.436 -52.199 114.177 -51.2686 115.066C-51.3153 114.754 -51.328 114.446 -51.3513 114.29C-48.3828 113.437 -45.3182 115.128 -41.8741 114.816C-45.3703 112.934 -48.5443 112.808 -51.5955 112.886C-53.5843 112.942 -55.2036 112.607 -56.8037 111.506C-57.4546 111.026 -58.2417 110.535 -59.016 110.351C-61.2369 109.811 -63.5312 109.34 -65.7655 108.99C-66.307 108.904 -66.9279 109.464 -67.4328 109.343C-68.9501 109.017 -70.454 108.501 -71.6939 108.123C-72.1287 108.469 -72.4722 108.976 -72.7756 108.911C-74.8738 108.573 -76.9274 108.085 -79.0883 107.665C-78.9882 107.213 -78.9356 106.949 -78.8802 106.646L-78.8489 106.687C-79.8326 106.562 -80.819 106.476 -81.8341 106.31C-82.8492 106.144 -83.869 105.555 -84.9214 105.923C-84.6626 106.138 -84.3618 106.241 -84.095 106.341C-83.7262 106.451 -83.3887 106.519 -83.0199 106.628C-86.3772 106.678 -89.6532 106.544 -92.2898 103.624C-90.9659 103.778 -89.9115 103.871 -88.8284 104.043C-87.6432 104.224 -86.4688 104.558 -85.2836 104.739C-80.1088 105.616 -74.934 106.494 -69.7932 107.368C-66.6486 107.914 -63.5379 108.456 -60.3933 109.001C-59.4802 109.158 -58.5252 109.204 -57.6095 109.323C-54.6609 109.736 -51.689 110.304 -48.7298 110.564C-44.8182 110.908 -41.1647 112.497 -37.3344 113.026C-36.7468 113.923 -35.6764 113.786 -34.826 113.861C-31.2545 114.175 -27.7144 114.448 -24.1403 114.724C-23.29 114.798 -22.5597 114.632 -22.1581 115.743C-21.96 116.336 -20.6574 116.797 -19.529 116.32C-18.8588 116.033 -17.8016 116.087 -16.9173 116.165C-15.7295 116.308 -14.5603 116.718 -13.3725 116.861C-12.1507 117.007 -10.8427 117.391 -9.16211 116.847C-10.3393 116.551 -10.9095 116.386 -11.4825 116.259C-12.809 116.142 -14.1015 116.029 -15.428 115.912C-14.0715 115.109 -12.7536 115.84 -11.4511 116.3C-8.32651 116.152 -5.22795 115.887 -2.10869 115.815C0.463677 115.734 3.11944 115.929 5.68647 115.925C10.8939 115.845 16.0673 115.762 21.2487 115.564C26.5689 115.341 31.8683 114.923 37.1624 114.582C37.2304 114.588 37.2438 114.397 37.2938 114.171C36.5822 114.07 35.9359 114.013 35.2583 113.915C35.2349 113.76 35.2089 113.642 35.1855 113.486C36.8736 113.328 38.5249 113.204 40.1789 113.042C40.1842 112.966 40.1896 112.889 40.1949 112.813C39.5566 112.642 38.8843 112.467 37.6731 112.169C40.0154 111.952 41.7768 111.723 43.6009 111.576C50.7977 110.941 57.9973 110.268 64.6985 108.399C65.7116 108.104 67.1295 108.382 68.0145 107.961C71.091 106.541 74.8252 106.486 78.2618 105.789C81.8713 105.069 85.7968 104.723 88.3851 102.454C88.5318 102.313 88.8092 102.261 89.0186 102.202C92.3459 101.112 95.6392 100.019 98.9951 99.008C103.087 97.7545 107.238 96.6215 111.33 95.368C114.686 94.3571 118.01 93.3051 121.275 92.1325C123.38 91.3957 125.362 90.4561 127.407 89.5988C123.278 89.4278 120.193 91.4612 115.975 91.0904C116.256 90.5005 116.594 90.0693 117.157 89.8499C119.722 88.8848 122.353 87.9638 124.95 87.0398C125.301 86.917 125.555 86.7089 125.843 86.5038C125.749 86.3803 125.655 86.2568 125.561 86.1333C122.072 87.094 118.236 87.1409 114.592 87.8576C111.087 88.5482 107.507 89.3472 103.668 89.4322C104.281 88.9868 104.982 88.7412 105.747 88.5779C113.51 86.687 121.459 85.0813 128.918 82.6642C135.782 80.4253 142.612 78.1835 149.162 75.5329C152.33 74.2751 155.464 73.0142 158.506 71.5916C159.567 71.1087 160.596 70.5846 161.695 70.0283C160.199 69.3975 159.252 69.2374 158.22 70.2989C157.295 71.2931 155.458 71.6309 153.55 71.5016C152.632 71.4209 151.674 71.4135 150.81 71.5296C146.597 72.081 142.414 72.6735 138.232 73.2661C137.68 73.3328 137.12 73.514 136.536 73.5395C135.989 73.5298 135.168 73.5344 134.877 73.2784C133.78 72.3369 132.767 72.6319 131.856 72.9359C127.057 74.5114 121.523 74.3705 116.372 75.1084C114.99 75.2942 113.637 75.5593 112.2 75.5482C108.916 75.5284 105.967 76.1141 103.069 76.9348C102.265 77.1714 101.302 77.2404 100.418 77.1626C98.9525 77.0722 97.4639 76.8261 95.6664 76.5913C103.98 74.1726 112.234 72.1327 120.675 70.3398C118.199 70.5062 115.758 70.6756 113.282 70.8421C118.225 68.6648 124.187 68.0751 129.156 66.0153C129.096 65.8948 129.039 65.7361 129.013 65.6186C127.95 65.6404 126.885 65.7004 125.786 65.7574C132.312 63.9497 138.73 62.2094 145.151 60.431C142.24 59.4836 140.542 61.7541 137.557 60.8772C138.101 58.9661 139.518 57.7848 141.657 57.051C143.621 56.3786 145.584 55.7062 147.547 55.0338C146.35 54.0451 147.235 53.6236 147.911 53.2605C151.21 51.5916 154.541 49.9639 157.937 48.3804C160.518 47.1862 163.387 46.2862 165.776 44.9213C168.02 43.6591 170.475 42.7995 173.033 41.9488C175.557 41.0952 177.955 40.077 180.416 39.141C179.987 38.9113 179.681 38.8844 179.437 38.9398C175.142 40.1753 170.846 41.4109 166.55 42.6464C164.98 43.0845 163.404 43.5989 161.77 43.9547C160.936 44.1501 160.014 44.6068 158.811 43.6945C160.477 42.8807 162.037 42.096 163.702 41.2822C162.535 39.3743 163.829 38.4894 165.322 37.6988C165.89 37.403 166.526 37.1133 167.222 36.944C169.521 36.3779 171.85 35.8529 174.18 35.3279C174.632 35.2141 175.057 35.0209 175.478 34.866C174.984 34.592 174.678 34.5651 174.366 34.6146C169.553 35.4205 164.312 34.9982 159.619 36.0451C159.41 36.1035 159.104 36.0766 158.866 36.0557C156.1 35.4669 153.392 35.5361 150.963 36.0139C150.184 35.4077 149.562 35.0073 149.013 34.5365C148.208 33.8128 148.308 33.3606 149.321 33.0656C149.986 32.8552 150.87 32.933 151.397 32.2495C146.956 32.128 143.208 33.3732 138.77 33.2135C139.175 31.8279 140.162 31.4154 141.512 31.1884C144.734 30.6267 147.298 29.2004 150.018 27.98C147.849 28.1734 145.71 28.4079 143.724 28.9246C138.57 30.1999 133.416 31.4752 128.021 32.2685C127.331 32.3614 126.359 32.5449 125.831 32.268C124.743 31.6731 124.029 32.1095 123.23 32.2698C122.466 32.4331 121.756 32.7932 120.963 32.8771C116.792 33.317 112.589 33.7156 108.388 34.0761C107.253 34.1683 106.093 34.1048 104.929 34.1177C104.866 34.0354 104.84 33.9178 104.778 33.8355C105.589 33.4844 106.403 33.095 107.744 32.5215C106.491 32.3345 105.818 32.1602 105.201 32.1827C103.448 32.2974 101.783 32.612 100.035 32.6504C96.9496 32.7248 93.8771 33.1076 90.6597 32.1334C90.5577 32.1244 90.4583 32.0773 90.3956 31.995C88.841 32.204 87.2524 32.41 85.6951 32.6572C85.6664 32.5778 85.6037 32.4955 85.5777 32.378C86.5494 31.6952 87.521 31.0124 88.6681 30.2683C87.7578 30.073 87.0828 29.9369 86.4419 29.8037C83.3786 29.0735 80.3706 28.0408 77.2247 28.494C76.2903 28.6423 75.1812 28.3528 74.1581 28.3012C74.1634 28.2249 74.1348 28.1455 74.1401 28.0692C74.7997 27.9351 75.4933 27.8041 76.1503 27.7082C76.1216 27.6288 76.0956 27.5113 76.0669 27.432C73.4818 27.2047 70.8994 26.9393 68.2463 26.706C68.375 26.3332 68.4644 26.0338 68.5537 25.7344L68.5851 25.7755C67.6014 25.6507 66.5862 25.4846 65.6025 25.3597C65.0243 25.3089 64.3307 25.4399 63.8651 25.2454C61.943 24.3466 60.1763 24.6522 58.4463 24.9226C57.2685 25.1263 56.1694 25.1833 54.9769 24.6176C54.1132 24.7337 53.2415 24.9643 52.3912 24.8896C47.0457 24.4964 41.7081 23.9888 36.3653 23.5574C35.1408 23.4498 33.9109 23.4185 32.6918 23.2345C36.0497 22.6847 45.2101 23.3364 55.0055 24.6969C55.7698 24.5336 56.5394 24.294 57.3324 24.2101C60.7031 23.9687 64.1078 23.7303 67.5099 23.5301C72.872 23.1949 78.3642 23.4473 83.5076 22.3247C85.3843 21.9135 87.5325 22.0255 89.5607 21.8966C93.1014 21.6701 96.6188 21.288 100.186 21.1791C110.268 20.8748 120.148 20.0533 129.714 18.3209C131.863 17.9337 133.98 17.5053 136.098 17.0769C134.484 16.6661 132.953 16.5316 131.449 16.5145C128.238 16.4243 125.056 16.4134 121.848 16.285C121.301 16.2753 120.648 15.8338 120.088 15.5157C119.23 15.0562 118.598 14.3092 117.386 14.51C115.036 14.8411 112.66 15.0547 110.283 15.2683C109.422 15.3462 108.53 15.383 107.669 15.4609C107.609 15.3404 107.583 15.2229 107.523 15.1024C110.017 14.6687 112.545 14.238 115.042 13.7662C114.106 13.4534 113.29 13.3816 112.465 13.4244C110.573 13.5653 108.705 13.8619 106.815 13.9647C105.028 14.0764 103.224 14.4172 101.323 13.7123C99.1861 14.9072 96.4576 14.2832 93.7752 14.4699C95.3471 13.0333 98.443 12.8062 101.354 13.7535C100.892 13.0215 101 12.4548 102.042 12.2391C102.526 12.1665 102.979 12.0526 103.466 11.9418C98.2248 11.5194 89.9914 10.3347 88.5688 9.63346C90.6363 9.43113 92.5678 9.21684 94.4992 9.00255C94.8787 8.95909 95.4362 8.81605 95.4836 8.62817C95.6582 7.10713 97.1355 8.0052 98.0726 7.81871C98.2473 8.25659 98.3621 8.57395 98.5315 9.08818C100.921 8.68371 103.389 8.63179 105.289 7.87706C106.803 7.28031 108.253 7.1005 109.901 7.01499C113.097 6.83499 116.269 6.4993 119.608 6.21674C118.725 5.14044 117.888 4.8748 116.755 4.92882C113.695 5.12078 110.605 5.27158 107.52 5.34603C105.429 5.39266 103.343 5.36295 101.224 5.33025C97.3301 5.21839 93.4365 5.10654 89.5483 4.91834C85.8301 4.74509 82.0832 4.49249 78.3704 4.2429C77.9622 4.20701 77.5174 4.20632 77.1065 4.20861C73.5871 4.12965 70.031 4.08588 66.5116 4.00692C66.1348 4.01221 65.6799 3.66493 64.8849 3.28776C65.5785 3.15668 65.8639 2.98973 66.1334 3.05183C68.5037 3.41386 70.7419 2.72721 73.1929 3.40361C74.4014 3.74032 75.71 3.6249 76.8097 3.06862C77.3779 2.77288 78.1762 2.6126 78.8905 2.6754C80.6646 2.75455 82.4566 3.06576 84.1994 3.10374C88.3677 3.20134 92.7442 4.23906 96.7464 3.28499C97.1286 3.20336 97.5734 3.20406 98.0156 3.24294C103.461 3.68322 108.548 2.86302 113.772 2.55404C116.831 2.36209 119.752 1.69707 123.036 2.2162C123.915 2.3703 124.988 2.19576 125.661 1.87083C127.855 0.834612 130.43 0.715316 133.062 0.754699C133.609 0.76437 134.169 0.583145 134.69 0.475314C134.63 0.354804 134.604 0.237282 134.544 0.116773C133.529 -0.0492761 132.548 -0.212347 131.331 -0.434531C131.664 -0.789363 131.714 -1.01545 131.924 -1.07385C133.049 -1.51261 134.207 -1.91022 135.332 -2.34898C136.351 -2.72037 137.819 -2.66813 138.626 -3.94147C136.339 -3.52803 134.41 -3.35191 132.732 -2.84647C127.562 -1.3421 122.139 -0.628143 116.291 -0.681386C114.684 -0.707407 112.837 -1.21546 111.555 -0.982538C108.364 -0.379605 105.023 -2.51705 101.976 -1.51743C101.871 -1.48822 101.675 -1.62069 101.507 -1.67382C99.742 -2.36678 97.9993 -2.40475 96.2432 -2.25186C95.7277 -2.22037 95.1574 -2.38573 94.6132 -2.43358C94.5558 -2.59226 94.5325 -2.74796 94.4724 -2.86845C95.4095 -3.05495 96.3465 -3.24143 97.3149 -3.38676C99.1783 -3.60702 101.044 -3.86547 102.931 -3.93005C106.603 -4.06819 110.3 -4.0888 113.966 -4.15059C115.474 -4.17172 116.923 -4.35153 118.433 -4.41083C121.278 -4.46802 124.12 -4.48705 126.967 -4.58243C127.72 -4.59298 128.613 -4.62978 128.986 -5.55725C128.305 -5.61706 127.832 -5.69708 127.384 -5.65961C126.317 -5.56144 125.301 -5.22825 124.241 -5.2446C119.348 -5.25229 114.46 -5.33633 109.54 -5.46154C108.549 -5.4719 107.51 -5.79366 106.503 -6.07425C106.234 -6.13634 106.022 -6.53903 105.672 -6.91551C108.948 -6.78114 111.949 -6.63251 114.956 -6.56022C115.537 -6.54756 116.256 -6.56112 116.618 -6.83662C118.171 -8.00601 120 -7.73 122.061 -6.85742C123.026 -8.42422 124.878 -8.49178 126.867 -8.54739C128.445 -8.60072 129.911 -9.00957 131.434 -9.25975C130.056 -9.61141 128.795 -9.68388 127.557 -9.60066C124.809 -9.45813 122.061 -9.31561 119.339 -9.05557C117.72 -8.89072 116.532 -9.53282 115.958 -10.6204C115.35 -11.7109 114.505 -11.862 113.278 -11.9315C111.846 -12.0189 110.305 -12.0008 108.966 -12.4258C107.224 -12.9631 105.591 -13.1066 103.911 -13.0623C102.574 -13.0262 101.26 -12.8344 99.9281 -12.8747C98.1173 -12.9187 96.2799 -12.5809 94.4438 -13.2416C94.1169 -15.4213 93.3612 -15.8719 90.6081 -15.653C89.2996 -15.5376 87.923 -15.4281 86.6019 -15.6211C84.2289 -15.945 81.8692 -16.4597 79.5462 -17.0096C77.1212 -17.5685 74.7542 -18.468 72.3185 -18.8742C70.0529 -19.2654 68.1882 -20.0055 66.7195 -21.5173C66.6228 -21.6027 66.4213 -21.6588 66.6201 -21.5645C64.6626 -21.4677 62.9953 -21.115 61.3679 -21.3349C58.2493 -21.7627 55.1207 -22.5371 51.9787 -23.1206C51.4712 -23.2036 50.961 -23.2485 50.4534 -23.3315C46.7306 -23.9277 42.9264 -24.339 39.2588 -25.2376C37.5428 -25.6573 35.9574 -25.9887 34.2801 -25.9825C34.0393 -25.9653 33.7332 -25.9922 33.5318 -26.0483C30.4298 -27.2045 27.1718 -27.1068 23.9831 -28.0017C21.0639 -28.8345 18.0027 -29.1036 14.9941 -29.637C13.0319 -29.9631 11.1038 -30.2863 9.14164 -30.6124C7.48561 -30.9117 5.7536 -31.1024 4.14758 -31.6277C1.06893 -32.6281 -2.06033 -32.9032 -5.17362 -33.4074C-6.18871 -33.5735 -7.20113 -33.7777 -8.21621 -33.9438C-10.4138 -34.329 -12.614 -34.6761 -14.8116 -35.0613C-16.3316 -35.3486 -17.8149 -35.6711 -19.3348 -35.9583C-20.1118 -36.1035 -20.8575 -36.2074 -21.6345 -36.3526C-23.9995 -36.7909 -26.2958 -37.7226 -28.7087 -37.4738C-29.1562 -37.4364 -29.7265 -37.6017 -30.2314 -37.7229C-31.3092 -37.9713 -32.3869 -38.2197 -33.7341 -38.5302C-34.1597 -39.2974 -35.0227 -39.6806 -36.4226 -39.7268C-37.9246 -39.782 -39.4705 -40.1868 -40.9512 -40.5475C-41.9269 -40.7869 -42.7379 -40.935 -43.6176 -40.5898C-44.636 -40.2184 -45.7138 -40.4668 -46.9929 -40.7714C-48.8424 -41.2412 -50.5111 -41.8488 -52.1612 -42.7237C-52.7234 -43.0036 -53.4744 -43.0312 -54.152 -43.1292C-55.3345 -43.3484 -56.525 -43.453 -57.7048 -43.7104C-60.0618 -44.2633 -62.4208 -45.2773 -64.7364 -45.4425C-68.0724 -45.6974 -71.2818 -46.7861 -74.5864 -46.9999C-76.4599 -47.1262 -78.4427 -47.6462 -80.1674 -47.4521C-82.4783 -47.1944 -84.3485 -47.8581 -86.3046 -48.7599C-86.8669 -49.0398 -87.6672 -49.3406 -88.1881 -49.2327C-89.1905 -49.0904 -90.0828 -49.0536 -90.6391 -49.9091C-91.0987 -50.6793 -91.0794 -51.4458 -90.2518 -52.026C-89.7489 -52.3659 -89.4735 -52.8794 -89.1381 -53.2725C-89.3315 -53.4431 -89.3942 -53.5255 -89.4622 -53.5314C-92.2147 -53.8118 -94.9104 -53.4343 -97.7483 -54.452C-98.716 -54.8059 -99.9698 -54.4936 -101.341 -54.4606C-100.926 -54.0399 -100.774 -53.7577 -100.641 -53.7076C-99.0474 -53.4907 -97.4567 -53.2356 -95.8528 -53.1714C-93.7019 -53.0976 -92.8735 -52.2181 -93.535 -50.5862C-95.3877 -50.5187 -97.4226 -51.2737 -99.1559 -50.4659C-99.5094 -50.3049 -100.718 -50.6416 -101.003 -50.9739C-101.951 -52.0944 -103.155 -52.0081 -104.445 -52.16C-105.871 -52.3237 -107.283 -52.6784 -108.699 -52.9949C-109.036 -53.0629 -109.465 -53.2927 -109.674 -53.2343C-111.012 -52.6989 -112.445 -53.2475 -113.79 -53.5961C-116.989 -54.3383 -120.149 -55.1539 -123.309 -55.9694C-123.613 -56.0345 -123.872 -56.2493 -124.727 -56.747C-123.392 -56.7449 -122.594 -56.9052 -121.888 -56.7278C-120.103 -56.3021 -118.539 -56.1646 -117.313 -57.0554C-114.878 -56.15 -112.558 -55.5619 -110.049 -55.2261C-107.676 -54.9022 -105.3 -54.6166 -102.598 -54.1101C-104.288 -55.872 -106.062 -56.4504 -108.15 -56.4419C-108.972 -56.4373 -109.845 -56.6678 -110.693 -56.7807C-111.813 -56.9176 -112.933 -57.0544 -114.39 -57.2594C-115.14 -58.2855 -116.277 -58.6544 -117.992 -58.1138C-118.832 -57.842 -120.14 -58.2259 -121.221 -58.4361C-123.18 -58.8004 -125.1 -59.2381 -127.057 -59.6406C-127.63 -59.7677 -128.242 -59.8216 -128.81 -60.0251C-131.049 -60.7981 -133.596 -60.1002 -135.679 -61.6277C-135.745 -61.6719 -135.988 -61.6165 -136.13 -61.5521C-136.97 -61.2803 -137.697 -61.6514 -138.565 -61.9582C-140.765 -62.8046 -142.938 -64.0327 -145.437 -63.5227C-145.586 -63.843 -145.709 -64.0459 -145.732 -64.2016C-145.75 -64.4336 -145.669 -64.6185 -145.653 -64.8476C-148.274 -65.5389 -148.274 -65.5389 -149.252 -64.2805C-147.943 -64.8952 -147.189 -64.9058 -146.646 -63.8594ZM-266.213 46.8118C-267.432 46.6278 -268.908 46.6901 -268.838 45.1982C-269.652 45.0883 -270.465 44.9783 -271.279 44.8684C-271.271 44.7539 -271.226 44.6041 -271.218 44.4896C-270.447 44.7111 -269.644 44.9737 -268.838 45.1982C-267.954 45.7752 -267.099 46.2729 -266.213 46.8118ZM-155.754 89.6322C-158.718 88.9491 -161.91 88.5917 -164.635 87.4303C-167.292 86.2748 -170.17 85.8297 -172.791 84.6391C-174.051 84.0674 -175.579 83.8946 -176.955 83.5048C-178.703 83.0439 -180.413 82.5478 -182.163 82.1251C-185.261 81.3919 -188.072 79.9924 -191.012 78.9657C-192.681 78.3581 -194.289 77.3717 -196.163 77.7447C-196.369 77.7649 -196.67 77.6617 -196.903 77.5644C-200.337 76.2638 -203.769 74.9251 -207.169 73.6275C-207.167 72.6289 -206.448 72.6154 -205.647 72.9162C-204.68 73.2702 -203.754 73.7356 -202.786 74.0896C-197.545 75.9716 -192.174 77.4808 -186.891 79.2512C-180.203 81.4909 -173.436 83.5838 -166.669 85.6767C-163.386 86.6951 -160.027 87.6049 -156.742 88.5851C-156.004 88.8036 -155.306 89.0955 -154.608 89.3873C-154.681 89.4577 -154.723 89.5692 -154.797 89.6396C-155.105 89.6509 -155.451 89.6973 -155.754 89.6322ZM-347.401 -55.4672C-348.048 -56.4844 -348.636 -57.381 -349.377 -58.5217C-349.584 -58.5015 -350.1 -58.47 -350.791 -58.3771C-351.47 -59.4355 -352.143 -60.5702 -352.911 -61.8284C-350.257 -62.0944 -347.58 -62.2047 -345.053 -60.1772C-343.304 -58.756 -343.418 -57.6137 -345.596 -56.8065C-345.413 -56.4832 -345.199 -56.1186 -345.019 -55.7571C-344.836 -55.4338 -344.685 -55.1516 -344.473 -54.7489C-345.468 -54.2218 -346.427 -53.7299 -347.6 -53.1033C-348.127 -53.8795 -348.598 -54.497 -349.219 -55.3966C-348.293 -55.4304 -347.845 -55.4679 -347.401 -55.4672ZM-83.1745 108.842C-82.3615 109.451 -81.6118 110.477 -80.4593 109.657C-78.838 110.452 -76.9506 109.889 -75.3059 110.84C-74.8457 111.111 -73.9613 111.188 -73.4378 111.042C-71.6291 110.625 -70.2144 111.441 -68.3943 112.331C-69.2266 112.488 -69.7948 112.784 -70.3364 112.698C-72.4399 112.436 -74.5695 112.057 -76.665 111.681C-79.8777 111.129 -83.0877 110.54 -86.3004 109.988C-91.3364 109.085 -96.4039 108.14 -101.44 107.236C-101.675 107.177 -101.908 107.08 -102.13 106.83C-99.1237 106.902 -96.1391 107.779 -92.8424 108.107C-93.4334 107.748 -93.7942 107.524 -94.155 107.301C-90.4615 108.317 -86.9232 110.087 -83.1745 108.842ZM-295.547 -116.82C-297.081 -116.417 -298.238 -116.019 -299.487 -115.783C-299.869 -115.702 -300.507 -115.873 -300.936 -116.103C-302.754 -117.031 -304.534 -117.994 -306.315 -118.957C-306.679 -119.143 -307.071 -119.408 -307.254 -119.731C-307.499 -120.137 -307.762 -120.774 -307.542 -120.985C-307.246 -121.305 -306.519 -121.433 -305.898 -121.494C-305.553 -121.54 -305.056 -121.305 -304.69 -121.157C-302.864 -120.344 -301.044 -119.454 -299.182 -118.676C-298.649 -118.475 -297.958 -118.568 -296.935 -118.517C-296.527 -117.981 -296.052 -117.44 -295.547 -116.82ZM122.565 67.2795C115.721 68.7519 109.21 70.8298 102.063 71.7378C101.788 71.7521 101.424 71.5665 100.988 71.4513C102.049 70.4691 103.284 69.9247 104.993 69.9597C108.646 70.0888 111.701 68.9747 114.968 68.2632C118.234 67.5517 121.407 66.7168 124.642 65.9641C124.736 66.0876 124.794 66.2463 124.888 66.3698C124.079 66.6828 123.4 67.0841 122.565 67.2795ZM73.6478 14.0447C77.0572 14.2292 80.4325 14.4108 83.8159 14.4777C84.7029 14.5173 85.6373 14.369 86.3755 14.0882C87.7814 13.5589 89.202 13.799 90.9861 14.2247C88.7893 15.2991 86.3583 15.3158 84.0113 15.1095C81.0181 14.8463 78.197 15.0592 75.3105 15.228C73.7639 15.3224 72.1679 15.1437 70.3912 15.1028C71.1541 13.9791 72.3839 14.0104 73.6478 14.0447ZM-222.699 67.1536C-222.741 67.2652 -222.746 67.3415 -222.788 67.453C-223.369 67.4404 -223.919 67.4689 -224.494 67.3799C-225.308 67.2699 -226.438 67.2858 -226.888 66.8622C-228.344 65.6587 -230.152 65.5765 -231.789 65.0101C-234.028 64.2371 -236.11 63.1707 -238.231 62.1776C-238.529 62.0361 -238.709 61.6746 -238.928 61.3865C-238.821 61.3191 -238.714 61.2517 -238.606 61.1843C-233.305 63.1868 -228.003 65.1893 -222.699 67.1536ZM-126.387 96.4391C-124.543 96.9854 -122.416 96.9035 -120.806 98.351C-121.421 98.3354 -122.114 98.4664 -122.65 98.3041C-128.164 96.3982 -134.051 95.919 -139.52 93.8634C-139.473 93.6755 -139.394 93.5288 -139.347 93.3409C-135.002 94.3375 -130.609 95.1461 -126.387 96.4391ZM-362.49 -60.4044C-362.604 -61.221 -363.197 -62.5406 -361.437 -63.2309C-360.157 -61.4668 -358.872 -59.779 -357.694 -58.0238C-357.475 -57.7356 -357.674 -57.3307 -357.646 -56.752C-359.932 -57.8364 -362.205 -58.6124 -362.49 -60.4044ZM-56.1006 114.18C-59.67 114.327 -63.0867 113.758 -66.6283 112.525C-66.1727 112.373 -65.7486 112.179 -65.3011 112.142C-64.4401 112.064 -63.5504 112.065 -62.6634 112.105C-62.2212 112.144 -61.6456 112.233 -61.3188 112.454C-60.1736 113.207 -59.0772 113.188 -57.878 112.679C-57.1671 113.28 -56.6808 113.668 -56.1006 114.18ZM-124.571 94.4478C-124.595 94.2921 -124.621 94.1746 -124.644 94.0189C-124.194 93.9433 -123.702 93.7561 -123.265 93.8713C-119.527 94.7377 -115.788 95.6041 -112.056 96.5468C-111.182 96.7773 -110.392 97.2308 -109.56 97.5728C-109.637 97.6814 -109.715 97.8281 -109.757 97.9396C-114.704 96.7365 -119.619 95.5746 -124.571 94.4478ZM52.989 30.0506C56.8865 29.1258 61.0803 29.8402 65.1853 30.3547C61.2071 30.9652 57.1434 30.8384 52.989 30.0506ZM-140.849 93.2857C-143.591 93.3518 -147.523 92.3148 -153.381 89.9561C-150.309 90.0725 -142.42 92.2641 -140.849 93.2857ZM-209.412 71.9323C-211.034 72.1353 -212.48 72.7381 -214.048 71.179C-214.816 70.4201 -216.438 70.1239 -217.704 69.6285C-218.536 69.2865 -219.37 68.9827 -220.238 68.6759C-220.154 68.4528 -220.073 68.2679 -219.989 68.0448C-216.453 69.3544 -212.951 70.6609 -209.412 71.9323ZM-336.667 -8.23963C-337.995 -9.31662 -339.425 -10.4026 -340.747 -11.5559C-341.455 -12.1944 -341.952 -12.9294 -342.555 -13.597C-342.414 -13.6614 -342.27 -13.7639 -342.129 -13.8283C-339.199 -12.649 -336.617 -9.92533 -336.667 -8.23963ZM23.012 91.2907C22.7753 92.2302 21.7422 91.8321 20.9232 91.7985C21.7589 93.0627 20.1896 92.5022 19.3886 92.7006C19.3532 91.7373 19.3205 90.7357 19.3037 89.5052C20.839 90.0626 21.9742 90.4697 23.0439 90.8326C23.02 91.1762 23.0146 91.2526 23.012 91.2907ZM-244.999 59.1243C-247.759 58.9584 -249.723 58.1712 -251.483 56.9026C-249.143 56.7242 -247.084 57.1357 -244.999 59.1243ZM-129.746 -58.379C-128.834 -57.7226 -128.127 -57.5453 -127.02 -57.7168C-125.877 -57.9236 -125.336 -57.3383 -125.306 -56.2986C-127.518 -56.954 -129.797 -57.6537 -132.044 -58.3121C-131.996 -58.5 -131.986 -58.6527 -131.938 -58.8406C-131.229 -58.7014 -130.235 -58.7293 -129.746 -58.379ZM-370.626 -88.9667C-368.452 -88.2379 -368.452 -88.2379 -366.776 -85.2867C-368.44 -85.4714 -368.887 -85.9331 -370.626 -88.9667ZM-100.787 102.3C-103.517 102.675 -105.565 102.111 -107.265 100.963C-105.341 100.863 -103.28 101.236 -100.787 102.3ZM-5.44279 114.063C-2.88908 114.249 -0.933647 113.691 1.72145 114.385C-0.720836 115.054 -2.72295 115.301 -5.44279 114.063ZM-119.827 98.053C-117.263 98.5857 -115.173 99.0383 -112.813 99.553C-114.766 100.073 -118.209 99.386 -119.827 98.053ZM43.6051 5.64199C45.4772 4.80792 47.1204 4.79874 48.8645 5.7971C46.9544 5.70599 45.4699 6.38209 43.6051 5.64199ZM83.2547 74.9623C84.6245 73.9689 87.4956 73.5299 90.8396 73.6703C88.5961 74.4333 86.0551 74.5556 83.2547 74.9623ZM27.2691 114.135C25.0989 114.827 22.6212 114.533 20.1536 114.585C22.209 113.575 24.8615 114.307 27.2691 114.135ZM-100.303 102.228C-98.251 101.755 -96.8157 102.765 -94.7962 103.25C-96.9871 103.748 -98.4883 103.194 -100.303 102.228ZM-240.123 60.8589C-241.719 60.6802 -241.719 60.6801 -243.592 59.5553C-241.99 59.1584 -241.083 59.8911 -240.123 60.8589ZM-163.707 91.7754C-163.667 91.702 -163.662 91.6257 -163.625 91.5905C-161.546 92.1958 -159.435 92.8423 -157.355 93.4477C-157.361 93.524 -157.4 93.5974 -157.437 93.6326C-159.516 93.0272 -161.596 92.4219 -163.707 91.7754ZM-252.222 55.7238C-253.975 55.8385 -255.037 55.361 -256.21 54.0288C-255.013 54.5182 -253.817 55.0458 -252.222 55.7238ZM4.29582 114.765C4.27249 114.61 4.28313 114.457 4.2598 114.301C5.45294 114.368 6.68013 114.437 7.87594 114.466C7.89663 114.659 7.88064 114.888 7.90133 115.082C6.71085 114.978 5.52034 114.873 4.29582 114.765ZM-360.692 -28.3276C-359.18 -27.9258 -359.089 -27.2649 -359.119 -26.3457C-361.081 -26.6718 -360.512 -27.4668 -360.692 -28.3276ZM28.5636 3.93549C29.4673 3.24675 30.3149 3.35967 31.1306 3.93071C31.1173 4.12159 31.0726 4.27131 31.0593 4.46218C30.2143 4.31107 29.3719 4.12179 28.5636 3.93549ZM-364.386 -61.1856C-365.239 -61.7215 -365.895 -62.1249 -366.909 -62.7902C-364.803 -63.0659 -364.803 -63.0659 -364.386 -61.1856ZM-309.814 -127.177C-309.682 -127.588 -309.724 -127.976 -309.514 -128.034C-308.708 -128.309 -307.968 -128.129 -307.207 -127.255C-308.1 -127.218 -308.785 -127.202 -309.814 -127.177ZM56.1275 6.6661C56.1015 6.54858 56.1122 6.39588 56.0862 6.27836C57.2793 6.34485 58.4752 6.37317 59.6683 6.43966C59.655 6.63053 59.6443 6.78324 59.631 6.97411C58.4405 6.86945 57.284 6.76777 56.1275 6.6661ZM-312.471 -124.415C-313.006 -125.076 -313.382 -125.57 -313.918 -126.232C-311.684 -125.882 -311.684 -125.882 -312.471 -124.415ZM-11.4172 114.344C-13.0552 114.277 -14.115 114.261 -15.2061 114.203C-15.1954 114.05 -15.1821 113.859 -15.2055 113.704C-14.1303 113.99 -13.1166 113.196 -11.4172 114.344ZM-355.356 -23.864C-354.171 -23.6829 -353.494 -23.585 -352.785 -23.4458C-352.798 -23.2549 -352.809 -23.1022 -352.822 -22.9114C-353.605 -22.4809 -354.303 -22.7727 -355.356 -23.864ZM32.8419 112.743C34.2898 112.102 34.2898 112.102 35.8118 112.85C34.8881 112.846 34.035 112.809 32.8419 112.743ZM-364.669 -28.2164C-363.754 -27.5982 -363.166 -27.2008 -362.544 -26.8004C-363.603 -26.8168 -364.522 -26.8975 -364.669 -28.2164ZM37.1844 15.2561C37.0037 15.3939 36.8543 15.5728 36.6842 15.5578C36.2081 15.516 35.7032 15.3948 34.7928 15.1995C35.8012 14.4815 36.4267 14.3445 37.1844 15.2561ZM20.9298 2.49616C20.9505 2.69002 20.9738 2.84571 20.9605 3.03659C20.1755 3.00599 19.4245 2.97837 18.6395 2.94776C18.6215 2.71572 18.6008 2.52186 18.5488 2.28683C19.3678 2.32042 20.1474 2.42738 20.9298 2.49616ZM27.2037 3.3166C27.2297 3.43412 27.2243 3.51047 27.2504 3.62798C26.2586 3.61762 25.2302 3.64243 24.2385 3.63206C24.2859 3.44417 24.2992 3.2533 24.3465 3.06541C25.2989 3.14914 26.2513 3.23287 27.2037 3.3166ZM132.207 62.02C132.332 62.1847 132.458 62.3494 132.546 62.5492C131.95 62.7656 131.319 62.979 130.722 63.1954C130.565 62.9896 130.445 62.7485 130.288 62.5427C130.916 62.3675 131.545 62.1923 132.207 62.02ZM34.0677 13.3305C34.0417 13.213 34.0157 13.0954 33.9897 12.9779C34.7773 12.9704 35.565 12.9628 36.3526 12.9552C36.3733 13.1491 36.36 13.34 36.3807 13.5338C35.601 13.4269 34.816 13.3963 34.0677 13.3305ZM100.289 7.93675C100.568 6.88577 101.117 6.85726 102.16 7.60194C101.642 7.67161 101.121 7.77946 100.289 7.93675ZM31.9389 112.932C31.2793 113.066 31.1379 113.131 31.0019 113.119C30.6931 113.13 30.3476 113.176 30.0101 113.108C29.806 113.09 29.5759 112.955 29.3405 112.896C29.3512 112.743 29.3618 112.59 29.3725 112.438C30.0474 112.574 30.7251 112.672 31.9389 112.932ZM-354.871 -4.3475C-354.798 -4.41787 -354.688 -4.52341 -354.614 -4.59379C-354.22 -4.36703 -353.827 -4.10209 -353.432 -3.87533C-353.543 -3.76978 -353.653 -3.66421 -353.763 -3.55866C-354.121 -3.8206 -354.479 -4.08256 -354.871 -4.3475ZM80.9304 30.3178C79.5585 30.8502 79.1276 30.1593 78.6574 29.5418C79.293 29.7513 79.9286 29.9608 80.9304 30.3178ZM40.1203 5.06675C39.9683 5.28384 39.5835 5.40364 39.2407 5.41192C39.0706 5.39696 38.8565 5.03246 38.629 4.85883C38.9118 4.73005 39.1632 4.56009 40.0535 4.06221C40.1209 4.56747 40.2697 4.88784 40.1203 5.06675ZM70.0834 10.1976C70.0601 10.042 70.0367 9.88627 70.0134 9.73057C70.6963 9.75221 71.3792 9.77383 72.0648 9.75728C72.0855 9.95115 72.1429 10.1098 72.1636 10.3037C71.4806 10.2821 70.7637 10.2574 70.0834 10.1976ZM-68.4471 110.636C-68.4391 110.522 -68.4651 110.404 -68.4571 110.29C-67.8082 110.308 -67.1279 110.368 -66.479 110.387C-66.4583 110.581 -66.4716 110.771 -66.4509 110.965C-67.1285 110.867 -67.7722 110.772 -68.4471 110.636ZM-108.134 105.572C-108.131 105.534 -108.129 105.496 -108.123 105.42C-107.786 105.488 -107.446 105.518 -107.142 105.583C-106.771 105.654 -106.439 105.798 -106.07 105.907C-106.115 106.057 -106.157 106.169 -106.201 106.318C-106.834 106.071 -107.501 105.82 -108.134 105.572ZM-359.918 -56.0684C-359.992 -55.998 -360.099 -55.9306 -360.172 -55.8603C-360.499 -56.081 -360.826 -56.3018 -361.121 -56.4814C-360.977 -56.584 -360.867 -56.6896 -360.723 -56.7921C-360.467 -56.5391 -360.174 -56.3214 -359.918 -56.0684ZM-360.138 -15.1812C-360.065 -15.2516 -359.991 -15.3219 -359.92 -15.3541C-359.562 -15.0922 -359.204 -14.8302 -358.809 -14.6035C-358.987 -14.5039 -359.165 -14.4043 -359.309 -14.3018C-359.597 -14.5959 -359.85 -14.8871 -360.138 -15.1812ZM-367.5 -96.4891C-367.576 -96.3806 -367.615 -96.3072 -367.691 -96.1987C-368.055 -96.3843 -368.421 -96.5317 -368.784 -96.7173C-368.708 -96.8258 -368.669 -96.8992 -368.593 -97.0077C-368.227 -96.8603 -367.863 -96.6747 -367.5 -96.4891ZM-146.197 88.5136C-146.157 88.4402 -146.152 88.3639 -146.112 88.2905C-145.474 88.4619 -144.839 88.6714 -144.2 88.8427C-144.206 88.9191 -144.245 88.9924 -144.284 89.0658C-144.923 88.8945 -145.561 88.7231 -146.197 88.5136ZM-364.502 -59.0448C-364.533 -59.086 -364.284 -59.2177 -364.14 -59.3203C-364.015 -59.1556 -363.853 -59.0262 -363.764 -58.8263C-363.733 -58.7851 -363.911 -58.6856 -364.055 -58.583C-364.214 -58.7506 -364.41 -58.8831 -364.502 -59.0448ZM94.0449 6.19709C94.0189 6.07957 93.9928 5.96206 93.9641 5.88271C94.409 5.88341 94.8538 5.88411 95.2987 5.88481C95.3247 6.00233 95.3507 6.11984 95.3794 6.19919C94.9005 6.1955 94.4557 6.19479 94.0449 6.19709Z" fill="white"/>
</g>
<circle cx="36.1402" cy="36.1041" r="35.4857" fill="#1066AA"/>
<path d="M49.0673 28.6144L37.0207 28.5695L36.9903 34.9963L49.0368 35.0412C49.5692 35.0412 50.0103 34.6227 50.0103 34.0996L50.0255 29.5859C50.0407 29.0478 49.5996 28.6144 49.0673 28.6144Z" fill="white"/>
<path d="M22.7839 29.4663L22.7687 33.98C22.7687 34.5031 23.1946 34.9365 23.727 34.9365L35.4845 34.9814L35.5149 28.5546L23.7574 28.5247C23.225 28.5098 22.7839 28.9432 22.7839 29.4663Z" fill="white"/>
<path d="M24.381 50.0021C24.381 50.5252 24.8069 50.9586 25.3393 50.9586L35.4085 50.9885L35.4693 36.476L24.4419 36.4311L24.381 50.0021Z" fill="white"/>
<path d="M36.9447 50.9885L47.0139 51.0184C47.5462 51.0184 47.9873 50.5999 47.9873 50.0768L48.033 36.5208L36.9903 36.476L36.9447 50.9885Z" fill="white"/>
<path d="M45.5841 21.3656C45.5841 20.3642 45.2039 19.4375 44.489 18.7201C43.7741 18.0177 42.8158 17.6141 41.812 17.6141C40.7929 17.6141 39.8498 17.9878 39.1198 18.6902C38.2528 19.5272 37.1424 22.3072 36.4275 24.28C35.7279 22.3221 34.6327 19.5272 33.781 18.6902C32.3056 17.2255 29.9023 17.2255 28.4117 18.6753C26.9211 20.1251 26.9211 22.4865 28.3965 23.9512C29.6286 25.1768 34.9826 26.9105 36.0473 27.2543C36.1233 27.2842 36.2146 27.2991 36.2907 27.2991C36.3363 27.2991 36.3667 27.2991 36.4123 27.2842C36.458 27.2842 36.4884 27.2991 36.534 27.2991C36.6101 27.2991 36.7013 27.2842 36.7774 27.2692C37.8421 26.9404 43.2113 25.2366 44.4586 24.026C45.1886 23.2936 45.5841 22.367 45.5841 21.3656ZM29.5525 22.8004C29.1418 22.3969 28.9289 21.8737 28.9289 21.3058C28.9289 20.7378 29.157 20.2147 29.5677 19.8112C29.9784 19.4077 30.5108 19.1984 31.0887 19.1984C31.6667 19.1984 32.1991 19.4226 32.6098 19.8261C33.1725 20.3941 34.2068 22.9499 34.9978 25.1918C32.7162 24.3996 30.1305 23.3683 29.5525 22.8004ZM43.3178 22.8602C42.7398 23.4132 40.1388 24.4295 37.8421 25.2067C38.6482 22.9648 39.6977 20.409 40.2757 19.856C40.6864 19.4525 41.2188 19.2433 41.7968 19.2433C42.3748 19.2433 42.9071 19.4674 43.3178 19.871C43.7285 20.2745 43.9414 20.7976 43.9414 21.3656C43.9414 21.9335 43.7285 22.4566 43.3178 22.8602Z" fill="white"/>
</svg>
