<svg width="91" height="72" viewBox="0 0 91 72" fill="none" xmlns="http://www.w3.org/2000/svg">
<mask id="mask0" mask-type="alpha" maskUnits="userSpaceOnUse" x="9" y="2" width="74" height="69">
<circle r="35.4857" transform="matrix(1 0 -0.261515 0.965199 46.1188 36.3738)" fill="#1066AA"/>
</mask>
<g mask="url(#mask0)">
<path fill-rule="evenodd" clip-rule="evenodd" d="M275.299 54.1875C276.053 52.8961 277.826 52.3807 279.362 51.8839C280.363 51.5658 281.407 51.3471 282.362 50.8616C282.953 50.5415 283.806 50.5088 284.543 50.3141C285.045 50.1721 285.582 50.0274 286.087 49.9194C285.824 49.1869 285.149 49.3083 284.443 49.4663C280.937 50.1517 277.395 50.8057 273.89 51.4911C273.45 51.5598 273.008 51.5944 272.608 51.7285C269.618 52.8869 266.405 52.9332 263.386 53.7174C260.601 54.4149 257.586 54.3772 254.992 55.7785C254.433 56.0619 253.69 56.1886 253.017 56.344C249.256 57.2548 245.494 58.1656 241.73 59.0424C240.488 59.3452 239.195 59.4464 237.95 59.7151C237.377 59.8285 236.846 60.0412 236.315 60.254C235.617 60.5141 234.926 60.8762 234.189 61.0709C231.304 61.8104 228.376 62.4505 225.454 63.1586C225.219 63.2113 224.913 63.2353 224.717 63.3534C221.069 65.2821 216.784 65.6179 212.839 66.8169C208.594 68.1079 204.307 69.2995 200.028 70.5932C198.89 70.922 197.836 71.4495 196.74 71.8777C194.713 72.6526 192.689 73.4616 190.715 74.472C192.795 73.9325 194.874 73.3931 196.956 72.8876C200.548 71.9901 204.145 71.1606 207.7 70.2318C208.505 70.0317 209.227 69.6329 210.022 69.2968C210.388 69.1654 210.749 68.966 211.152 68.8659C213.699 68.1871 216.284 67.5397 218.834 66.8949C219.07 66.8422 219.336 66.7528 219.53 66.6008C221.613 65.2395 224.044 64.8095 226.595 64.6096C227.105 64.5696 227.644 64.459 228.11 64.2856C230.094 63.4112 232.122 63.0813 234.281 63.1175C235.377 63.1343 236.604 63.0724 237.414 62.0505C238.318 60.9186 239.695 61.461 240.967 61.5325C241.456 61.2204 241.976 60.8716 242.624 60.41C243.344 60.4221 244.134 60.4629 244.891 60.5063C246.762 59.059 248.096 58.6122 250.984 58.3516C251.053 58.3463 251.157 58.3723 251.223 58.333C253.592 57.5654 256.001 56.8632 258.366 56.0276C259.597 55.5888 260.798 55.1867 262.052 55.465C262.992 55.6652 263.706 55.6092 264.542 54.9276C264.895 54.6261 266.096 54.6689 266.821 54.749C267.305 54.8138 267.675 55.1614 268.214 55.4956C269.408 53.6907 271.831 53.6035 273.721 52.8392C273.508 53.609 273.318 54.24 273.128 54.8711C272.898 54.9918 272.631 55.0811 272.469 55.1965C270.469 56.7566 268.196 57.4481 265.498 57.0776C265.048 57.0102 264.503 57.0528 263.996 57.1268C263.015 57.2722 262.076 57.5169 260.794 57.7542C260.381 58.1631 260.081 59.145 258.516 58.8226C258.273 58.7732 257.771 58.9153 257.577 59.0674C255.944 60.4961 253.563 60.6826 251.457 61.3268C250.322 61.6895 249.422 61.9996 249.12 62.9475C248.987 63.4371 248.478 63.922 247.287 64.0153C247.48 63.4183 247.644 62.892 247.808 62.3657C245.785 62.3188 245.819 62.3161 245.363 63.4815C245.248 63.7643 244.788 64.0057 244.404 64.3439C244.089 63.8209 243.89 63.46 243.691 63.0991C243.254 63.2018 242.945 63.1917 242.783 63.3071C241.358 64.3429 239.71 64.7116 237.8 64.7928C236.709 64.8441 235.545 65.2775 234.402 65.5383C234.458 66.2527 234.495 66.729 234.577 67.3387C233.852 67.2586 233.104 67.3172 232.986 67.1211C232.412 66.3445 231.428 66.4558 230.421 66.7059C228.606 67.122 226.795 67.6061 224.941 67.9568C223.693 68.1915 223.11 68.6137 222.899 69.4174C222.87 69.4882 222.638 69.5748 222.507 69.6536C221.855 69.6361 221.204 69.6187 221.102 69.6267C219.988 70.2617 219.342 70.7572 218.581 71.0907C217.59 71.5449 216.486 71.8709 215.532 72.3565C214.677 72.8 214.013 73.5023 213.113 73.8124C211.05 74.556 208.902 75.1008 206.799 75.779C205.798 76.0971 204.841 76.5486 204.145 76.8427C203.835 77.6885 206.044 77.9262 204.019 78.7351C203.37 78.3068 202.72 77.8785 202.107 77.4815C199.735 78.2151 197.336 78.6084 195.745 80.1365C195.457 80.3986 194.856 80.5827 194.353 80.7247C193.278 80.9801 192.159 81.102 191.123 81.4228C187.519 82.5951 183.726 83.5427 180.439 85.272C180.078 85.4715 179.646 85.6422 179.272 85.6715C174.042 86.1839 169.718 88.645 164.939 90.1147C162.03 90.9929 159.295 92.3368 156.51 93.4792C154.718 94.2015 153.006 95.0545 151.178 95.7454C146.857 97.3846 142.5 98.9925 138.3 100.862C136.449 101.691 134.82 102.743 132.562 103.194C130.001 103.703 127.556 104.818 125.478 106.248C125.122 106.515 124.549 106.629 124.121 106.833C122.468 107.579 120.778 108.293 119.202 109.136C117.458 110.025 115.9 111.106 114.122 111.998C113.397 112.363 112.411 112.44 111.537 112.646C110.899 112.798 110.289 112.88 109.614 113.002C109.908 111.507 107.523 112.515 106.938 111.602C107.582 109.772 104.17 109.903 103.882 108.419C102.634 108.654 102.329 109.123 102.107 109.79C101.886 110.458 101.198 110.409 100.946 110.258C100.84 109.342 100.753 108.664 100.689 107.848C100.929 107.418 101.763 106.702 101.553 106.205C101.043 104.945 101.649 103.939 102.833 102.888C103.055 102.665 103.065 102.356 103.146 102.076C103.067 101.945 102.957 101.851 102.878 101.72C101.514 103.094 99.693 102.997 98.0056 103.3C97.5007 103.408 97.0879 103.817 96.6303 104.092C95.9767 104.486 95.3571 104.877 94.6381 105.309C93.8566 104.07 95.8654 103.502 96.1856 102.347C94.6089 103.19 93.1336 103.579 92.3319 104.703C92.0237 105.138 91.3101 105.639 90.3517 105.2C90.3771 104.651 90.1931 104.049 90.5272 103.509C91.2923 102.354 90.7681 101.779 89.2475 101.59C89.6311 100.807 90.13 100.186 90.2181 99.563C90.3762 98.5237 90.8878 97.6279 91.8782 96.7288C92.9001 95.793 92.9615 94.8298 92.1226 93.7317C91.2175 93.9738 89.993 94.0697 89.3447 94.5312C88.1788 95.3756 86.7816 95.4509 85.5284 95.6175C84.5474 95.7629 83.9851 96.0123 83.3001 96.4425C80.8584 98.0372 78.4166 99.6319 75.6081 100.913C75.4747 100.958 75.3019 100.937 75.1319 100.95C74.9351 100.623 74.7384 100.297 74.387 99.7422C72.8963 100.372 71.5391 100.958 69.6509 101.756C71.1403 100.236 72.3135 99.0489 73.4501 97.8303C73.34 97.7363 73.196 97.6449 73.0859 97.5508C71.734 98.2044 70.4161 98.8553 68.8001 99.6323C69.0242 98.9986 69.1963 98.5744 69.337 98.1868C68.7715 97.9573 68.3133 97.7878 67.8918 97.6497C68.6243 95.6412 69.9823 93.7549 69.6963 91.4155C68.6432 92.388 67.8121 93.1377 67.0831 93.8794C66.3567 94.6551 67.091 95.7271 65.3049 96.5174C65.4923 95.8524 65.6251 95.3628 65.7838 94.7684C65.1456 94.9211 64.7087 95.0238 64.2692 95.0925C63.8338 94.3393 63.4376 93.6515 63.0048 92.9324C60.9233 93.8828 58.9724 94.7544 56.496 95.9068C57.6606 94.1726 58.5037 92.7032 59.5956 91.3511C60.3426 90.4026 59.4709 90.1971 58.6306 89.9549C59.7198 88.5688 61.8827 87.7832 62.4191 85.8928C60.3982 87.1807 58.7408 88.3032 57.01 89.363C55.3106 90.3861 53.5038 91.3492 51.4382 92.5037C51.7951 91.3804 53.063 90.528 51.8059 89.7708C51.5911 89.6507 52.0794 88.8936 52.4242 88.4901C52.9885 87.8297 53.9009 87.2448 53.7269 86.3342C50.5642 87.027 49.5964 89.0881 47.4394 90.3867C47.967 89.695 48.5286 89.0007 49.0562 88.309C48.3753 87.9173 47.3282 87.6571 48.7061 86.8988C49.1356 87.1389 49.4918 87.3164 49.7432 87.4679C50.6449 86.7468 51.3846 86.1412 52.3857 85.3782C52.5732 84.7132 51.2493 84.8511 50.7411 84.4802C50.1963 84.0779 49.9756 83.4448 49.5874 82.8591C48.9572 83.1139 48.3829 84.0831 47.4085 83.4406C47.606 82.4667 47.8035 81.4928 47.9983 80.4849C47.0146 80.5962 46.1329 80.6995 44.877 80.8321C46.3897 79.1733 47.7144 77.7345 49.0023 76.2645C49.4752 75.7482 49.9428 75.1639 50.1042 74.6036C50.2163 74.2867 49.7421 73.9131 49.4247 73.3561C49.8269 72.8112 50.4512 72.0434 51.0075 71.281C51.2175 71.778 51.7044 71.8768 52.2873 71.4546C53.0323 70.917 53.7066 70.3507 54.1609 69.5964C53.0757 70.1606 51.9566 70.7275 50.8741 71.3257C51.5531 70.3826 52.5696 69.3787 50.7449 68.8029C53.1253 66.4257 55.5818 64.1453 56.2216 61.391C56.323 60.9381 56.8379 60.5212 57.1094 60.055C58.0832 58.5068 59.3031 57.042 59.6694 55.165C57.7065 56.7564 56.0566 55.7903 54.1538 55.5287C54.3299 56.0283 54.4532 56.2925 54.5086 56.562C54.6032 56.8968 54.6639 57.2344 54.7559 57.5352C52.9604 59.0793 52.9604 59.0793 50.2213 59.4993C50.7622 58.9777 51.7113 58.4241 51.5879 58.16C51.1652 57.132 52.5324 56.2376 52.4551 55.251C52.3965 54.5025 52.7907 53.8555 53.9386 53.2179C54.8249 52.7377 55.3025 51.8446 56.1229 50.9588C53.7233 50.9072 54.6431 49.9794 55.3981 49.133C53.7474 49.4677 52.2641 49.755 50.7808 50.0424C51.7506 49.3161 52.6864 48.5924 53.6561 47.866C52.4177 47.347 52.2117 46.0281 50.2108 46.6983L50.1455 46.7377C51.6621 46.0027 53.1321 45.5453 54.2511 46.7241C54.8994 46.2625 55.3123 45.8537 55.8719 45.5702C57.65 44.6779 57.6526 44.7119 56.6723 43.5565C57.3553 43.5372 58.0382 43.5179 58.7211 43.4986C58.7445 43.3599 58.7338 43.2238 58.7572 43.085C58.1263 42.8949 57.4827 42.9795 56.8004 43.4437C57.1032 42.9408 57.2019 42.4538 56.1502 42.5705C55.4385 42.6605 54.7036 42.8892 53.9633 43.0499C54.3788 42.675 54.7603 42.3028 55.1758 41.928C55.0684 41.8679 54.9584 41.7739 54.851 41.7138C54.3622 42.026 53.9073 42.3354 53.4184 42.6476C53.6331 42.7677 53.8479 42.8878 54.026 42.9765C53.8592 43.4688 53.7291 43.9924 53.5623 44.4847C51.1893 44.7733 51.2234 44.7706 51.8937 43.2805C52.0972 42.8196 52.2666 42.3613 52.4701 41.9004C53.1397 41.711 53.82 41.6577 54.2461 41.4189C55.2239 40.7947 56.1136 40.7934 57.2467 40.8416C59.2382 40.9251 60.3754 40.1515 61.2365 38.4752C60.5195 38.4972 59.8026 38.5191 58.6434 38.5757C59.5552 37.5458 60.2816 36.7701 61.0052 35.9604C61.7603 35.1139 62.5467 34.2308 63.367 33.345C62.7415 33.2229 62.2913 33.1555 61.6997 33.0307C63.3905 31.4606 65.4067 30.5496 67.6824 29.8921C67.1548 30.5838 66.6585 31.2388 65.9742 32.1139C66.5864 32.0659 66.9579 32.0026 67.3321 31.9733C67.3741 32.0727 67.4841 32.1667 67.4214 32.2401C67.0719 33.0205 66.691 33.8376 66.3415 34.6181C66.2815 34.7255 66.3288 34.8929 66.1981 34.9716C63.8057 36.3228 63.4294 38.5088 61.1784 39.9174C61.035 40.2709 60.9256 40.6218 60.7821 40.9753C60.9182 40.9647 61.0883 40.9513 61.2243 40.9407C61.1977 40.6005 61.1684 40.2262 61.105 39.8547C61.4138 39.8647 61.7566 39.8721 62.0681 39.9161C62.3795 39.9602 62.631 40.1116 62.877 40.1951C62.5249 40.9415 62.0626 41.5938 61.9092 42.2562C61.7844 42.8479 61.9685 43.4496 62.0505 44.0593C64.182 43.3104 65.0778 42.0764 65.5155 38.9272C65.1754 38.9539 64.5631 39.0018 63.6134 39.1105C67.5446 35.9957 68.4351 32.948 68.8702 29.7648C68.4307 29.8334 68.0252 29.8994 67.6197 29.9654C67.6664 29.688 67.6791 29.4131 67.7258 29.1356C66.0431 29.0621 66.0431 29.0621 65.555 28.0734C64.2877 29.3708 62.7083 30.1791 60.5548 30.2109C60.3167 30.2296 60.0526 30.3529 59.8198 30.4396C57.9864 31.0625 56.3744 31.0176 54.9785 30.237C55.0152 30.2684 55.0546 30.3338 55.1253 30.3624C54.9365 30.1376 54.5044 29.8634 54.5931 29.6853C55.0213 29.0357 55.4048 28.2526 56.1578 27.817C57.7919 26.8333 58.4182 25.6547 59.0026 24.3766C58.7118 24.1598 58.4184 23.9089 57.9809 23.5667C57.1678 24.1096 56.4202 24.6132 55.8999 24.962C55.1463 24.9526 54.4947 24.9352 53.9111 24.9124C54.6582 23.9639 55.1257 23.3796 55.7787 22.5412C54.6903 22.6265 54.0467 22.7111 53.4344 22.7591C52.4535 21.1587 54.6744 20.6767 55.7249 19.6702C56.0497 19.8843 56.2044 20.1118 56.4818 20.1585C57 20.2206 57.6149 20.2067 58.0831 20.0673C58.2506 20.02 58.3386 19.3969 58.2153 19.1328C58.0472 18.7352 57.6437 18.3903 57.3003 17.938C56.7407 18.2214 56.2465 18.4655 55.755 18.7436C55.9431 18.5235 56.1285 18.2694 56.3506 18.0466C55.6176 17.8644 54.8847 17.6822 54.1517 17.5001C54.1651 17.6702 54.1417 17.8089 54.155 17.979C54.1564 17.1232 54.1892 16.2306 54.1906 15.3748L54.2272 15.4061C53.9172 14.5063 55.141 13.9654 55.616 13.0382C56.2315 13.4692 56.7997 13.7327 57.0331 14.091C57.592 15.1083 55.1636 15.1274 55.1702 16.0853C56.2353 16.1388 56.8916 15.7793 57.3959 15.2264C58.373 14.1571 59.5335 13.2447 61.2676 12.6639C61.6678 12.5298 61.9472 12.1656 62.3368 11.8955C59.1822 10.9447 58.5867 9.89596 59.6953 7.44728C59.9588 6.87897 60.361 6.33402 59.5387 5.88501C59.3946 5.7936 59.8936 5.17262 60.071 4.81643C60.3831 5.30542 60.6612 5.79707 61.0179 6.41947C62.0144 6.03334 62.8747 5.65787 64.2346 5.10635C63.0022 5.10022 62.2825 5.08814 61.4949 5.08139C61.4549 4.57109 63.0449 3.89884 61.4376 3.4771C60.9594 3.92532 60.4838 4.40756 59.9743 4.89247C60.0484 3.6544 58.5958 3.46015 56.8892 3.08042C57.7362 2.53485 58.3245 2.18069 58.9754 1.75317C59.2482 2.17678 59.4029 2.40427 59.715 2.89325C60.6761 1.61993 61.4492 0.566707 62.2562 -0.489174C61.68 -0.854784 60.5729 -1.00765 61.7461 -2.19491C62.3396 -0.735315 63.6389 -1.62438 64.8134 -1.92178C65.4856 -2.07714 66.1866 -2.3032 66.5721 -1.7515C67.3857 -1.84948 68.2021 -1.91344 69.1178 -2.01942C67.6779 -2.4885 67.6779 -2.48849 66.5721 -1.7515C66.4094 -2.08104 66.4741 -2.56533 65.561 -2.42533C64.9174 -2.34069 64.3025 -2.32673 63.6563 -2.2761C63.4509 -3.14997 63.9945 -3.63754 64.8469 -4.11508C66.0601 -4.79203 67.9249 -5.45157 68.243 -6.19531C68.7853 -7.57274 70.6328 -7.58056 71.4532 -8.46634C71.6412 -8.68645 71.7927 -8.93792 72.0541 -9.09533C73.4294 -9.88767 74.7807 -10.9862 76.264 -11.2735C78.0167 -11.6162 78.5576 -12.1378 79.0952 -13.1384C79.3614 -13.6727 79.9256 -14.333 80.5899 -14.5904C82.7162 -15.4074 82.9684 -16.5567 82.9691 -17.8575C80.7656 -18.0271 79.8791 -15.8012 77.4581 -16.125C78.4899 -17.3696 79.7632 -18.154 81.2852 -18.8209C82.0775 -19.191 82.7912 -19.6919 83.5075 -20.1588C83.6382 -20.2375 83.6196 -20.4756 83.6402 -20.6484C82.8813 -20.7258 82.159 -20.7719 81.366 -20.8467C82.5746 -22.8925 85.4791 -22.9489 87.2046 -24.0767C87.6474 -23.6665 87.9042 -23.447 88.1609 -23.2275C88.9453 -23.6997 89.5776 -24.3654 90.2552 -24.4527C93.0623 -24.878 95.316 -26.2526 97.8558 -27.0335C98.4233 -27.2148 98.9489 -27.4956 99.4404 -27.7737C101.676 -28.9415 103.838 -30.1721 106.113 -31.2745C110.101 -33.2299 114.131 -35.086 118.119 -37.0414C119.735 -37.8184 121.233 -38.7915 122.922 -39.5057C125.506 -40.5981 128.239 -41.5311 130.865 -42.5241C131.796 -42.8709 132.764 -43.1863 133.653 -43.6325C135.3 -44.4461 136.835 -45.3879 138.521 -46.1362C140.969 -47.2179 143.496 -48.1689 146.019 -49.1539C148.609 -50.1782 151.2 -51.1686 153.826 -52.1616C156.352 -53.1125 158.916 -54.0322 161.479 -54.9518C163.009 -55.5167 164.62 -55.9167 166.003 -56.607C168.741 -57.9169 172.004 -58.2067 174.734 -59.6186C176.344 -60.4636 178.477 -60.7676 180.31 -61.3905C182.878 -62.242 185.442 -63.1617 188.007 -64.0473C191.141 -65.1143 194.274 -66.1813 197.376 -67.2116C197.842 -67.385 198.344 -67.527 198.843 -67.7031C202.884 -68.9781 206.959 -70.2558 210.998 -71.5648C213.501 -72.3771 216.004 -73.1893 218.546 -73.9362C221.222 -74.7277 223.943 -75.3858 226.726 -76.1173C227.119 -77.6542 227.616 -77.8643 229.929 -78.0455C231.969 -78.2054 234.173 -78.0357 236.021 -79.3443C236.442 -79.6511 237.298 -79.6497 237.939 -79.7684C238.412 -79.8397 239.032 -79.7856 239.396 -79.951C241.595 -81.1502 244.159 -81.6249 246.607 -82.2617C250.232 -83.1619 253.587 -84.8966 257.489 -84.8942C257.557 -84.8995 257.659 -84.9075 257.758 -84.9495C260.947 -85.747 264.183 -86.3771 267.256 -87.3367C271.201 -88.5357 275.198 -89.4992 279.239 -90.3293C282.842 -91.0907 286.478 -91.8548 289.991 -92.8831C292.502 -93.5933 294.974 -93.9239 297.71 -94.3779C297.261 -94.0004 297.002 -93.8089 296.553 -93.4314C297.222 -93.6208 297.803 -93.6321 297.96 -93.8155C298.718 -94.6279 299.717 -94.98 300.978 -95.0446C301.42 -95.0793 301.906 -95.4254 302.374 -95.5648C304.082 -96.0409 305.825 -96.5197 307.535 -96.9618C308.778 -97.2645 310.282 -97.2797 311.268 -97.8019C312.847 -98.6102 314.514 -98.7408 316.168 -99.0415C317.01 -99.2102 317.866 -99.2088 318.711 -99.3434C324.388 -100.267 330.057 -101.293 335.742 -102.115C343.051 -103.167 350.369 -104.117 357.687 -105.067C367.817 -106.374 377.944 -107.715 388.034 -107.787C388.445 -107.785 388.877 -107.956 389.319 -107.99C392.071 -108.24 394.824 -108.49 397.582 -108.672C399.149 -108.76 400.732 -108.645 402.3 -108.733C404.584 -108.844 406.863 -109.023 409.113 -109.13C410.782 -109.227 412.457 -109.255 414.095 -109.315C412.897 -108.879 411.746 -108.721 410.556 -108.627C405.621 -108.275 400.718 -107.959 395.783 -107.607C392.719 -107.401 389.632 -107.056 386.568 -106.851C382.005 -106.562 377.439 -106.306 372.882 -105.504C372.139 -105.378 371.388 -105.353 370.642 -105.261C369.925 -105.239 369.211 -105.183 368.528 -105.163C367.607 -105.125 367.115 -104.847 367.242 -104.104C368.736 -103.811 369.746 -104.471 370.676 -105.263C370.629 -104.986 370.617 -104.711 370.593 -104.572C373.562 -103.812 376.626 -105.319 380.07 -105.041C376.574 -103.363 373.4 -103.252 370.349 -103.321C368.36 -103.37 366.741 -103.072 365.141 -102.091C364.49 -101.664 363.703 -101.225 362.929 -101.062C360.708 -100.58 358.413 -100.161 356.179 -99.8487C355.637 -99.7721 355.017 -100.271 354.512 -100.163C352.994 -99.8731 351.49 -99.4129 350.251 -99.0762C349.816 -99.3844 349.472 -99.8367 349.169 -99.7787C347.071 -99.4774 345.017 -99.0427 342.856 -98.668C342.956 -98.2651 343.009 -98.0296 343.064 -97.7601L343.096 -97.7968C342.112 -97.6855 341.125 -97.6082 340.11 -97.4602C339.095 -97.3122 338.076 -96.7874 337.023 -97.1157C337.282 -97.3071 337.583 -97.3991 337.85 -97.4885C338.218 -97.5858 338.556 -97.6465 338.925 -97.7438C335.567 -97.7889 332.291 -97.6691 329.655 -95.0665C330.979 -95.2044 332.033 -95.2871 333.116 -95.4404C334.301 -95.6017 335.476 -95.8991 336.661 -96.0604C341.836 -96.8424 347.011 -97.6243 352.151 -98.4036C355.296 -98.8896 358.407 -99.3729 361.551 -99.8589C362.464 -99.9989 363.419 -100.039 364.335 -100.145C367.284 -100.513 370.256 -101.02 373.215 -101.252C377.126 -101.558 380.78 -102.974 384.61 -103.445C385.198 -104.244 386.268 -104.123 387.119 -104.19C390.69 -104.469 394.23 -104.713 397.804 -104.958C398.655 -105.025 399.385 -104.877 399.786 -105.867C399.985 -106.396 401.287 -106.806 402.416 -106.381C403.086 -106.125 404.143 -106.174 405.027 -106.243C406.215 -106.37 407.384 -106.736 408.572 -106.863C409.794 -106.993 411.102 -107.335 412.782 -106.851C411.605 -106.587 411.035 -106.44 410.462 -106.327C409.136 -106.223 407.843 -106.121 406.516 -106.017C407.873 -105.302 409.191 -105.953 410.493 -106.363C413.618 -106.232 416.717 -105.995 419.836 -105.931C422.408 -105.859 425.064 -106.033 427.631 -106.029C432.838 -105.958 438.012 -105.884 443.193 -105.708C448.513 -105.508 453.813 -105.136 459.107 -104.832C459.175 -104.838 459.188 -104.667 459.238 -104.466C458.527 -104.376 457.88 -104.325 457.203 -104.238C457.179 -104.099 457.153 -103.995 457.13 -103.856C458.818 -103.714 460.469 -103.604 462.123 -103.46C462.129 -103.392 462.134 -103.324 462.139 -103.256C461.501 -103.103 460.829 -102.948 459.618 -102.682C461.96 -102.489 463.721 -102.284 465.545 -102.153C472.742 -101.588 479.942 -100.988 486.643 -99.3223C487.656 -99.0594 489.074 -99.3074 489.959 -98.9317C493.036 -97.6667 496.77 -97.617 500.206 -96.9963C503.816 -96.3549 507.741 -96.0463 510.33 -94.0242C510.476 -93.8987 510.754 -93.852 510.963 -93.8C514.29 -92.8284 517.584 -91.8542 520.94 -90.9533C525.031 -89.8362 529.183 -88.8266 533.274 -87.7095C536.63 -86.8086 539.955 -85.8711 543.22 -84.8261C545.324 -84.1695 547.306 -83.3322 549.351 -82.5682C545.222 -82.4158 542.137 -84.2279 537.919 -83.8974C538.2 -83.3718 538.538 -82.9875 539.101 -82.792C541.667 -81.9319 544.298 -81.1112 546.895 -80.2877C547.246 -80.1783 547.5 -79.9928 547.788 -79.81C547.694 -79.7 547.6 -79.5899 547.506 -79.4799C544.016 -80.3361 540.18 -80.3778 536.537 -81.0165C533.032 -81.6319 529.451 -82.344 525.612 -82.4198C526.225 -82.0228 526.927 -81.8039 527.691 -81.6584C535.455 -79.9734 543.404 -78.5424 550.862 -76.3884C557.726 -74.3932 564.556 -72.3953 571.107 -70.0333C574.274 -68.9123 577.408 -67.7887 580.451 -66.5209C581.511 -66.0906 582.54 -65.6235 583.64 -65.1278C582.144 -64.5656 581.197 -64.423 580.165 -65.369C579.24 -66.2549 577.402 -66.5559 575.495 -66.4407C574.576 -66.3688 573.619 -66.3622 572.755 -66.4657C568.541 -66.957 564.359 -67.4851 560.177 -68.0132C559.624 -68.0726 559.064 -68.2341 558.481 -68.2568C557.934 -68.2482 557.112 -68.2523 556.822 -68.0242C555.724 -67.1851 554.711 -67.448 553.8 -67.7189C549.002 -69.1229 543.467 -68.9974 538.317 -69.6549C536.935 -69.8205 535.581 -70.0568 534.145 -70.0469C530.861 -70.0292 527.911 -70.5512 525.013 -71.2825C524.21 -71.4934 523.247 -71.5549 522.362 -71.4856C520.897 -71.405 519.408 -71.1857 517.611 -70.9764C525.925 -68.821 534.178 -67.0031 542.619 -65.4053C540.144 -65.5537 537.702 -65.7046 535.226 -65.853C540.17 -63.9127 546.131 -63.3871 551.1 -61.5515C551.04 -61.4441 550.983 -61.3027 550.957 -61.198C549.895 -61.2175 548.83 -61.2709 547.73 -61.3217C554.256 -59.7108 560.675 -58.1599 567.096 -56.575C564.185 -55.7308 562.486 -57.7542 559.502 -56.9727C560.046 -55.2696 561.463 -54.2168 563.602 -53.5629C565.565 -52.9637 567.529 -52.3645 569.492 -51.7652C568.295 -50.8842 569.18 -50.5085 569.855 -50.1849C573.155 -48.6977 576.485 -47.2472 579.881 -45.836C582.463 -44.7718 585.332 -43.9697 587.72 -42.7534C589.964 -41.6286 592.42 -40.8625 594.977 -40.1045C597.501 -39.3438 599.899 -38.4364 602.36 -37.6023C601.931 -37.3975 601.625 -37.3735 601.382 -37.4229C597.086 -38.524 592.791 -39.6251 588.495 -40.7262C586.924 -41.1166 585.348 -41.575 583.715 -41.892C582.88 -42.0662 581.958 -42.4732 580.756 -41.6601C582.421 -40.9349 583.982 -40.2356 585.647 -39.5104C584.48 -37.8102 585.773 -37.0216 587.266 -36.317C587.834 -36.0534 588.471 -35.7952 589.167 -35.6444C591.465 -35.1399 593.795 -34.672 596.124 -34.2042C596.577 -34.1028 597.001 -33.9306 597.423 -33.7925C596.928 -33.5484 596.622 -33.5244 596.311 -33.5685C591.498 -34.2867 586.257 -33.9103 581.564 -34.8433C581.354 -34.8954 581.048 -34.8714 580.81 -34.8528C578.045 -34.3281 575.336 -34.3897 572.908 -34.8155C572.128 -34.2753 571.506 -33.9185 570.957 -33.4989C570.152 -32.854 570.252 -32.451 571.265 -32.1881C571.93 -32.0006 572.815 -32.0699 573.341 -31.4608C568.901 -31.3525 565.152 -32.4622 560.714 -32.3199C561.119 -31.0851 562.106 -30.7175 563.457 -30.5152C566.679 -30.0146 569.242 -28.7436 571.963 -27.656C569.793 -27.8283 567.655 -28.0373 565.668 -28.4978C560.514 -29.6343 555.36 -30.7708 549.966 -31.4778C549.275 -31.5606 548.304 -31.7241 547.776 -31.4773C546.688 -30.9471 545.973 -31.3361 545.175 -31.4789C544.41 -31.6244 543.701 -31.9453 542.908 -32.0201C538.736 -32.4121 534.533 -32.7674 530.333 -33.0887C529.197 -33.1708 528.038 -33.1142 526.873 -33.1257C526.811 -33.0523 526.785 -32.9476 526.722 -32.8742C527.534 -32.5613 528.348 -32.2143 529.688 -31.7032C528.435 -31.5366 527.763 -31.3812 527.145 -31.4013C525.392 -31.5035 523.727 -31.7839 521.979 -31.8181C518.894 -31.8844 515.822 -32.2256 512.604 -31.3574C512.502 -31.3494 512.403 -31.3074 512.34 -31.234C510.786 -31.4203 509.197 -31.6039 507.64 -31.8241C507.611 -31.7534 507.548 -31.6801 507.522 -31.5753C508.494 -30.9669 509.466 -30.3584 510.613 -29.6952C509.702 -29.5212 509.027 -29.3999 508.386 -29.2812C505.323 -28.6305 502.315 -27.7102 499.169 -28.1141C498.235 -28.2463 497.126 -27.9882 496.103 -27.9423C496.108 -27.8743 496.079 -27.8035 496.085 -27.7355C496.744 -27.616 497.438 -27.4992 498.095 -27.4138C498.066 -27.3431 498.04 -27.2383 498.011 -27.1676C495.426 -26.9651 492.844 -26.7286 490.191 -26.5207C490.32 -26.1885 490.409 -25.9217 490.498 -25.6548L490.53 -25.6915C489.546 -25.5802 488.531 -25.4322 487.547 -25.3209C486.969 -25.2756 486.275 -25.3924 485.81 -25.219C483.888 -24.4181 482.121 -24.6904 480.391 -24.9314C479.213 -25.1129 478.114 -25.1637 476.921 -24.6596C476.058 -24.763 475.186 -24.9686 474.336 -24.902C468.99 -24.5516 463.653 -24.0992 458.31 -23.7148C457.085 -23.6189 455.855 -23.591 454.636 -23.427C457.994 -22.9371 467.155 -23.5178 476.95 -24.7303C477.714 -24.5848 478.484 -24.3712 479.277 -24.2964C482.648 -24.0813 486.052 -23.8689 489.454 -23.6904C494.817 -23.3917 500.309 -23.6166 505.452 -22.6162C507.329 -22.2498 509.477 -22.3497 511.505 -22.2347C515.046 -22.0329 518.563 -21.6924 522.13 -21.5953C532.213 -21.3242 542.092 -20.5921 551.659 -19.0482C553.807 -18.7031 555.925 -18.3214 558.042 -17.9396C556.428 -17.5736 554.898 -17.4536 553.393 -17.4384C550.182 -17.358 547.001 -17.3483 543.793 -17.2339C543.246 -17.2253 542.592 -16.8318 542.032 -16.5484C541.175 -16.1389 540.542 -15.4732 539.331 -15.6521C536.98 -15.9472 534.604 -16.1375 532.228 -16.3279C531.367 -16.3973 530.474 -16.4301 529.613 -16.4995C529.553 -16.3921 529.527 -16.2874 529.467 -16.18C531.962 -15.7936 534.49 -15.4097 536.987 -14.9893C536.051 -14.7105 535.234 -14.6466 534.41 -14.6847C532.518 -14.8103 530.649 -15.0746 528.76 -15.1662C526.972 -15.2657 525.169 -15.5694 523.267 -14.9412C521.131 -16.0061 518.402 -15.45 515.72 -15.6164C517.292 -14.3361 520.388 -14.1337 523.299 -14.9779C522.837 -14.3256 522.945 -13.8206 523.986 -13.6284C524.471 -13.5636 524.923 -13.4622 525.41 -13.3634C520.169 -12.987 511.936 -11.9312 510.513 -11.3063C512.581 -11.126 514.512 -10.9351 516.444 -10.7441C516.823 -10.7054 517.381 -10.5779 517.428 -10.4105C517.603 -9.05496 519.08 -9.85529 520.017 -9.6891C520.192 -10.0793 520.307 -10.3621 520.476 -10.8204C522.866 -10.4599 525.333 -10.4137 527.234 -9.74109C528.747 -9.20929 530.197 -9.04906 531.846 -8.97285C535.041 -8.81244 538.213 -8.51329 541.552 -8.26148C540.669 -7.30233 539.832 -7.0656 538.699 -7.11374C535.64 -7.28481 532.549 -7.4192 529.464 -7.48554C527.373 -7.5271 525.288 -7.50062 523.168 -7.47147C519.275 -7.3718 515.381 -7.27212 511.493 -7.1044C507.775 -6.95002 504.028 -6.72491 500.315 -6.50247C499.907 -6.47049 499.462 -6.46988 499.051 -6.47192C495.532 -6.40156 491.976 -6.36255 488.456 -6.29218C488.079 -6.29689 487.624 -5.98742 486.829 -5.6513C487.523 -5.53449 487.808 -5.38571 488.078 -5.44105C490.448 -5.76368 492.686 -5.15175 495.137 -5.75454C496.346 -6.05461 497.655 -5.95174 498.754 -5.45601C499.322 -5.19246 500.121 -5.04962 500.835 -5.10559C502.609 -5.17612 504.401 -5.45346 506.144 -5.48731C510.312 -5.57428 514.689 -6.49906 518.691 -5.64883C519.073 -5.57608 519.518 -5.57671 519.96 -5.61135C525.405 -6.00372 530.493 -5.27278 535.716 -4.99744C538.776 -4.82637 541.697 -4.23373 544.98 -4.69636C545.859 -4.83369 546.932 -4.67815 547.605 -4.38859C549.799 -3.46515 552.374 -3.35883 555.007 -3.39393C555.554 -3.40254 556.114 -3.24106 556.635 -3.14495C556.575 -3.03756 556.549 -2.93285 556.489 -2.82545C555.474 -2.67746 554.493 -2.53214 553.276 -2.33415C553.609 -2.01793 553.659 -1.81646 553.868 -1.76441C554.994 -1.3734 556.151 -1.01907 557.277 -0.62806C558.295 -0.297102 559.763 -0.343651 560.571 0.791102C558.283 0.42266 556.354 0.265702 554.676 -0.184724C549.506 -1.52536 544.084 -2.16161 538.235 -2.11415C536.629 -2.09096 534.782 -1.6382 533.499 -1.84578C530.309 -2.38309 526.967 -0.478286 523.92 -1.36911C523.815 -1.39514 523.619 -1.27707 523.452 -1.22973C521.686 -0.612202 519.944 -0.578358 518.188 -0.714616C517.672 -0.742678 517.102 -0.595308 516.558 -0.552669C516.5 -0.411258 516.477 -0.272513 516.417 -0.165124C517.354 0.00107068 518.291 0.167253 519.259 0.296762C521.123 0.493059 522.989 0.723376 524.876 0.78093C528.547 0.904024 532.245 0.922394 535.911 0.977454C537.418 0.996284 538.868 1.15653 540.378 1.20938C543.222 1.26035 546.064 1.2773 548.911 1.36229C549.665 1.37171 550.557 1.40449 550.93 2.23102C550.25 2.28431 549.776 2.35564 549.329 2.32224C548.261 2.23475 547.245 1.93782 546.186 1.95239C541.292 1.95924 536.404 2.03414 531.485 2.14572C530.493 2.15496 529.455 2.4417 528.448 2.69175C528.178 2.74708 527.967 3.10594 527.617 3.44144C530.893 3.32169 533.894 3.18924 536.9 3.12483C537.481 3.11355 538.201 3.12563 538.562 3.37114C540.116 4.41324 541.944 4.16728 544.005 3.38968C544.97 4.78594 546.823 4.84616 548.812 4.89572C550.39 4.94323 551.856 5.30759 553.379 5.53054C552 5.84392 550.739 5.90851 549.501 5.83434C546.754 5.70733 544.006 5.58032 541.284 5.34858C539.664 5.20166 538.477 5.77389 537.903 6.74308C537.294 7.71492 536.449 7.8496 535.222 7.91151C533.791 7.98942 532.25 7.97325 530.91 8.35201C529.168 8.83079 527.536 8.95871 525.856 8.91919C524.518 8.88704 523.204 8.71615 521.873 8.75203C520.062 8.79122 518.224 8.4902 516.388 9.07904C516.061 11.0215 515.306 11.423 512.553 11.2279C511.244 11.1251 509.868 11.0275 508.546 11.1995C506.173 11.4881 503.814 11.9468 501.491 12.4369C499.066 12.935 496.699 13.7365 494.263 14.0985C491.997 14.4472 490.133 15.1067 488.664 16.454C488.567 16.53 488.366 16.5801 488.565 16.496C486.607 16.4098 484.94 16.0955 483.312 16.2914C480.194 16.6727 477.065 17.3628 473.923 17.8828C473.416 17.9568 472.906 17.9967 472.398 18.0707C468.675 18.602 464.871 18.9685 461.203 19.7693C459.487 20.1434 457.902 20.4387 456.225 20.4332C455.984 20.4178 455.678 20.4418 455.476 20.4918C452.374 21.5221 449.116 21.4351 445.928 22.2326C443.008 22.9748 439.947 23.2146 436.939 23.6899C434.976 23.9806 433.048 24.2685 431.086 24.5592C429.43 24.8259 427.698 24.9958 426.092 25.4639C423.013 26.3555 419.884 26.6006 416.771 27.0499C415.756 27.1979 414.743 27.3799 413.728 27.5279C411.531 27.8712 409.331 28.1805 407.133 28.5239C405.613 28.7799 404.13 29.0672 402.61 29.3232C401.833 29.4526 401.087 29.5452 400.31 29.6746C397.945 30.0652 395.649 30.8955 393.236 30.6738C392.788 30.6404 392.218 30.7877 391.713 30.8958C390.635 31.1171 389.558 31.3385 388.21 31.6152C387.785 32.2989 386.922 32.6403 385.522 32.6816C384.02 32.7308 382.474 33.0915 380.993 33.4129C380.018 33.6262 379.207 33.7582 378.327 33.4506C377.309 33.1197 376.231 33.341 374.952 33.6124C373.102 34.0311 371.433 34.5726 369.783 35.3523C369.221 35.6017 368.47 35.6263 367.793 35.7136C366.61 35.909 365.42 36.0022 364.24 36.2316C361.883 36.7243 359.524 37.6279 357.208 37.7751C353.872 38.0023 350.663 38.9725 347.358 39.163C345.485 39.2755 343.502 39.739 341.777 39.566C339.466 39.3363 337.596 39.9278 335.64 40.7314C335.078 40.9809 334.277 41.249 333.756 41.1529C332.754 41.026 331.862 40.9932 331.305 41.7556C330.846 42.442 330.865 43.1251 331.693 43.6421C332.196 43.945 332.471 44.4027 332.806 44.7529C332.613 44.905 332.55 44.9783 332.482 44.9837C329.73 45.2335 327.034 44.8971 324.196 45.804C323.228 46.1194 321.975 45.8411 320.603 45.8117C321.019 45.4368 321.17 45.1853 321.304 45.1407C322.897 44.9474 324.488 44.7201 326.092 44.6628C328.243 44.597 329.071 43.8133 328.41 42.359C326.557 42.2988 324.522 42.9717 322.789 42.2517C322.435 42.1083 321.227 42.4084 320.942 42.7045C319.993 43.703 318.79 43.6262 317.5 43.7615C316.074 43.9074 314.661 44.2235 313.246 44.5055C312.908 44.5662 312.48 44.7709 312.27 44.7189C310.932 44.2418 309.499 44.7306 308.154 45.0413C304.955 45.7027 301.795 46.4295 298.635 47.1563C298.332 47.2143 298.073 47.4057 297.218 47.8492C298.552 47.8474 299.351 47.9902 300.057 47.8322C301.841 47.4528 303.406 47.3302 304.632 48.1241C307.067 47.3172 309.387 46.7931 311.896 46.4939C314.269 46.2053 316.645 45.9507 319.347 45.4994C317.656 47.0695 315.883 47.5849 313.795 47.5774C312.973 47.5733 312.099 47.7787 311.252 47.8793C310.132 48.0013 309.012 48.1232 307.555 48.3059C306.805 49.2203 305.667 49.5491 303.953 49.0673C303.112 48.8251 301.804 49.1671 300.724 49.3545C298.764 49.6792 296.844 50.0692 294.887 50.4279C294.315 50.5412 293.702 50.5892 293.135 50.7706C290.896 51.4594 288.349 50.8375 286.265 52.1988C286.2 52.2381 285.956 52.1887 285.815 52.1313C284.975 51.8891 284.248 52.2199 283.379 52.4933C281.18 53.2475 279.007 54.342 276.507 53.8875C276.358 54.173 276.236 54.3537 276.212 54.4925C276.194 54.6993 276.276 54.864 276.292 55.0682C273.671 55.6843 273.671 55.6842 272.693 54.5628C274.002 55.1106 274.756 55.12 275.299 54.1875ZM155.732 -44.4381C154.512 -44.2741 153.037 -44.3297 153.106 -43.0002C152.293 -42.9022 151.479 -42.8042 150.665 -42.7063C150.673 -42.6042 150.718 -42.4708 150.726 -42.3687C151.498 -42.5661 152.301 -42.8002 153.106 -43.0002C153.99 -43.5144 154.845 -43.9579 155.732 -44.4381ZM266.19 -82.598C263.226 -81.9892 260.034 -81.6707 257.309 -80.6357C254.652 -79.606 251.774 -79.2094 249.154 -78.1483C247.893 -77.6388 246.365 -77.4849 244.989 -77.1375C243.242 -76.7267 241.531 -76.2846 239.781 -75.9079C236.684 -75.2545 233.873 -74.0074 230.933 -73.0924C229.264 -72.551 227.656 -71.6719 225.782 -72.0043C225.575 -72.0223 225.274 -71.9303 225.042 -71.8436C221.607 -70.6846 218.176 -69.4916 214.776 -68.3352C214.777 -67.4453 215.497 -67.4333 216.297 -67.7013C217.265 -68.0168 218.191 -68.4316 219.158 -68.747C224.4 -70.4242 229.77 -71.7691 235.054 -73.3469C241.742 -75.3427 248.509 -77.2078 255.276 -79.0729C258.558 -79.9805 261.917 -80.7913 265.202 -81.6648C265.94 -81.8596 266.638 -82.1196 267.337 -82.3797C267.263 -82.4424 267.221 -82.5418 267.148 -82.6045C266.839 -82.6146 266.494 -82.656 266.19 -82.598ZM74.544 46.7087C73.8963 47.6152 73.3087 48.4143 72.567 49.4308C72.3603 49.4128 71.8447 49.3847 71.1538 49.3019C70.4748 50.2451 69.8011 51.2563 69.0334 52.3776C71.6871 52.6146 74.3642 52.713 76.892 50.9061C78.6408 49.6395 78.5268 48.6216 76.3486 47.9023C76.5314 47.6141 76.7455 47.2893 76.9256 46.9671C77.1084 46.679 77.2598 46.4275 77.4712 46.0686C76.4762 45.5989 75.5178 45.1606 74.3447 44.6021C73.8171 45.2938 73.3469 45.8441 72.7253 46.6459C73.6516 46.676 74.0991 46.7094 74.544 46.7087ZM338.77 -99.717C339.583 -100.26 340.333 -101.174 341.485 -100.443C343.107 -101.152 344.994 -100.65 346.639 -101.497C347.099 -101.739 347.983 -101.808 348.507 -101.678C350.315 -101.306 351.73 -102.033 353.55 -102.826C352.718 -102.966 352.15 -103.23 351.608 -103.153C349.505 -102.92 347.375 -102.582 345.28 -102.247C342.067 -101.755 338.857 -101.23 335.644 -100.739C330.608 -99.9333 325.541 -99.0913 320.505 -98.286C320.269 -98.2333 320.036 -98.1466 319.814 -97.9238C322.821 -97.9882 325.805 -98.7697 329.102 -99.0623C328.511 -98.7421 328.15 -98.5427 327.79 -98.3433C331.483 -99.2488 335.021 -100.827 338.77 -99.717ZM126.397 101.384C124.863 101.025 123.706 100.67 122.458 100.46C122.076 100.387 121.437 100.54 121.008 100.745C119.191 101.572 117.41 102.43 115.629 103.288C115.266 103.454 114.874 103.69 114.691 103.978C114.446 104.34 114.182 104.908 114.402 105.096C114.698 105.381 115.426 105.495 116.046 105.549C116.392 105.59 116.888 105.38 117.255 105.249C119.08 104.524 120.9 103.731 122.762 103.038C123.296 102.859 123.987 102.942 125.01 102.896C125.417 102.419 125.893 101.937 126.397 101.384ZM544.51 -62.6782C537.665 -63.9903 531.155 -65.842 524.007 -66.6512C523.732 -66.6639 523.369 -66.4985 522.932 -66.3958C523.993 -65.5206 525.229 -65.0355 526.938 -65.0667C530.59 -65.1817 533.646 -64.1888 536.912 -63.5548C540.179 -62.9208 543.351 -62.1767 546.587 -61.506C546.681 -61.616 546.738 -61.7574 546.832 -61.8675C546.023 -62.1464 545.345 -62.504 544.51 -62.6782ZM495.592 -15.2375C499.002 -15.4019 502.377 -15.5636 505.76 -15.6234C506.647 -15.6586 507.582 -15.5265 508.32 -15.2762C509.726 -14.8045 511.147 -15.0185 512.931 -15.3979C510.734 -16.3553 508.303 -16.3702 505.956 -16.1863C502.963 -15.9518 500.142 -16.1415 497.255 -16.2919C495.708 -16.3761 494.112 -16.2169 492.336 -16.1803C493.099 -15.179 494.328 -15.2069 495.592 -15.2375ZM199.246 -62.566C199.204 -62.6654 199.198 -62.7334 199.156 -62.8328C198.576 -62.8215 198.026 -62.8469 197.45 -62.7676C196.637 -62.6696 195.506 -62.6837 195.057 -62.3062C193.601 -61.2337 191.793 -61.1605 190.155 -60.6557C187.916 -59.9669 185.835 -59.0165 183.714 -58.1315C183.416 -58.0055 183.236 -57.6833 183.016 -57.4265C183.124 -57.3665 183.231 -57.3064 183.338 -57.2464C188.64 -59.0309 193.942 -60.8154 199.246 -62.566ZM295.557 -88.664C297.401 -89.1508 299.529 -89.0779 301.139 -90.3678C300.524 -90.3539 299.83 -90.4707 299.294 -90.326C293.78 -88.6275 287.893 -88.2005 282.424 -86.3686C282.472 -86.2012 282.55 -86.0704 282.598 -85.903C286.943 -86.7911 291.335 -87.5118 295.557 -88.664ZM59.4543 51.1085C59.3402 51.8363 58.7478 53.0123 60.5072 53.6275C61.7871 52.0553 63.0724 50.5512 64.2503 48.9871C64.4698 48.7303 64.2704 48.3694 64.2984 47.8537C62.0128 48.8201 59.7398 49.5116 59.4543 51.1085ZM365.844 -104.474C362.275 -104.605 358.858 -104.098 355.316 -102.999C355.772 -102.863 356.196 -102.691 356.643 -102.658C357.504 -102.588 358.394 -102.589 359.281 -102.625C359.723 -102.659 360.299 -102.739 360.626 -102.935C361.771 -103.607 362.867 -103.59 364.066 -103.137C364.777 -103.671 365.264 -104.018 365.844 -104.474ZM297.373 -86.8895C297.35 -86.7507 297.324 -86.646 297.3 -86.5072C297.751 -86.4398 298.243 -86.273 298.68 -86.3757C302.418 -87.1478 306.156 -87.9199 309.889 -88.76C310.763 -88.9654 311.552 -89.3695 312.384 -89.6743C312.308 -89.771 312.229 -89.9018 312.187 -90.0012C307.241 -88.929 302.325 -87.8936 297.373 -86.8895ZM474.934 -29.5013C478.831 -28.6771 483.025 -29.3137 487.13 -29.7723C483.152 -30.3163 479.088 -30.2033 474.934 -29.5013ZM281.096 -85.8538C278.353 -85.9128 274.422 -84.9886 268.563 -82.8866C271.635 -82.9903 279.524 -84.9434 281.096 -85.8538ZM212.533 -66.8245C210.91 -67.0055 209.465 -67.5426 207.897 -66.1532C207.129 -65.4769 205.507 -65.2129 204.241 -64.7715C203.409 -64.4667 202.575 -64.1959 201.706 -63.9225C201.79 -63.7237 201.872 -63.559 201.956 -63.3602C205.492 -64.5272 208.994 -65.6915 212.533 -66.8245ZM85.2779 4.62145C83.9499 5.58122 82.5199 6.549 81.1973 7.57681C80.489 8.14574 79.9928 8.80075 79.3891 9.39571C79.5305 9.45309 79.6746 9.54449 79.816 9.60187C82.7452 8.55087 85.3271 6.12368 85.2779 4.62145ZM444.956 -84.076C444.72 -84.9132 443.687 -84.5584 442.868 -84.5285C443.703 -85.655 442.134 -85.1556 441.333 -85.3324C441.298 -84.4739 441.265 -83.5814 441.248 -82.4847C442.784 -82.9816 443.919 -83.3443 444.988 -83.6677C444.964 -83.9739 444.959 -84.042 444.956 -84.076ZM176.946 -55.4106C174.185 -55.2627 172.221 -54.5612 170.462 -53.4307C172.801 -53.2717 174.86 -53.6384 176.946 -55.4106ZM292.198 49.3036C293.111 48.7187 293.817 48.5607 294.924 48.7135C296.068 48.8978 296.609 48.3762 296.639 47.4496C294.426 48.0337 292.148 48.6572 289.901 49.244C289.948 49.4115 289.959 49.5475 290.006 49.715C290.715 49.591 291.71 49.6157 292.198 49.3036ZM51.3186 76.5622C53.4922 75.9127 53.4922 75.9127 55.1683 73.2826C53.5043 73.4472 53.0575 73.8588 51.3186 76.5622ZM321.157 -93.8873C318.427 -94.2211 316.379 -93.7183 314.68 -92.6952C316.603 -92.6063 318.665 -92.939 321.157 -93.8873ZM416.502 -104.37C419.055 -104.535 421.011 -104.038 423.666 -104.657C421.224 -105.253 419.222 -105.473 416.502 -104.37ZM302.118 -90.1022C304.682 -90.5769 306.772 -90.9803 309.131 -91.439C307.179 -91.9021 303.736 -91.2901 302.118 -90.1022ZM465.55 -7.74929C467.422 -7.006 469.065 -6.99782 470.809 -7.88752C468.899 -7.80632 467.414 -8.40884 465.55 -7.74929ZM505.199 -69.5248C506.569 -68.6394 509.44 -68.2483 512.784 -68.3733C510.541 -69.0533 508 -69.1623 505.199 -69.5248ZM449.214 -104.434C447.043 -105.051 444.566 -104.788 442.098 -104.835C444.154 -103.935 446.806 -104.587 449.214 -104.434ZM321.641 -93.8225C323.694 -93.4014 325.129 -94.3011 327.148 -94.7332C324.957 -95.1777 323.456 -94.6835 321.641 -93.8225ZM181.821 -56.9563C180.225 -56.7971 180.225 -56.7971 178.353 -55.7947C179.955 -55.441 180.862 -56.0939 181.821 -56.9563ZM258.238 -84.5079C258.277 -84.4425 258.282 -84.3745 258.319 -84.3431C260.399 -84.8826 262.51 -85.4587 264.589 -85.9982C264.584 -86.0662 264.544 -86.1316 264.508 -86.1629C262.428 -85.6235 260.349 -85.084 258.238 -84.5079ZM169.723 -52.3801C167.969 -52.4824 166.907 -52.0569 165.734 -50.8696C166.932 -51.3058 168.127 -51.7759 169.723 -52.3801ZM426.24 -104.996C426.217 -104.857 426.228 -104.721 426.204 -104.582C427.397 -104.641 428.625 -104.703 429.82 -104.728C429.841 -104.901 429.825 -105.105 429.846 -105.278C428.655 -105.185 427.465 -105.092 426.24 -104.996ZM61.2529 22.5231C62.7649 22.165 62.8556 21.576 62.8257 20.7568C60.8635 21.0475 61.4324 21.756 61.2529 22.5231ZM450.508 -6.22853C451.412 -5.61474 452.259 -5.71538 453.075 -6.22427C453.062 -6.39437 453.017 -6.52779 453.004 -6.69789C452.159 -6.56323 451.316 -6.39455 450.508 -6.22853ZM57.5581 51.8048C56.7057 52.2823 56.0494 52.6418 55.035 53.2347C57.1418 53.4804 57.1418 53.4804 57.5581 51.8048ZM112.131 110.614C112.262 110.98 112.221 111.325 112.43 111.378C113.237 111.622 113.977 111.462 114.737 110.683C113.845 110.651 113.159 110.636 112.131 110.614ZM478.072 -8.66193C478.046 -8.55721 478.057 -8.42113 478.031 -8.3164C479.224 -8.37565 480.42 -8.40089 481.613 -8.46014C481.6 -8.63024 481.589 -8.76632 481.576 -8.93642C480.385 -8.84315 479.229 -8.75254 478.072 -8.66193ZM109.474 108.152C108.938 108.742 108.562 109.182 108.027 109.771C110.261 109.46 110.261 109.46 109.474 108.152ZM410.527 -104.62C408.889 -104.56 407.83 -104.546 406.738 -104.495C406.749 -104.358 406.762 -104.188 406.739 -104.05C407.814 -104.305 408.828 -103.597 410.527 -104.62ZM66.588 18.5452C67.7732 18.3839 68.4508 18.2966 69.1597 18.1726C69.1464 18.0025 69.1358 17.8664 69.1224 17.6963C68.3395 17.3127 67.6412 17.5728 66.588 18.5452ZM454.786 -103.193C456.234 -102.622 456.234 -102.622 457.756 -103.289C456.833 -103.285 455.98 -103.252 454.786 -103.193ZM57.2753 22.4239C58.1904 21.873 58.7787 21.5189 59.4009 21.1621C58.3412 21.1766 57.4228 21.2486 57.2753 22.4239ZM459.129 -16.317C458.948 -16.4398 458.799 -16.5992 458.629 -16.5859C458.153 -16.5486 457.648 -16.4406 456.737 -16.2665C457.746 -15.6267 458.371 -15.5046 459.129 -16.317ZM442.874 -4.94585C442.895 -5.11861 442.918 -5.25736 442.905 -5.42746C442.12 -5.40019 441.369 -5.37558 440.584 -5.34831C440.566 -5.14152 440.545 -4.96876 440.493 -4.7593C441.312 -4.78925 442.092 -4.88455 442.874 -4.94585ZM449.148 -5.677C449.174 -5.78172 449.169 -5.84977 449.195 -5.95449C448.203 -5.94525 447.175 -5.96736 446.183 -5.95812C446.23 -5.79068 446.244 -5.62058 446.291 -5.45314C447.243 -5.52776 448.196 -5.60238 449.148 -5.677ZM554.152 -57.9911C554.277 -58.1379 554.402 -58.2846 554.491 -58.4627C553.894 -58.6555 553.263 -58.8457 552.666 -59.0386C552.51 -58.8551 552.389 -58.6403 552.233 -58.4569C552.861 -58.3008 553.489 -58.1446 554.152 -57.9911ZM456.012 -14.601C455.986 -14.4962 455.96 -14.3915 455.934 -14.2868C456.722 -14.28 457.509 -14.2733 458.297 -14.2665C458.318 -14.4393 458.305 -14.6094 458.325 -14.7822C457.546 -14.6869 456.761 -14.6596 456.012 -14.601ZM522.233 -9.79429C522.512 -8.8577 523.062 -8.8323 524.105 -9.49592C523.587 -9.55801 523.066 -9.65412 522.233 -9.79429ZM453.883 -103.362C453.224 -103.481 453.082 -103.539 452.946 -103.528C452.638 -103.538 452.292 -103.58 451.955 -103.519C451.751 -103.503 451.52 -103.382 451.285 -103.329C451.296 -103.193 451.306 -103.057 451.317 -102.921C451.992 -103.043 452.67 -103.13 453.883 -103.362ZM67.0734 1.15294C67.1468 1.21565 67.2568 1.30971 67.3302 1.37243C67.725 1.17034 68.1172 0.934248 68.512 0.732166C68.402 0.638103 68.2919 0.544024 68.1819 0.44996C67.8237 0.683391 67.4656 0.916837 67.0734 1.15294ZM502.875 -29.7394C501.503 -30.2138 501.072 -29.5981 500.602 -29.0478C501.238 -29.2346 501.873 -29.4213 502.875 -29.7394ZM462.065 -7.23666C461.913 -7.43012 461.528 -7.53689 461.185 -7.54426C461.015 -7.53094 460.801 -7.20611 460.574 -7.05137C460.856 -6.9366 461.108 -6.78515 461.998 -6.34146C462.065 -6.79172 462.214 -7.07721 462.065 -7.23666ZM492.028 -11.8091C492.005 -11.6704 491.981 -11.5316 491.958 -11.3929C492.641 -11.4121 493.324 -11.4314 494.009 -11.4167C494.03 -11.5894 494.087 -11.7309 494.108 -11.9036C493.425 -11.8843 492.708 -11.8624 492.028 -11.8091ZM353.497 -101.316C353.505 -101.214 353.479 -101.109 353.487 -101.007C354.136 -101.024 354.817 -101.077 355.466 -101.094C355.486 -101.266 355.473 -101.436 355.494 -101.609C354.816 -101.522 354.172 -101.437 353.497 -101.316ZM313.81 -96.8031C313.813 -96.7691 313.816 -96.735 313.821 -96.667C314.159 -96.7277 314.499 -96.7543 314.802 -96.8123C315.174 -96.8757 315.506 -97.0044 315.875 -97.1017C315.83 -97.2351 315.788 -97.3345 315.743 -97.4679C315.11 -97.2472 314.443 -97.0238 313.81 -96.8031ZM62.0262 47.2445C61.9529 47.1818 61.8455 47.1217 61.7721 47.059C61.4453 47.2558 61.1185 47.4525 60.823 47.6126C60.9671 47.704 61.0771 47.7981 61.2212 47.8895C61.4773 47.664 61.7701 47.4699 62.0262 47.2445ZM61.8066 10.8075C61.88 10.8702 61.9533 10.9329 62.024 10.9616C62.3822 10.7282 62.7403 10.4947 63.1352 10.2926C62.9571 10.2039 62.7791 10.1152 62.635 10.0238C62.3475 10.2859 62.0941 10.5454 61.8066 10.8075ZM54.4447 83.2658C54.3687 83.1691 54.3293 83.1037 54.2533 83.007C53.8898 83.1724 53.5237 83.3038 53.1602 83.4691C53.2362 83.5659 53.2755 83.6312 53.3516 83.728C53.7177 83.5966 54.0812 83.4312 54.4447 83.2658ZM275.748 -81.6011C275.787 -81.5357 275.793 -81.4677 275.832 -81.4023C276.47 -81.555 277.106 -81.7417 277.744 -81.8944C277.739 -81.9625 277.699 -82.0278 277.66 -82.0932C277.022 -81.9405 276.384 -81.7878 275.748 -81.6011ZM57.4429 49.897C57.4115 49.9337 57.6603 50.0511 57.8043 50.1425C57.9297 49.9957 58.0918 49.8803 58.1805 49.7022C58.2119 49.6656 58.0338 49.5768 57.8897 49.4854C57.7303 49.6348 57.5342 49.7529 57.4429 49.897ZM515.989 -8.24397C515.963 -8.13925 515.937 -8.03452 515.909 -7.96381C516.354 -7.96444 516.798 -7.96506 517.243 -7.96568C517.269 -8.07041 517.295 -8.17514 517.324 -8.24584C516.845 -8.24256 516.4 -8.24193 515.989 -8.24397Z" fill="white"/>
</g>
<circle cx="36.3703" cy="35.5516" r="35.4857" fill="#1066AA"/>
<mask id="mask1" mask-type="alpha" maskUnits="userSpaceOnUse" x="6" y="13" width="60" height="40">
<path fill-rule="evenodd" clip-rule="evenodd" d="M41.5629 13.5513C41.2048 13.7883 40.7849 14.7926 40.2445 16.7042C39.9526 17.737 39.6673 18.454 39.6077 18.304C39.5485 18.1545 39.4275 17.3091 39.3389 16.425C39.1843 14.8837 39.0173 14.5098 38.48 14.5024C37.9077 14.4946 37.7825 15.0949 37.767 17.9219C37.7584 19.4772 37.6874 21.4833 37.609 22.38C37.4757 23.9039 37.4927 24.0434 37.8668 24.5146C38.7506 25.6275 40.9559 26.3227 42.0937 25.8472C43.0597 25.4438 44.7852 24.2246 46.2223 22.9302C47.06 22.1757 47.7111 21.7411 48.1183 21.6648C49.3116 21.4409 48.7083 20.4416 47.3799 20.4416C46.71 20.4416 46.218 20.6675 45.2705 21.4099C44.9075 21.6943 44.5609 21.9271 44.5006 21.9271C44.1868 21.9271 44.5129 21.038 45.6589 18.7697C46.9618 16.191 47.1245 15.6136 46.6576 15.2263C46.1091 14.771 45.581 15.1556 44.9426 16.4752C44.6066 17.1699 44.1443 17.9674 43.9155 18.2476L43.4993 18.7569L43.8584 17.7935C44.601 15.8011 44.9654 14.1719 44.7562 13.7806C44.5346 13.3667 43.8145 13.2875 43.5184 13.6444C43.4126 13.7718 43.0687 14.587 42.7544 15.4558C42.4399 16.3246 42.1089 17.0812 42.0187 17.137C41.9285 17.1928 41.8546 17.2015 41.8546 17.1562C41.8546 17.0821 42.4881 14.9245 42.6756 14.3596C42.7517 14.1306 42.1599 13.4102 41.8999 13.4154C41.8253 13.4171 41.6734 13.4781 41.5629 13.5513ZM29.4582 14.2408C29.0987 14.6004 29.0799 14.4419 29.717 16.4306C30.0159 17.3636 30.2594 18.2281 30.258 18.3514C30.2565 18.4748 29.8408 17.8013 29.3341 16.8547C28.2131 14.7609 27.8029 14.2837 27.1868 14.3556C26.4734 14.4388 26.5172 15.079 27.3605 16.8938C27.7754 17.7868 28.0817 18.5505 28.0411 18.5909C28.0007 18.6313 27.6478 18.0935 27.2571 17.3955C26.5538 16.139 26.0814 15.7759 25.4602 16.0143C24.8624 16.2437 25.2807 17.5074 26.8169 20.1128C27.1257 20.6367 27.3448 21.0989 27.3036 21.14C27.2625 21.1811 26.7988 20.8655 26.2732 20.4387C24.5062 19.004 24.4761 18.9862 24.0058 19.1042C23.6937 19.1826 23.5595 19.3393 23.5636 19.6208C23.5712 20.1228 23.8461 20.4454 25.5294 21.9271C26.2651 22.5748 27.3127 23.7161 27.8571 24.4633C29.2623 26.3918 29.5942 26.6362 30.804 26.6323C32.4293 26.6273 34.0087 25.7403 34.5048 24.5539C34.8297 23.7775 35.1164 21.9404 35.2396 19.8473C35.3083 18.6826 35.4454 17.8877 35.6249 17.6134C36.1632 16.7922 35.6172 16.4236 34.6237 16.9373C34.0038 17.258 33.6011 18.0743 33.4311 19.3547C33.361 19.8828 33.2199 20.2868 33.1175 20.2527C32.8 20.1469 32.309 19.0241 31.6199 16.8283C30.8092 14.2448 30.1926 13.5066 29.4582 14.2408ZM49.56 23.2699C48.5602 24.3072 47.2402 25.4872 46.6268 25.892C44.9459 27.001 44.6957 27.3943 44.8029 28.7586C44.902 30.0185 45.5466 31.3278 46.3158 31.8319C47.0794 32.3321 48.5225 32.6274 51.0792 32.8062C52.688 32.9189 53.6507 33.0685 53.9259 33.2488C54.1547 33.3986 54.4174 33.5212 54.5099 33.5212C54.8043 33.5212 54.8891 33.0062 54.6891 32.4328C54.4525 31.7539 53.5505 31.26 52.2168 31.0789C50.5428 30.8517 51.2413 30.3493 54.7168 29.2814C55.8626 28.9294 56.9835 28.5119 57.2077 28.3537C57.8889 27.8729 57.6305 26.9968 56.8092 27.0019C56.605 27.0032 55.8028 27.207 55.0269 27.4548C52.9458 28.1195 52.7927 27.9948 54.584 27.0939C56.8318 25.9635 57.2854 25.6117 57.2179 25.0508C57.1135 24.1844 56.7249 24.1744 54.9092 24.992C53.9833 25.409 53.1867 25.7112 53.1393 25.6635C53.0569 25.5811 53.4485 25.3474 54.9246 24.5981C56.001 24.0518 55.9599 23.0141 54.8621 23.0141C54.3775 23.0141 52.1719 24.0684 50.7766 24.9671C50.1176 25.3916 50.3043 24.9762 51.292 23.8215C52.4603 22.4554 52.6721 22.0293 52.3663 21.6608C51.886 21.0822 51.3996 21.361 49.56 23.2699ZM22.7079 22.4422C22.3948 22.646 22.1084 23.3295 22.1084 23.8724C22.1084 24.3731 22.9492 25.9202 23.3588 26.1735C23.4682 26.241 23.5577 26.3729 23.5577 26.4668C23.5577 26.8626 22.6319 26.5666 20.3693 25.4474C18.5726 24.5588 17.8119 24.2722 17.3641 24.3152C16.8315 24.3662 16.7642 24.4336 16.7642 24.915C16.7642 25.4043 16.897 25.5286 18.1229 26.1862C19.58 26.9677 20.6715 27.6941 20.0251 27.4519C18.6735 26.9454 16.8148 26.4142 16.0921 26.328C15.3036 26.2338 15.2226 26.2619 15.0239 26.6981C14.7172 27.3709 14.9567 27.5782 16.8119 28.2459C19.2481 29.1229 19.6448 29.5269 17.3691 28.8135C15.6682 28.2803 15.0432 28.3856 15.0432 29.2055C15.0432 29.7133 15.8414 30.1118 18.0858 30.7242C19.2318 31.0368 20.0885 31.3428 19.9894 31.404C19.8903 31.4653 19.124 31.5702 18.2867 31.637C16.5744 31.774 16.1302 31.9348 16.1302 32.4185C16.1302 33.1709 16.4682 33.2357 20.1157 33.1839C21.2615 33.1676 22.5251 33.2348 22.9236 33.3334C24.1625 33.6397 25.7044 33.5653 26.2564 33.1723C27.0506 32.6066 27.7993 31.0504 27.8007 29.9618C27.8018 29.147 27.6901 28.8608 26.9169 27.6974C26.4301 26.9648 25.6125 25.9171 25.1 25.3691C23.7751 23.9523 23.3765 23.3856 23.3765 22.9184C23.3765 22.4909 23.0214 22.2378 22.7079 22.4422ZM61.2816 34.2912C60.9704 34.6772 61.3513 35.2821 62.0508 35.5131C63.0923 35.8567 64.4993 35.3312 64.4993 34.5984C64.4993 34.1214 64.024 33.9508 63.6321 34.287C63.0954 34.7473 62.7276 34.7823 62.2631 34.4169C61.741 34.0062 61.5327 33.9796 61.2816 34.2912ZM6.90908 36.1265C6.76578 36.2991 6.71687 37.3797 6.75093 39.6138C6.80038 42.8391 6.80201 42.851 7.21813 42.9101C7.95309 43.0143 8.15925 42.6501 8.15925 41.2476V39.9603L9.67355 41.4668C10.8601 42.6471 11.2817 42.9601 11.621 42.9121C11.9277 42.8688 12.0694 42.7186 12.1061 42.398C12.1469 42.044 11.8795 41.669 10.8833 40.6819C10.1822 39.9871 9.60851 39.361 9.60851 39.2907C9.60851 39.2203 10.0893 38.7042 10.677 38.1437C11.2645 37.5832 11.7871 36.9645 11.8384 36.769C11.9348 36.4004 11.5509 35.8763 11.1848 35.8763C11.0695 35.8763 10.3417 36.5062 9.56721 37.2761L8.15925 38.6757V37.4636C8.15925 36.4506 8.10164 36.2205 7.80889 36.0638C7.34277 35.8143 7.15726 35.8272 6.90908 36.1265ZM19.1916 36.217L18.7709 36.5576L19.7851 38.6348L20.7994 40.7117L20.4347 41.5541C20.011 42.5329 20.2057 42.9989 20.9992 42.9054C21.4048 42.8576 21.6321 42.4871 22.8669 39.8618C23.6403 38.2177 24.275 36.7328 24.2776 36.562C24.2841 36.1288 23.6481 35.8152 23.2236 36.0422C23.0399 36.1406 22.6175 36.8453 22.2848 37.6082L21.68 38.9953L21.0588 37.7527C20.4361 36.5078 19.9941 35.8763 19.7454 35.8763C19.6722 35.8763 19.4229 36.0295 19.1916 36.217ZM44.8439 36.2384C44.5251 36.5908 44.543 36.6554 45.51 38.6388L46.5038 40.677L46.1495 41.5371C45.7381 42.5356 45.9319 42.9989 46.7221 42.9054C47.1258 42.8576 47.3547 42.4837 48.5857 39.8618C49.3574 38.2177 49.9929 36.7328 49.9978 36.562C50.0101 36.1299 49.3734 35.8147 48.948 36.0422C48.7643 36.1406 48.3419 36.8453 48.0093 37.6082L47.4044 38.9953L46.7832 37.7527C45.8158 35.8183 45.4691 35.5475 44.8439 36.2384ZM51.2038 36.108C50.3502 36.3765 50.0082 36.8217 50.3031 37.2803C50.4268 37.4725 50.6759 37.5741 50.9362 37.5382C52.2565 37.3569 52.807 37.4178 52.873 37.7524C52.9601 38.1951 52.7092 38.4243 51.9721 38.575C50.9449 38.7851 51.1272 39.8618 52.1898 39.8618C53.2108 39.8618 53.6273 40.8858 52.821 41.4141C52.409 41.684 52.3032 41.6831 51.4558 41.4016C50.4225 41.0583 49.9444 41.2369 50.0433 41.9291C50.1326 42.5543 51.1873 42.971 52.4945 42.8976C53.4444 42.8442 53.7099 42.7512 54.1679 42.3126C54.4674 42.0257 54.7614 41.5299 54.8211 41.2107C54.9427 40.5632 54.5525 39.6282 54.0413 39.3422C53.7496 39.179 53.7487 39.1438 54.0271 38.835C54.7197 38.0665 54.5817 36.8768 53.7355 36.3223C53.1299 35.9256 52.069 35.8357 51.2038 36.108ZM60.0066 36.0937C59.7012 36.3991 59.7012 42.4186 60.0066 42.7241C60.5546 43.2721 60.9874 42.9608 62.6149 40.8492L64.2276 38.7572L64.2796 40.6125C64.3086 41.6431 64.4223 42.5769 64.5359 42.7137C64.6482 42.849 64.9508 42.9353 65.2084 42.9054L65.6769 42.8509L65.7261 39.5703C65.7669 36.8578 65.7292 36.2513 65.5084 36.068C65.0307 35.6714 64.6035 36.0236 62.9535 38.1748L61.3291 40.2927L61.2773 38.3217C61.2488 37.2377 61.1369 36.244 61.0287 36.1134C60.7827 35.817 60.2927 35.8076 60.0066 36.0937ZM13.9925 36.2748C13.852 36.4154 13.7751 37.1424 13.7751 38.3312C13.7751 40.4737 13.6 41.1047 12.8507 41.6585C12.1219 42.1972 12.182 42.8279 12.9695 42.905C13.6853 42.975 14.4396 42.3871 14.8809 41.4159C15.1288 40.8701 15.2175 40.2391 15.2204 39.0013L15.2244 37.3255H16.2161H17.2077L17.2577 40.0882L17.3077 42.8509L17.8314 42.9106C18.1291 42.9447 18.4213 42.8664 18.5081 42.7295C18.757 42.3369 18.7039 36.5297 18.449 36.2748C18.3061 36.1319 17.5432 36.0574 16.2208 36.0574C14.8983 36.0574 14.1355 36.1319 13.9925 36.2748ZM24.651 36.4078C24.5459 36.6042 24.4635 37.94 24.4635 39.4473C24.4635 42.8918 24.4906 42.9414 26.3817 42.9414C28.6366 42.9414 29.5359 42.3199 29.5359 40.7614C29.5359 39.4185 28.7103 38.7748 26.9879 38.7748H26.0939V38.0502V37.3255H27.4332C28.8737 37.3255 29.1844 37.1172 28.8042 36.4067C28.6381 36.096 28.4083 36.0574 26.7279 36.0574C25.0453 36.0574 24.818 36.0958 24.651 36.4078ZM33.9837 36.2839C33.9454 36.4085 33.8661 37.2208 33.8076 38.0893C33.644 40.521 33.3909 41.4819 32.8616 41.6831C32.4429 41.8424 32.4208 41.9212 32.4714 43.076C32.5204 44.1976 32.5599 44.305 32.9425 44.3594C33.5134 44.4402 33.8837 44.0874 33.8837 43.4628V42.9414H35.9561H38.0284L38.0847 43.6208C38.1325 44.199 38.2106 44.3083 38.6093 44.3547C39.2874 44.4335 39.5282 44.0271 39.4642 42.9108C39.4186 42.1117 39.3387 41.9143 39.0014 41.7663C38.6064 41.5931 38.5938 41.5079 38.5938 39.0398C38.5938 37.2998 38.5249 36.4234 38.3764 36.2748C38.066 35.9645 34.0795 35.9728 33.9837 36.2839ZM39.8773 36.391C39.6229 36.8663 39.6151 42.1183 39.8682 42.5911C40.0778 42.9827 40.761 43.0568 41.0937 42.7241C41.2133 42.6045 41.3111 42.0746 41.3111 41.5465V40.5864L42.2622 40.5851C43.8457 40.5831 44.7345 39.7565 44.7468 38.2739C44.752 37.642 44.6403 37.3781 44.1332 36.8246L43.5133 36.148L41.7936 36.0857C40.2171 36.0286 40.0575 36.0542 39.8773 36.391ZM55.665 36.2687C55.3541 36.5795 55.3485 42.4137 55.6588 42.7241C56.0009 43.0661 58.7869 43.0123 59.1423 42.6568C59.7575 42.0414 59.3334 41.6253 57.992 41.5282L56.8907 41.4487V40.8364V40.2241H57.7836C58.3537 40.2241 58.7793 40.1212 58.9611 39.9395C59.6218 39.2786 59.1416 38.7748 57.8508 38.7748H56.8907V38.0589V37.3428L58.0229 37.289C59.1483 37.2353 59.1552 37.2317 59.1552 36.6915V36.148L57.5219 36.0966C56.4065 36.0612 55.8177 36.116 55.665 36.2687ZM37.1445 39.4994V41.6733H35.9548C34.9072 41.6733 34.776 41.6355 34.8577 41.3563C35.0706 40.6281 35.3329 38.835 35.3329 38.1074V37.3255H36.2387H37.1445V39.4994ZM42.9415 37.6879C43.3776 38.1239 43.3946 38.3835 43.0218 38.9156C42.8115 39.2159 42.5584 39.3183 42.0254 39.3183H41.3111V38.3219V37.3255H41.9452C42.3377 37.3255 42.7173 37.4636 42.9415 37.6879ZM27.7362 40.2304C28.5672 40.6752 27.9236 41.6733 26.8056 41.6733H26.0939V40.8581C26.0939 40.0444 26.095 40.0429 26.7399 40.0429C27.0951 40.0429 27.5435 40.1273 27.7362 40.2304ZM22.8314 45.2662C22.7325 45.2996 22.6513 45.9914 22.6508 46.8061C22.6497 48.5267 22.4327 49.4586 21.9262 49.9169C21.6512 50.1658 21.5649 50.4749 21.5649 51.2122V52.1805H22.2896C22.9417 52.1805 23.0142 52.1352 23.0142 51.7276C23.0142 51.2781 23.0263 51.2747 24.6446 51.2747C26.2629 51.2747 26.275 51.2781 26.275 51.7276C26.275 52.1352 26.3475 52.1805 26.9997 52.1805H27.7243V51.1785C27.7243 50.4548 27.6488 50.1474 27.4526 50.0722C27.2305 49.9868 27.1808 49.5412 27.1808 47.6322C27.1808 46.3476 27.1196 45.2945 27.045 45.292C25.3506 45.2349 22.9676 45.2204 22.8314 45.2662ZM31.7541 46.7896L30.0793 48.4642V46.8804V45.2965H29.3547H28.6301V48.3762C28.6301 50.7477 28.6832 51.4559 28.8605 51.4559C28.9873 51.4559 29.7821 50.7606 30.6268 49.9106L32.1627 48.3653L32.2532 49.8653L32.3438 51.3653L33.0232 51.4214L33.7025 51.4778V48.4776C33.7025 46.8276 33.7087 45.4186 33.7161 45.3463C33.7601 44.9202 33.2431 45.3007 31.7541 46.7896ZM41.3148 45.5229C40.3726 46.0045 39.8965 46.6014 39.6774 47.5762C39.3889 48.8604 39.891 50.1499 41.0028 50.98C41.5997 51.4256 43.3546 51.5868 44.281 51.281C44.862 51.0894 44.9343 50.9968 44.9343 50.4454C44.9343 49.7533 44.897 49.7399 43.7939 50.0349C42.2948 50.4359 41.13 49.7082 41.13 48.3706C41.13 47.7814 41.2454 47.5082 41.6762 47.0775C42.1765 46.5773 42.3019 46.5387 43.1707 46.6184C43.6923 46.6662 44.2821 46.7349 44.4814 46.7708C44.7749 46.8238 44.8546 46.7238 44.9008 46.2432C44.9517 45.7142 44.8886 45.6213 44.3178 45.3827C43.3912 44.9956 42.2419 45.0492 41.3148 45.5229ZM45.8464 45.4657C45.6105 45.9064 45.6028 50.906 45.8375 51.2747C45.9768 51.4937 46.3451 51.2135 47.7368 49.8291L49.4632 48.1117V49.7838V51.4559H50.1795H50.896L50.9495 48.3586C50.979 46.655 50.9333 45.2182 50.848 45.1657C50.7627 45.1132 49.9272 45.8327 48.9911 46.765L47.2893 48.4595V46.8974C47.2893 45.64 47.2334 45.3139 47.0027 45.2253C46.4729 45.0219 46.0352 45.113 45.8464 45.4657ZM34.6492 48.3309L34.6989 51.3653H35.4235H36.1481L36.2021 50.4343C36.238 49.8175 36.3673 49.403 36.5854 49.2055C36.897 48.9235 36.9554 48.9753 37.6843 50.1818C38.4164 51.3934 38.4872 51.4559 39.1278 51.4559C39.8773 51.4559 40.1184 51.3167 39.8834 51.0196C39.7976 50.9108 39.3084 50.1492 38.7968 49.3271L37.8664 47.8325L38.8642 46.7472C39.413 46.1503 39.8619 45.5796 39.8619 45.4793C39.8619 45.3787 39.5155 45.2959 39.0919 45.2952C38.3776 45.294 38.2472 45.376 37.2883 46.4275L36.2545 47.561L36.2467 46.4287L36.2387 45.2965H35.4192H34.5996L34.6492 48.3309ZM25.6928 48.2403L25.7446 50.0066H24.6557H23.5667L23.7475 49.5307C23.8472 49.2689 23.9796 48.4497 24.0421 47.7101L24.1558 46.3653L24.8984 46.4197L25.641 46.474L25.6928 48.2403Z" fill="black"/>
</mask>
<g mask="url(#mask1)">
<path d="M25.581 24.1944L19.6028 18.6691L13.7151 23.4697L15.5267 33.3428L25.581 34.7921L29.7476 29.8103L25.581 24.1944Z" fill="#5CAF47"/>
<path d="M35.3636 13.4154H26.2151L20.3275 18.2161L26.2151 24.2849L32.1934 31.2594L37.6281 22.4733L35.3636 13.4154Z" fill="#FBA81A"/>
<path d="M46.6859 10.4264L35.6353 11.4228L36.8128 14.0495L35.6353 22.2922L41.6135 29.2668L49.5844 21.1147L46.6859 10.4264Z" fill="#F26921"/>
<path d="M57.8271 19.1221H52.8453L46.233 24.3756L43.5156 29.9915L47.1388 33.6147L61.3597 34.6111L57.8271 19.1221Z" fill="#D82028"/>
<path d="M65.2546 30.2631L57.1931 34.6108H1.39648V44.7557H54.5663L68.7872 45.7521L65.2546 30.2631Z" fill="white"/>
<path d="M68.7872 45.4803L58.9141 44.5745H3.11748L1.39648 54.1758H54.5663L68.7872 55.1722V45.4803Z" fill="white"/>
</g>
</svg>
