<svg width="100" height="67" viewBox="0 0 100 67" fill="none" xmlns="http://www.w3.org/2000/svg">
<mask id="mask0" mask-type="alpha" maskUnits="userSpaceOnUse" x="0" y="0" width="100" height="67">
<path fill-rule="evenodd" clip-rule="evenodd" d="M59.151 1.00829C58.5459 1.40863 57.8364 3.10551 56.9234 6.33519C56.4303 8.08012 55.9482 9.29156 55.8475 9.03813C55.7475 8.78562 55.543 7.35717 55.3933 5.86353C55.1322 3.25946 54.85 2.62772 53.9422 2.61518C52.9753 2.60201 52.7639 3.61634 52.7375 8.39262C52.7231 11.0203 52.6032 14.4097 52.4706 15.9248C52.2454 18.4995 52.2741 18.7351 52.9062 19.5312C54.3995 21.4115 58.1253 22.5862 60.0478 21.7827C61.6798 21.1011 64.5951 19.0412 67.0232 16.8543C68.4385 15.5795 69.5385 14.8453 70.2266 14.7164C72.2427 14.3381 71.2234 12.6498 68.979 12.6498C67.8472 12.6498 67.0159 13.0315 65.4151 14.2858C64.8017 14.7663 64.2162 15.1596 64.1143 15.1596C63.5842 15.1596 64.1351 13.6574 66.0713 9.82504C68.2726 5.46809 68.5474 4.49263 67.7587 3.83825C66.8319 3.06908 65.9397 3.71888 64.8611 5.94832C64.2933 7.12211 63.5122 8.46944 63.1257 8.94294L62.4226 9.80331L63.0292 8.17561C64.2838 4.80942 64.8997 2.0569 64.5462 1.39578C64.1718 0.696401 62.9552 0.562647 62.4548 1.16561C62.276 1.38078 61.6951 2.75811 61.164 4.22604C60.6327 5.69397 60.0735 6.97213 59.9211 7.0664C59.7687 7.16067 59.6438 7.17536 59.6438 7.09885C59.6438 6.97366 60.7141 3.32833 61.0309 2.37399C61.1594 1.98711 60.1595 0.769859 59.7203 0.778735C59.5942 0.781489 59.3377 0.884636 59.151 1.00829ZM38.6995 2.17321C38.0922 2.78076 38.0604 2.51295 39.1368 5.87302C39.6419 7.4493 40.0532 8.90988 40.0508 9.11832C40.0483 9.32675 39.3459 8.18877 38.4898 6.58954C36.5958 3.05194 35.9029 2.24575 34.8619 2.36726C33.6566 2.50774 33.7307 3.58941 35.1554 6.65565C35.8563 8.16429 36.3739 9.45469 36.3054 9.52295C36.2371 9.5912 35.6409 8.68247 34.9807 7.50317C33.7925 5.38024 32.9943 4.76687 31.9447 5.16966C30.9347 5.55715 31.6414 7.69232 34.2369 12.0943C34.7588 12.9794 35.1288 13.7602 35.0593 13.8297C34.9899 13.8992 34.2063 13.366 33.3184 12.6449C30.3329 10.2208 30.2821 10.1908 29.4876 10.3901C28.9602 10.5226 28.7334 10.7873 28.7404 11.263C28.7533 12.1111 29.2176 12.6562 32.0617 15.1596C33.3046 16.2538 35.0746 18.1821 35.9944 19.4446C38.3686 22.7028 38.9293 23.1157 40.9733 23.1092C43.7194 23.1007 46.3877 21.6021 47.2261 19.5977C47.7749 18.2858 48.2594 15.1819 48.4675 11.6456C48.5835 9.67782 48.8152 8.33477 49.1185 7.87138C50.0279 6.48394 49.1054 5.86109 47.4268 6.72911C46.3795 7.27086 45.6991 8.65003 45.412 10.8134C45.2935 11.7056 45.0551 12.3881 44.8821 12.3306C44.3456 12.1518 43.5161 10.2548 42.3518 6.54485C40.9822 2.17994 39.9403 0.93269 38.6995 2.17321ZM72.6623 17.4282C70.9731 19.1808 68.743 21.1746 67.7067 21.8583C64.8666 23.7321 64.4439 24.3966 64.6251 26.7016C64.7925 28.8304 65.8815 31.0424 67.1811 31.8942C68.4712 32.7392 70.9094 33.2381 75.229 33.5402C77.9473 33.7306 79.5737 33.9834 80.0387 34.288C80.4252 34.5411 80.869 34.7483 81.0254 34.7483C81.5228 34.7483 81.6661 33.8781 81.3281 32.9094C80.9284 31.7622 79.4045 30.9279 77.1512 30.6218C74.3227 30.238 75.503 29.3893 81.375 27.585C83.3109 26.9903 85.2046 26.2848 85.5835 26.0176C86.7343 25.2052 86.2979 23.7251 84.9101 23.7336C84.5652 23.7358 83.2099 24.0801 81.899 24.4988C78.3828 25.6218 78.1242 25.4112 81.1506 23.8891C84.9484 21.9792 85.7148 21.3848 85.6006 20.4372C85.4243 18.9733 84.7678 18.9564 81.7 20.3377C80.1357 21.0423 78.7899 21.5529 78.7097 21.4724C78.5704 21.3331 79.2322 20.9383 81.726 19.6723C83.5447 18.7492 83.4753 16.996 81.6205 16.996C80.8017 16.996 77.0753 18.7774 74.7179 20.2958C73.6044 21.0129 73.92 20.3111 75.5887 18.3602C77.5625 16.0521 77.9203 15.3322 77.4037 14.7097C76.5923 13.7321 75.7705 14.2031 72.6623 17.4282ZM27.2946 16.0298C26.7657 16.3741 26.2818 17.5289 26.2818 18.4462C26.2818 19.2922 27.7022 21.9061 28.3943 22.334C28.5791 22.4481 28.7303 22.6709 28.7303 22.8295C28.7303 23.4983 27.1663 22.9981 23.3435 21.1072C20.3078 19.6059 19.0226 19.1217 18.266 19.1943C17.3661 19.2806 17.2526 19.3944 17.2526 20.2077C17.2526 21.0344 17.4769 21.2443 19.5481 22.3554C22.0099 23.6758 23.854 24.9031 22.7619 24.4939C20.4783 23.6381 17.338 22.7407 16.1171 22.595C14.7847 22.4359 14.6479 22.4833 14.3121 23.2203C13.794 24.3571 14.1986 24.7073 17.3331 25.8354C21.4492 27.3171 22.1195 27.9997 18.2746 26.7944C15.4008 25.8936 14.3449 26.0714 14.3449 27.4567C14.3449 28.3146 15.6935 28.988 19.4854 30.0225C21.4216 30.5508 22.869 31.0678 22.7016 31.1712C22.5342 31.2747 21.2395 31.4519 19.8248 31.5648C16.9318 31.7962 16.1813 32.068 16.1813 32.8852C16.1813 34.1563 16.7525 34.2659 22.915 34.1784C24.8509 34.1508 26.9857 34.2644 27.6591 34.4309C29.7523 34.9485 32.3573 34.8227 33.2899 34.1588C34.6318 33.2029 35.8968 30.5738 35.8992 28.7346C35.901 27.3578 35.7122 26.8743 34.4059 24.9086C33.5835 23.6709 32.2021 21.9009 31.3363 20.975C29.0976 18.5812 28.4243 17.6238 28.4243 16.8344C28.4243 16.1121 27.8244 15.6845 27.2946 16.0298ZM92.4665 36.0491C91.9406 36.7014 92.5843 37.7233 93.7661 38.1136C95.5257 38.6942 97.9029 37.8063 97.9029 36.5682C97.9029 35.7623 97.0998 35.474 96.4378 36.0421C95.5309 36.8198 94.9095 36.8789 94.1248 36.2615C93.2427 35.5677 92.8907 35.5227 92.4665 36.0491ZM0.601892 39.1499C0.359788 39.4416 0.277148 41.2674 0.33469 45.0419C0.418248 50.4912 0.421003 50.5114 1.12405 50.6112C2.36579 50.7872 2.71411 50.1719 2.71411 47.8023V45.6274L5.27257 48.1727C7.27735 50.1667 7.98959 50.6956 8.56286 50.6145C9.08105 50.5414 9.32039 50.2876 9.38253 49.7459C9.45139 49.1478 8.99963 48.5143 7.31653 46.8465C6.13203 45.6727 5.16269 44.6149 5.16269 44.4961C5.16269 44.3771 5.97501 43.5051 6.96791 42.5581C7.96051 41.6111 8.84353 40.5658 8.93015 40.2356C9.09298 39.6127 8.44441 38.7273 7.82584 38.7273C7.63118 38.7273 6.40137 39.7915 5.09291 41.0923L2.71411 43.457V41.4091C2.71411 39.6975 2.61677 39.3088 2.12216 39.044C1.33463 38.6226 1.02121 38.6443 0.601892 39.1499ZM21.3537 39.303L20.643 39.8784L22.3564 43.3878L24.0701 46.897L23.4539 48.3202C22.738 49.9739 23.0671 50.7611 24.4077 50.6032C25.093 50.5224 25.4771 49.8965 27.5633 45.4609C28.8699 42.6833 29.9424 40.1744 29.9467 39.8857C29.9577 39.1539 28.8831 38.6241 28.1659 39.0076C27.8556 39.1738 27.1418 40.3644 26.5799 41.6533L25.5579 43.9969L24.5084 41.8976C23.4564 39.7942 22.7096 38.7273 22.2893 38.7273C22.1657 38.7273 21.7445 38.9862 21.3537 39.303ZM64.6943 39.3391C64.1556 39.9344 64.1859 40.0437 65.8197 43.3946L67.4988 46.8382L66.9002 48.2914C66.2051 49.9785 66.5326 50.7611 67.8677 50.6032C68.5496 50.5224 68.9365 49.8907 71.0162 45.4609C72.3201 42.6833 73.3938 40.1744 73.4021 39.8857C73.4229 39.1558 72.347 38.6232 71.6284 39.0076C71.318 39.1738 70.6043 40.3644 70.0423 41.6533L69.0203 43.9969L67.9708 41.8976C66.3364 38.6293 65.7505 38.1717 64.6943 39.3391ZM75.4396 39.1187C73.9974 39.5723 73.4195 40.3246 73.9178 41.0993C74.1269 41.4241 74.5477 41.5958 74.9875 41.5352C77.2182 41.2288 78.1484 41.3316 78.2598 41.8969C78.407 42.645 77.9831 43.0322 76.7377 43.2868C75.0022 43.6419 75.3101 45.4609 77.1056 45.4609C78.8306 45.4609 79.5343 47.1911 78.1719 48.0836C77.4759 48.5397 77.2972 48.5381 75.8654 48.0625C74.1195 47.4825 73.3118 47.7843 73.4789 48.9538C73.6298 50.01 75.4118 50.714 77.6204 50.59C79.2251 50.4998 79.6738 50.3427 80.4476 49.6017C80.9535 49.1169 81.4503 48.2792 81.5513 47.7399C81.7567 46.646 81.0974 45.0663 80.2336 44.583C79.7409 44.3073 79.7393 44.2479 80.2098 43.726C81.3799 42.4277 81.1467 40.4177 79.717 39.4808C78.6938 38.8105 76.9014 38.6587 75.4396 39.1187ZM90.3123 39.0945C89.7963 39.6106 89.7963 49.7808 90.3123 50.2968C91.2382 51.2227 91.9694 50.6969 94.7192 47.1293L97.4438 43.5947L97.5317 46.7292C97.5807 48.4705 97.7729 50.0483 97.9648 50.2794C98.1545 50.508 98.6657 50.6537 99.1009 50.6032L99.8924 50.5111L99.9757 44.9684C100.045 40.3856 99.9809 39.3608 99.6078 39.0511C98.8007 38.3811 98.0789 38.9761 95.2912 42.6107L92.5467 46.189L92.4591 42.8589C92.4111 41.0274 92.2219 39.3486 92.0392 39.1279C91.6235 38.6272 90.7956 38.6113 90.3123 39.0945ZM12.5697 39.4006C12.3322 39.6381 12.2024 40.8664 12.2024 42.8749C12.2024 46.4948 11.9064 47.5608 10.6405 48.4965C9.40916 49.4068 9.51077 50.4722 10.8413 50.6026C12.0506 50.7207 13.3251 49.7275 14.0707 48.0867C14.4894 47.1645 14.6393 46.0984 14.6442 44.007L14.651 41.1758H16.3264H18.0019L18.0863 45.8435L18.1708 50.5111L19.0557 50.6121C19.5586 50.6696 20.0522 50.5374 20.1989 50.306C20.6194 49.6427 20.5297 39.8313 20.0991 39.4006C19.8576 39.1591 18.5687 39.0333 16.3344 39.0333C14.1 39.0333 12.8112 39.1591 12.5697 39.4006ZM30.5775 39.6253C30.4 39.9571 30.2607 42.214 30.2607 44.7606C30.2607 50.5803 30.3066 50.6641 33.5017 50.6641C37.3114 50.6641 38.8308 49.614 38.8308 46.9808C38.8308 44.7119 37.436 43.6244 34.5258 43.6244H33.0154V42.4001V41.1758H35.2782C37.7121 41.1758 38.237 40.8239 37.5945 39.6234C37.3139 39.0985 36.9258 39.0333 34.0866 39.0333C31.2438 39.0333 30.8597 39.0982 30.5775 39.6253ZM46.3455 39.4159C46.2809 39.6265 46.1468 40.9989 46.048 42.4662C45.7716 46.5747 45.344 48.1981 44.4497 48.5381C43.7423 48.8072 43.705 48.9403 43.7904 50.8915C43.8733 52.7864 43.9401 52.9679 44.5865 53.0597C45.5509 53.1963 46.1765 52.6003 46.1765 51.545V50.6641H49.678H53.1792L53.2744 51.8119C53.3552 52.7889 53.4871 52.9734 54.1608 53.0518C55.3064 53.1849 55.7132 52.4984 55.6051 50.6124C55.528 49.2623 55.393 48.9287 54.8231 48.6786C54.1559 48.386 54.1344 48.2422 54.1344 44.0722C54.1344 41.1324 54.0181 39.6516 53.7672 39.4006C53.2429 38.8763 46.5074 38.8904 46.3455 39.4159ZM56.303 39.5968C55.8733 40.3999 55.8601 49.2733 56.2877 50.0722C56.6418 50.7339 57.796 50.8591 58.3583 50.2968C58.5603 50.0948 58.7255 49.1996 58.7255 48.3074V46.6852L60.3324 46.683C63.0078 46.6796 64.5094 45.283 64.5302 42.7781C64.5391 41.7105 64.3503 41.2646 63.4936 40.3295L62.4462 39.1864L59.5406 39.0811C56.8772 38.9847 56.6075 39.0278 56.303 39.5968ZM82.977 39.3902C82.4518 39.9154 82.4423 49.7725 82.9666 50.2968C83.5444 50.8747 88.2515 50.7838 88.852 50.1833C89.8915 49.1435 89.175 48.4405 86.9085 48.2764L85.0479 48.1421V47.1075V46.073H86.5565C87.5197 46.073 88.2387 45.8992 88.546 45.5922C89.6622 44.4756 88.8508 43.6244 86.67 43.6244H85.0479V42.4148V41.2049L86.9608 41.114C88.8621 41.0234 88.8738 41.0173 88.8738 40.1046V39.1864L86.1142 39.0994C84.2297 39.0398 83.235 39.1322 82.977 39.3902ZM51.6859 44.8487V48.5216H49.6759C47.9058 48.5216 47.6843 48.4576 47.8223 47.986C48.1819 46.7556 48.6251 43.726 48.6251 42.4968V41.1758H50.1555H51.6859V44.8487ZM61.4802 41.788C62.2169 42.5247 62.2457 42.9633 61.6158 43.8622C61.2604 44.3697 60.8329 44.5426 59.9324 44.5426H58.7255V42.8592V41.1758H59.7968C60.4601 41.1758 61.1013 41.4091 61.4802 41.788ZM35.7902 46.0837C37.1942 46.8351 36.1067 48.5216 34.2179 48.5216H33.0154V47.1443C33.0154 45.7694 33.0172 45.7669 34.1068 45.7669C34.707 45.7669 35.4646 45.9096 35.7902 46.0837ZM27.5033 54.592C27.3362 54.6483 27.1991 55.8172 27.1981 57.1936C27.1963 60.1007 26.8296 61.6751 25.9739 62.4495C25.5092 62.87 25.3635 63.3922 25.3635 64.6379V66.2739H26.5878C27.6897 66.2739 27.8121 66.1973 27.8121 65.5087C27.8121 64.7493 27.8326 64.7435 30.5668 64.7435C33.3009 64.7435 33.3214 64.7493 33.3214 65.5087C33.3214 66.1973 33.4439 66.2739 34.5457 66.2739H35.77V64.581C35.77 63.3582 35.6424 62.8388 35.3109 62.7118C34.9357 62.5676 34.8518 61.8147 34.8518 58.5893C34.8518 56.4189 34.7484 54.6397 34.6223 54.6354C31.7596 54.539 27.7335 54.5145 27.5033 54.592ZM42.5786 57.1657L39.749 59.9951V57.3191V54.6431H38.5247H37.3004V59.8463C37.3004 63.8531 37.3901 65.0496 37.6897 65.0496C37.904 65.0496 39.2467 63.8749 40.674 62.4388L43.2688 59.828L43.4219 62.3622L43.5749 64.8965L44.7227 64.9914L45.8705 65.0866V60.0177C45.8705 57.23 45.8809 54.8494 45.8934 54.7272C45.9678 54.0074 45.0943 54.6501 42.5786 57.1657ZM58.7317 55.0257C57.1398 55.8392 56.3354 56.8477 55.9654 58.4947C55.4778 60.6645 56.3262 62.8431 58.2046 64.2455C59.2131 64.9985 62.1781 65.2709 63.7433 64.7542C64.7249 64.4304 64.847 64.274 64.847 63.3423C64.847 62.1731 64.784 62.1504 62.9203 62.6487C60.3875 63.3264 58.4195 62.0969 58.4195 59.8368C58.4195 58.8415 58.6144 58.3799 59.3423 57.6521C60.1877 56.807 60.3995 56.7418 61.8674 56.8765C62.7486 56.9573 63.7452 57.0733 64.0818 57.1339C64.5777 57.2236 64.7123 57.0546 64.7904 56.2426C64.8764 55.3489 64.7699 55.1919 63.8055 54.7888C62.2399 54.1347 60.2982 54.2253 58.7317 55.0257ZM66.3881 54.9289C65.9896 55.6736 65.9764 64.1206 66.3731 64.7435C66.6085 65.1135 67.2307 64.64 69.582 62.301L72.4989 59.3994V62.2245V65.0496H73.7091H74.9196L75.0099 59.8166C75.0598 56.9383 74.9826 54.5108 74.8385 54.4221C74.6943 54.3333 73.2827 55.549 71.7012 57.1241L68.826 59.9871V57.3478C68.826 55.2234 68.7314 54.6725 68.3418 54.5228C67.4465 54.1791 66.707 54.333 66.3881 54.9289ZM47.47 59.7698L47.5539 64.8965H48.7782H50.0025L50.0937 63.3236C50.1543 62.2814 50.3728 61.5811 50.7413 61.2475C51.2678 60.771 51.3663 60.8585 52.598 62.897C53.8348 64.944 53.9545 65.0496 55.0368 65.0496C56.303 65.0496 56.7104 64.8145 56.3134 64.3125C56.1683 64.1286 55.3419 62.8419 54.4776 61.4529L52.9056 58.9278L54.5914 57.0941C55.5185 56.0856 56.277 55.1215 56.277 54.9519C56.277 54.782 55.6917 54.6422 54.9761 54.6409C53.7693 54.6388 53.5489 54.7774 51.9289 56.5539L50.1821 58.469L50.169 56.556L50.1555 54.6431H48.7708H47.3861L47.47 59.7698ZM32.3377 59.6168L32.4253 62.601H30.5855H28.7457L29.0511 61.7969C29.2195 61.3546 29.4432 59.9706 29.5488 58.7209L29.741 56.4489L30.9956 56.5407L32.2502 56.6325L32.3377 59.6168Z" fill="black"/>
</mask>
<g mask="url(#mask0)">
<path d="M32.1488 18.99L22.0484 9.65479L12.101 17.7657L15.1617 34.4467L32.1488 36.8953L39.1885 28.4783L32.1488 18.99Z" fill="#5CAF47"/>
<path d="M48.6767 0.778687H33.22L23.2726 8.88963L33.22 19.1431L43.3205 30.9269L52.5027 16.0824L48.6767 0.778687Z" fill="#FBA81A"/>
<path d="M67.8063 -4.27148L49.1359 -2.58808L51.1253 1.84999L49.1359 15.7763L59.2363 27.5602L72.7035 13.7869L67.8063 -4.27148Z" fill="#F26921"/>
<path d="M86.6298 10.42H78.2128L67.0411 19.2962L62.45 28.7845L68.5715 34.9059L92.5983 36.5893L86.6298 10.42Z" fill="#D82028"/>
<path d="M99.1789 29.2435L85.5586 36.5893H-8.71204V53.7294H81.1205L105.147 55.4128L99.1789 29.2435Z" fill="white"/>
<path d="M105.147 54.9537L88.4663 53.4233H-5.80434L-8.71204 69.6452H81.1205L105.147 71.3286V54.9537Z" fill="white"/>
</g>
</svg>
