<svg width="130" height="21" viewBox="0 0 130 21" fill="none" xmlns="http://www.w3.org/2000/svg">
<path d="M0.06604 20.0001H5.49804V5.16006H12.19V20.0001H17.622V0.400057H0.06604V20.0001Z" fill="#64C8E6"/>
<path d="M30.9494 20.3921C36.9974 20.3921 41.5334 15.8281 41.5334 10.2001C41.5334 4.51606 37.0534 0.00805664 31.0054 0.00805664C24.9574 0.00805664 20.4214 4.57206 20.4214 10.2001C20.4214 15.8841 24.9014 20.3921 30.9494 20.3921ZM31.0054 15.4921C28.0374 15.4921 25.9934 13.0281 25.9934 10.2001C25.9934 7.31606 27.9814 4.90806 30.9494 4.90806C33.9454 4.90806 35.9894 7.37206 35.9894 10.2001C35.9894 13.0841 34.0014 15.4921 31.0054 15.4921Z" fill="#64C8E6"/>
<path d="M45.4829 20.2801C49.2909 20.2801 51.9229 17.8721 51.9229 5.91606V5.16006H56.4869V20.0001H61.9189V0.400057H46.8549V3.11606C46.8549 14.9881 45.3989 15.7721 43.8589 15.7721C43.6069 15.7721 42.8509 15.7161 42.5989 15.6601L42.2349 19.8321C42.6549 19.9721 44.0549 20.2801 45.4829 20.2801Z" fill="#64C8E6"/>
<path d="M69.9823 20.2801C73.0063 20.2801 74.8263 18.8521 76.6183 15.3521L84.2623 0.400057H78.3543L74.1543 9.61206L69.7023 0.400057H63.6543L71.3263 14.8761C70.7383 15.5481 70.0943 15.7161 69.6183 15.7161C69.0303 15.7161 68.1623 15.5481 67.4063 15.0441L65.2783 18.9641C66.5943 19.7481 68.1063 20.2801 69.9823 20.2801Z" fill="#64C8E6"/>
<path d="M97.0114 20.0001H102.443V0.400057H97.0114V8.32406C96.1434 9.02406 94.8834 9.38806 93.5674 9.38806C91.6354 9.38806 90.8794 8.40806 90.8794 6.30806V0.400057H85.4474V7.84806C85.4474 11.9641 87.8834 14.4001 91.9994 14.4001C93.7074 14.4001 95.7234 13.8961 97.0114 13.1401V20.0001Z" fill="#64C8E6"/>
<path d="M105.914 20.0001H110.982L118.57 8.96806V20.0001H123.946V0.400057H118.878L111.29 11.4321V0.400057H105.914V20.0001Z" fill="#64C8E6"/>
<path d="M0.165415 20.0214H5.59742L9.35927 5.16555H16.0513L12.2894 20.0214H17.7214L22.6899 0.400474H5.13391L0.165415 20.0214Z" fill="#1066AA"/>
<path d="M30.9494 20.4138C36.9974 20.4138 42.6903 15.8449 44.117 10.2109C45.5579 4.52086 42.2206 0.00805664 36.1726 0.00805664C30.1246 0.00805664 24.4317 4.57692 23.005 10.2109C21.5641 15.901 24.9014 20.4138 30.9494 20.4138ZM32.2475 15.5086C29.2795 15.5086 27.8601 13.0419 28.577 10.2109C29.3081 7.32385 31.9065 4.91328 34.8745 4.91328C37.8705 4.91328 39.2899 7.3799 38.573 10.2109C37.8419 13.098 35.2435 15.5086 32.2475 15.5086Z" fill="#1066AA"/>
<path d="M45.5113 20.3017C49.3193 20.3017 52.5617 17.8911 55.5925 5.92235L55.7841 5.16555H60.3481L56.5863 20.0214H62.0183L66.9868 0.400474H51.9228L51.2343 3.11937C48.2248 15.004 46.5701 15.7889 45.0301 15.7889C44.7781 15.7889 44.0363 15.7328 43.7985 15.6767L42.3769 19.8532C42.7614 19.9933 44.0833 20.3017 45.5113 20.3017Z" fill="#1066AA"/>
<path d="M70.0107 20.3017C73.0347 20.3017 75.2166 18.8721 77.8959 15.3684L89.3301 0.400474H83.4221L76.8869 9.62229L74.7701 0.400474H68.7221L72.7245 14.8919C71.9662 15.5646 71.2796 15.7328 70.8036 15.7328C70.2156 15.7328 69.3902 15.5646 68.762 15.0601L65.6403 18.9843C66.7575 19.7691 68.1347 20.3017 70.0107 20.3017Z" fill="#1066AA"/>
<path d="M97.1108 20.0214H102.543L107.511 0.400474H102.079L100.071 8.33292C99.0252 9.03367 97.6729 9.39805 96.3569 9.39805C94.4249 9.39805 93.9173 8.41701 94.4497 6.31477L95.9473 0.400474H90.5153L88.6273 7.85641C87.5839 11.9768 89.4024 14.4154 93.5184 14.4154C95.2264 14.4154 97.3701 13.9109 98.8498 13.1541L97.1108 20.0214Z" fill="#1066AA"/>
<path d="M106.013 20.0214H111.081L121.466 8.97761L118.669 20.0214H124.045L129.014 0.400474H123.946L113.561 11.4442L116.358 0.400474H110.982L106.013 20.0214Z" fill="#1066AA"/>
</svg>
