<svg width="21" height="24" viewBox="0 0 21 24" fill="none" xmlns="http://www.w3.org/2000/svg">
<rect x="1" y="1" width="19" height="22" rx="4" stroke="white" stroke-width="2"/>
<path d="M9.5 11C8.94772 11 8.5 11.4477 8.5 12C8.5 12.5523 8.94772 13 9.5 13V11ZM14.5 13C15.0523 13 15.5 12.5523 15.5 12C15.5 11.4477 15.0523 11 14.5 11V13ZM9.5 7C8.94772 7 8.5 7.44772 8.5 8C8.5 8.55228 8.94772 9 9.5 9V7ZM14.5 9C15.0523 9 15.5 8.55228 15.5 8C15.5 7.44772 15.0523 7 14.5 7V9ZM9.5 15C8.94772 15 8.5 15.4477 8.5 16C8.5 16.5523 8.94772 17 9.5 17V15ZM14.5 17C15.0523 17 15.5 16.5523 15.5 16C15.5 15.4477 15.0523 15 14.5 15V17ZM6.5 13C7.05228 13 7.5 12.5523 7.5 12C7.5 11.4477 7.05228 11 6.5 11V13ZM6 11C5.44772 11 5 11.4477 5 12C5 12.5523 5.44772 13 6 13V11ZM6.5 9C7.05228 9 7.5 8.55228 7.5 8C7.5 7.44772 7.05228 7 6.5 7V9ZM6 7C5.44772 7 5 7.44772 5 8C5 8.55228 5.44772 9 6 9V7ZM6.5 17C7.05228 17 7.5 16.5523 7.5 16C7.5 15.4477 7.05228 15 6.5 15V17ZM6 15C5.44772 15 5 15.4477 5 16C5 16.5523 5.44772 17 6 17V15ZM9.5 13H14.5V11H9.5V13ZM9.5 9H14.5V7H9.5V9ZM9.5 17H14.5V15H9.5V17ZM6.5 11H6V13H6.5V11ZM6.5 7H6V9H6.5V7ZM6.5 15H6V17H6.5V15Z" fill="white"/>
</svg>
