<svg width="142" height="21" viewBox="0 0 142 21" fill="none" xmlns="http://www.w3.org/2000/svg">
<path d="M0.569031 19.992H6.00118V5.15165H12.6934V19.992H18.1255V0.391522H0.569031V19.992Z" fill="#64C8E6"/>
<path d="M31.4532 20.3841C37.5014 20.3841 42.0375 15.8199 42.0375 10.1918C42.0375 4.50763 37.5574 -0.000488281 31.5092 -0.000488281C25.461 -0.000488281 20.9249 4.56363 20.9249 10.1918C20.9249 15.8759 25.405 20.3841 31.4532 20.3841ZM31.5092 15.4839C28.5411 15.4839 26.4971 13.0199 26.4971 10.1918C26.4971 7.30771 28.4851 4.89964 31.4532 4.89964C34.4493 4.89964 36.4933 7.36371 36.4933 10.1918C36.4933 13.0759 34.5053 15.4839 31.5092 15.4839Z" fill="#64C8E6"/>
<path d="M44.8671 19.992H50.2992V14.9239L52.2873 12.7119L57.2154 19.992H63.7396L56.0674 8.81975L63.4876 0.391522H57.0474L50.2992 8.34374V0.391522H44.8671V19.992Z" fill="#64C8E6"/>
<path d="M63.7527 19.992H69.4649L70.8649 16.492H78.4251L79.8531 19.992H85.6773L77.3331 0.251519H72.0969L63.7527 19.992ZM72.461 12.2638L74.673 6.69169L76.8571 12.2638H72.461Z" fill="#64C8E6"/>
<path d="M85.6751 19.992H92.1153L96.5954 12.5998L98.4715 14.7839V19.992H103.904V14.7839L105.78 12.5998L110.26 19.992H116.7L109.476 8.65174L116.448 0.391522H110.092L103.904 8.34374V0.391522H98.4715V8.34374L92.2833 0.391522H85.9271L92.8993 8.65174L85.6751 19.992Z" fill="#64C8E6"/>
<path d="M118.26 19.992H123.328L130.916 8.95975V19.992H136.292V0.391522H131.224L123.636 11.4238V0.391522H118.26V19.992Z" fill="#64C8E6"/>
<path d="M0.483097 19.992H5.91524L9.93617 5.15165H16.6283L12.6074 19.992H18.0396L23.3502 0.391522H5.79375L0.483097 19.992Z" fill="#1066AA"/>
<path d="M31.2611 20.3841C37.3092 20.3841 43.082 15.8199 44.6069 10.1918C46.147 4.50763 42.8883 -0.000488281 36.8401 -0.000488281C30.792 -0.000488281 25.0192 4.56363 23.4943 10.1918C21.9542 15.8759 25.2129 20.3841 31.2611 20.3841ZM32.6447 15.4839C29.6766 15.4839 28.3002 13.0199 29.0665 10.1918C29.8479 7.30771 32.4884 4.89964 35.4565 4.89964C38.4525 4.89964 39.829 7.36371 39.0627 10.1918C38.2813 13.0759 35.6408 15.4839 32.6447 15.4839Z" fill="#1066AA"/>
<path d="M44.7812 19.992H50.2133L51.5865 14.9239L54.1739 12.7119L57.1295 19.992H63.6537L59.0085 8.81975L68.7123 0.391522H62.2721L53.3693 8.34374L55.524 0.391522H50.0918L44.7812 19.992Z" fill="#1066AA"/>
<path d="M63.6668 19.992H69.3789L71.7273 16.492H79.2875L79.7672 19.992H85.5914L82.5957 0.251519H77.3596L63.6668 19.992ZM74.4689 12.2638L78.1907 6.69169L78.8651 12.2638H74.4689Z" fill="#1066AA"/>
<path d="M85.5892 19.992H92.0294L98.5123 12.5998L99.7966 14.7839L98.3855 19.992H103.818L105.229 14.7839L107.697 12.5998L110.174 19.992H116.614L112.462 8.65174L121.673 0.391522H115.316L106.974 8.34374L109.128 0.391522H103.696L101.542 8.34374L97.508 0.391522H91.1518L95.886 8.65174L85.5892 19.992Z" fill="#1066AA"/>
<path d="M118.174 19.992H123.242L133.819 8.95975L130.83 19.992H136.206L141.517 0.391522H136.449L125.871 11.4238L128.861 0.391522H123.484L118.174 19.992Z" fill="#1066AA"/>
</svg>
