<svg width="1157" height="615" viewBox="0 0 1157 615" fill="none" xmlns="http://www.w3.org/2000/svg">
<path fill-rule="evenodd" clip-rule="evenodd" d="M651.844 184.121C650.741 186.812 647.466 188.284 644.644 189.656C642.801 190.54 640.85 191.243 639.144 192.436C638.092 193.212 636.459 193.506 635.091 194.08C634.162 194.49 633.169 194.913 632.226 195.258C632.93 196.597 634.197 196.181 635.514 195.686C642.079 193.418 648.722 191.2 655.287 188.932C656.114 188.681 656.956 188.495 657.691 188.128C663.133 185.089 669.308 184.131 674.909 181.804C680.084 179.708 685.899 178.965 690.514 175.565C691.515 174.868 692.912 174.423 694.164 173.942C701.161 171.171 708.157 168.399 715.168 165.693C717.479 164.774 719.941 164.229 722.265 163.375C723.338 163.002 724.303 162.448 725.267 161.895C726.542 161.205 727.773 160.321 729.141 159.747C734.496 157.543 739.959 155.518 745.394 153.364C745.833 153.199 746.416 153.07 746.762 152.79C753.264 148.089 761.425 146.283 768.696 142.908C776.521 139.274 784.454 135.82 792.343 132.171C794.445 131.23 796.332 129.929 798.326 128.808C802.019 126.768 805.698 124.663 809.226 122.183C805.368 123.784 801.509 125.386 797.637 126.922C790.964 129.622 784.262 132.192 777.669 134.942C776.172 135.545 774.89 136.508 773.45 137.371C772.78 137.723 772.14 138.204 771.391 138.506C766.669 140.502 761.868 142.448 757.131 144.379C756.692 144.544 756.202 144.789 755.871 145.134C752.227 148.319 747.664 149.804 742.806 150.879C741.834 151.094 740.827 151.453 739.977 151.913C736.392 154.133 732.577 155.317 728.41 155.831C726.294 156.095 723.948 156.547 722.665 158.733C721.231 161.157 718.433 160.485 715.964 160.692C715.107 161.425 714.2 162.237 713.077 163.301C711.688 163.473 710.155 163.608 708.687 163.729C705.475 167.022 703.027 168.243 697.535 169.526C697.406 169.555 697.197 169.533 697.082 169.627C692.727 171.746 688.278 173.749 683.951 175.998C681.698 177.176 679.495 178.275 677.006 178.078C675.142 177.947 673.782 178.248 672.356 179.787C671.758 180.463 669.434 180.705 668.016 180.747C667.066 180.753 666.261 180.184 665.131 179.686C663.322 183.485 658.68 184.308 655.246 186.291C655.449 184.751 655.644 183.484 655.839 182.218C656.25 181.923 656.739 181.679 657.02 181.413C660.449 177.868 664.638 175.922 669.934 175.905C670.819 175.913 671.856 175.684 672.813 175.404C674.663 174.859 676.405 174.134 678.809 173.33C679.493 172.431 679.804 170.459 682.906 170.657C683.388 170.686 684.316 170.276 684.648 169.931C687.406 166.739 691.941 165.735 695.821 163.925C697.908 162.92 699.557 162.079 699.882 160.172C700.005 159.194 700.856 158.122 703.123 157.621C702.913 158.822 702.739 159.88 702.566 160.938C706.473 160.481 706.409 160.495 706.972 158.128C707.116 157.552 707.937 156.963 708.585 156.208C709.333 157.13 709.815 157.771 710.296 158.412C711.109 158.096 711.707 158.032 711.988 157.766C714.451 155.386 717.524 154.23 721.18 153.557C723.267 153.163 725.391 152.014 727.522 151.203C727.221 149.842 727.02 148.935 726.697 147.783C728.115 147.741 729.54 147.426 729.82 147.772C731.136 149.112 733 148.631 734.872 147.877C738.255 146.585 741.609 145.163 745.086 143.986C747.425 143.197 748.433 142.226 748.622 140.622C748.658 140.478 749.083 140.248 749.313 140.061C750.572 139.918 751.832 139.775 752.026 139.732C753.999 138.209 755.108 137.08 756.483 136.232C758.269 135.089 760.306 134.163 762.013 132.97C763.539 131.884 764.627 130.352 766.275 129.512C770.048 127.522 774.036 125.892 777.901 124.017C779.744 123.134 781.465 122.006 782.725 121.251C783.093 119.539 778.776 119.678 782.455 117.573C783.821 118.222 785.188 118.871 786.476 119.47C790.845 117.416 795.358 116.009 798.009 112.637C798.492 112.054 799.6 111.537 800.529 111.128C802.53 110.345 804.653 109.807 806.561 108.909C813.184 105.677 820.231 102.827 826.092 98.6076C826.733 98.1261 827.517 97.6806 828.23 97.523C838.162 95.1215 845.824 89.2128 854.628 85.0902C859.991 82.6124 864.894 79.2848 869.948 76.3317C873.202 74.4564 876.269 72.3506 879.602 70.5258C887.478 66.2007 895.433 61.9261 903.015 57.1905C906.355 55.0922 909.207 52.6264 913.432 51.1478C918.226 49.4755 922.632 46.6657 926.247 43.3513C926.86 42.7402 927.932 42.3669 928.703 41.8567C931.683 39.9739 934.743 38.1417 937.551 36.0932C940.669 33.9083 943.377 31.4063 946.559 29.207C947.855 28.3087 949.733 27.893 951.36 27.2613C952.548 26.7946 953.7 26.4718 954.966 26.0556C954.806 29.0134 959.125 26.4266 960.498 28.0257C959.754 31.7242 966.289 30.5502 967.243 33.3291C969.582 32.5397 970.044 31.5542 970.29 30.2086C970.536 28.863 971.874 28.7707 972.399 28.9942C972.851 30.7291 973.202 32.0106 973.546 33.5655C973.2 34.4576 971.788 36.0611 972.327 36.9613C973.649 39.2512 972.755 41.3519 970.76 43.6962C970.393 44.1852 970.457 44.7826 970.377 45.3439C970.564 45.5744 970.801 45.7258 970.988 45.9562C973.243 42.9429 976.777 42.6367 979.944 41.5962C980.887 41.2517 981.571 40.3527 982.377 39.6986C983.53 38.764 984.617 37.8439 985.884 36.8159C987.724 38.9912 984.01 40.6285 983.706 42.9385C986.514 40.89 989.249 39.7411 990.489 37.3601C990.965 36.4393 992.203 35.2818 994.167 35.8666C994.267 36.9319 994.784 38.0407 994.287 39.1702C993.126 41.6017 994.291 42.5671 997.27 42.5196C996.743 44.1312 995.951 45.4619 995.95 46.6854C995.926 48.7293 995.184 50.5927 993.52 52.5919C991.805 54.6702 991.947 56.5415 993.86 58.4289C995.537 57.718 997.869 57.2021 998.992 56.138C1001.01 54.1967 1003.68 53.6739 1006.05 53.014C1007.9 52.4688 1008.91 51.8365 1010.11 50.8229C1014.38 47.0917 1018.66 43.3606 1023.72 40.1339C1023.96 40.0118 1024.3 40.0049 1024.62 39.9333C1025.09 40.5095 1025.56 41.0856 1026.38 42.058C1029.08 40.4413 1031.54 38.9467 1034.96 36.8988C1032.5 40.2287 1030.56 42.8322 1028.71 45.4861C1028.94 45.6374 1029.25 45.7744 1029.48 45.9258C1031.91 44.3016 1034.27 42.6918 1037.17 40.7586C1036.91 42.0394 1036.7 42.9028 1036.53 43.6871C1037.68 43.9761 1038.61 44.1785 1039.46 44.3304C1038.59 48.3959 1036.49 52.3954 1037.67 56.8227C1039.43 54.6653 1040.83 52.997 1042.03 51.3716C1043.22 49.6814 1041.52 47.8157 1044.74 45.8109C1044.56 47.1421 1044.44 48.1208 1044.3 49.3082C1045.48 48.8415 1046.3 48.5256 1047.12 48.2745C1048.17 49.607 1049.12 50.8241 1050.14 52.0918C1053.89 49.6988 1057.42 47.4927 1061.87 44.6038C1060.1 48.2582 1058.87 51.3157 1057.14 54.2144C1055.95 56.2428 1057.69 56.4028 1059.37 56.6419C1057.65 59.6054 1053.7 61.7032 1053.18 65.4883C1056.72 62.4618 1059.61 59.852 1062.65 57.3432C1065.65 54.9135 1068.87 52.5703 1072.53 49.7886C1072.15 52.0481 1069.94 54.0323 1072.56 55.1504C1073.01 55.3235 1072.27 56.9134 1071.72 57.7837C1070.81 59.2078 1069.21 60.5809 1069.79 62.2871C1075.7 60.0977 1077 55.8671 1080.8 52.7833C1079.97 54.2578 1079.08 55.7468 1078.25 57.2213C1079.67 57.7913 1081.76 58.0092 1079.31 59.8421C1078.42 59.4958 1077.68 59.2504 1077.16 59.0268C1075.62 60.659 1074.36 62.0252 1072.63 63.7653C1072.45 65.0965 1074.96 64.4728 1076.04 65.0496C1077.2 65.6768 1077.8 66.8361 1078.7 67.859C1079.85 67.1979 1080.69 65.1763 1082.74 66.1499C1082.63 68.0786 1082.51 70.0073 1082.41 72.0008C1084.27 71.5204 1085.94 71.0829 1088.32 70.4879C1085.86 74.0912 1083.7 77.2198 1081.61 80.3989C1080.84 81.5209 1080.1 82.7725 1079.94 83.895C1079.81 84.5354 1080.83 85.1266 1081.59 86.1133C1080.96 87.2714 1079.97 88.9186 1079.1 90.5371C1078.56 89.6369 1077.6 89.5784 1076.59 90.5491C1075.3 91.7857 1074.16 93.0585 1073.49 94.634C1075.42 93.254 1077.42 91.8597 1079.35 90.415C1078.29 92.4147 1076.61 94.6226 1080.28 95.2378C1076.34 100.459 1072.22 105.515 1071.74 110.991C1071.66 111.891 1070.79 112.833 1070.39 113.804C1068.93 117.048 1066.98 120.199 1066.78 123.912C1070.13 120.317 1073.57 121.731 1077.3 121.72C1076.83 120.805 1076.52 120.33 1076.34 119.826C1076.07 119.207 1075.86 118.573 1075.6 118.019C1078.64 114.56 1078.64 114.56 1083.8 113.011C1082.9 114.161 1081.22 115.484 1081.53 115.959C1082.62 117.824 1080.23 119.916 1080.65 121.795C1080.97 123.22 1080.38 124.573 1078.34 126.111C1076.77 127.276 1076.09 129.124 1074.75 131.052C1079.38 130.502 1077.86 132.538 1076.64 134.372C1079.73 133.281 1082.5 132.326 1085.28 131.372C1083.61 133.032 1082.01 134.679 1080.33 136.34C1082.86 137.004 1083.61 139.488 1087.28 137.656L1087.4 137.563C1084.68 139.388 1081.97 140.667 1079.5 138.7C1078.37 139.764 1077.69 140.663 1076.69 141.36C1073.51 143.559 1073.49 143.494 1075.69 145.454C1074.38 145.676 1073.07 145.898 1071.76 146.12C1071.76 146.393 1071.81 146.652 1071.81 146.926C1073.07 147.121 1074.29 146.784 1075.48 145.706C1075.03 146.756 1074.97 147.72 1076.96 147.211C1078.31 146.846 1079.66 146.206 1081.05 145.697C1080.35 146.531 1079.71 147.351 1079.01 148.185C1079.24 148.272 1079.48 148.423 1079.7 148.509C1080.56 147.776 1081.35 147.057 1082.2 146.324C1081.76 146.151 1081.31 145.978 1080.95 145.855C1081.13 144.862 1081.24 143.818 1081.43 142.825C1085.92 141.628 1085.86 141.642 1084.97 144.693C1084.7 145.635 1084.5 146.564 1084.23 147.506C1082.99 148.052 1081.7 148.339 1080.94 148.914C1079.23 150.38 1077.52 150.623 1075.32 150.837C1071.46 151.215 1069.48 153.012 1068.28 156.473C1069.65 156.237 1071.03 156 1073.24 155.578C1071.77 157.808 1070.58 159.498 1069.4 161.253C1068.18 163.087 1066.9 165 1065.56 166.927C1066.8 166.993 1067.69 167.001 1068.86 167.082C1066.03 170.562 1062.39 172.862 1058.19 174.744C1059.02 173.269 1059.8 171.873 1060.88 170.003C1059.71 170.261 1059.01 170.484 1058.3 170.641C1058.19 170.461 1057.96 170.31 1058.06 170.152C1058.52 168.554 1059.03 166.878 1059.49 165.281C1059.58 165.058 1059.44 164.748 1059.67 164.561C1063.91 161.312 1064.05 157.001 1068 153.68C1068.18 152.961 1068.3 152.255 1068.48 151.536C1068.22 151.593 1067.89 151.665 1067.64 151.722C1067.78 152.37 1067.94 153.083 1068.16 153.781C1067.56 153.845 1066.9 153.924 1066.29 153.923C1065.68 153.923 1065.15 153.699 1064.65 153.605C1065.13 152.072 1065.84 150.691 1065.96 149.374C1066.04 148.201 1065.52 147.093 1065.2 145.941C1061.3 147.959 1059.91 150.578 1059.92 156.76C1060.56 156.617 1061.73 156.359 1063.53 155.893C1056.8 162.954 1055.91 169.063 1055.94 175.31C1056.76 175.059 1057.53 174.822 1058.29 174.585C1058.27 175.132 1058.32 175.665 1058.31 176.212C1061.57 175.898 1061.57 175.898 1062.78 177.67C1064.87 174.829 1067.69 172.845 1071.83 172.202C1072.28 172.101 1072.76 171.792 1073.18 171.562C1076.54 169.867 1079.66 169.517 1082.56 170.643C1082.48 170.593 1082.38 170.477 1082.24 170.441C1082.66 170.823 1083.57 171.234 1083.45 171.601C1082.8 172.968 1082.27 174.579 1080.94 175.622C1078.06 177.958 1077.17 180.397 1076.39 183.016C1077.01 183.355 1077.65 183.758 1078.58 184.299C1080 183.034 1081.3 181.862 1082.21 181.05C1083.66 180.864 1084.92 180.721 1086.05 180.607C1084.87 182.635 1084.13 183.887 1083.1 185.678C1085.17 185.219 1086.39 184.882 1087.55 184.624C1089.87 187.441 1085.73 188.97 1083.98 191.192C1083.3 190.867 1082.94 190.471 1082.39 190.456C1081.37 190.477 1080.19 190.67 1079.33 191.065C1079.02 191.201 1079.02 192.425 1079.33 192.9C1079.76 193.62 1080.63 194.175 1081.41 194.953C1082.41 194.256 1083.3 193.652 1084.17 192.984C1083.87 193.459 1083.58 193.998 1083.21 194.487C1084.67 194.64 1086.13 194.792 1087.59 194.945C1087.52 194.621 1087.53 194.347 1087.46 194.024C1087.69 195.672 1087.87 197.399 1088.09 199.048L1088.02 198.997C1088.86 200.646 1086.65 202.019 1085.98 203.932C1084.68 203.269 1083.51 202.915 1082.97 202.289C1081.62 200.481 1086.29 199.787 1086.02 197.945C1083.95 198.13 1082.78 198.999 1081.96 200.2C1080.37 202.524 1078.38 204.594 1075.2 206.182C1074.47 206.548 1074.03 207.325 1073.35 207.951C1079.68 208.928 1081.11 210.786 1079.64 215.801C1079.29 216.967 1078.66 218.125 1080.36 218.767C1080.67 218.904 1079.87 220.235 1079.63 220.969C1078.89 220.112 1078.23 219.24 1077.37 218.138C1075.56 219.151 1074 220.107 1071.53 221.537C1073.91 221.215 1075.3 221.044 1076.81 220.844C1077.03 221.816 1074.15 223.54 1077.36 223.917C1078.16 222.925 1078.94 221.868 1079.79 220.796C1079.99 223.2 1082.83 223.181 1086.22 223.451C1084.74 224.731 1083.7 225.572 1082.57 226.571C1081.93 225.829 1081.57 225.433 1080.83 224.576C1079.33 227.287 1078.12 229.525 1076.86 231.776C1078.06 232.324 1080.24 232.319 1078.3 234.922C1076.76 232.273 1074.5 234.336 1072.32 235.226C1071.07 235.707 1069.78 236.332 1068.89 235.374C1067.35 235.783 1065.79 236.127 1064.06 236.579C1066.96 237.092 1066.96 237.092 1068.89 235.374C1069.29 235.965 1069.29 236.915 1071.02 236.398C1072.23 236.061 1073.41 235.868 1074.64 235.596C1075.27 237.223 1074.36 238.309 1072.85 239.459C1070.69 241.09 1067.28 242.865 1066.87 244.383C1066.2 247.182 1062.64 247.697 1061.3 249.624C1061 250.099 1060.78 250.624 1060.32 250.998C1057.88 252.895 1055.58 255.376 1052.8 256.331C1049.52 257.465 1048.62 258.615 1047.85 260.687C1047.48 261.788 1046.58 263.212 1045.37 263.888C1041.49 266.036 1041.32 268.317 1041.67 270.822C1045.96 270.553 1047.06 266.027 1051.81 265.995C1050.16 268.671 1047.92 270.526 1045.17 272.222C1043.75 273.149 1042.51 274.306 1041.26 275.399C1041.03 275.586 1041.13 276.039 1041.13 276.378C1042.61 276.321 1044.02 276.215 1045.57 276.144C1043.79 280.411 1038.21 281.305 1035.2 283.943C1034.23 283.273 1033.68 282.92 1033.13 282.567C1031.74 283.688 1030.71 285.141 1029.42 285.492C1024.13 287.071 1020.17 290.327 1015.49 292.518C1014.44 293.02 1013.51 293.703 1012.64 294.372C1008.65 297.225 1004.82 300.179 1000.73 302.918C993.584 307.761 986.327 312.425 979.177 317.269C976.276 319.203 973.654 321.481 970.595 323.314C965.915 326.116 960.904 328.652 956.117 331.274C954.418 332.194 952.64 333.063 951.049 334.163C948.097 336.175 945.396 338.403 942.351 340.3C937.93 343.046 933.323 345.56 928.73 348.139C924.021 350.812 919.299 353.42 914.511 356.042C909.904 358.557 905.217 361.021 900.53 363.485C897.737 364.987 894.743 366.193 892.266 367.896C887.348 371.159 881.144 372.6 876.27 376.057C873.397 378.12 869.373 379.282 866.012 380.977C861.296 383.311 856.61 385.775 851.909 388.175C846.164 391.077 840.419 393.979 834.725 396.802C833.875 397.262 832.947 397.671 832.033 398.145C824.596 401.693 817.095 405.256 809.673 408.869C805.073 411.11 800.473 413.351 795.78 415.477C790.841 417.725 785.781 419.728 780.62 421.889C780.279 424.955 779.379 425.494 774.974 426.468C771.088 427.328 766.799 427.598 763.594 430.617C762.867 431.322 761.219 431.551 760.017 431.953C759.124 432.218 757.915 432.282 757.26 432.698C753.35 435.602 748.542 437.21 744 439.098C737.262 441.812 731.272 446.06 723.759 447.111C723.629 447.139 723.435 447.182 723.255 447.29C717.331 449.688 711.27 451.777 705.612 454.456C698.341 457.832 690.905 460.768 683.347 463.46C676.617 465.9 669.822 468.355 663.336 471.285C658.693 473.332 654.022 474.637 648.876 476.252C649.639 475.403 650.086 474.965 650.849 474.116C649.611 474.662 648.496 474.841 648.243 475.236C647.004 477.006 645.176 477.954 642.765 478.419C641.923 478.606 641.08 479.404 640.216 479.799C637.056 481.178 633.831 482.571 630.657 483.885C628.346 484.804 625.453 485.24 623.696 486.512C620.874 488.496 617.7 489.198 614.597 490.224C613.021 490.777 611.373 491.006 609.782 491.494C599.101 494.808 588.463 498.318 577.738 501.438C563.948 505.441 550.114 509.249 536.281 513.058C517.128 518.315 497.99 523.636 478.581 526.504C477.789 526.611 477.004 527.057 476.162 527.243C470.93 528.469 465.697 529.694 460.436 530.79C457.442 531.385 454.363 531.591 451.369 532.185C447 533.016 442.66 533.976 438.356 534.792C435.168 535.43 431.951 535.938 428.813 536.496C431.002 535.332 433.176 534.715 435.443 534.214C444.849 532.2 454.205 530.266 463.612 528.253C469.456 527.028 475.307 525.529 481.151 524.304C489.86 522.513 498.583 520.787 507.141 518.01C508.537 517.565 509.976 517.315 511.387 516.935C512.762 516.698 514.122 516.397 515.432 516.175C517.195 515.853 518.066 515.185 517.621 513.788C514.664 513.627 512.9 515.173 511.322 516.949C511.337 516.402 511.287 515.869 511.295 515.596C505.373 514.935 499.88 518.665 493.173 519.062C499.451 514.886 505.533 513.813 511.426 513.12C515.269 512.678 518.307 511.666 521.122 509.344C522.26 508.344 523.657 507.288 525.104 506.764C529.25 505.235 533.554 503.807 537.772 502.602C538.794 502.308 540.125 503.101 541.068 502.756C543.911 501.787 546.682 500.494 548.979 499.511C549.899 499.986 550.683 500.764 551.251 500.571C555.21 499.423 559.047 498.03 563.106 496.724C562.805 495.976 562.64 495.536 562.46 495.033L562.41 495.112C564.274 494.631 566.152 494.216 568.067 493.656C569.981 493.096 571.803 491.81 573.918 492.157C573.472 492.596 572.917 492.855 572.428 493.099C571.744 493.386 571.111 493.594 570.427 493.881C576.904 493.06 583.179 491.943 587.552 486.219C585.04 486.842 583.032 487.287 580.988 487.875C578.75 488.506 576.569 489.396 574.33 490.028C564.577 492.933 554.825 495.838 545.137 498.73C539.213 500.516 533.354 502.288 527.431 504.074C525.71 504.591 523.882 504.927 522.148 505.379C516.57 506.885 510.984 508.665 505.349 509.912C497.9 511.56 491.248 515.274 484 517.218C483.085 518.915 480.991 518.971 479.371 519.329C472.57 520.834 465.819 522.26 459.003 523.7C457.384 524.058 455.938 523.971 455.432 525.985C455.194 527.057 452.797 528.199 450.509 527.686C449.149 527.375 447.127 527.755 445.443 528.128C443.19 528.694 441.038 529.714 438.785 530.28C436.467 530.861 434.041 531.873 430.674 531.395C432.87 530.57 433.928 530.132 435 529.758C437.527 529.2 439.988 528.655 442.514 528.096C439.709 527.086 437.347 528.696 434.95 529.838C428.898 530.429 422.867 530.812 416.844 531.533C411.871 532.09 406.805 533.143 401.86 533.829C391.814 535.101 381.832 536.358 371.808 537.42C361.51 538.476 351.205 539.193 340.929 540.039C340.799 540.068 340.727 539.744 340.577 539.37C341.923 539.004 343.153 538.732 344.434 538.38C344.442 538.107 344.464 537.898 344.471 537.625C341.183 537.809 337.973 538.043 334.749 538.213C334.72 538.083 334.692 537.953 334.663 537.824C335.851 537.357 337.103 536.876 339.363 536.036C334.801 536.298 331.354 536.381 327.807 536.623C313.796 537.48 299.77 538.273 286.416 536.878C284.395 536.646 281.731 537.507 279.926 537.023C273.66 535.419 266.456 536.334 259.671 536.068C252.547 535.809 244.905 536.277 239.374 533.084C239.057 532.882 238.511 532.867 238.093 532.823C231.424 531.852 224.819 530.867 218.113 530.04C209.933 528.996 201.665 528.175 193.485 527.131C186.779 526.304 180.124 525.398 173.555 524.269C169.325 523.574 165.281 522.498 161.138 521.58C169.047 520.17 175.478 522.824 183.51 521.047C182.827 520.111 182.072 519.462 180.935 519.238C175.762 518.276 170.474 517.407 165.251 516.524C164.546 516.408 164.006 516.12 163.402 515.846C163.553 515.609 163.705 515.371 163.856 515.134C170.807 515.839 178.205 514.881 185.393 515.126C192.308 515.363 199.395 515.765 206.808 514.873C205.52 514.274 204.11 514.043 202.599 513.969C187.194 512.824 171.5 512.219 156.557 510.089C142.8 508.104 129.108 506.104 115.856 503.328C109.453 502.027 103.115 500.711 96.9136 499.093C94.7554 498.551 92.6475 497.93 90.3959 497.273C93.1244 495.786 94.9094 495.255 97.1531 496.797C99.1739 498.253 102.793 498.335 106.435 497.598C108.184 497.211 110.026 496.939 111.717 496.904C119.964 496.711 128.16 496.596 136.356 496.482C137.435 496.447 138.558 496.606 139.687 496.492C140.738 496.328 142.321 496.113 142.818 495.596C144.705 493.683 146.727 493.915 148.555 494.19C158.174 495.596 168.797 493.857 178.892 493.73C181.598 493.675 184.267 493.764 187.031 493.356C193.35 492.434 199.171 492.641 204.948 493.266C206.553 493.454 208.424 493.312 210.108 492.939C212.908 492.388 215.715 491.563 219.119 490.674C202.527 488.772 186.144 487.504 169.458 486.711C174.265 486.327 179.007 485.957 183.814 485.573C173.771 483.174 162.149 483.775 152.084 481.585C152.171 481.362 152.243 481.074 152.265 480.865C154.316 480.615 156.381 480.43 158.511 480.231C145.51 478.894 132.731 477.644 119.938 476.329C125.316 473.916 129.134 477.352 134.669 475.04C133.161 471.908 130.147 470.264 125.852 469.584C121.909 468.961 117.966 468.338 114.024 467.716C116.091 465.695 114.285 465.211 112.897 464.771C106.142 462.8 99.3361 460.908 92.4153 459.109C87.1564 457.758 81.4148 456.99 76.4872 455.294C71.8617 453.735 66.9262 452.924 61.7963 452.156C56.7312 451.374 51.8677 450.275 46.9035 449.335C47.6739 448.825 48.257 448.696 48.739 448.725C57.3083 449.683 65.8776 450.641 74.4469 451.6C77.5767 451.927 80.7353 452.383 83.966 452.552C85.6209 452.661 87.5059 453.196 89.6015 451.305C86.1987 450.359 83.0045 449.434 79.6017 448.488C81.3895 444.899 78.6849 443.73 75.6204 442.777C74.455 442.423 73.1599 442.098 71.7784 441.996C67.2166 441.647 62.6045 441.376 57.9922 441.105C57.0928 441.032 56.2296 440.816 55.3806 440.664C56.2662 440.06 56.8492 439.931 57.4608 439.932C66.9232 440.013 76.9127 437.87 86.2019 438.397C86.6193 438.441 87.2021 438.312 87.6555 438.212C92.838 436.453 98.07 435.839 102.862 436.002C104.216 434.751 105.318 433.896 106.261 432.94C107.637 431.48 107.335 430.731 105.313 430.499C103.982 430.318 102.298 430.69 101.119 429.66C109.64 428.25 117.159 429.373 125.665 427.899C124.552 425.63 122.552 425.19 119.897 425.165C113.557 425.073 108.277 423.319 102.745 421.961C106.969 421.706 111.143 421.53 115.093 421.879C125.324 422.673 135.556 423.468 146.134 423.37C147.487 423.342 149.401 423.394 150.351 422.776C152.302 421.461 153.784 422.017 155.36 422.076C156.871 422.149 158.324 422.575 159.871 422.505C168.01 422.131 176.199 421.678 184.374 421.161C186.583 421.012 188.8 420.589 191.045 420.296C191.146 420.138 191.168 419.929 191.269 419.771C189.621 419.388 187.96 418.94 185.24 418.319C187.608 417.659 188.861 417.178 190.055 417.049C193.459 416.772 196.74 416.862 200.115 416.455C206.074 415.748 212.083 415.574 218.043 413.032C218.237 412.989 218.417 412.881 218.518 412.723C221.562 412.661 224.67 412.585 227.729 412.587C227.765 412.444 227.866 412.285 227.887 412.077C225.852 411.168 223.816 410.259 221.428 409.292C223.134 408.711 224.401 408.295 225.603 407.893C231.325 405.811 236.868 403.226 243.035 403.152C244.87 403.154 246.936 402.357 248.894 401.992C248.865 401.863 248.901 401.719 248.872 401.589C247.57 401.537 246.203 401.5 244.915 401.513C244.951 401.369 244.973 401.161 245.009 401.017C249.932 399.928 254.84 398.773 259.892 397.656C259.555 397.051 259.31 396.561 259.066 396.071L259.016 396.151C260.88 395.67 262.795 395.111 264.659 394.63C265.76 394.387 267.127 394.424 267.976 393.964C271.461 391.902 274.937 391.948 278.333 391.944C280.65 391.975 282.78 391.776 284.94 390.483C286.631 390.448 288.365 390.608 289.984 390.25C300.182 388.129 310.338 385.814 320.522 383.629C322.853 383.113 325.214 382.727 327.517 382.081C320.919 382.046 303.437 385.642 284.904 390.626C283.393 390.553 281.853 390.35 280.306 390.421C273.757 390.918 267.144 391.43 260.545 392.007C250.139 392.882 239.624 394.801 229.45 394.266C225.737 394.068 221.628 394.841 217.692 395.168C210.819 395.737 203.954 396.033 197.06 396.811C177.572 399.016 158.351 400.279 139.513 399.894C135.282 399.811 131.101 399.648 126.921 399.486C129.929 398.345 132.844 397.7 135.737 397.263C141.898 396.24 148.022 395.361 154.168 394.273C155.219 394.108 156.371 393.174 157.372 392.476C158.913 391.456 159.95 390.003 162.332 390.02C166.937 389.952 171.564 389.676 176.192 389.4C177.868 389.301 179.595 389.122 181.272 389.023C181.359 388.8 181.38 388.591 181.467 388.368C176.559 388.299 171.587 388.244 166.666 388.11C168.393 387.32 169.948 386.976 171.545 386.826C175.223 386.556 178.892 386.56 182.555 386.225C186.024 385.933 189.579 386.03 193.07 384.306C197.473 385.778 202.576 383.97 207.786 383.564C204.413 381.524 198.397 381.972 193.02 384.385C193.733 383.004 193.389 382.061 191.331 381.973C190.381 381.979 189.481 381.906 188.517 381.848C198.507 379.705 214.075 375.445 216.645 373.857C212.615 374.069 208.845 374.224 205.074 374.378C204.333 374.407 203.225 374.312 203.088 374.002C202.385 371.44 199.757 373.38 197.908 373.314C197.677 374.112 197.533 374.688 197.33 375.616C192.631 375.568 187.867 376.147 184.026 375.366C180.968 374.751 178.133 374.835 174.938 375.134C168.742 375.69 162.553 375.972 156.055 376.39C157.496 374.304 159.043 373.622 161.238 373.408C167.175 372.91 173.163 372.333 179.121 371.626C183.159 371.14 187.167 370.525 191.241 369.896C198.711 368.651 206.181 367.406 213.623 366.031C220.74 364.728 227.894 363.281 234.983 361.848C235.761 361.676 236.617 361.555 237.409 361.448C244.166 360.36 251.003 359.323 257.761 358.236C258.488 358.143 259.28 357.424 260.72 356.562C259.353 356.524 258.763 356.315 258.259 356.494C253.782 357.757 249.307 357.184 244.75 359.008C242.505 359.912 239.957 360.068 237.705 359.411C236.54 359.057 234.964 358.998 233.604 359.299C230.207 359.915 226.831 360.934 223.485 361.47C215.482 362.765 207.305 365.73 199.369 365.175C198.613 365.139 197.757 365.26 196.915 365.446C186.536 367.675 176.542 367.644 166.409 368.526C160.472 369.024 154.687 368.673 148.49 370.452C146.835 370.955 144.726 370.945 143.352 370.57C138.877 369.385 133.89 369.877 128.831 370.657C127.78 370.821 126.658 370.662 125.629 370.618C125.716 370.395 125.737 370.186 125.824 369.963C127.738 369.403 129.588 368.858 131.877 368.148C131.151 367.629 131 367.255 130.583 367.211C128.309 366.763 125.985 366.393 123.712 365.945C121.661 365.583 118.847 366.07 116.985 364.103C121.49 364.194 125.246 363.974 128.599 364.388C138.917 365.571 149.531 365.329 160.779 363.656C163.867 363.177 167.3 361.805 169.826 361.858C176.115 362.03 182.034 357.458 188.142 358.349C188.351 358.371 188.696 358.09 189.006 357.954C192.238 356.287 195.585 355.751 199.003 355.538C200.003 355.453 201.061 355.015 202.098 354.785C202.17 354.498 202.177 354.224 202.264 354.001C200.415 353.935 198.565 353.868 196.666 353.881C193.025 354.007 189.369 354.068 185.72 354.467C178.618 355.224 171.493 356.188 164.419 357.074C161.511 357.445 158.676 357.529 155.754 357.836C150.264 358.507 144.787 359.243 139.282 359.85C137.828 360.035 136.101 360.214 135.159 358.723C136.455 358.436 137.347 358.171 138.218 358.114C140.298 357.994 142.334 358.291 144.371 357.976C153.791 356.639 163.183 355.173 172.625 353.627C174.532 353.341 176.454 352.508 178.326 351.754C178.829 351.575 179.14 350.827 179.723 350.086C173.447 351.203 167.704 352.27 161.932 353.207C160.817 353.386 159.428 353.557 158.666 353.182C155.393 351.596 151.938 352.564 148.18 354.619C145.944 352.191 142.361 352.576 138.518 353.019C135.466 353.354 132.545 353.049 129.552 353.032C132.121 352.056 134.532 351.59 136.936 351.398C142.261 350.899 147.587 350.401 152.89 350.111C156.049 349.955 158.18 348.532 159.024 346.511C159.933 344.475 161.523 343.987 163.869 343.536C166.604 342.999 169.576 342.613 172.053 341.521C175.278 340.128 178.387 339.44 181.632 339.062C184.216 338.762 186.792 338.736 189.347 338.306C192.823 337.741 196.442 337.824 199.819 336.193C199.923 332.365 201.269 331.387 206.623 331.018C209.17 330.862 211.847 330.678 214.345 329.989C218.836 328.791 223.256 327.27 227.596 325.698C232.131 324.083 236.472 321.899 241.064 320.543C245.332 319.259 248.744 317.485 251.208 314.493C251.374 314.321 251.748 314.17 251.388 314.385C255.18 314.022 258.476 314.176 261.556 313.359C267.458 311.781 273.296 309.606 279.205 307.755C280.163 307.475 281.134 307.26 282.091 306.98C289.116 304.95 296.342 303.215 303.188 300.681C306.391 299.497 309.364 298.499 312.595 298.056C313.063 298.021 313.645 297.892 314.02 297.741C319.714 294.918 326.011 294.204 331.935 291.806C337.356 289.588 343.185 288.298 348.85 286.569C352.549 285.478 356.184 284.402 359.884 283.312C363 282.35 366.289 281.555 369.255 280.219C374.942 277.669 380.901 276.351 386.775 274.644C388.689 274.084 390.589 273.46 392.504 272.9C396.643 271.645 400.796 270.454 404.934 269.198C407.792 268.294 410.57 267.34 413.428 266.436C414.889 265.976 416.3 265.596 417.761 265.137C422.209 263.745 426.406 261.525 431.112 261.299C431.983 261.243 433.041 260.805 433.984 260.46C435.999 259.742 438.015 259.025 440.534 258.127C441.168 256.696 442.738 255.805 445.422 255.347C448.301 254.846 451.18 253.733 453.944 252.714C455.766 252.039 457.291 251.565 459.068 251.92C461.119 252.282 463.134 251.564 465.524 250.695C468.972 249.389 472.039 247.895 475.005 245.947C476.02 245.315 477.46 245.064 478.741 244.713C480.965 244.017 483.232 243.515 485.442 242.754C489.847 241.168 494.145 238.79 498.564 237.88C504.926 236.54 510.843 233.804 517.155 232.543C520.732 231.82 524.425 230.391 527.792 230.258C532.304 230.075 535.745 228.43 539.295 226.354C540.31 225.721 541.778 224.989 542.807 225.033C544.772 225.006 546.499 224.828 547.364 223.209C548.063 221.763 547.841 220.453 546.108 219.681C545.057 219.234 544.403 218.427 543.663 217.844C543.994 217.499 544.095 217.34 544.224 217.312C549.457 216.086 554.739 216.005 559.958 213.491C561.736 212.622 564.225 212.818 566.874 212.504C566.175 213.338 565.951 213.863 565.707 213.986C562.691 214.789 559.69 215.657 556.616 216.201C552.493 216.909 551.11 218.642 552.777 221.264C556.36 220.879 560.097 219.033 563.629 219.95C564.348 220.131 566.594 219.226 567.063 218.579C568.619 216.399 570.958 216.222 573.405 215.612C576.111 214.946 578.745 213.955 581.394 213.029C582.028 212.821 582.798 212.311 583.215 212.354C585.92 212.911 588.548 211.582 591.053 210.62C597.034 208.481 602.923 206.227 608.811 203.973C609.379 203.779 609.826 203.34 611.352 202.255C608.783 202.62 607.207 202.56 605.89 203.056C602.557 204.269 599.578 204.928 597.003 203.731C592.532 205.943 588.206 207.58 583.456 208.835C578.965 210.033 574.459 211.166 569.377 212.766C572.208 209.285 575.484 207.813 579.507 207.262C581.09 207.048 582.717 206.416 584.322 205.993C586.445 205.455 588.568 204.918 591.325 204.172C592.521 202.208 594.623 201.267 598.055 201.731C599.739 201.97 602.164 200.958 604.194 200.305C607.879 199.15 611.471 197.879 615.142 196.659C616.215 196.286 617.381 196.028 618.424 195.525C622.549 193.593 627.622 194.102 631.266 190.917C631.381 190.824 631.863 190.853 632.151 190.925C633.834 191.164 635.145 190.331 636.743 189.569C640.774 187.522 644.662 184.827 649.598 185.026C649.808 184.436 649.995 184.055 650.002 183.781C649.981 183.378 649.78 183.083 649.694 182.694C654.574 180.799 654.574 180.799 656.76 182.694C654.091 181.993 652.637 182.179 651.844 184.121ZM908.753 341.686C911.056 341.041 913.913 340.748 913.419 338.207C914.959 337.799 916.499 337.39 918.039 336.981C917.996 336.787 917.874 336.542 917.831 336.347C916.399 336.936 914.916 337.604 913.419 338.207C911.856 339.436 910.33 340.522 908.753 341.686ZM706.383 445.043C711.925 443.069 717.985 441.592 722.953 438.862C727.791 436.161 733.225 434.619 737.984 431.867C740.273 430.545 743.173 429.835 745.729 428.794C748.982 427.53 752.157 426.216 755.425 425.018C761.212 422.922 766.288 419.76 771.701 417.203C774.768 415.709 777.626 413.581 781.325 413.714C781.728 413.693 782.282 413.434 782.707 413.205C789.006 410.044 795.291 406.818 801.525 403.672C801.282 401.959 799.893 402.13 798.424 402.863C796.646 403.732 794.976 404.781 793.198 405.651C783.559 410.298 773.582 414.34 763.835 418.807C751.496 424.46 738.971 429.881 726.446 435.303C720.37 437.939 714.122 440.408 708.032 442.979C706.665 443.554 705.39 444.243 704.116 444.933C704.274 445.034 704.382 445.214 704.54 445.315C705.138 445.251 705.814 445.237 706.383 445.043ZM1040.43 144.218C1041.43 142.298 1042.34 140.6 1043.5 138.442C1043.9 138.421 1044.9 138.336 1046.25 138.308C1047.31 136.308 1048.33 134.179 1049.51 131.812C1044.33 132.074 1039.15 132.609 1034.77 136.771C1031.75 139.683 1032.24 141.613 1036.63 142.408C1036.36 143.013 1036.03 143.696 1035.77 144.365C1035.5 144.969 1035.27 145.495 1034.96 146.243C1037.01 146.878 1038.97 147.463 1041.38 148.221C1042.21 146.746 1042.97 145.56 1043.95 143.848C1042.15 144.04 1041.28 144.097 1040.43 144.218ZM571.258 497.639C569.84 498.904 568.643 500.868 566.227 499.772C563.296 501.575 559.526 501.118 556.588 503.195C555.768 503.785 554.083 504.157 553.04 504.049C549.457 503.822 546.93 505.604 543.639 507.624C545.28 507.668 546.445 508.022 547.467 507.728C551.455 506.71 555.464 505.483 559.408 504.271C565.461 502.455 571.5 500.576 577.554 498.761C587.033 495.848 596.563 492.856 606.042 489.943C606.481 489.778 606.906 489.548 607.273 489.059C601.501 489.996 595.966 492.308 589.697 493.763C590.748 492.987 591.389 492.505 592.03 492.024C585.163 494.766 578.777 498.762 571.258 497.639ZM925.793 52.9661C928.844 53.2425 931.168 53.6118 933.628 53.6789C934.384 53.7156 935.572 53.2489 936.342 52.7387C939.618 50.6546 942.815 48.5202 946.012 46.3858C946.667 45.969 947.358 45.4082 947.632 44.804C948.007 44.0414 948.36 42.8759 947.886 42.5731C947.239 42.1047 945.807 42.0817 944.598 42.1454C943.921 42.1591 943.021 42.698 942.352 43.0501C939.033 44.9397 935.743 46.9589 932.345 48.7981C931.366 49.2865 930.013 49.314 928.055 49.6792C927.4 50.7078 926.614 51.765 925.793 52.9661ZM165.079 481.971C178.614 482.646 191.651 484.451 205.633 484.076C206.165 484.026 206.821 483.609 207.634 483.293C205.354 481.895 202.843 481.295 199.562 481.817C192.559 483.027 186.408 481.941 179.946 481.604C173.485 481.267 167.175 480.692 160.764 480.276C160.612 480.513 160.54 480.801 160.389 481.038C162.022 481.357 163.425 481.862 165.079 481.971ZM246.44 377.39C239.919 378.629 233.464 379.854 226.965 380.884C225.267 381.192 223.432 381.19 221.942 380.908C219.108 380.38 216.43 381.176 213.097 382.389C217.586 383.639 222.271 383.01 226.741 382.021C232.441 380.76 237.924 380.362 243.523 379.871C246.524 379.614 249.554 378.876 252.965 378.325C251.225 376.603 248.865 376.99 246.44 377.39ZM829.868 388.362C829.976 388.542 830.005 388.672 830.112 388.852C831.228 388.673 832.293 388.573 833.38 388.265C834.92 387.856 837.1 387.578 837.864 386.729C840.377 384.27 843.839 383.64 846.855 382.225C850.98 380.293 854.731 377.9 858.576 375.622C859.116 375.299 859.375 374.63 859.729 374.076C859.506 373.99 859.283 373.903 859.06 373.816C849.334 378.687 839.608 383.557 829.868 388.362ZM651.476 464.667C648.057 466.103 643.941 466.538 641.19 469.458C642.37 469.264 643.737 469.302 644.73 468.878C654.888 464.116 666.108 461.702 676.143 456.695C676.007 456.385 675.82 456.155 675.683 455.845C667.557 458.731 659.294 461.306 651.476 464.667ZM1068.29 131.665C1068.32 130.233 1069.14 127.808 1065.58 127.099C1063.55 130.473 1061.48 133.717 1059.63 137.047C1059.28 137.601 1059.76 138.242 1059.85 139.242C1063.99 136.763 1068.18 134.817 1068.29 131.665ZM520.413 514.122C527.322 513.409 533.763 511.508 540.285 508.434C539.372 508.296 538.508 508.079 537.638 508.136C535.961 508.235 534.248 508.478 532.55 508.786C531.708 508.972 530.621 509.281 530.045 509.748C528.021 511.351 525.906 511.615 523.474 511.066C522.25 512.288 521.407 513.086 520.413 514.122ZM647.5 461.741C647.507 461.468 647.529 461.259 647.536 460.986C646.651 460.978 645.658 460.79 644.845 461.105C637.856 463.603 630.867 466.101 623.906 468.729C622.279 469.36 620.868 470.352 619.349 471.164C619.521 471.33 619.708 471.56 619.816 471.74C629.051 468.338 638.236 465.014 647.5 461.741ZM290.077 399.268C282.349 398.735 274.446 401.095 266.666 403.089C274.473 403.06 282.268 401.743 290.077 399.268ZM678.562 455.344C683.859 454.716 691.179 451.873 701.892 446.241C696.005 447.271 681.342 453.166 678.562 455.344ZM805.435 400.157C808.609 400.066 811.537 400.709 814.18 397.61C815.477 396.1 818.529 395.153 820.847 393.96C822.366 393.148 823.899 392.401 825.497 391.64C825.282 391.28 825.081 390.985 824.865 390.625C818.372 393.828 811.943 397.018 805.435 400.157ZM1031.14 228.163C1033.44 225.955 1035.93 223.705 1038.2 221.368C1039.41 220.081 1040.19 218.686 1041.19 217.377C1040.9 217.304 1040.6 217.167 1040.31 217.095C1034.96 219.911 1030.64 225.283 1031.14 228.163ZM362.561 496.245C363.244 497.793 365.137 496.83 366.706 496.551C365.401 498.946 368.288 497.56 369.878 497.684C369.714 496.021 369.536 494.294 369.271 492.178C366.449 493.55 364.362 494.555 362.389 495.467C362.518 496.05 362.547 496.18 362.561 496.245ZM870.872 368.552C876.148 367.521 879.74 365.639 882.822 362.986C878.274 363.313 874.409 364.576 870.872 368.552ZM620.624 198.097C619.025 199.47 617.708 199.965 615.535 199.97C613.283 199.925 612.382 201.076 612.575 202.868C616.678 201.145 620.896 199.328 625.064 197.59C624.928 197.28 624.87 197.021 624.734 196.712C623.402 197.142 621.481 197.364 620.624 198.097ZM1077.07 80.4522C1073.06 82.2908 1073.06 82.2907 1070.55 87.8084C1073.71 87.0414 1074.46 86.1281 1077.07 80.4522ZM603.596 481.649C608.942 481.554 612.75 480.032 615.745 477.602C612.018 477.951 608.138 479.149 603.596 481.649ZM422.841 527.624C417.969 528.634 414.069 528.205 409.124 530.115C413.988 530.602 417.903 530.483 422.841 527.624ZM639.232 469.211C634.424 470.819 630.509 472.161 626.089 473.682C629.975 474.046 636.438 471.936 639.232 469.211ZM302.262 354.845C298.457 353.92 295.29 354.349 292.173 356.534C295.829 355.861 298.85 356.62 302.262 354.845ZM242.626 484.521C239.749 483.187 234.114 483.21 227.709 484.356C232.213 485.058 237.135 484.581 242.626 484.521ZM359.871 536.596C364.217 537.197 368.916 536.021 373.68 535.443C369.479 534.266 364.548 536.24 359.871 536.596ZM602.646 481.656C598.58 481.4 596.06 483.521 592.288 484.899C596.627 485.162 599.384 483.805 602.646 481.656ZM861.903 372.848C864.933 372.109 864.933 372.109 868.267 369.673C865.086 369.425 863.516 370.927 861.903 372.848ZM722.212 446.57C722.119 446.454 722.09 446.325 722.011 446.274C718.152 447.876 714.244 449.556 710.385 451.157C710.414 451.287 710.508 451.402 710.587 451.452C714.445 449.851 718.303 448.25 722.212 446.57ZM883.961 360.763C887.365 360.486 889.294 359.379 891.232 356.776C889.044 357.94 886.87 359.168 883.961 360.763ZM404.259 531.464C404.266 531.19 404.209 530.931 404.216 530.657C401.935 531.094 399.589 531.545 397.293 531.917C397.3 532.256 397.386 532.644 397.393 532.983C399.66 532.481 401.927 531.979 404.259 531.464ZM1072.56 187.194C1069.75 188.292 1069.73 189.451 1070.01 191.02C1073.71 189.93 1072.42 188.719 1072.56 187.194ZM330.814 347.848C328.908 346.911 327.303 347.334 325.87 348.534C325.942 348.858 326.064 349.103 326.135 349.427C327.726 348.939 329.302 348.387 330.814 347.848ZM1071.76 129.811C1073.27 128.661 1074.43 127.791 1076.23 126.375C1072.1 126.472 1072.1 126.472 1071.76 129.811ZM950.767 31.3342C950.415 30.6645 950.401 29.988 949.984 29.9444C948.365 29.691 946.983 30.2007 945.729 31.9052C947.456 31.7269 948.78 31.5698 950.767 31.3342ZM278.397 359.99C278.419 359.781 278.361 359.522 278.383 359.313C276.102 359.75 273.806 360.122 271.524 360.559C271.596 360.883 271.653 361.142 271.725 361.466C273.992 360.964 276.195 360.477 278.397 359.99ZM956.549 35.3556C957.42 34.0754 958.026 33.1259 958.897 31.8457C954.68 33.0508 954.68 33.0508 956.549 35.3556ZM434.413 526.49C437.551 525.932 439.588 525.617 441.675 525.224C441.617 524.964 441.546 524.64 441.553 524.367C439.552 525.15 437.409 524.061 434.413 526.49ZM1063.37 196.296C1061.13 196.928 1059.85 197.279 1058.51 197.709C1058.59 198.033 1058.64 198.293 1058.71 198.616C1060.33 199.143 1061.6 198.454 1063.37 196.296ZM348.805 535.714C345.862 535.006 345.862 535.006 343.112 536.702C344.889 536.445 346.523 536.151 348.805 535.714ZM1080.25 186.309C1078.64 187.617 1077.6 188.458 1076.5 189.313C1078.53 188.999 1080.28 188.612 1080.25 186.309ZM316.943 369.606C317.324 369.793 317.655 370.06 317.979 369.988C318.886 369.788 319.829 369.443 321.535 368.862C319.42 367.903 318.182 367.837 316.943 369.606ZM345.166 343.313C345.173 343.652 345.166 343.925 345.237 344.249C346.742 343.984 348.181 343.734 349.685 343.469C349.664 343.066 349.657 342.728 349.7 342.31C348.132 342.589 346.656 342.984 345.166 343.313ZM333.283 346.418C333.262 346.627 333.29 346.757 333.269 346.965C335.176 346.679 337.162 346.444 339.069 346.158C338.933 345.848 338.861 345.524 338.724 345.215C336.911 345.616 335.097 346.017 333.283 346.418ZM145.246 475.554C145.045 475.871 144.843 476.187 144.72 476.554C145.922 476.764 147.188 476.96 148.39 477.169C148.642 476.774 148.815 476.328 149.067 475.932C147.815 475.801 146.563 475.671 145.246 475.554ZM322.48 365.459C322.502 365.25 322.524 365.041 322.546 364.832C321.027 365.032 319.509 365.233 317.99 365.433C317.997 365.771 318.069 366.095 318.076 366.433C319.551 366.039 321.055 365.774 322.48 365.459ZM193.669 374.116C192.879 372.388 191.814 372.487 189.985 374.047C190.999 374.027 192.028 374.071 193.669 374.116ZM350.589 535.795C351.891 535.847 352.179 535.919 352.438 535.862C353.036 535.798 353.712 535.784 354.345 535.576C354.734 535.49 355.144 535.195 355.584 535.03C355.526 534.771 355.469 534.512 355.412 534.252C354.145 534.669 352.864 535.02 350.589 535.795ZM1067.14 229.917C1066.98 229.816 1066.74 229.665 1066.58 229.564C1065.88 230.06 1065.18 230.621 1064.48 231.116C1064.72 231.268 1064.95 231.419 1065.19 231.571C1065.82 231.024 1066.44 230.478 1067.14 229.917ZM236.339 407.284C239.109 407.827 239.773 406.525 240.529 405.338C239.356 405.869 238.182 406.401 236.339 407.284ZM308.834 352.915C309.179 353.247 309.949 353.348 310.611 353.27C310.935 353.198 311.259 352.515 311.655 352.155C311.08 352.011 310.555 351.787 308.72 351.174C308.712 352.059 308.503 352.649 308.834 352.915ZM252.376 369.825C252.383 369.551 252.39 369.278 252.398 369.004C251.088 369.226 249.778 369.448 248.454 369.605C248.461 369.943 248.389 370.231 248.396 370.569C249.706 370.348 251.08 370.111 252.376 369.825ZM543.333 504.701C543.29 504.507 543.311 504.298 543.268 504.104C542.023 504.311 540.728 504.598 539.483 504.806C539.49 505.144 539.561 505.468 539.568 505.806C540.849 505.455 542.066 505.118 543.333 504.701ZM618.531 485.277C618.516 485.212 618.502 485.147 618.473 485.017C617.84 485.226 617.192 485.369 616.624 485.563C615.925 485.785 615.321 486.123 614.637 486.41C614.759 486.655 614.867 486.835 614.989 487.08C616.148 486.483 617.372 485.873 618.531 485.277ZM1064.39 139.801C1064.54 139.902 1064.77 139.988 1064.93 140.089C1065.5 139.622 1066.08 139.155 1066.6 138.767C1066.3 138.63 1066.06 138.478 1065.76 138.341C1065.33 138.845 1064.82 139.297 1064.39 139.801ZM1074.67 209.902C1074.51 209.801 1074.35 209.7 1074.2 209.664C1073.58 210.211 1072.95 210.757 1072.25 211.253C1072.61 211.376 1072.98 211.498 1073.28 211.635C1073.76 211.053 1074.18 210.485 1074.67 209.902ZM1069.24 68.3897C1069.41 68.5554 1069.51 68.6706 1069.68 68.8363C1070.33 68.4195 1071 68.0675 1071.66 67.6507C1071.49 67.485 1071.39 67.3698 1071.22 67.2041C1070.55 67.5561 1069.9 67.9729 1069.24 68.3897ZM687.709 445.709C687.616 445.594 687.587 445.464 687.494 445.349C686.306 445.816 685.133 446.347 683.945 446.814C683.973 446.943 684.067 447.058 684.16 447.174C685.348 446.707 686.536 446.24 687.709 445.709ZM1072.49 133.454C1072.54 133.375 1072.03 133.216 1071.73 133.079C1071.53 133.395 1071.25 133.661 1071.13 134.028C1071.08 134.107 1071.44 134.23 1071.74 134.367C1072.01 134.036 1072.36 133.756 1072.49 133.454ZM205.273 369.442C205.294 369.233 205.316 369.024 205.352 368.88C204.496 369.002 203.639 369.123 202.783 369.245C202.761 369.454 202.74 369.662 202.703 369.806C203.625 369.67 204.481 369.549 205.273 369.442Z" fill="#EB7E17"/>
</svg>
