<svg width="1166" height="425" viewBox="0 0 1166 425" fill="none" xmlns="http://www.w3.org/2000/svg">
<path fill-rule="evenodd" clip-rule="evenodd" d="M482.038 310.839C483.632 308.393 487.34 307.393 490.55 306.432C492.645 305.817 494.826 305.388 496.824 304.458C498.062 303.845 499.842 303.77 501.384 303.391C502.433 303.115 503.554 302.834 504.609 302.623C504.073 301.246 502.663 301.485 501.187 301.794C493.864 303.142 486.465 304.431 479.142 305.779C478.224 305.915 477.301 305.987 476.464 306.246C470.21 308.477 463.507 308.616 457.198 310.142C451.376 311.501 445.088 311.477 439.655 314.16C438.484 314.703 436.932 314.954 435.527 315.257C427.666 317.034 419.805 318.81 411.939 320.523C409.343 321.113 406.645 321.325 404.043 321.851C402.847 322.074 401.736 322.483 400.625 322.893C399.164 323.394 397.719 324.087 396.177 324.466C390.147 325.906 384.031 327.159 377.924 328.54C377.433 328.643 376.794 328.693 376.383 328.919C368.743 332.613 359.798 333.313 351.552 335.636C342.676 338.137 333.715 340.451 324.768 342.958C322.389 343.595 320.183 344.607 317.89 345.431C313.65 346.924 309.415 348.481 305.281 350.417C309.627 349.367 313.973 348.317 318.325 347.332C325.831 345.583 333.347 343.962 340.777 342.155C342.46 341.765 343.972 341.002 345.636 340.356C346.402 340.102 347.157 339.72 347.999 339.526C353.324 338.206 358.726 336.944 364.056 335.688C364.548 335.585 365.106 335.412 365.512 335.123C369.879 332.524 374.956 331.674 380.28 331.257C381.345 331.174 382.471 330.957 383.445 330.622C387.599 328.943 391.833 328.289 396.336 328.323C398.623 328.337 401.184 328.201 402.889 326.262C404.792 324.114 407.656 325.114 410.308 325.229C411.333 324.633 412.424 323.967 413.783 323.087C415.284 323.098 416.932 323.162 418.509 323.232C422.436 320.474 425.225 319.611 431.255 319.074C431.397 319.063 431.615 319.11 431.752 319.035C436.707 317.551 441.743 316.189 446.688 314.576C449.265 313.73 451.775 312.952 454.386 313.457C456.343 313.82 457.834 313.703 459.589 312.405C460.33 311.831 462.835 311.892 464.346 312.032C465.355 312.146 466.12 312.796 467.24 313.417C469.758 309.996 474.814 309.793 478.77 308.323C478.312 309.777 477.906 310.97 477.499 312.162C477.017 312.393 476.459 312.566 476.119 312.786C471.924 315.759 467.172 317.098 461.549 316.443C460.611 316.323 459.475 316.412 458.415 316.559C456.366 316.849 454.403 317.325 451.726 317.793C450.858 318.57 450.218 320.426 446.958 319.843C446.451 319.754 445.401 320.029 444.995 320.319C441.565 323.038 436.596 323.427 432.194 324.675C429.82 325.377 427.938 325.976 427.293 327.767C427.008 328.693 425.938 329.615 423.453 329.809C423.864 328.681 424.215 327.686 424.566 326.691C420.347 326.635 420.418 326.629 419.448 328.833C419.204 329.368 418.24 329.831 417.433 330.474C416.785 329.493 416.375 328.816 415.965 328.139C415.052 328.34 414.408 328.326 414.068 328.546C411.08 330.521 407.636 331.242 403.651 331.425C401.374 331.539 398.939 332.375 396.551 332.884C396.656 334.23 396.726 335.128 396.888 336.276C395.377 336.136 393.815 336.258 393.572 335.891C392.386 334.436 390.333 334.661 388.228 335.149C384.435 335.962 380.651 336.903 376.777 337.593C374.17 338.055 372.947 338.861 372.495 340.379C372.434 340.513 371.947 340.68 371.673 340.83C370.314 340.808 368.955 340.785 368.742 340.802C366.409 342.017 365.054 342.961 363.462 343.602C361.387 344.474 359.079 345.106 357.081 346.036C355.29 346.886 353.895 348.22 352.013 348.819C347.697 350.254 343.209 351.315 338.811 352.626C336.717 353.242 334.713 354.108 333.257 354.674C332.597 356.273 337.201 356.686 332.966 358.243C331.617 357.446 330.269 356.649 328.997 355.91C324.037 357.331 319.026 358.11 315.683 361.016C315.079 361.514 313.821 361.871 312.771 362.147C310.525 362.645 308.187 362.893 306.021 363.514C298.485 365.781 290.558 367.627 283.674 370.939C282.918 371.321 282.016 371.65 281.235 371.711C270.317 372.76 261.257 377.467 251.266 380.314C245.185 382.015 239.458 384.592 233.63 386.79C229.882 388.18 226.296 389.815 222.471 391.146C213.433 394.305 204.319 397.405 195.528 400.995C191.653 402.588 188.239 404.597 183.523 405.482C178.172 406.482 173.054 408.624 168.697 411.351C167.951 411.861 166.754 412.084 165.856 412.477C162.397 413.908 158.862 415.282 155.56 416.894C151.907 418.599 148.64 420.661 144.917 422.371C143.4 423.07 141.342 423.232 139.516 423.633C138.182 423.93 136.909 424.095 135.499 424.334C136.135 421.511 131.144 423.45 129.939 421.739C131.311 418.278 124.191 418.578 123.615 415.786C121.009 416.248 120.364 417.137 119.891 418.399C119.419 419.661 117.984 419.58 117.462 419.299C117.255 417.574 117.084 416.298 116.963 414.76C117.471 413.946 119.222 412.584 118.791 411.65C117.748 409.281 119.028 407.376 121.514 405.375C121.981 404.952 122.007 404.369 122.179 403.84C122.017 403.595 121.789 403.419 121.627 403.174C118.76 405.785 114.962 405.631 111.438 406.229C110.383 406.441 109.515 407.218 108.557 407.745C107.187 408.497 105.888 409.243 104.382 410.071C102.771 407.747 106.97 406.644 107.657 404.462C104.354 406.075 101.271 406.832 99.5806 408.964C98.9309 409.788 97.4344 410.744 95.4422 409.933C95.5039 408.896 95.1295 407.765 95.8351 406.742C97.4493 404.552 96.365 403.477 93.1961 403.145C94.0085 401.662 95.059 400.484 95.2526 399.308C95.5989 397.346 96.6803 395.649 98.7606 393.939C100.907 392.158 101.05 390.342 99.3176 388.285C97.4259 388.756 94.8701 388.956 93.5105 389.836C91.0652 391.446 88.1495 391.61 85.5328 391.944C83.484 392.234 82.3073 392.713 80.8716 393.535C75.753 396.58 70.6344 399.624 64.7556 402.084C64.4767 402.17 64.1167 402.134 63.7617 402.162C63.3565 401.549 62.9514 400.936 62.2271 399.896C59.1077 401.108 56.2673 402.233 52.3161 403.768C55.4469 400.879 57.9129 398.622 60.303 396.307C60.0749 396.131 59.7759 395.961 59.5479 395.786C56.7175 397.039 53.9581 398.287 50.5748 399.777C51.0524 398.579 51.4181 397.777 51.7178 397.044C50.5418 396.62 49.5887 396.308 48.7117 396.054C50.2713 392.257 53.1339 388.679 52.5744 384.274C50.3622 386.124 48.6168 387.55 47.0844 388.96C45.557 390.433 47.0716 392.443 43.3333 393.961C43.7349 392.704 44.0196 391.779 44.3602 390.656C43.0263 390.954 42.1135 391.155 41.1956 391.291C40.2992 389.878 39.4838 388.588 38.5924 387.239C34.2353 389.064 30.1521 390.738 24.9682 392.949C27.425 389.662 29.2069 386.878 31.5059 384.312C33.0792 382.512 31.2642 382.139 29.5151 381.695C31.8091 379.065 36.3333 377.55 37.482 373.978C33.2461 376.438 29.7711 378.58 26.144 380.605C22.5829 382.561 18.7988 384.405 14.4718 386.614C15.234 384.491 17.8923 382.864 15.282 381.456C14.836 381.233 15.8664 379.798 16.5921 379.032C17.7796 377.778 19.6921 376.661 19.3435 374.948C12.7354 376.304 10.6839 380.204 6.16405 382.687C7.27553 381.374 8.458 380.056 9.56948 378.744C8.15533 378.017 5.97532 377.543 8.86163 376.091C9.75372 376.537 10.4938 376.866 11.0158 377.148C12.9082 375.774 14.4608 374.621 16.5611 373.167C16.9627 371.91 14.1989 372.191 13.1448 371.5C12.0146 370.75 11.5642 369.56 10.7639 368.462C9.44517 368.952 8.23188 370.788 6.20961 369.593C6.63696 367.754 7.06431 365.915 7.48663 364.012C5.43285 364.237 3.59204 364.446 0.970313 364.715C4.15203 361.564 6.93791 358.831 9.64779 356.04C10.6424 355.059 11.6269 353.95 11.9726 352.891C12.2113 352.292 11.2282 351.595 10.5749 350.55C11.4225 349.517 12.7369 348.059 13.9093 346.613C14.3396 347.547 15.3536 347.725 16.5762 346.92C18.1388 345.895 19.5543 344.817 20.5138 343.388C18.2413 344.469 15.8978 345.555 13.6304 346.7C15.0617 344.911 17.1979 343.003 13.4008 341.946C18.4039 337.427 23.5641 333.089 24.9422 327.887C25.1609 327.032 26.2416 326.238 26.8152 325.354C28.8711 322.42 31.439 319.64 32.2327 316.096C28.113 319.127 24.6867 317.332 20.7218 316.868C21.0811 317.807 21.3342 318.304 21.4454 318.811C21.6376 319.44 21.7588 320.076 21.946 320.642C18.1762 323.581 18.1762 323.581 12.4559 324.416C13.5925 323.424 15.581 322.365 15.3278 321.869C14.4622 319.938 17.3285 318.231 17.1828 316.372C17.0724 314.962 17.9049 313.736 20.3093 312.516C22.1659 311.597 23.1762 309.905 24.9016 308.222C19.8969 308.163 21.8301 306.4 23.4185 304.792C19.97 305.449 16.8714 306.014 13.7728 306.579C15.8071 305.195 17.7705 303.816 19.8049 302.431C17.2298 301.472 16.821 298.989 12.6367 300.285L12.4997 300.36C15.675 298.95 18.7485 298.065 21.0641 300.269C22.4237 299.389 23.2914 298.611 24.4631 298.068C28.1863 296.358 28.1913 296.422 26.1647 294.259C27.5896 294.212 29.0145 294.165 30.4394 294.118C30.4903 293.856 30.4702 293.6 30.5211 293.338C29.2081 292.989 27.8643 293.159 26.4336 294.045C27.0733 293.092 27.287 292.172 25.0912 292.409C23.6054 292.59 22.0686 293.033 20.5218 293.347C21.3945 292.634 22.1962 291.926 23.0689 291.213C22.8459 291.102 22.6179 290.926 22.3948 290.815C21.3701 291.411 20.4164 292.001 19.3916 292.598C19.8377 292.821 20.2837 293.044 20.6538 293.208C20.2981 294.139 20.0185 295.128 19.6628 296.059C14.7083 296.64 14.7793 296.635 16.2013 293.815C16.6329 292.943 16.9936 292.076 17.4253 291.204C18.8251 290.836 20.2449 290.725 21.1377 290.268C23.1872 289.076 25.0431 289.06 27.4059 289.132C31.5587 289.258 33.943 287.782 35.7658 284.608C34.2699 284.661 32.7741 284.714 30.3553 284.839C32.2735 282.883 33.8009 281.409 35.3232 279.871C36.9116 278.264 38.5659 276.586 40.2912 274.904C38.9882 274.683 38.0503 274.563 36.8183 274.337C40.37 271.351 44.5901 269.602 49.3474 268.326C48.2359 269.638 47.1904 270.881 45.7491 272.541C47.0269 272.441 47.8028 272.316 48.5838 272.255C48.6698 272.442 48.8979 272.617 48.7659 272.757C48.0245 274.233 47.217 275.78 46.4756 277.256C46.3487 277.46 46.4448 277.775 46.1708 277.925C41.1591 280.51 40.3395 284.637 35.6217 287.328C35.317 287.997 35.0832 288.66 34.7785 289.329C35.0625 289.306 35.4174 289.279 35.7014 289.256C35.6512 288.615 35.596 287.91 35.4697 287.211C36.1137 287.225 36.8286 287.233 37.4776 287.312C38.1266 287.39 38.6487 287.671 39.1607 287.825C38.4142 289.237 37.4397 290.474 37.1091 291.725C36.8395 292.843 37.2139 293.974 37.3753 295.122C41.8335 293.677 43.7216 291.336 44.6845 285.393C43.9745 285.448 42.6967 285.548 40.7139 285.768C48.9633 279.834 50.8692 274.075 51.8271 268.067C50.9092 268.204 50.0623 268.335 49.2154 268.465C49.3173 267.941 49.3481 267.423 49.4499 266.899C45.9411 266.787 45.9411 266.787 44.9385 264.931C42.2745 267.397 38.9673 268.946 34.4746 269.04C33.9777 269.079 33.4248 269.316 32.9379 269.483C29.1036 270.686 25.7418 270.627 22.8425 269.177C22.9185 269.236 22.9995 269.359 23.1465 269.412C22.7564 268.991 21.8593 268.481 22.0472 268.144C22.9507 266.912 23.7631 265.43 25.3408 264.597C28.7649 262.716 30.09 260.485 31.3291 258.066C30.726 257.662 30.1179 257.194 29.2108 256.555C27.5062 257.592 25.9387 258.553 24.848 259.219C23.2761 259.213 21.9172 259.19 20.7002 259.157C22.2735 257.357 23.2581 256.248 24.6334 254.657C22.3616 254.835 21.0178 255.005 19.7399 255.105C17.719 252.104 22.3594 251.16 24.5666 249.246C25.2407 249.644 25.5598 250.071 26.1378 250.154C27.2178 250.263 28.5007 250.227 29.4795 249.957C29.8295 249.865 30.023 248.689 29.7699 248.193C29.4257 247.446 28.5895 246.803 27.8803 245.955C26.7085 246.499 25.6738 246.967 24.644 247.499C25.0398 247.081 25.4306 246.599 25.8975 246.175C24.3715 245.843 22.8455 245.512 21.3194 245.18C21.3446 245.5 21.2936 245.762 21.3188 246.083C21.3352 244.469 21.4176 242.786 21.4341 241.173L21.5101 241.231C20.8776 239.54 23.439 238.501 24.4444 236.745C25.7216 237.548 26.9026 238.036 27.3838 238.708C28.5334 240.617 23.4678 240.691 23.4664 242.497C25.6873 242.581 27.0619 241.892 28.1225 240.842C30.1777 238.811 32.6129 237.073 36.2393 235.95C37.0762 235.691 37.6649 235 38.4817 234.485C31.9165 232.742 30.6909 230.775 33.0422 226.141C33.6008 225.066 34.4484 224.032 32.7402 223.199C32.4412 223.029 33.4917 221.85 33.8675 221.176C34.5107 222.093 35.083 223.015 35.8173 224.183C37.902 223.439 39.7026 222.718 42.548 221.656C39.9772 221.664 38.4763 221.653 36.8334 221.653C36.7581 220.691 40.0854 219.399 36.7394 218.629C35.7348 219.482 34.7351 220.398 33.6645 221.321C33.8387 218.986 30.8118 218.642 27.2578 217.954C29.0333 216.912 30.266 216.235 31.6307 215.418C32.1929 216.213 32.512 216.639 33.1553 217.556C35.1803 215.14 36.8095 213.143 38.5097 211.139C37.3136 210.459 35.0067 210.189 37.4727 207.932C38.6876 210.674 41.4118 208.978 43.8665 208.398C45.2713 208.095 46.737 207.658 47.5323 208.691C49.2311 208.494 50.935 208.36 52.8468 208.146C49.8507 207.285 49.8507 207.285 47.5323 208.691C47.1981 208.073 47.3408 207.159 45.434 207.437C44.0902 207.607 42.8073 207.643 41.4584 207.749C41.0439 206.105 42.1855 205.177 43.971 204.263C46.5124 202.968 50.4127 201.695 51.0882 200.288C52.2413 197.683 56.095 197.639 57.8203 195.956C58.2161 195.538 58.5359 195.062 59.0838 194.761C61.9651 193.245 64.8012 191.153 67.8998 190.588C71.5613 189.914 72.6979 188.922 73.8352 187.028C74.3988 186.016 75.5863 184.762 76.976 184.267C81.4242 182.693 81.9684 180.522 81.9906 178.07C77.3968 177.785 75.5124 181.995 70.4675 181.423C72.6396 179.061 75.3079 177.562 78.4932 176.281C80.1519 175.57 81.6485 174.615 83.15 173.723C83.424 173.573 83.3888 173.124 83.4347 172.798C81.8528 172.664 80.3469 172.589 78.6939 172.46C81.2474 168.585 87.307 168.432 90.924 166.279C91.8412 167.045 92.3733 167.455 92.9054 167.865C94.549 166.962 95.8785 165.697 97.2933 165.522C103.156 164.676 107.878 162.049 113.189 160.537C114.375 160.186 115.476 159.648 116.506 159.116C121.188 156.879 125.718 154.525 130.481 152.411C138.83 148.662 147.265 145.099 155.614 141.349C158.997 139.859 162.138 138.001 165.673 136.628C171.08 134.528 176.796 132.726 182.289 130.812C184.236 130.144 186.26 129.534 188.122 128.679C191.571 127.119 194.787 125.319 198.317 123.882C203.44 121.804 208.725 119.971 214.005 118.074C219.422 116.102 224.844 114.194 230.337 112.281C235.622 110.448 240.983 108.674 246.344 106.9C249.545 105.811 252.912 105.031 255.809 103.708C261.54 101.195 268.351 100.597 274.067 97.8924C277.441 96.2739 281.893 95.6671 285.727 94.4639C291.099 92.8179 296.46 91.0437 301.826 89.3336C308.378 87.2726 314.931 85.2116 321.418 83.2202C322.392 82.886 323.442 82.6103 324.487 82.2705C332.936 79.8029 341.457 77.3298 349.901 74.7981C355.136 73.2273 360.37 71.6565 365.685 70.2084C371.279 68.6739 376.964 67.3901 382.781 65.9671C383.625 63.0637 384.665 62.6598 389.493 62.2816C393.752 61.9478 398.346 62.2328 402.222 59.7367C403.105 59.1516 404.889 59.1407 406.228 58.9069C407.217 58.7649 408.51 58.8571 409.271 58.5395C413.877 56.2441 419.232 55.3087 424.349 54.0695C431.926 52.3151 438.952 48.9919 447.09 48.9346C447.232 48.9235 447.445 48.9068 447.653 48.826C454.317 47.2722 461.077 46.0332 467.503 44.1756C475.75 41.8529 484.103 39.9733 492.546 38.3444C500.072 36.852 507.669 35.354 515.013 33.36C520.262 31.9815 525.425 31.3191 531.14 30.4199C530.196 31.1387 529.654 31.5036 528.71 32.2224C530.11 31.8548 531.322 31.8244 531.651 31.4761C533.245 29.9326 535.334 29.253 537.966 29.1113C538.889 29.039 539.909 28.3787 540.888 28.1086C544.458 27.184 548.1 26.2539 551.675 25.3934C554.272 24.803 557.41 24.7506 559.475 23.7505C562.782 22.2018 566.261 21.9292 569.714 21.3362C571.474 21.0049 573.259 20.994 575.024 20.7268C586.88 18.8951 598.722 16.8711 610.594 15.2316C625.858 13.1329 641.137 11.2265 656.417 9.32007C677.568 6.69562 698.715 4.00709 719.763 3.71215C720.62 3.7095 721.523 3.38083 722.446 3.30852C728.191 2.79389 733.937 2.27927 739.692 1.89282C742.963 1.70105 746.264 1.89382 749.535 1.70206C754.301 1.45757 759.058 1.08491 763.753 0.845988C767.237 0.637533 770.731 0.557255 774.148 0.418455C771.643 1.2596 769.239 1.5769 766.754 1.77157C756.455 2.514 746.222 3.18677 735.923 3.92919C729.529 4.36569 723.083 5.06413 716.689 5.50063C707.166 6.11778 697.638 6.67083 688.119 8.2549C686.567 8.50545 685 8.56373 683.443 8.75019C681.948 8.80291 680.457 8.91971 679.032 8.96687C677.11 9.05295 676.08 9.58502 676.333 10.9839C679.446 11.5138 681.561 10.2518 683.514 8.74463C683.413 9.26848 683.382 9.78676 683.331 10.0487C689.511 11.4345 695.928 8.5459 703.107 9.01513C695.788 12.2324 689.165 12.4934 682.802 12.4116C678.654 12.3496 675.271 12.9371 671.918 14.8119C670.554 15.6281 668.905 16.4666 667.287 16.7868C662.647 17.7307 657.854 18.5576 653.189 19.1811C652.058 19.3342 650.771 18.4033 649.716 18.6149C646.546 19.1856 643.402 20.0768 640.81 20.7313C639.908 20.1571 639.199 19.3099 638.565 19.424C634.184 20.0253 629.893 20.8773 625.38 21.6178C625.582 22.3758 625.688 22.8188 625.799 23.326L625.865 23.2563C623.811 23.4817 621.753 23.643 619.633 23.9381C617.513 24.2331 615.378 25.2387 613.188 24.6365C613.73 24.2716 614.359 24.0933 614.917 23.9207C615.688 23.7313 616.393 23.6116 617.164 23.4222C610.161 23.3905 603.326 23.6681 597.785 28.6161C600.549 28.3351 602.75 28.1627 605.011 27.8565C607.486 27.5336 609.941 26.9544 612.415 26.6316C623.222 25.0755 634.029 23.5195 644.765 21.9691C651.332 21.0032 657.828 20.0428 664.395 19.0769C666.302 18.7985 668.295 18.7069 670.207 18.4926C676.363 17.7523 682.57 16.7501 688.747 16.2662C696.911 15.6266 704.554 12.8998 712.551 11.9508C713.79 10.4351 716.021 10.6472 717.796 10.5082C725.25 9.92415 732.638 9.40977 740.098 8.88983C741.872 8.75078 743.393 9.01852 744.247 7.14611C744.668 6.14582 747.392 5.35207 749.739 6.13544C751.133 6.60657 753.339 6.49823 755.185 6.35362C757.664 6.09486 760.109 5.38746 762.589 5.12869C765.14 4.86436 767.873 4.1988 771.371 5.08545C768.912 5.60058 767.72 5.88741 766.523 6.11014C763.754 6.32707 761.056 6.53843 758.288 6.75535C761.106 8.08217 763.865 6.83423 766.589 6.04049C773.104 6.23933 779.564 6.63601 786.07 6.70667C791.434 6.80224 796.977 6.43247 802.332 6.39985C813.193 6.45168 823.983 6.50906 834.788 6.75871C845.883 7.05021 856.931 7.66772 867.97 8.15705C868.112 8.14593 868.137 8.46638 868.238 8.84536C866.752 9.02626 865.403 9.13194 863.988 9.30727C863.937 9.5692 863.881 9.76704 863.831 10.029C867.349 10.2691 870.792 10.4508 874.24 10.6965C874.25 10.8247 874.26 10.9529 874.27 11.0811C872.936 11.379 871.532 11.6825 869.001 12.2032C873.884 12.53 877.555 12.8872 881.357 13.1052C896.361 14.0577 911.369 15.0743 925.321 18.1081C927.43 18.5877 930.392 18.0978 932.232 18.7919C938.629 21.128 946.418 21.1626 953.577 22.2783C961.096 23.4303 969.279 23.9498 974.646 27.7208C974.95 27.9549 975.528 28.0386 975.964 28.1334C982.889 29.9123 989.743 31.6967 996.729 33.3418C1005.25 35.3829 1013.89 37.2205 1022.41 39.2615C1029.39 40.9067 1036.31 42.6214 1043.11 44.5396C1047.49 45.744 1051.61 47.2912 1055.86 48.699C1047.25 49.0516 1040.84 45.6845 1032.04 46.3742C1032.61 47.3607 1033.31 48.0798 1034.48 48.4394C1039.82 50.0202 1045.3 51.5257 1050.7 53.0368C1051.43 53.2376 1051.96 53.5832 1052.56 53.9232C1052.36 54.1322 1052.16 54.3412 1051.96 54.5501C1044.7 52.9913 1036.7 52.9734 1029.11 51.827C1021.81 50.7224 1014.35 49.4367 1006.34 49.3546C1007.61 50.0933 1009.07 50.4947 1010.67 50.7569C1026.83 53.8106 1043.39 56.3823 1058.92 60.3248C1073.2 63.9774 1087.42 67.6355 1101.04 71.9845C1107.63 74.0476 1114.15 76.1162 1120.48 78.4578C1122.68 79.2523 1124.82 80.1164 1127.11 81.0336C1123.98 82.117 1122 82.401 1119.86 80.634C1117.95 78.9785 1114.12 78.4401 1110.14 78.6875C1108.22 78.8377 1106.23 78.8652 1104.43 78.6838C1095.64 77.8242 1086.93 76.895 1078.21 75.9658C1077.06 75.8625 1075.9 75.5669 1074.68 75.5333C1073.54 75.5582 1071.82 75.5635 1071.21 75.9981C1068.91 77.5972 1066.8 77.1176 1064.91 76.6213C1054.92 74.0506 1043.37 74.3749 1032.64 73.2168C1029.76 72.9266 1026.94 72.5026 1023.94 72.544C1017.09 72.6293 1010.95 71.6921 1004.92 70.3592C1003.24 69.9744 1001.23 69.8738 999.389 70.0184C996.331 70.1935 993.222 70.6305 989.47 71.0535C1006.78 74.9851 1023.96 78.2814 1041.55 81.1598C1036.39 80.9194 1031.3 80.6734 1026.13 80.4329C1036.41 84.0124 1048.84 84.9088 1059.18 88.2904C1059.05 88.4938 1058.93 88.7613 1058.87 88.9591C1056.66 88.9393 1054.44 88.8553 1052.14 88.777C1065.73 91.7105 1079.1 94.5325 1092.46 97.4186C1086.38 99.0561 1082.87 95.2687 1076.63 96.7892C1077.74 99.9911 1080.68 101.953 1085.13 103.152C1089.21 104.251 1093.3 105.349 1097.39 106.448C1094.88 108.128 1096.72 108.822 1098.12 109.421C1104.98 112.172 1111.9 114.854 1118.96 117.46C1124.33 119.426 1130.3 120.892 1135.27 123.147C1139.93 125.233 1145.04 126.638 1150.36 128.026C1155.62 129.42 1160.6 131.093 1165.72 132.626C1164.83 133.019 1164.19 133.069 1163.68 132.98C1154.74 130.972 1145.79 128.965 1136.85 126.957C1133.58 126.246 1130.3 125.407 1126.9 124.835C1125.16 124.52 1123.24 123.767 1120.72 125.319C1124.18 126.66 1127.43 127.953 1130.89 129.294C1128.43 132.517 1131.12 133.984 1134.22 135.288C1135.4 135.776 1136.72 136.253 1138.17 136.526C1142.96 137.441 1147.81 138.286 1152.66 139.131C1153.6 139.315 1154.49 139.633 1155.36 139.886C1154.33 140.354 1153.69 140.404 1153.04 140.326C1143.01 139.049 1132.07 139.841 1122.3 138.156C1121.86 138.062 1121.22 138.112 1120.73 138.151C1114.95 139.184 1109.3 139.11 1104.24 138.346C1102.61 139.377 1101.31 140.059 1100.15 140.859C1098.46 142.087 1098.67 142.845 1100.78 143.325C1102.16 143.668 1104.01 143.523 1105.09 144.663C1095.83 144.938 1088.03 142.905 1078.77 143.244C1079.59 145.565 1081.65 146.242 1084.46 146.602C1091.17 147.495 1096.5 149.85 1102.16 151.857C1097.64 151.567 1093.18 151.207 1089.04 150.37C1078.31 148.309 1067.58 146.248 1056.34 145.001C1054.9 144.856 1052.87 144.563 1051.77 145.037C1049.49 146.053 1048 145.332 1046.34 145.075C1044.75 144.813 1043.27 144.219 1041.62 144.091C1032.93 143.418 1024.16 142.814 1015.41 142.275C1013.04 142.138 1010.62 142.263 1008.19 142.26C1008.06 142.4 1008 142.597 1007.87 142.737C1009.56 143.314 1011.25 143.955 1014.04 144.897C1011.42 145.231 1010.02 145.535 1008.73 145.507C1005.08 145.342 1001.61 144.84 997.962 144.803C991.528 144.727 985.124 144.132 978.399 145.82C978.186 145.836 977.978 145.917 977.846 146.056C974.606 145.73 971.295 145.409 968.05 145.018C967.989 145.152 967.857 145.291 967.801 145.489C969.819 146.621 971.836 147.752 974.218 148.985C972.316 149.327 970.907 149.566 969.568 149.8C963.168 151.075 956.879 152.858 950.323 152.146C948.376 151.912 946.058 152.416 943.923 152.519C943.933 152.647 943.873 152.781 943.883 152.909C945.257 153.124 946.702 153.333 948.07 153.484C948.01 153.617 947.954 153.815 947.893 153.949C942.497 154.372 937.107 154.858 931.569 155.292C931.832 155.916 932.015 156.418 932.197 156.92L932.263 156.85C930.209 157.075 928.089 157.37 926.035 157.596C924.828 157.69 923.383 157.481 922.41 157.815C918.387 159.356 914.707 158.87 911.102 158.443C908.648 158.12 906.356 158.041 903.86 159.011C902.06 158.829 900.245 158.456 898.471 158.595C887.315 159.34 876.174 160.277 865.023 161.086C862.467 161.287 859.901 161.359 857.355 161.687C864.352 162.558 883.469 161.318 903.921 158.877C905.513 159.139 907.115 159.53 908.768 159.658C915.796 160.01 922.895 160.357 929.988 160.639C941.169 161.118 952.629 160.607 963.342 162.411C967.25 163.072 971.733 162.85 975.962 163.034C983.344 163.359 990.676 163.945 998.115 164.072C1019.14 164.423 1039.74 165.647 1059.67 168.406C1064.15 169.022 1068.56 169.708 1072.97 170.395C1069.6 171.11 1066.4 171.36 1063.26 171.413C1056.56 171.615 1049.93 171.684 1043.23 171.95C1042.09 171.975 1040.72 172.727 1039.55 173.271C1037.75 174.056 1036.42 175.321 1033.9 175.003C1029 174.484 1024.05 174.163 1019.09 173.842C1017.3 173.724 1015.44 173.677 1013.64 173.559C1013.52 173.763 1013.46 173.96 1013.33 174.164C1018.53 174.853 1023.8 175.536 1029 176.29C1027.04 176.83 1025.34 176.963 1023.62 176.905C1019.68 176.698 1015.78 176.229 1011.84 176.086C1008.11 175.927 1004.36 175.383 1000.38 176.597C995.941 174.624 990.241 175.715 984.648 175.444C987.907 177.833 994.362 178.165 1000.45 176.528C999.473 177.765 999.691 178.715 1001.86 179.061C1002.87 179.175 1003.81 179.359 1004.83 179.538C993.888 180.33 976.697 182.451 973.72 183.652C978.03 183.959 982.056 184.288 986.081 184.618C986.872 184.685 988.033 184.916 988.129 185.231C988.472 187.783 991.567 186.251 993.519 186.55C993.889 185.811 994.133 185.276 994.494 184.41C999.473 185.051 1004.62 185.1 1008.57 186.337C1011.72 187.316 1014.74 187.595 1018.18 187.713C1024.84 187.965 1031.46 188.478 1038.42 188.9C1036.56 190.722 1034.81 191.182 1032.45 191.109C1026.07 190.835 1019.62 190.63 1013.19 190.554C1008.83 190.509 1004.48 190.592 1000.06 190.68C991.933 190.93 983.81 191.179 975.696 191.557C967.938 191.907 960.119 192.391 952.37 192.869C951.519 192.936 950.591 192.944 949.734 192.946C942.391 193.135 934.973 193.265 927.63 193.453C926.844 193.45 925.891 194.041 924.227 194.687C925.672 194.896 926.265 195.172 926.828 195.063C931.777 194.418 936.437 195.536 941.559 194.361C944.084 193.776 946.812 193.949 949.098 194.866C950.28 195.354 951.943 195.611 953.433 195.494C957.135 195.333 960.878 194.782 964.513 194.69C973.21 194.46 982.353 192.648 990.688 194.187C991.484 194.318 992.412 194.31 993.335 194.238C1004.7 193.412 1015.3 194.709 1026.19 195.146C1032.57 195.42 1038.65 196.491 1045.51 195.567C1047.35 195.294 1049.58 195.57 1050.98 196.105C1055.54 197.811 1060.91 197.971 1066.41 197.863C1067.55 197.838 1068.71 198.134 1069.8 198.307C1069.67 198.51 1069.61 198.708 1069.49 198.911C1067.37 199.206 1065.32 199.496 1062.78 199.888C1063.47 200.479 1063.57 200.858 1064 200.953C1066.35 201.672 1068.75 202.322 1071.1 203.041C1073.22 203.649 1076.28 203.538 1077.95 205.664C1073.18 205.006 1069.16 204.741 1065.67 203.918C1054.9 201.473 1043.6 200.359 1031.4 200.541C1028.05 200.61 1024.19 201.493 1021.52 201.122C1014.87 200.16 1007.87 203.803 1001.53 202.172C1001.31 202.125 1000.9 202.35 1000.55 202.442C996.857 203.634 993.221 203.726 989.561 203.497C988.486 203.452 987.294 203.739 986.158 203.828C986.036 204.095 985.985 204.357 985.858 204.561C987.81 204.859 989.762 205.158 991.78 205.386C995.664 205.727 999.553 206.132 1003.49 206.21C1011.14 206.384 1018.86 206.36 1026.5 206.406C1029.65 206.418 1032.67 206.697 1035.82 206.772C1041.75 206.823 1047.68 206.81 1053.62 206.926C1055.19 206.931 1057.05 206.979 1057.81 208.531C1056.39 208.643 1055.4 208.784 1054.47 208.729C1052.25 208.581 1050.13 208.037 1047.92 208.081C1037.71 208.172 1027.52 208.39 1017.25 208.678C1015.18 208.711 1013.01 209.268 1010.91 209.756C1010.35 209.864 1009.9 210.544 1009.16 211.182C1016 210.905 1022.26 210.607 1028.53 210.438C1029.75 210.408 1031.25 210.419 1032 210.876C1035.22 212.816 1039.04 212.324 1043.35 210.825C1045.34 213.442 1049.2 213.526 1053.35 213.588C1056.64 213.653 1059.69 214.316 1062.87 214.713C1059.99 215.325 1057.36 215.467 1054.78 215.347C1049.05 215.151 1043.32 214.955 1037.64 214.561C1034.27 214.31 1031.78 215.407 1030.57 217.243C1029.28 219.085 1027.52 219.352 1024.96 219.488C1021.97 219.658 1018.76 219.652 1015.96 220.387C1012.31 221.317 1008.91 221.584 1005.4 221.536C1002.61 221.497 999.876 221.196 997.097 221.284C993.319 221.387 989.491 220.848 985.652 221.987C984.939 225.654 983.357 226.423 977.617 226.099C974.889 225.926 972.019 225.764 969.261 226.109C964.306 226.691 959.377 227.593 954.523 228.553C949.457 229.531 944.507 231.079 939.421 231.8C934.689 232.493 930.789 233.766 927.704 236.329C927.501 236.474 927.08 236.572 927.496 236.41C923.414 236.278 919.941 235.712 916.544 236.107C910.032 236.875 903.495 238.226 896.933 239.256C895.873 239.403 894.808 239.487 893.748 239.634C885.974 240.695 878.033 241.446 870.37 243.014C866.785 243.746 863.473 244.328 859.974 244.344C859.472 244.319 858.833 244.369 858.412 244.466C851.925 246.458 845.131 246.345 838.467 247.899C832.366 249.344 825.976 249.845 819.693 250.789C815.596 251.368 811.569 251.941 807.472 252.52C804.013 253.049 800.397 253.397 797.04 254.304C790.604 256.034 784.072 256.546 777.571 257.442C775.452 257.737 773.337 258.096 771.217 258.391C766.628 259.073 762.033 259.691 757.444 260.373C754.269 260.88 751.17 261.445 747.996 261.952C746.373 262.208 744.816 262.394 743.193 262.65C738.254 263.424 733.451 265.026 728.421 264.646C727.488 264.59 726.296 264.877 725.241 265.088C722.99 265.523 720.738 265.957 717.923 266.5C717.025 267.796 715.219 268.453 712.298 268.553C709.165 268.669 705.934 269.374 702.841 270.003C700.802 270.421 699.108 270.683 697.278 270.117C695.159 269.509 692.907 269.943 690.235 270.475C686.37 271.294 682.881 272.341 679.426 273.837C678.25 274.316 676.683 274.374 675.268 274.549C672.798 274.936 670.314 275.131 667.849 275.582C662.925 276.548 657.989 278.289 653.157 278.603C646.195 279.084 639.485 280.964 632.588 281.375C628.679 281.617 624.535 282.522 620.94 282.224C616.123 281.827 612.213 282.972 608.12 284.518C606.943 284.997 605.269 285.515 604.184 285.342C602.096 285.119 600.235 285.071 599.062 286.517C598.093 287.818 598.122 289.106 599.84 290.067C600.885 290.63 601.452 291.489 602.146 292.143C601.74 292.433 601.608 292.573 601.466 292.584C595.721 293.098 590.103 292.507 584.169 294.261C582.145 294.871 579.534 294.366 576.674 294.333C577.547 293.619 577.867 293.143 578.146 293.057C581.473 292.667 584.794 292.213 588.141 292.08C592.629 291.922 594.369 290.431 593.012 287.7C589.148 287.616 584.893 288.917 581.289 287.587C580.554 287.322 578.028 287.907 577.429 288.47C575.435 290.367 572.925 290.241 570.233 290.517C567.256 290.815 564.304 291.433 561.348 291.987C560.643 292.106 559.745 292.499 559.309 292.404C556.526 291.526 553.528 292.47 550.719 293.077C544.035 294.375 537.432 295.795 530.829 297.215C530.195 297.329 529.652 297.694 527.861 298.544C530.645 298.519 532.308 298.776 533.784 298.467C537.511 297.723 540.777 297.467 543.321 298.945C548.413 297.385 553.262 296.36 558.5 295.756C563.455 295.175 568.414 294.657 574.058 293.764C570.507 296.75 566.799 297.75 562.444 297.769C560.73 297.774 558.904 298.175 557.134 298.378C554.796 298.626 552.459 298.874 549.416 299.241C547.838 300.977 545.459 301.615 541.89 300.733C540.141 300.29 537.407 300.956 535.151 301.326C531.058 301.969 527.047 302.735 522.959 303.442C521.762 303.665 520.484 303.765 519.298 304.116C514.616 305.45 509.313 304.318 504.946 306.917C504.809 306.992 504.302 306.903 504.008 306.797C502.259 306.353 500.737 306.988 498.921 307.518C494.321 308.974 489.771 311.072 484.564 310.255C484.249 310.795 483.99 311.138 483.94 311.4C483.899 311.79 484.066 312.099 484.096 312.484C478.619 313.687 478.619 313.687 476.597 311.588C479.319 312.6 480.891 312.606 482.038 310.839ZM234.19 126.81C231.644 127.139 228.566 127.057 228.691 129.563C226.992 129.76 225.294 129.958 223.595 130.155C223.61 130.348 223.701 130.598 223.716 130.791C225.329 130.406 227.007 129.952 228.691 129.563C230.543 128.579 232.333 127.73 234.19 126.81ZM465.204 53.1255C459.012 54.32 452.349 54.971 446.648 56.9653C441.089 58.9484 435.08 59.7417 429.597 61.7834C426.959 62.7638 423.769 63.0782 420.894 63.7549C417.242 64.5568 413.667 65.4173 410.01 66.1552C403.539 67.436 397.656 69.8315 391.509 71.6028C388.019 72.65 384.651 74.3325 380.747 73.7356C380.316 73.7049 379.687 73.8831 379.2 74.0503C372.018 76.2895 364.842 78.5929 357.731 80.8266C357.72 82.5041 359.22 82.5154 360.894 81.9974C362.918 81.3875 364.855 80.5908 366.879 79.9809C377.839 76.7363 389.063 74.1159 400.109 71.058C414.092 67.1896 428.236 63.5665 442.381 59.9434C449.243 58.1806 456.262 56.5989 463.129 54.9002C464.671 54.5215 466.132 54.0201 467.592 53.5188C467.44 53.4017 467.354 53.215 467.202 53.098C466.558 53.0839 465.838 53.0114 465.204 53.1255ZM63.3941 299.919C62.0288 301.638 60.7904 303.154 59.2272 305.082C58.7962 305.051 57.7212 305.006 56.2813 304.861C54.85 306.65 53.4287 308.567 51.8096 310.693C57.3413 311.098 62.924 311.241 68.2255 307.794C71.8934 305.379 71.6718 303.462 67.1396 302.14C67.5254 301.594 67.9772 300.979 68.3579 300.368C68.7437 299.822 69.0635 299.346 69.5103 298.666C67.4421 297.796 65.45 296.985 63.0118 295.951C61.9003 297.263 60.9107 298.308 59.6014 299.829C61.5332 299.871 62.4662 299.927 63.3941 299.919ZM616.873 19.7049C618.577 18.6686 620.155 16.9329 622.548 18.2931C625.941 16.931 629.87 17.8483 633.314 16.2243C634.278 15.7619 636.124 15.6173 637.214 15.8543C640.981 16.5264 643.943 15.1336 647.752 13.61C646.019 13.3589 644.838 12.8711 643.707 13.0242C639.315 13.4972 634.868 14.1681 630.491 14.8334C623.782 15.8105 617.078 16.8516 610.368 17.8286C599.851 19.4265 589.267 21.094 578.749 22.6918C578.257 22.7949 577.77 22.962 577.304 23.3855C583.576 23.2164 589.814 21.696 596.696 21.0923C595.458 21.7052 594.702 22.0868 593.946 22.4685C601.665 20.703 609.07 17.6724 616.873 19.7049ZM170.691 402.167C167.497 401.515 165.089 400.865 162.488 400.488C161.692 400.357 160.359 400.655 159.461 401.048C155.657 402.636 151.928 404.282 148.2 405.928C147.439 406.246 146.618 406.697 146.232 407.243C145.714 407.929 145.156 409.004 145.612 409.355C146.225 409.888 147.741 410.091 149.034 410.183C149.754 410.256 150.793 409.852 151.559 409.599C155.379 408.203 159.188 406.68 163.083 405.343C164.199 404.997 165.639 405.142 167.774 405.04C168.631 404.134 169.631 403.218 170.691 402.167ZM1045.45 86.2709C1031.19 83.9057 1017.64 80.518 1002.74 79.1057C1002.17 79.0862 1001.41 79.4037 1000.5 79.6042C1002.7 81.2374 1005.27 82.1323 1008.83 82.0465C1016.45 81.7718 1022.81 83.5951 1029.61 84.7386C1036.42 85.8822 1043.02 87.2346 1049.76 88.4478C1049.96 88.2388 1050.08 87.9713 1050.28 87.7624C1048.6 87.2494 1047.19 86.586 1045.45 86.2709ZM942.658 176.477C949.772 176.113 956.815 175.755 963.874 175.589C965.725 175.508 967.672 175.742 969.208 176.202C972.133 177.07 975.099 176.644 978.827 175.9C974.26 174.13 969.189 174.14 964.291 174.524C958.043 175.014 952.161 174.701 946.143 174.463C942.918 174.329 939.586 174.654 935.879 174.751C937.455 176.627 940.021 176.555 942.658 176.477ZM325.245 91.9482C325.159 91.7615 325.149 91.6333 325.063 91.4466C323.851 91.477 322.705 91.4379 321.503 91.5965C319.804 91.7941 317.446 91.7854 316.503 92.5041C313.449 94.549 309.676 94.7156 306.252 95.6931C301.571 97.0272 297.214 98.8517 292.776 100.554C292.152 100.796 291.771 101.406 291.31 101.894C291.533 102.005 291.756 102.117 291.979 102.228C303.066 98.7801 314.153 95.3321 325.245 91.9482ZM526.558 41.2253C530.413 40.2785 534.849 40.3823 538.228 37.9251C536.945 37.9611 535.5 37.7519 534.379 38.0332C522.851 41.3223 510.565 42.2205 499.127 45.7604C499.224 46.0753 499.386 46.3205 499.482 46.6354C508.56 44.8924 517.733 43.4643 526.558 41.2253ZM31.8482 308.452C31.5986 309.826 30.3445 312.052 34.0046 313.184C36.6994 310.2 39.4043 307.344 41.8861 304.377C42.3479 303.889 41.9377 303.212 42.0044 302.24C37.2213 304.098 32.4691 305.437 31.8482 308.452ZM673.423 10.3091C665.979 10.1185 658.844 11.1289 651.439 13.2567C652.387 13.5048 653.269 13.8226 654.202 13.8785C655.997 13.9958 657.853 13.9794 659.704 13.8988C660.627 13.8265 661.829 13.6679 662.513 13.2918C664.913 12.0076 667.2 12.0219 669.694 12.8582C671.185 11.8386 672.205 11.1783 673.423 10.3091ZM530.318 44.5419C530.267 44.8038 530.211 45.0016 530.16 45.2636C531.098 45.3835 532.122 45.6902 533.035 45.4897C540.845 43.975 548.655 42.4604 556.455 40.8175C558.281 40.4165 559.934 39.6421 561.674 39.0544C561.517 38.8733 561.355 38.6281 561.269 38.4413C550.933 40.5408 540.664 42.5706 530.318 44.5419ZM899.79 149.915C907.907 151.407 916.666 150.14 925.236 149.211C916.946 148.248 908.467 148.526 899.79 149.915ZM496.348 46.752C490.628 46.6842 482.413 48.4886 470.159 52.5439C476.568 52.2997 493.056 48.493 496.348 46.752ZM353.028 83.7099C349.646 83.3945 346.64 82.4048 343.347 85.0487C341.734 86.3359 338.346 86.8592 335.699 87.7115C333.959 88.2992 332.214 88.8228 330.399 89.3519C330.571 89.7254 330.738 90.0347 330.91 90.4081C338.305 88.1522 345.629 85.9018 353.028 83.7099ZM86.4506 220.409C83.6654 222.239 80.6673 224.086 77.8921 226.045C76.4056 227.129 75.3601 228.371 74.0916 229.502C74.3856 229.608 74.6846 229.778 74.9786 229.884C81.1055 227.857 86.5296 223.24 86.4506 220.409ZM838.124 47.5093C837.643 45.9348 835.483 46.62 833.774 46.6894C835.535 44.5524 832.254 45.5188 830.586 45.1981C830.498 46.817 830.416 48.5001 830.364 50.5677C833.574 49.6068 835.948 48.905 838.184 48.2784C838.139 47.7016 838.129 47.5734 838.124 47.5093ZM278.615 105.79C272.854 106.112 268.746 107.466 265.058 109.625C269.936 109.888 274.236 109.164 278.615 105.79ZM517.368 301.365C519.28 300.248 520.756 299.939 523.063 300.209C525.446 300.539 526.583 299.547 526.66 297.8C522.035 298.936 517.272 300.147 512.576 301.289C512.672 301.604 512.692 301.86 512.788 302.175C514.269 301.93 516.343 301.961 517.368 301.365ZM14.4746 356.564C19.0189 355.305 19.0189 355.305 22.557 350.321C19.0833 350.657 18.1447 351.44 14.4746 356.564ZM580.041 30.9736C574.352 30.3875 570.072 31.3677 566.511 33.3233C570.522 33.4605 574.827 32.8007 580.041 30.9736ZM779.09 9.70389C784.42 9.35082 788.491 10.2571 794.039 9.04856C788.954 7.96383 784.781 7.58143 779.09 9.70389ZM540.266 38.4103C545.622 37.4748 549.988 36.6813 554.917 35.7793C550.851 34.9371 543.66 36.1453 540.266 38.4103ZM879.872 191.069C883.765 192.44 887.193 192.43 890.845 190.725C886.859 190.908 883.772 189.796 879.872 191.069ZM963.557 73.9865C966.4 75.6338 972.383 76.3257 979.36 76.037C974.691 74.7907 969.392 74.6255 963.557 73.9865ZM847.326 9.06509C842.809 7.93585 837.637 8.47007 832.49 8.42191C836.763 10.0861 842.307 8.81353 847.326 9.06509ZM581.05 31.088C585.324 31.8493 588.332 30.1305 592.552 29.2841C587.989 28.4808 584.849 29.4361 581.05 31.088ZM288.809 102.799C285.477 103.124 285.477 103.124 281.556 105.044C284.892 105.685 286.795 104.44 288.809 102.799ZM448.646 49.651C448.727 49.7736 448.737 49.9018 448.813 49.9603C453.16 48.9105 457.572 47.791 461.918 46.7411C461.908 46.6129 461.827 46.4903 461.751 46.4318C457.405 47.4816 453.059 48.5315 448.646 49.651ZM263.5 111.617C259.844 111.452 257.622 112.271 255.156 114.528C257.662 113.687 260.162 112.781 263.5 111.617ZM799.414 8.36948C799.363 8.6314 799.384 8.88777 799.333 9.14969C801.822 9.01911 804.383 8.88295 806.878 8.81646C806.924 8.49044 806.894 8.1059 806.94 7.77988C804.455 7.97456 801.97 8.16924 799.414 8.36948ZM36.0526 254.536C39.2122 253.837 39.4108 252.726 39.3613 251.182C35.2637 251.761 36.4391 253.087 36.0526 254.536ZM848.472 194.174C850.347 195.316 852.117 195.113 853.827 194.141C853.802 193.821 853.71 193.57 853.685 193.249C851.921 193.517 850.161 193.848 848.472 194.174ZM27.8819 309.795C26.0963 310.708 24.7216 311.396 22.5962 312.53C26.987 312.96 26.987 312.96 27.8819 309.795ZM140.786 419.793C141.055 420.481 140.963 421.133 141.399 421.228C143.077 421.677 144.624 421.362 146.222 419.883C144.361 419.835 142.931 419.818 140.786 419.793ZM906.007 189.15C905.951 189.348 905.972 189.604 905.916 189.802C908.405 189.672 910.9 189.605 913.39 189.474C913.365 189.154 913.345 188.898 913.32 188.577C910.835 188.772 908.421 188.961 906.007 189.15ZM135.283 415.194C134.157 416.314 133.365 417.15 132.239 418.27C136.904 417.647 136.904 417.647 135.283 415.194ZM766.632 9.32581C763.214 9.46461 761.003 9.50885 758.727 9.62275C758.747 9.87911 758.772 10.1996 758.721 10.4615C760.968 9.96305 763.071 11.2814 766.632 9.32581ZM47.2443 246.953C49.719 246.63 51.1338 246.455 52.6147 246.21C52.5896 245.889 52.5695 245.633 52.5444 245.313C50.9172 244.602 49.4565 245.103 47.2443 246.953ZM858.931 11.3156C861.942 12.3694 861.943 12.3693 865.128 11.088C863.201 11.11 861.421 11.185 858.931 11.3156ZM27.7571 254.412C29.6747 253.359 30.9073 252.682 32.211 252C30.0002 252.044 28.0834 252.194 27.7571 254.412ZM866.614 175.019C866.239 174.791 865.93 174.492 865.575 174.52C864.581 174.598 863.526 174.81 861.625 175.152C863.718 176.342 865.021 176.563 866.614 175.019ZM832.528 196.713C832.574 196.387 832.625 196.125 832.6 195.804C830.962 195.868 829.395 195.926 827.757 195.99C827.716 196.38 827.67 196.706 827.558 197.102C829.267 197.033 830.895 196.841 832.528 196.713ZM845.627 195.235C845.683 195.037 845.672 194.909 845.728 194.711C843.659 194.744 841.515 194.719 839.446 194.752C839.542 195.067 839.567 195.387 839.663 195.702C841.651 195.546 843.639 195.391 845.627 195.235ZM1065.49 94.9539C1065.75 94.6753 1066.01 94.3967 1066.2 94.0596C1064.96 93.7055 1063.65 93.357 1062.4 93.0029C1062.07 93.3512 1061.82 93.758 1061.49 94.1062C1062.8 94.3906 1064.11 94.6751 1065.49 94.9539ZM860.086 178.303C860.03 178.501 859.974 178.699 859.918 178.897C861.561 178.897 863.204 178.897 864.847 178.898C864.893 178.572 864.868 178.251 864.913 177.925C863.286 178.117 861.648 178.181 860.086 178.303ZM998.143 186.316C998.71 188.078 999.856 188.117 1002.04 186.849C1000.96 186.74 999.877 186.567 998.143 186.316ZM857.05 11.0116C855.676 10.7968 855.382 10.6909 855.098 10.7131C854.454 10.6991 853.734 10.6265 853.03 10.7462C852.604 10.7796 852.122 11.0108 851.63 11.1138C851.65 11.3702 851.67 11.6266 851.69 11.8829C853.1 11.6435 854.515 11.4682 857.05 11.0116ZM48.5321 214.159C48.6841 214.276 48.9122 214.451 49.0642 214.568C49.891 214.181 50.7128 213.73 51.5396 213.343C51.3116 213.167 51.0835 212.992 50.8555 212.816C50.1047 213.262 49.3539 213.707 48.5321 214.159ZM958.078 149.024C955.224 148.151 954.316 149.319 953.326 150.363C954.655 150.001 955.984 149.639 958.078 149.024ZM872.595 192.09C872.281 191.728 871.48 191.533 870.765 191.524C870.41 191.552 869.958 192.168 869.481 192.463C870.069 192.675 870.591 192.957 872.441 193.779C872.589 192.929 872.904 192.389 872.595 192.09ZM935.168 182.996C935.117 183.258 935.067 183.52 935.016 183.782C936.441 183.735 937.865 183.688 939.295 183.705C939.341 183.379 939.463 183.111 939.509 182.785C938.084 182.832 936.588 182.885 935.168 182.996ZM647.618 16.4578C647.634 16.6501 647.578 16.8479 647.593 17.0402C648.947 16.9986 650.366 16.8873 651.72 16.8457C651.766 16.5197 651.741 16.1993 651.787 15.8733C650.372 16.0486 649.028 16.2184 647.618 16.4578ZM564.762 25.5932C564.767 25.6573 564.772 25.7214 564.782 25.8496C565.487 25.7299 566.197 25.6743 566.831 25.5601C567.607 25.4348 568.302 25.187 569.073 24.9976C568.982 24.7468 568.896 24.5601 568.804 24.3093C567.481 24.7354 566.086 25.1671 564.762 25.5932ZM37.2743 301.127C37.1223 301.01 36.8993 300.899 36.7472 300.781C36.0624 301.158 35.3776 301.534 34.7587 301.84C35.0578 302.01 35.2858 302.186 35.5848 302.356C36.1227 301.927 36.7365 301.556 37.2743 301.127ZM37.393 232.442C37.5451 232.559 37.6971 232.676 37.8441 232.729C38.5949 232.284 39.3457 231.838 40.1725 231.451C39.8025 231.286 39.4325 231.122 39.1334 230.952C38.5296 231.45 37.9968 231.944 37.393 232.442ZM20.8895 369.152C20.7324 368.971 20.6514 368.848 20.4943 368.667C19.7335 368.985 18.9676 369.238 18.2068 369.556C18.3638 369.737 18.4449 369.859 18.6019 370.04C19.3678 369.787 20.1286 369.469 20.8895 369.152ZM485.126 54.8534C485.207 54.9761 485.217 55.1042 485.298 55.2269C486.631 54.9289 487.96 54.5669 489.294 54.2689C489.284 54.1407 489.203 54.0181 489.122 53.8955C487.788 54.1934 486.454 54.4914 485.126 54.8534ZM27.6717 306.2C27.6057 306.27 28.1228 306.487 28.4218 306.657C28.6857 306.378 29.0256 306.158 29.2134 305.821C29.2794 305.751 28.9094 305.587 28.6104 305.417C28.2755 305.701 27.8646 305.927 27.6717 306.2ZM985.094 189.338C985.038 189.536 984.982 189.733 984.921 189.867C985.849 189.859 986.777 189.851 987.705 189.843C987.761 189.645 987.817 189.447 987.878 189.313C986.879 189.327 985.951 189.335 985.094 189.338Z" fill="#EB7E17"/>
</svg>
