<svg width="449" height="292" viewBox="0 0 449 292" fill="none" xmlns="http://www.w3.org/2000/svg">
<path fill-rule="evenodd" clip-rule="evenodd" d="M286.8 179.378C285.859 178.55 284.418 178.642 283.155 178.681C282.333 178.711 281.51 178.834 280.671 178.715C280.146 178.626 279.518 178.844 278.925 178.899C278.518 178.928 278.086 178.965 277.688 179.023C277.654 178.354 278.179 178.259 278.739 178.184C281.485 177.731 284.248 177.243 286.995 176.791C287.334 176.72 287.664 176.621 287.995 176.615C290.512 176.694 292.852 175.808 295.276 175.576C297.505 175.34 299.675 174.443 301.981 174.832C302.473 174.901 303.049 174.79 303.583 174.723C306.584 174.379 309.584 174.036 312.576 173.664C313.568 173.553 314.534 173.263 315.518 173.123C315.967 173.05 316.416 173.07 316.865 173.089C317.45 173.099 318.061 173.194 318.654 173.14C320.968 172.91 323.282 172.587 325.613 172.321C325.8 172.296 326.028 172.227 326.206 172.266C329.436 172.78 332.64 171.82 335.861 171.658C339.328 171.483 342.795 171.216 346.287 171.034C347.211 170.973 348.135 171.097 349.059 171.129C350.762 171.174 352.475 171.247 354.212 171.498C352.542 171.659 350.873 171.82 349.211 172.009C346.338 172.314 343.481 172.676 340.625 172.945C339.98 173.015 339.336 172.899 338.658 172.856C338.353 172.854 338.031 172.797 337.709 172.831C335.657 173.014 333.589 173.232 331.546 173.443C331.36 173.468 331.14 173.472 330.953 173.405C329.029 172.901 327.139 173.252 325.232 173.823C324.85 173.937 324.426 174.002 324.036 173.996C322.333 173.858 320.765 174.173 319.213 174.823C318.425 175.151 317.518 175.454 316.62 174.859C315.619 174.203 314.789 175.038 313.89 175.461C313.441 175.349 312.958 175.216 312.347 175.028C311.83 175.245 311.271 175.505 310.737 175.757C308.94 175.123 307.838 175.145 305.668 175.764C305.617 175.779 305.549 175.83 305.49 175.817C303.541 175.877 301.582 176 299.616 176.003C298.59 176.002 297.599 176.021 296.776 176.607C296.158 177.039 295.624 177.199 294.81 176.887C294.462 176.745 293.606 177.124 293.106 177.397C292.776 177.589 292.614 177.976 292.326 178.402C290.911 177.284 289.131 177.909 287.529 177.834C287.919 178.396 288.249 178.852 288.58 179.308C288.783 179.339 289.003 179.335 289.156 179.382C291.08 180.07 292.936 179.977 294.776 178.902C295.081 178.718 295.488 178.596 295.878 178.51C296.632 178.346 297.387 178.274 298.387 178.098C298.811 178.311 299.328 179.019 300.362 178.309C300.523 178.199 300.93 178.17 301.116 178.237C302.735 178.924 304.515 178.391 306.236 178.308C307.168 178.275 307.914 178.268 308.423 178.948C308.669 179.306 309.186 179.553 310.076 179.286C309.754 178.858 309.474 178.479 309.194 178.101C310.644 177.481 310.618 177.489 311.305 178.301C311.474 178.497 311.881 178.56 312.263 178.724C312.33 178.21 312.364 177.861 312.398 177.511C312.746 177.469 312.966 177.372 313.119 177.419C314.466 177.848 315.772 177.673 317.179 177.19C317.984 176.918 318.959 176.935 319.866 176.817C320.044 177.412 320.162 177.808 320.29 178.325C320.79 178.052 321.349 177.884 321.375 177.692C321.553 176.898 322.299 176.706 323.104 176.619C324.545 176.434 326.003 176.306 327.452 176.057C328.427 175.888 328.978 176.062 329.376 176.653C329.419 176.702 329.614 176.705 329.732 176.731C330.199 176.53 330.665 176.328 330.741 176.306C331.741 176.5 332.36 176.715 333.013 176.766C333.869 176.849 334.767 176.796 335.606 176.915C336.361 177.028 337.056 177.406 337.802 177.399C339.522 177.408 341.243 177.232 342.972 177.177C343.795 177.146 344.625 177.237 345.219 177.275C345.702 177.871 344.176 178.698 345.888 178.771C346.227 178.238 346.566 177.704 346.888 177.207C348.829 177.119 350.686 176.748 352.305 177.528C352.593 177.658 353.085 177.634 353.491 177.604C354.348 177.502 355.195 177.279 356.043 177.241C359.01 177.155 362.044 176.832 364.951 177.288C365.274 177.346 365.638 177.36 365.918 177.276C369.859 176.188 373.741 176.938 377.649 176.755C380.022 176.63 382.413 176.932 384.778 177.057C386.295 177.127 387.795 177.325 389.329 177.359C392.957 177.445 396.602 177.495 400.213 177.801C401.806 177.941 403.307 178.324 405.078 178.041C407.087 177.717 409.198 177.917 411.139 178.477C411.478 178.592 411.927 178.519 412.3 178.561C413.724 178.69 415.165 178.783 416.564 179.012C418.098 179.231 419.556 179.658 421.115 179.869C421.751 179.956 422.489 179.736 423.184 179.651C423.692 179.591 424.158 179.482 424.684 179.387C424.014 178.261 426.049 178.392 426.193 177.485C425.167 176.189 427.676 175.314 427.431 174.031C428.405 173.862 428.77 174.154 429.134 174.631C429.499 175.108 429.982 174.87 430.118 174.676C429.914 173.904 429.77 173.33 429.567 172.651C429.262 172.372 428.439 172.032 428.439 171.57C428.423 170.403 427.677 169.763 426.499 169.252C426.27 169.135 426.168 168.888 426.024 168.685C426.041 168.556 426.092 168.449 426.109 168.32C427.516 169.04 428.804 168.438 430.118 168.199C430.516 168.141 430.94 168.354 431.355 168.445C431.949 168.576 432.517 168.714 433.169 168.858C433.356 167.63 431.728 167.748 431.144 166.905C432.542 167.134 433.729 167.025 434.653 167.705C435.009 167.968 435.678 168.169 436.238 167.538C436.051 167.101 436.001 166.561 435.594 166.22C434.687 165.505 434.89 164.889 435.933 164.299C435.416 163.775 434.865 163.416 434.611 162.937C434.178 162.141 433.534 161.563 432.543 161.12C431.517 160.656 431.178 159.894 431.449 158.764C432.178 158.7 433.094 158.426 433.704 158.613C434.806 158.962 435.84 158.621 436.798 158.396C437.552 158.232 438.035 158.272 438.663 158.424C440.917 159.013 443.172 159.602 445.596 159.833C445.706 159.83 445.825 159.764 445.952 159.726C445.995 159.405 446.037 159.084 446.122 158.534C447.393 158.616 448.554 158.7 450.165 158.804C448.622 158.001 447.41 157.377 446.215 156.717C446.266 156.61 446.342 156.494 446.393 156.387C447.571 156.527 448.724 156.675 450.131 156.84C449.775 156.392 449.521 156.098 449.301 155.824C449.64 155.476 449.919 155.207 450.182 154.974C449.038 153.559 447.478 152.422 446.97 150.447C448.029 150.931 448.86 151.299 449.614 151.69C450.377 152.11 450.174 153.188 451.708 153.315C451.369 152.83 451.123 152.472 450.826 152.037C451.335 151.977 451.683 151.935 452.022 151.864C452.106 151.129 452.183 150.459 452.276 149.752C454.073 149.923 455.751 150.069 457.896 150.29C456.523 149.221 455.463 148.274 454.26 147.493C453.429 146.94 453.997 146.523 454.531 146.085C453.319 145.276 451.513 145.262 450.547 143.886C452.404 144.348 453.946 144.78 455.523 145.141C457.065 145.481 458.667 145.741 460.515 146.082C459.913 145.276 458.735 144.95 459.413 143.976C459.532 143.817 458.947 143.344 458.574 143.117C457.964 142.744 457.125 142.533 456.972 141.746C459.473 141.398 460.804 142.789 462.762 143.22C462.168 142.812 461.55 142.411 460.956 142.003C461.329 141.49 462.007 140.979 460.778 140.761C460.541 141.079 460.338 141.324 460.202 141.519C459.329 141.195 458.608 140.917 457.651 140.587C457.312 140.103 458.312 139.834 458.566 139.388C458.837 138.905 458.803 138.33 458.905 137.744C459.439 137.769 460.151 138.389 460.66 137.589C460.219 136.857 459.778 136.126 459.329 135.366C460.075 135.173 460.745 135.004 461.694 134.75C460.092 133.842 458.694 133.058 457.312 132.238C456.812 131.956 456.295 131.617 456.007 131.21C455.829 130.986 456.058 130.547 456.117 130.005C455.659 129.68 454.973 129.238 454.337 128.78C454.337 129.243 454.015 129.463 453.464 129.289C452.76 129.067 452.099 128.803 451.54 128.323C452.498 128.468 453.481 128.605 454.447 128.778C453.667 128.21 452.625 127.689 453.769 126.699C451.32 125.459 448.845 124.319 447.539 122.273C447.327 121.936 446.827 121.746 446.488 121.447C445.31 120.473 443.979 119.638 443.14 118.224C445.047 118.948 445.946 117.692 447.243 116.934C447.268 117.389 447.26 117.638 447.302 117.872C447.336 118.17 447.395 118.461 447.421 118.731C449.192 119.465 449.192 119.465 451.303 119.018C450.752 118.751 449.896 118.576 449.904 118.327C449.896 117.373 448.633 117.042 448.387 116.221C448.201 115.598 447.718 115.188 446.692 115.002C445.904 114.868 445.285 114.282 444.42 113.801C446.141 113.069 445.192 112.583 444.387 112.114C445.684 111.911 446.845 111.718 448.006 111.524C447.082 111.215 446.184 110.898 445.26 110.588C445.997 109.813 445.743 108.686 447.396 108.654L447.455 108.667C446.133 108.507 444.929 108.559 444.48 109.835C443.87 109.648 443.446 109.435 442.954 109.367C441.395 109.155 441.403 109.184 441.759 107.967C441.259 108.147 440.759 108.328 440.259 108.508C440.2 108.403 440.166 108.29 440.106 108.184C440.505 107.849 440.996 107.732 441.632 107.912C441.259 107.592 441.039 107.226 441.836 107.019C442.378 106.887 442.98 106.861 443.565 106.778C443.149 106.594 442.759 106.403 442.344 106.219C442.404 106.139 442.454 106.031 442.514 105.952C442.963 106.064 443.387 106.184 443.836 106.296C443.717 106.455 443.599 106.614 443.497 106.737C443.768 107.088 444.022 107.474 444.294 107.825C446.099 107.376 446.074 107.384 445.133 106.37C444.845 106.056 444.582 105.734 444.294 105.419C443.751 105.458 443.243 105.61 442.861 105.54C441.963 105.315 441.319 105.57 440.513 105.934C439.098 106.574 438.038 106.274 436.902 105.165C437.428 104.977 437.954 104.789 438.81 104.501C437.835 103.93 437.072 103.51 436.301 103.063C435.495 102.595 434.656 102.106 433.792 101.624C434.207 101.346 434.512 101.162 434.902 100.891C433.199 100.106 431.461 99.9477 429.613 100.069C430.206 100.478 430.766 100.865 431.529 101.377C431.071 101.514 430.783 101.569 430.503 101.653C430.503 101.746 430.452 101.853 430.52 101.895C431.012 102.426 431.537 102.978 432.029 103.509C432.105 103.579 432.122 103.728 432.241 103.754C434.385 104.161 435.326 105.822 437.386 106.316C437.597 106.561 437.784 106.813 437.996 107.058C437.894 107.089 437.767 107.127 437.665 107.157C437.58 106.874 437.487 106.563 437.419 106.244C437.199 106.341 436.953 106.445 436.741 106.57C436.529 106.695 436.394 106.89 436.241 107.028C436.724 107.531 437.258 107.927 437.572 108.419C437.843 108.862 437.894 109.402 438.021 109.919C436.249 109.925 435.224 109.183 433.944 106.76C434.198 106.684 434.656 106.547 435.377 106.362C431.579 104.97 430.003 102.759 428.715 100.307C429.054 100.237 429.367 100.174 429.681 100.111C429.562 99.8994 429.469 99.6806 429.35 99.4694C430.546 98.9265 430.546 98.9265 430.596 97.986C431.91 98.6721 433.3 98.8726 434.868 98.2797C435.046 98.2264 435.275 98.2504 435.47 98.2537C436.988 98.2312 438.14 97.7318 438.912 96.6989C438.895 96.7348 438.886 96.7991 438.844 96.8426C438.912 96.6064 439.141 96.2603 439.022 96.1416C438.513 95.7388 437.996 95.2151 437.318 95.0789C435.835 94.7521 435.021 93.978 434.208 93.1113C434.352 92.8523 434.487 92.565 434.699 92.1623C435.454 92.3682 436.149 92.561 436.632 92.6938C437.174 92.4697 437.641 92.2685 438.056 92.0824C437.225 91.5293 436.708 91.1906 435.979 90.6996C436.793 90.4559 437.285 90.3396 437.742 90.2025C437.963 88.6253 436.208 88.8731 435.14 88.3602C434.971 88.6269 434.928 88.8554 434.742 88.9729C434.386 89.1721 433.937 89.3374 433.555 89.3591C433.419 89.3689 433.165 88.8899 433.174 88.6406C433.174 88.2706 433.36 87.8755 433.47 87.4107C433.962 87.4794 434.394 87.535 434.835 87.6189C434.632 87.4947 434.42 87.3423 434.191 87.2258C434.666 86.8678 435.14 86.5097 435.615 86.1517C435.657 86.2932 435.717 86.3988 435.759 86.5403C435.496 85.848 435.2 85.135 434.937 84.4426L434.92 84.4785C434.869 83.6611 433.818 83.5749 433.191 82.9608C432.877 83.4865 432.547 83.8631 432.487 84.2201C432.394 85.2041 434.157 84.5219 434.445 85.2992C433.691 85.6484 433.106 85.546 432.572 85.2433C431.538 84.6585 430.419 84.2534 428.987 84.2814C428.656 84.2879 428.342 84.0734 427.978 83.9666C429.97 82.2907 430.08 81.2708 428.529 79.6073C428.165 79.2229 427.707 78.8974 428.165 78.2977C428.241 78.1823 427.69 77.823 427.453 77.5857C427.376 78.0711 427.326 78.549 427.258 79.1553C426.419 79.129 425.681 79.0722 424.528 79.0165C425.418 78.6575 425.935 78.4409 426.503 78.2092C426.376 77.7847 425.02 77.6973 426.054 76.8942C426.537 77.1196 427.029 77.3733 427.546 77.6194C427.114 76.6386 428.106 76.0641 429.224 75.2664C428.445 75.0682 427.911 74.9505 427.309 74.7915C427.241 75.2127 427.199 75.4413 427.122 75.9267C426.037 75.1722 425.156 74.5418 424.249 73.9189C424.554 73.4575 425.309 73.0157 424.096 72.3917C424.113 73.7437 422.901 73.3973 421.96 73.494C421.426 73.5613 420.85 73.5797 420.74 74.137C420.121 74.2915 419.511 74.4742 418.816 74.6515C419.714 73.8582 419.714 73.8582 420.74 74.137C420.757 73.8235 420.562 73.4501 421.265 73.3012C421.757 73.1848 422.206 73.0194 422.689 72.8747C422.571 72.1084 422.028 71.8699 421.265 71.7283C420.18 71.5288 418.629 71.5307 418.172 71.0201C417.358 70.061 416.019 70.5854 415.154 70.1041C414.951 69.9799 414.764 69.8199 414.527 69.7676C413.289 69.5213 411.975 69.0203 410.814 69.2139C409.441 69.44 408.89 69.1732 408.195 68.5178C407.839 68.1618 407.229 67.7894 406.669 67.7718C404.881 67.7214 404.347 66.8636 403.949 65.8109C405.491 65.0405 406.814 66.5876 408.466 65.63C407.339 64.919 406.178 64.6499 404.873 64.5473C404.186 64.4753 403.516 64.2749 402.855 64.1028C402.737 64.0766 402.677 63.8785 402.609 63.7446C403.135 63.4639 403.644 63.2191 404.195 62.9307C402.694 61.6221 400.575 62.4108 398.982 61.9936C398.787 62.4529 398.668 62.7043 398.549 62.9557C397.837 62.7988 397.176 62.4417 396.659 62.5656C394.498 63.0278 392.446 62.5626 390.37 62.6602C389.903 62.6764 389.437 62.6001 388.997 62.5162C387.022 62.2132 385.08 61.8383 383.097 61.5996C379.613 61.1624 376.13 60.8177 372.646 60.3805C371.239 60.2158 369.857 59.8585 368.416 59.7657C366.212 59.6238 363.949 59.6538 361.745 59.6043C360.965 59.5911 360.169 59.6138 359.389 59.5081C357.948 59.3227 356.549 59.0013 355.1 58.8802C352.998 58.7078 350.879 58.6638 348.751 58.5916C346.564 58.5062 344.386 58.4492 342.182 58.3997C340.063 58.3558 337.927 58.3477 335.791 58.3397C334.511 58.322 333.222 58.4611 332.01 58.2997C329.629 58.026 327.179 58.7287 324.772 58.3701C323.348 58.1488 321.712 58.5153 320.194 58.5379C318.075 58.5864 315.939 58.5784 313.812 58.5986C311.218 58.6351 308.624 58.6716 306.064 58.7288C305.674 58.7221 305.268 58.7514 304.852 58.7525C301.538 58.8813 298.198 59.0178 294.876 59.1183C292.816 59.18 290.756 59.2416 288.688 59.3674C286.509 59.4954 284.339 59.7443 282.102 59.9517C281.347 58.8206 280.924 58.7933 279.194 59.3111C277.669 59.7679 276.126 60.5383 274.388 60.01C273.99 59.8826 273.371 60.1295 272.871 60.2176C272.506 60.2959 272.074 60.5179 271.761 60.4884C269.802 60.1495 267.802 60.5018 265.836 60.6897C262.937 61.0026 259.978 60.5622 257.156 61.685C257.105 61.7002 257.029 61.7231 256.944 61.7176C254.392 61.9881 251.858 62.4078 249.341 62.5139C246.12 62.6766 242.932 63.0449 239.754 63.5341C236.914 63.9526 234.049 64.3787 231.193 64.5555C229.158 64.7021 227.268 65.1447 225.149 65.5634C225.59 65.7398 225.835 65.8204 226.276 65.9968C225.734 66.0359 225.31 66.1936 225.14 66.0902C224.344 65.6503 223.513 65.6523 222.581 65.9623C222.25 66.0613 221.792 65.9208 221.411 65.9425C220.029 66.0478 218.622 66.1607 217.249 66.2943C216.257 66.4062 215.164 66.8262 214.291 66.6867C212.901 66.4861 211.655 66.8592 210.366 67.0908C209.705 67.1963 209.086 67.4432 208.433 67.577C204.043 68.46 199.627 69.258 195.261 70.2259C189.65 71.4744 184.064 72.8077 178.478 74.1411C170.747 75.9933 163.008 77.8171 155.685 80.6577C155.388 80.7774 155.023 80.7632 154.693 80.8622C152.625 81.4506 150.556 82.0391 148.505 82.6842C147.344 83.0627 146.233 83.6111 145.072 83.9897C143.385 84.5564 141.681 85.0666 140.02 85.6257C138.783 86.0272 137.562 86.4852 136.358 86.9073C137.358 86.9162 138.24 86.7139 139.13 86.4474C142.809 85.315 146.454 84.1619 150.132 83.0295C152.413 82.3159 154.752 81.7079 157.032 80.9943C160.423 79.9174 163.805 78.8122 167.348 78.1522C167.925 78.0413 168.476 77.8454 169.043 77.7062C169.569 77.518 170.103 77.3581 170.603 77.1775C171.281 76.9436 171.722 77.0275 171.858 77.6654C170.866 78.3325 169.933 78.0874 169.018 77.7138C169.137 77.925 169.23 78.1438 169.289 78.2494C167.374 79.7174 164.695 79.3784 162.288 80.5927C165.331 80.946 167.662 80.1246 169.849 79.1922C171.273 78.5808 172.536 78.3568 173.994 78.6912C174.595 78.8503 175.299 78.9789 175.909 78.8887C177.664 78.6408 179.452 78.3212 181.165 77.9318C181.58 77.8383 181.877 77.256 182.275 77.1984C183.462 76.9973 184.691 76.9377 185.691 76.854C185.911 76.4796 186.022 76.0149 186.259 75.9746C187.869 75.6158 189.488 75.3777 191.167 75.0602C191.218 75.4151 191.252 75.6208 191.294 75.8548L191.26 75.8342C192.006 75.6417 192.743 75.4208 193.523 75.249C194.303 75.0772 195.202 75.2091 195.863 74.641C195.617 74.5604 195.371 74.5723 195.151 74.5766C194.854 74.6038 194.591 74.6516 194.295 74.6788C196.71 73.6778 199.118 72.8337 201.822 74.1829C200.821 74.4515 200.033 74.6876 199.202 74.8746C198.295 75.0845 197.355 75.1812 196.448 75.3911C192.464 76.2448 188.48 77.0984 184.521 77.9445C182.097 78.4545 179.698 78.9569 177.274 79.4669C176.57 79.6159 175.867 79.8574 175.172 80.0347C172.925 80.5839 170.62 81.0276 168.407 81.69C165.483 82.5657 162.406 82.4693 159.49 83.1882C158.821 82.7102 158.083 83.1161 157.448 83.3064C154.777 84.1059 152.141 84.9261 149.48 85.7539C148.844 85.9443 148.361 86.274 147.767 85.5881C147.462 85.2169 146.394 85.2591 145.708 85.9273C145.301 86.3267 144.521 86.5911 143.86 86.7891C142.961 87.0273 142.003 87.0673 141.105 87.3055C140.181 87.5514 139.13 87.6502 138.062 88.5251C138.994 88.4002 139.452 88.3556 139.901 88.2828C140.893 87.9858 141.859 87.6965 142.851 87.3995C142.088 88.3681 140.935 88.2198 139.867 88.2621C137.647 89.2663 135.477 90.3479 133.239 91.2955C131.399 92.093 129.424 92.7152 127.568 93.4561C123.821 95.0097 120.1 96.5558 116.404 98.1867C112.615 99.8764 108.894 101.7 105.156 103.467C105.105 103.482 105.147 103.624 105.173 103.801C105.715 103.669 106.199 103.525 106.716 103.401C106.775 103.506 106.826 103.584 106.885 103.689C105.707 104.289 104.546 104.852 103.393 105.444C103.41 105.501 103.427 105.558 103.444 105.614C103.952 105.554 104.486 105.487 105.444 105.354C103.808 106.184 102.596 106.855 101.316 107.485C96.2809 110.01 91.2543 112.564 86.9142 115.837C86.2615 116.341 85.1596 116.548 84.634 117.106C82.7946 119.014 80.1075 120.127 77.8104 121.617C75.3945 123.173 72.6481 124.55 71.3935 126.93C71.3257 127.074 71.1392 127.192 71.0036 127.294C68.8929 129.036 66.8076 130.771 64.6545 132.464C62.0352 134.544 59.3396 136.554 56.7204 138.633C54.5673 140.327 52.4481 142.041 50.4052 143.824C49.0828 144.96 47.9045 146.207 46.6584 147.413C49.693 146.35 51.3715 143.997 54.5247 143.053C54.4823 143.559 54.3552 143.968 54.0076 144.288C52.414 145.721 50.761 147.141 49.1335 148.553C48.9131 148.743 48.786 148.966 48.6334 149.197C48.7351 149.259 48.8368 149.321 48.9385 149.383C51.2018 147.687 53.9651 146.552 56.4064 144.988C58.7544 143.483 61.1279 141.878 63.8827 140.714C63.5606 141.211 63.1198 141.59 62.6112 141.927C57.5083 145.521 52.1934 148.963 47.4549 152.849C43.0979 156.436 38.7663 160.016 34.7484 163.809C32.7987 165.627 30.8745 167.436 29.0604 169.337C28.4247 169.99 27.8228 170.663 27.1786 171.38C28.4331 171.406 29.162 171.249 29.6198 170.187C30.0183 169.204 31.2558 168.433 32.6714 167.978C33.358 167.772 34.0531 167.502 34.6464 167.171C37.5454 165.562 40.4105 163.933 43.2756 162.304C43.6571 162.098 44.0131 161.806 44.4285 161.62C44.8268 161.47 45.4202 161.231 45.6999 161.332C46.7509 161.696 47.4036 161.192 47.9801 160.711C51.0232 158.196 55.0665 156.708 58.5928 154.696C59.5422 154.165 60.4491 153.585 61.4917 153.18C63.8736 152.251 65.8487 150.981 67.722 149.556C68.2391 149.155 68.9172 148.829 69.5784 148.631C70.6634 148.275 71.8077 148.025 73.1724 147.678C67.8151 151.811 62.3986 155.653 56.7786 159.372C58.5247 158.54 60.2455 157.717 61.9916 156.885C59.0078 159.876 54.8543 162.014 51.8196 164.927C51.8959 164.997 51.9807 165.095 52.0315 165.172C52.7944 164.851 53.5488 164.502 54.3287 164.145C50.0988 167.324 45.9283 170.423 41.7663 173.551C44.1311 173.398 44.7415 171.272 47.1403 171.047C47.2674 172.582 46.5638 173.841 45.216 174.985C43.9784 176.034 42.7408 177.083 41.5032 178.132C42.639 178.501 42.1134 179.06 41.7235 179.516C39.7908 181.667 37.8242 183.798 35.7982 185.916C34.2554 187.519 32.4245 188.992 31.0681 190.663C29.7881 192.218 28.2454 193.544 26.6263 194.892C25.0327 196.233 23.5747 197.656 22.0489 199.038C22.4218 199.081 22.6507 199.012 22.8118 198.902C25.5837 196.777 28.3555 194.652 31.1274 192.527C32.1446 191.759 33.1449 190.936 34.2299 190.21C34.7809 189.829 35.3234 189.235 36.4422 189.547C35.4589 190.613 34.5434 191.627 33.5601 192.693C34.9247 193.733 34.2296 194.743 33.365 195.742C33.0344 196.119 32.6529 196.511 32.1951 196.833C30.6863 197.902 29.1436 198.949 27.6008 199.997C27.3042 200.21 27.0499 200.471 26.7871 200.704C27.2194 200.759 27.4483 200.691 27.6602 200.566C30.9237 198.601 34.8313 197.401 37.9422 195.297C38.0779 195.195 38.3067 195.126 38.4847 195.073C40.6462 194.703 42.5873 193.875 44.2148 192.833C44.9438 193.046 45.5032 193.156 46.0288 193.338C46.8086 193.629 46.8594 193.984 46.2067 194.488C45.7828 194.831 45.1217 195.029 44.9267 195.673C48.1732 194.485 50.5467 192.51 53.8016 191.35C53.8863 192.466 53.2845 193.047 52.369 193.599C50.1905 194.93 48.724 196.695 47.088 198.357C48.6053 197.594 50.0887 196.81 51.3857 195.867C54.7679 193.466 58.15 191.066 61.8373 188.944C62.312 188.679 62.9647 188.267 63.4224 188.315C64.3718 188.432 64.7702 187.912 65.3042 187.567C65.8128 187.229 66.2282 186.766 66.7792 186.477C69.6781 184.962 72.611 183.467 75.5524 182C76.3492 181.607 77.2053 181.32 78.0445 180.976C78.1123 181.018 78.1631 181.095 78.231 181.136C77.7393 181.623 77.2562 182.137 76.4424 182.936C77.4002 182.711 77.9342 182.644 78.375 182.45C79.6126 181.864 80.7315 181.158 81.986 180.629C84.1984 179.689 86.3176 178.53 88.9113 178.308C88.9876 178.285 89.0723 178.291 89.1401 178.332C90.2082 177.735 91.3017 177.13 92.3612 176.504C92.4036 176.553 92.4714 176.595 92.5223 176.672C92.0052 177.444 91.4881 178.215 90.8608 179.082C91.5728 178.961 92.0984 178.865 92.5985 178.777C95.0143 178.424 97.4724 178.305 99.6254 177.074C100.261 176.698 101.143 176.589 101.897 176.332C101.914 176.389 101.956 176.438 101.973 176.494C101.533 176.78 101.066 177.074 100.617 177.332C100.66 177.381 100.71 177.458 100.753 177.507C102.685 176.929 104.627 176.378 106.61 175.784C106.618 176.09 106.635 176.332 106.652 176.574L106.618 176.553C107.364 176.36 108.144 176.189 108.89 175.996C109.322 175.867 109.789 175.573 110.179 175.579C111.814 175.675 113.01 174.948 114.188 174.255C114.985 173.77 115.765 173.413 116.782 173.479C117.375 173.147 117.943 172.73 118.579 172.54C122.554 171.288 126.555 170.121 130.539 168.897C131.455 168.623 132.353 168.292 133.285 168.074C131.005 169.436 124.199 171.597 116.739 173.43C116.231 173.767 115.739 174.161 115.188 174.449C112.815 175.592 110.416 176.742 108.008 177.864C104.219 179.646 100.176 181.042 96.7601 183.329C95.514 184.165 93.9289 184.701 92.4964 185.377C89.9958 186.557 87.5546 187.843 85.0031 188.947C77.7896 192.063 70.8643 195.493 64.4136 199.491C62.9641 200.388 61.5485 201.305 60.1329 202.222C61.4128 202.055 62.5572 201.712 63.6506 201.292C65.9986 200.435 68.3042 199.529 70.6607 198.7C71.0591 198.55 71.6524 198.681 72.144 198.749C72.8899 198.834 73.5511 199.191 74.3733 198.698C75.9839 197.784 77.6452 196.948 79.3067 196.111C79.9085 195.807 80.5442 195.525 81.1461 195.221C81.2223 195.291 81.2732 195.368 81.3495 195.438C79.6626 196.467 77.9504 197.504 76.272 198.562C77.0349 198.518 77.6452 198.336 78.2301 198.068C79.5609 197.423 80.8324 196.672 82.1717 196.055C83.4347 195.461 84.6468 194.697 86.215 194.659C87.4356 193.184 89.5802 192.85 91.4704 191.945C90.7244 193.432 88.5459 194.486 86.181 194.639C86.715 195.034 86.7913 195.474 86.0962 195.928C85.7656 196.12 85.4689 196.332 85.1468 196.552C89.0545 195.351 95.3355 193.84 96.5561 193.938C95.1151 194.677 93.7758 195.387 92.4365 196.096C92.1737 196.237 91.8092 196.5 91.8262 196.649C92.1143 197.796 90.8005 197.573 90.1732 197.977C89.9274 197.711 89.7579 197.515 89.4951 197.193C87.8761 198.171 86.1045 198.917 84.9347 200.008C84.0023 200.873 83.002 201.419 81.8323 201.955C79.569 203.002 77.3652 204.156 75.0256 205.319C75.958 205.842 76.6361 205.793 77.4414 205.428C79.6029 204.411 81.7983 203.414 84.0107 202.474C85.511 201.84 87.0283 201.262 88.5711 200.677C91.4192 199.639 94.2672 198.601 97.1323 197.62C99.8702 196.677 102.651 195.783 105.405 194.896C105.71 194.805 106.033 194.677 106.329 194.558C108.898 193.604 111.483 192.614 114.051 191.66C114.323 191.548 114.746 191.667 115.425 191.711C114.958 192.005 114.797 192.207 114.585 192.24C112.771 192.66 111.339 193.798 109.381 194.014C108.414 194.118 107.499 194.578 106.855 195.295C106.524 195.671 105.99 196.016 105.456 196.176C104.151 196.629 102.769 196.919 101.498 197.392C98.4545 198.519 95.0047 199.028 92.3684 200.866C92.1141 201.035 91.792 201.162 91.4614 201.261C87.4012 202.508 83.9428 204.561 80.247 206.284C78.0855 207.302 76.1528 208.621 73.6353 209.189C72.9572 209.331 72.2282 209.765 71.8298 210.193C70.5243 211.57 68.6934 212.396 66.7777 213.124C66.3793 213.274 66.0233 213.566 65.6758 213.793C65.7521 213.863 65.8029 213.94 65.8791 214.01C66.659 213.838 67.4134 213.674 68.3543 213.485C68.2102 213.836 68.2356 214.014 68.1 214.116C67.4049 214.756 66.6759 215.375 65.9808 216.015C65.345 216.575 64.2685 216.959 64.0311 218.11C65.5739 217.155 66.9216 216.473 67.9982 215.627C71.3295 213.056 75.0592 210.984 79.3059 209.342C80.4757 208.899 81.9506 208.735 82.8152 208.199C84.9598 206.847 87.9604 207.429 89.8931 205.832C89.9609 205.781 90.1389 205.821 90.2745 205.811C91.7409 205.803 93.0124 205.33 94.2415 204.715C94.606 204.545 95.0637 204.5 95.4706 204.378C95.5553 204.476 95.6147 204.582 95.691 204.652C95.0637 205.055 94.4364 205.459 93.7752 205.842C92.4868 206.536 91.2068 207.259 89.8591 207.847C87.2398 209.002 84.5697 210.079 81.9335 211.176C80.8485 211.625 79.8483 212.171 78.7718 212.648C76.7289 213.506 74.6776 214.336 72.6432 215.223C72.1007 215.447 71.465 215.73 71.448 216.506C71.9566 216.354 72.321 216.275 72.6347 216.12C73.3806 215.742 74.0249 215.21 74.7963 214.917C78.3395 213.517 81.8996 212.174 85.4936 210.851C86.2141 210.573 87.0532 210.507 87.8585 210.42C88.0704 210.387 88.3332 210.617 88.6891 210.788C86.2818 211.632 84.0695 212.387 81.8741 213.199C81.4502 213.357 80.9332 213.573 80.7467 213.876C79.9413 215.165 78.5427 215.492 76.8136 215.454C76.5422 216.862 75.2199 217.443 73.7959 218.054C72.6685 218.546 71.7191 219.262 70.6849 219.88C71.7784 219.738 72.7108 219.428 73.5839 219.012C75.5335 218.12 77.4831 217.228 79.3819 216.258C80.5092 215.674 81.5433 215.796 82.2553 216.416C82.9927 217.027 83.6454 216.894 84.5524 216.591C85.6119 216.243 86.7224 215.787 87.8074 215.709C89.2144 215.596 90.435 215.231 91.6387 214.716C92.5966 214.306 93.4951 213.79 94.4699 213.437C95.7922 212.948 97.0298 212.177 98.5386 212.126C99.3692 213.604 100.039 213.712 101.971 212.763C102.887 212.304 103.853 211.83 104.862 211.589C106.667 211.141 108.515 210.835 110.346 210.564C112.253 210.271 114.211 210.239 116.085 209.833C117.831 209.464 119.382 209.462 120.857 210.131C120.95 210.164 121.111 210.147 120.942 210.136C122.332 209.504 123.442 208.771 124.68 208.462C127.053 207.874 129.528 207.534 131.961 207.053C132.351 206.967 132.732 206.852 133.122 206.766C135.979 206.127 138.844 205.331 141.743 204.925C143.099 204.735 144.337 204.519 145.549 204.033C145.718 203.951 145.947 203.882 146.108 203.865C148.668 203.808 150.999 202.801 153.55 202.531C155.89 202.293 158.179 201.608 160.501 201.128C162.01 200.8 163.493 200.479 165.002 200.15C166.282 199.891 167.587 199.531 168.893 199.448C171.393 199.285 173.733 198.585 176.123 198.054C176.903 197.882 177.691 197.739 178.471 197.567C180.166 197.214 181.853 196.832 183.549 196.478C184.727 196.249 185.888 196.055 187.066 195.826C187.668 195.707 188.236 195.568 188.838 195.45C190.669 195.087 192.584 195.099 194.263 194.226C194.576 194.071 195.034 194.026 195.432 193.968C196.28 193.838 197.128 193.708 198.187 193.545C198.704 193.976 199.433 194.004 200.459 193.635C201.561 193.244 202.79 193.092 203.96 192.926C204.731 192.819 205.358 192.693 205.901 192.191C206.537 191.63 207.384 191.5 208.393 191.352C209.859 191.16 211.232 191.119 212.665 191.276C213.148 191.316 213.699 191.12 214.216 190.996C215.132 190.815 216.022 190.548 216.946 190.395C218.802 190.117 220.785 190.17 222.506 189.624C224.99 188.85 227.609 188.713 230.059 187.918C231.449 187.471 233.025 187.276 234.221 186.641C235.823 185.791 237.357 185.733 239.018 185.821C239.501 185.862 240.163 185.849 240.51 185.621C241.197 185.231 241.832 184.948 242.468 185.405C243.011 185.829 243.205 186.387 242.765 187.043C242.493 187.433 242.434 187.882 242.298 188.262C242.485 188.33 242.553 188.371 242.604 188.356C244.672 187.768 246.52 186.721 248.851 186.64C249.647 186.617 250.47 186.031 251.453 185.614C251.038 185.43 250.851 185.27 250.741 185.272C249.529 185.573 248.308 185.846 247.13 186.26C245.553 186.825 244.714 186.429 244.748 185.061C246.071 184.48 247.749 184.441 248.783 183.36C248.995 183.142 249.961 183.038 250.258 183.196C251.25 183.732 252.097 183.324 253.072 183.062C254.149 182.771 255.267 182.621 256.378 182.443C256.641 182.395 257.014 182.437 257.149 182.335C257.971 181.565 259.158 181.549 260.226 181.414C262.744 181.03 265.253 180.711 267.762 180.391C267.999 180.351 268.245 180.431 268.999 180.545C268.033 180.927 267.499 181.272 266.939 181.347C265.532 181.552 264.363 181.902 263.718 182.897C261.709 182.943 259.87 183.186 257.963 183.664C256.157 184.112 254.36 184.589 252.267 185C253.97 185.785 255.411 185.693 256.92 185.087C257.514 184.847 258.209 184.763 258.853 184.601C259.701 184.378 260.548 184.155 261.659 183.884C262.481 184.409 263.405 184.348 264.498 183.465C265.032 183.028 266.083 182.929 266.922 182.77C268.44 182.47 269.948 182.234 271.474 181.962C271.923 181.89 272.381 181.753 272.847 181.736C274.678 181.651 276.331 180.416 278.255 180.919C278.315 180.932 278.476 180.822 278.561 180.735C279.095 180.298 279.722 180.356 280.434 180.328C282.256 180.307 284.163 180.569 285.833 179.483C286.028 179.671 286.172 179.782 286.232 179.888C286.308 180.05 286.299 180.206 286.35 180.376C288.435 180.122 288.435 180.122 288.8 178.933C288.02 179.753 287.478 179.977 286.8 179.378ZM343.165 65.1988C344.097 64.9812 345.148 64.5123 345.504 65.6085C346.123 65.4541 346.742 65.2996 347.361 65.1452C347.386 65.2301 347.395 65.3509 347.42 65.4358C346.801 65.4977 346.149 65.539 345.504 65.6085C344.708 65.4462 343.953 65.3328 343.165 65.1988ZM251.561 66.0433C253.892 65.6846 256.299 65.0254 258.588 65.0803C260.826 65.1505 263.03 64.6447 265.25 64.7508C266.318 64.8011 267.471 64.4867 268.573 64.3727C269.963 64.2031 271.336 64.0695 272.718 63.8717C275.159 63.5108 277.575 63.7127 279.982 63.6087C281.356 63.5676 282.788 63.8171 284.043 63.0097C284.187 62.9357 284.432 62.9238 284.627 62.9271C287.467 62.8787 290.315 62.8586 293.129 62.8178C293.4 63.5385 292.883 63.755 292.222 63.7679C291.425 63.7906 290.629 63.7208 289.832 63.7435C285.526 63.8917 281.228 64.3458 276.922 64.5866C271.472 64.8925 266.005 65.3268 260.538 65.7611C257.884 65.9695 255.206 66.2781 252.561 66.5149C251.968 66.5692 251.383 66.5592 250.798 66.5493C250.832 66.4775 250.832 66.385 250.866 66.3131C251.086 66.2163 251.324 66.0836 251.561 66.0433ZM429.79 115.652C430.536 116.2 431.206 116.678 432.053 117.288C432.197 117.214 432.562 117.043 433.037 116.777C433.816 117.346 434.613 117.971 435.512 118.658C433.664 119.612 431.756 120.461 429.375 119.724C427.722 119.202 427.493 118.345 428.849 117.137C428.629 116.956 428.375 116.755 428.146 116.546C427.925 116.365 427.739 116.205 427.476 115.975C428.053 115.309 428.612 114.679 429.29 113.89C429.884 114.298 430.392 114.609 431.087 115.079C430.426 115.369 430.112 115.525 429.79 115.652ZM193.803 73.0372C193.049 72.8313 192.226 72.3065 191.616 73.2294C190.226 73.1214 189.014 74.0703 187.564 73.8567C187.158 73.7935 186.496 73.9914 186.157 74.2472C184.962 75.0677 183.716 74.8856 182.156 74.7667C182.716 74.4141 183.047 74.0376 183.462 73.944C185.055 73.5285 186.7 73.1903 188.319 72.8598C190.794 72.3345 193.278 71.8376 195.753 71.3123C199.643 70.5174 203.568 69.7432 207.459 68.9483C207.645 68.9233 207.84 68.9266 208.069 69.0431C205.874 69.8547 203.475 70.0795 201 70.7898C201.525 70.8792 201.847 70.9369 202.169 70.9947C199.22 71.3228 196.177 71.0621 193.803 73.0372ZM408.986 174.804C409.986 174.073 410.715 173.454 411.555 172.925C411.809 172.756 412.317 172.696 412.69 172.739C414.258 172.886 415.81 173.069 417.361 173.253C417.674 173.282 418.03 173.36 418.251 173.541C418.539 173.763 418.903 174.148 418.802 174.363C418.675 174.679 418.183 174.98 417.751 175.202C417.513 175.335 417.089 175.308 416.784 175.306C415.242 175.244 413.682 175.125 412.122 175.099C411.682 175.107 411.207 175.373 410.452 175.63C410.012 175.361 409.52 175.107 408.986 174.804ZM56.2444 162.122C60.7963 159.094 64.9414 155.724 69.8663 153.016C70.0613 152.927 70.3749 152.956 70.7225 152.914C70.2223 153.927 69.4763 154.675 68.2303 155.141C65.5517 156.097 63.6445 157.778 61.4745 159.23C59.3045 160.681 57.2361 162.195 55.1 163.668C54.9983 163.605 54.9135 163.507 54.8118 163.445C55.3119 162.987 55.6934 162.503 56.2444 162.122ZM106.152 186.469C103.634 187.315 101.142 188.154 98.6755 189.078C98.0228 189.304 97.387 189.679 96.9293 190.094C96.0562 190.88 94.9627 191.115 93.5556 191.32C94.8526 189.914 96.6072 189.204 98.3618 188.678C100.6 188.008 102.583 187.044 104.626 186.093C105.719 185.581 106.923 185.251 108.22 184.77C107.974 185.8 107.076 186.131 106.152 186.469ZM306.132 63.0262C306.132 62.9337 306.115 62.8771 306.115 62.7845C306.539 62.6268 306.929 62.4484 307.369 62.3472C307.988 62.1928 308.802 61.8566 309.243 62.033C310.624 62.4828 311.955 62.0227 313.294 61.9609C315.125 61.8753 316.922 62.0466 318.728 62.1536C318.982 62.17 319.211 62.379 319.448 62.5238C319.389 62.6033 319.33 62.6827 319.27 62.7622C314.888 62.8407 310.506 62.9193 306.132 63.0262ZM228.454 69.5697C226.971 69.7055 225.454 70.3757 223.894 69.7941C224.343 69.6288 224.81 69.335 225.242 69.2981C229.751 69.0889 234.142 67.7433 238.66 67.655C238.677 67.8041 238.66 67.9325 238.677 68.0817C235.261 68.6111 231.862 69.2896 228.454 69.5697ZM442.056 114.879C442.361 115.435 443.149 116.217 442.064 117.22C440.657 116.315 439.267 115.467 437.936 114.539C437.699 114.395 437.733 114.045 437.555 113.636C439.504 113.761 441.361 113.668 442.056 114.879ZM172.756 76.9646C175.299 75.8331 177.927 75.2622 180.826 75.1343C180.537 75.3748 180.283 75.636 179.97 75.7916C179.368 76.0952 178.723 76.3497 178.071 76.576C177.74 76.675 177.299 76.7761 177.003 76.7108C175.969 76.4961 175.18 76.8247 174.451 77.5364C173.773 77.3077 173.316 77.1672 172.756 76.9646ZM227.683 71.5278C227.742 71.6334 227.793 71.7107 227.853 71.8163C227.547 72.0002 227.242 72.2766 226.895 72.319C223.953 72.768 221.012 73.2169 218.054 73.6093C217.359 73.694 216.664 73.5937 215.969 73.586C215.994 73.4858 216.011 73.3574 216.011 73.2649C219.919 72.7116 223.792 72.1377 227.683 71.5278ZM116.74 168.989C114.171 170.775 110.942 171.465 107.831 172.273C110.543 170.69 113.519 169.614 116.74 168.989ZM239.779 67.69C241.745 66.8544 244.873 66.473 249.756 66.4914C247.501 67.2899 241.194 67.9755 239.779 67.69ZM295.214 63.3962C296.333 62.7836 297.215 61.9337 298.774 62.6078C299.537 62.9345 300.792 62.6822 301.843 62.6759C302.538 62.6837 303.225 62.6631 303.937 62.635C303.937 62.82 303.928 62.9768 303.928 63.1618C301.012 63.2331 298.122 63.2967 295.214 63.3962ZM409.152 84.6692C410.407 85.0646 411.737 85.4372 413.009 85.8891C413.695 86.1462 414.255 86.5338 414.873 86.842C414.789 86.929 414.712 87.0444 414.628 87.1315C412.186 87.1223 409.576 85.8993 409.152 84.6692ZM121.743 116.203C121.659 115.457 122.515 115.447 123.117 115.236C122.167 114.564 123.456 114.518 123.981 114.145C124.269 114.829 124.566 115.542 124.914 116.425C123.651 116.464 122.718 116.497 121.845 116.542C121.769 116.287 121.752 116.231 121.743 116.203ZM324.458 62.4116C326.501 61.7383 328.137 61.7419 329.755 62.1515C328.111 62.9523 326.509 63.2469 324.458 62.4116ZM273.076 180.28C272.237 180.069 271.678 180.144 270.923 180.585C270.152 181.063 269.601 180.796 269.296 180.055C271.076 179.892 272.915 179.742 274.721 179.572C274.738 179.721 274.772 179.834 274.789 179.983C274.238 180.086 273.526 180.392 273.076 180.28ZM455.727 133.144C453.955 133.243 453.955 133.243 451.938 131.596C453.193 131.251 453.642 131.456 455.727 133.144ZM208.332 72.6962C210.205 71.6418 211.841 71.4604 213.383 71.8003C212.019 72.4248 210.425 72.7478 208.332 72.6962ZM136.129 91.602C134.23 92.2013 132.967 93.1655 130.857 93.4274C132.442 92.2434 133.824 91.4905 136.129 91.602ZM223.267 70.2904C221.266 70.6426 219.631 70.9166 217.783 71.2232C219.054 70.2873 221.733 69.7937 223.267 70.2904ZM130.182 183.9C129.055 185.039 127.868 185.518 126.334 185.299C127.741 184.816 128.631 183.901 130.182 183.9ZM82.5982 145.287C81.8777 146.397 79.9196 147.539 77.4614 148.398C78.877 147.203 80.6825 146.385 82.5982 145.287ZM112.437 100.947C113.819 99.8243 115.692 99.3251 117.464 98.5788C116.252 99.8978 114.133 100.131 112.437 100.947ZM208.001 72.8877C206.645 73.8181 205.331 73.5022 203.737 73.7326C205.187 72.7435 206.424 72.7121 208.001 72.8877ZM320.457 62.561C321.661 62.2315 321.661 62.2315 323.322 62.505C322.271 63.2515 321.415 62.9836 320.457 62.561ZM256.732 62.2128C256.723 62.2771 256.74 62.3337 256.723 62.3696C255.054 62.5303 253.35 62.6704 251.68 62.8312C251.663 62.7746 251.671 62.7103 251.688 62.6744C253.358 62.5137 255.028 62.3529 256.732 62.2128ZM330.612 62.7895C331.849 62.2031 332.748 62.2424 333.96 62.8664C332.959 62.8575 331.951 62.8203 330.612 62.7895ZM128.89 93.8929C128.95 93.9985 128.983 94.1117 129.043 94.2173C128.161 94.5121 127.254 94.8145 126.381 95.1376C126.313 95.0037 126.262 94.8339 126.195 94.7C127.085 94.4335 127.975 94.167 128.89 93.8929ZM432.012 92.2575C430.809 92.402 430.563 91.9513 430.334 91.2797C431.843 90.9513 431.648 91.6881 432.012 92.2575ZM141.532 180.809C141.066 181.566 140.422 181.728 139.676 181.55C139.633 181.409 139.625 181.288 139.583 181.147C140.235 181.013 140.896 180.907 141.532 180.809ZM443.641 114.898C444.403 115.039 444.988 115.142 445.904 115.33C444.454 116.134 444.454 116.134 443.641 114.898ZM422.133 178.177C422.15 178.511 422.285 178.779 422.15 178.881C421.641 179.311 421.056 179.394 420.268 178.982C420.904 178.699 421.395 178.49 422.133 178.177ZM120.841 186.758C120.892 186.836 120.926 186.949 120.977 187.026C120.095 187.321 119.222 187.644 118.341 187.939C118.298 187.797 118.264 187.684 118.222 187.543C119.112 187.276 119.977 187.017 120.841 186.758ZM423.303 175.421C423.87 175.744 424.277 175.993 424.845 176.316C423.133 176.705 423.133 176.705 423.303 175.421ZM140.376 89.6827C141.58 89.2606 142.351 88.9679 143.156 88.696C143.19 88.8092 143.232 88.9507 143.292 89.0563C142.436 89.1584 141.919 90.0226 140.376 89.6827ZM426.935 90.5704C426.028 90.7803 425.511 90.9043 424.96 91.0076C424.918 90.866 424.884 90.7528 424.841 90.6113C425.291 90.0759 425.876 90.0858 426.935 90.5704ZM108.784 103.553C107.911 104.431 107.911 104.431 106.605 104.328C107.275 104.066 107.902 103.847 108.784 103.553ZM434.86 91.0346C434.03 90.8516 433.496 90.7339 432.936 90.6238C433.708 90.3312 434.394 90.1256 434.86 91.0346ZM132.209 175.12C132.302 174.969 132.361 174.797 132.488 174.759C132.844 174.652 133.243 174.595 133.955 174.474C133.421 175.281 133.005 175.56 132.209 175.12ZM147.449 179.655C147.381 179.521 147.322 179.415 147.279 179.274C147.856 179.07 148.407 178.874 148.983 178.671C149.059 178.833 149.127 178.967 149.229 179.122C148.627 179.333 148.034 179.48 147.449 179.655ZM142.685 180.865C142.634 180.788 142.617 180.731 142.566 180.654C143.287 180.377 144.024 180.063 144.745 179.786C144.762 179.935 144.804 180.076 144.821 180.226C144.109 180.439 143.397 180.652 142.685 180.865ZM50.7005 168.686C50.5649 168.603 50.4293 168.52 50.3106 168.402C50.6836 168.074 51.082 167.739 51.455 167.411C51.6245 167.515 51.7771 167.654 51.9466 167.757C51.5397 168.064 51.1328 168.371 50.7005 168.686ZM134.989 175.614C135.04 175.691 135.09 175.768 135.141 175.846C134.573 176.077 134.005 176.309 133.438 176.541C133.37 176.407 133.327 176.265 133.26 176.132C133.853 175.985 134.429 175.781 134.989 175.614ZM88.5372 198.528C88.622 199.366 88.232 199.545 87.2742 199.307C87.6302 199.108 87.9778 198.881 88.5372 198.528ZM109.386 103.156C109.826 102.87 109.911 102.783 110.013 102.753C110.233 102.656 110.471 102.523 110.733 102.475C110.886 102.43 111.089 102.461 111.276 102.436C111.31 102.549 111.344 102.663 111.378 102.776C110.852 102.872 110.335 102.996 109.386 103.156ZM421.265 76.632C421.231 76.7038 421.18 76.8116 421.146 76.8834C420.799 76.8333 420.443 76.7548 420.095 76.7047C420.146 76.5969 420.197 76.4892 420.248 76.3814C420.579 76.4675 420.909 76.5535 421.265 76.632ZM96.4468 176.823C97.2945 176.045 97.7946 176.419 98.3032 176.73C97.7861 176.761 97.269 176.793 96.4468 176.823ZM132.861 183.313C132.912 183.113 133.157 182.916 133.403 182.812C133.53 182.774 133.785 182.975 133.997 183.035C133.827 183.209 133.691 183.404 133.183 184.019C132.996 183.674 132.801 183.485 132.861 183.313ZM109.779 188.22C109.839 188.326 109.898 188.431 109.957 188.537C109.457 188.717 108.957 188.898 108.466 189.107C108.398 188.973 108.313 188.875 108.245 188.741C108.745 188.561 109.271 188.372 109.779 188.22ZM182.657 75.9739C182.682 76.0588 182.733 76.1361 182.758 76.221C182.284 76.394 181.775 76.5463 181.3 76.7193C181.232 76.5854 181.19 76.4439 181.122 76.31C181.639 76.186 182.131 76.0696 182.657 75.9739ZM212.756 68.2255C212.765 68.2538 212.773 68.2821 212.79 68.3387C212.528 68.3866 212.273 68.4627 212.036 68.5029C211.748 68.5584 211.468 68.5496 211.171 68.5768C211.163 68.4559 211.163 68.3634 211.154 68.2426C211.68 68.2394 212.231 68.2287 212.756 68.2255ZM439.013 112.49C439.047 112.418 439.106 112.339 439.14 112.267C439.436 112.332 439.733 112.398 439.996 112.442C439.92 112.558 439.869 112.665 439.792 112.781C439.538 112.672 439.267 112.599 439.013 112.49ZM428.029 82.9336C427.995 83.0055 427.961 83.0773 427.919 83.1208C427.588 83.0348 427.258 82.9487 426.91 82.8986C427.012 82.7756 427.113 82.6526 427.19 82.5373C427.478 82.6668 427.741 82.8041 428.029 82.9336ZM455.515 139.469C455.54 139.369 455.549 139.304 455.574 139.204C455.888 139.234 456.193 139.235 456.506 139.264C456.481 139.364 456.472 139.429 456.447 139.529C456.142 139.528 455.828 139.498 455.515 139.469ZM244.949 69.596C244.941 69.6602 244.958 69.7168 244.949 69.781C244.441 69.8408 243.924 69.8722 243.415 69.932C243.398 69.8754 243.407 69.8112 243.415 69.7469C243.924 69.6872 244.432 69.6274 244.949 69.596ZM443.141 113.32C443.174 113.341 443.03 113.507 442.954 113.623C442.818 113.54 442.666 113.493 442.547 113.375C442.513 113.354 442.615 113.231 442.691 113.115C442.852 113.191 443.03 113.23 443.141 113.32ZM93.5298 197.989C93.5807 198.067 93.6315 198.144 93.6739 198.193C93.3518 198.32 93.0297 198.448 92.7076 198.575C92.6567 198.498 92.6059 198.42 92.5635 198.371C92.9111 198.236 93.2331 198.109 93.5298 197.989Z" fill="white"/>
</svg>
