<svg width="77" height="71" viewBox="0 0 77 71" fill="none" xmlns="http://www.w3.org/2000/svg">
<path d="M60.5827 62.077C60.1867 61.67 59.608 61.3883 58.9684 61.3883C58.3287 61.3883 57.7805 61.6387 57.354 62.0457C56.9581 62.4528 56.6839 63.0476 56.6839 63.7051C56.6839 64.3313 56.9276 64.9261 57.354 65.3644C57.7805 65.7715 58.3287 66.0532 58.9684 66.0532C59.608 66.0532 60.1562 65.8028 60.5827 65.3644C60.9786 64.9574 61.2528 64.3626 61.2528 63.7051C61.2528 63.0789 61.0091 62.5154 60.5827 62.077ZM23.6361 17.838L29.9106 39.5349L66.7354 33.7741L71.3651 17.838H23.6361ZM67.04 50.4303C68.3801 50.4303 69.4462 51.5261 69.4462 52.9036C69.4462 54.2812 68.3801 55.377 67.04 55.377H29.0273C25.555 55.377 23.0878 53.8116 21.7476 51.6826C21.108 50.6494 20.712 49.4597 20.6206 48.27C20.5293 47.0802 20.712 45.8592 21.1994 44.7321C21.8999 43.0727 23.2401 41.5699 25.2199 40.662L18.0926 16.0847V16.0221L15.9604 8.6646C14.8335 4.75102 11.2089 4.84495 5.96994 4.97018C4.66021 5.00149 3.28956 5.0328 2.40625 5.0328C1.06606 5.0328 0 3.937 0 2.55942C0 1.18185 1.06606 0.0860451 2.40625 0.0860451C3.99011 0.0860451 4.93434 0.0547365 5.8481 0.0547365C13.2496 -0.133115 18.3667 -0.258349 20.5597 7.25571L22.2045 12.8913H74.5938C75.9339 12.8913 77 13.9871 77 15.3646C77 15.6464 76.9391 15.9595 76.8477 16.21L70.9082 36.6858C70.6341 37.625 69.8422 38.2825 68.9589 38.4078L28.5704 44.7634H28.4486C26.9256 45.0452 26.0119 45.8279 25.6159 46.7045C25.4636 47.0802 25.4027 47.4872 25.4331 47.8943C25.4636 48.3013 25.5854 48.677 25.7987 49.0214C26.3165 49.8354 27.3825 50.4616 29.0273 50.4616H67.04V50.4303ZM35.6673 62.077C35.2714 61.67 34.6926 61.3883 34.053 61.3883C33.4134 61.3883 32.8651 61.6387 32.4387 62.0457C32.0427 62.4528 31.7686 63.0476 31.7686 63.7051C31.7686 64.3313 32.0123 64.9261 32.4387 65.3644C32.8651 65.7715 33.4134 66.0532 34.053 66.0532C34.6926 66.0532 35.2409 65.8028 35.6673 65.3644C36.0633 64.9574 36.3374 64.3626 36.3374 63.7051C36.307 63.0789 36.0633 62.5154 35.6673 62.077ZM34.053 56.4415C36.0024 56.4415 37.769 57.2555 39.0787 58.5705C40.358 59.8854 41.1499 61.7013 41.1499 63.7364C41.1499 65.7402 40.358 67.5561 39.0787 68.871C37.7994 70.186 36.0328 71 34.0835 71C32.1341 71 30.337 70.186 29.0578 68.871C27.7785 67.5561 26.9866 65.7402 26.9866 63.7051C26.9866 61.7013 27.7785 59.8854 29.0578 58.5705C30.337 57.2555 32.1036 56.4415 34.053 56.4415ZM58.9684 56.4415C60.9177 56.4415 62.6843 57.2555 63.9941 58.5705C65.2733 59.8854 66.0653 61.7013 66.0653 63.7364C66.0653 65.7402 65.2733 67.5561 63.9941 68.871C62.7148 70.186 60.9482 71 58.9988 71C57.0494 71 55.2524 70.186 53.9731 68.871C52.6938 67.5561 51.9019 65.7402 51.9019 63.7051C51.9019 61.7013 52.6938 59.8854 53.9731 58.5705C55.2524 57.2555 57.0494 56.4415 58.9684 56.4415Z" fill="white"/>
</svg>
